<svg width="100" height="100" viewBox="0 0 100 100" fill="none" xmlns="http://www.w3.org/2000/svg">
<rect width="100" height="100" rx="50" fill="#B0DFD3"/>
<path fill-rule="evenodd" clip-rule="evenodd" d="M43.4839 31.434C46.3611 26.3853 53.639 26.3853 56.5162 31.434L73.5286 61.2864C76.378 66.2863 72.7673 72.4999 67.0125 72.4999H32.9876C27.2328 72.4999 23.6221 66.2863 26.4715 61.2864L43.4839 31.434ZM49.9999 54.9998C51.3806 54.9998 52.4999 53.8806 52.4999 52.4998V39.9999C52.4999 38.6192 51.3806 37.4999 49.9999 37.4999C48.6192 37.4999 47.4999 38.6192 47.4999 39.9999V52.4998C47.4999 53.8806 48.6192 54.9998 49.9999 54.9998ZM49.9999 64.9999C51.3806 64.9999 52.4999 63.8806 52.4999 62.4999C52.4999 61.1191 51.3806 59.9999 49.9999 59.9999C48.6192 59.9999 47.4999 61.1191 47.4999 62.4999C47.4999 63.8806 48.6192 64.9999 49.9999 64.9999Z" fill="#223F3B"/>
</svg>
