<svg width="16" height="16" viewBox="0 0 16 16" fill="none" xmlns="http://www.w3.org/2000/svg">
  <path
    d="M8.66664 3.33332C8.66664 2.96513 8.36816 2.66666 7.99997 2.66666C7.63178 2.66666 7.33331 2.96513 7.33331 3.33332V7.33332H3.33331C2.96512 7.33332 2.66664 7.6318 2.66664 7.99999C2.66664 8.36818 2.96512 8.66666 3.33331 8.66666H7.33331V12.6667C7.33331 13.0348 7.63178 13.3333 7.99997 13.3333C8.36816 13.3333 8.66664 13.0348 8.66664 12.6667V8.66666H12.6666C13.0348 8.66666 13.3333 8.36818 13.3333 7.99999C13.3333 7.6318 13.0348 7.33332 12.6666 7.33332H8.66664V3.33332Z"
    fill="#0F2423" />
</svg>