<svg width="62" height="62" viewBox="0 0 62 62" fill="none" xmlns="http://www.w3.org/2000/svg">
  <rect x="0.5" y="0.75" width="61" height="61" rx="30.5" fill="#F7F7F7" />
  <path
    d="M42.3255 40.3869C42.3545 40.5852 42.3777 40.7843 42.3952 40.9839C42.396 40.9922 42.4375 42.0313 42.4375 42.0373C42.4375 42.0373 42.4268 42.5241 42.4207 42.6404C42.3874 43.2862 42.2519 43.8868 41.7806 44.3872C41.1799 45.0247 40.4503 45.2858 39.5947 45.2853C36.7298 45.2839 33.865 45.2836 31 45.2835C28.1351 45.2836 25.2702 45.2839 22.4053 45.2853C21.5497 45.2857 20.8201 45.0247 20.2194 44.3872C19.7481 43.8868 19.6126 43.2862 19.5793 42.6404C19.5732 42.5241 19.5625 42.0373 19.5625 42.0373C19.5625 42.0313 19.6041 40.9923 19.6048 40.984C19.6223 40.7843 19.6455 40.5852 19.6746 40.3868C19.6746 40.3868 19.7904 39.7433 19.8128 39.645C20.0706 38.514 20.7733 37.6847 21.7226 37.0414C21.9002 36.9211 22.0844 36.8168 22.271 36.7187C22.5169 36.5895 25.2345 35.5412 26.3304 35.3377C27.4264 35.1342 29.1282 35.0078 30.9287 35.0039L31.0267 35.0037C32.8219 34.9997 33.8583 34.9974 35.6696 35.3377C37.5136 35.6841 39.4831 36.5894 39.729 36.7187C39.9156 36.8168 40.0999 36.9211 40.2774 37.0414C41.2267 37.6847 41.9294 38.5141 42.1872 39.645C42.2095 39.7432 42.3255 40.3869 42.3255 40.3869Z"
    fill="#295C54" />
  <path
    d="M24.2588 29.3029C24.3478 29.6243 24.4047 29.9268 24.4025 30.214C24.4021 30.3084 24.3944 30.4028 24.3796 30.4961C24.2992 30.7678 23.7265 31.6838 23.6351 31.8377C24.6442 32.9256 25.9805 33.1779 27.2985 33.4556L27.4208 33.4785C27.557 33.5033 27.6941 33.5287 27.8321 33.555L27.1265 35.6755C27.1265 35.6755 28.2302 38.5317 30.9914 40.2697H31.0086C33.7698 38.5315 34.5443 35.5602 34.5443 35.5602L33.8747 33.6029C34.0127 33.5766 34.1498 33.5511 34.286 33.5264C34.4667 33.4921 34.6224 33.4641 34.7015 33.4558C36.0196 33.178 37.3559 32.9257 38.365 31.8379C38.2736 31.6839 37.7008 30.7679 37.6204 30.4961C37.6056 30.4028 37.5979 30.3085 37.5975 30.214C37.5953 29.9269 37.6522 29.6244 37.7412 29.3029C37.8258 28.9974 37.9232 28.6933 38.016 28.3877C38.4621 27.3936 38.7106 26.2899 38.7106 25.1276C38.7106 20.8057 35.2754 17.2938 31.0086 17.2152C31.0057 17.2152 31.0028 17.2148 30.9999 17.2148C30.997 17.2148 30.9942 17.2147 30.9913 17.2146C26.7245 17.2932 23.2894 20.8056 23.2894 25.1276C23.2894 26.2898 23.5378 27.3935 23.9839 28.3877C24.0768 28.6932 24.1743 28.9972 24.2588 29.3029Z"
    fill="#295C54" />
</svg>