<svg width="62" height="62" viewBox="0 0 62 62" fill="none" xmlns="http://www.w3.org/2000/svg">
  <rect x="0.5" y="0.75" width="61" height="61" rx="30.5" fill="#F7F7F7" />
  <path
    d="M36.6892 22.8305C36.6892 23.1475 36.6163 24.5246 36.6163 24.9036C36.7511 24.9108 37.9971 24.6121 37.8622 26.1059C37.5781 29.2683 36.3721 28.6562 36.3357 28.6562C35.7381 30.5763 34.8091 31.7968 33.902 32.5692L33.4812 32.937L34.244 35.1163C34.8035 35.1651 34.9663 35.2056 35.6696 35.3377C37.5136 35.6842 39.4831 36.5895 39.729 36.7188C39.9156 36.8168 40.0999 36.9212 40.2774 37.0415C41.2267 37.6848 41.9294 38.5141 42.1872 39.6451C42.2095 39.7432 42.3255 40.3869 42.3255 40.3869C42.3545 40.5852 42.3777 40.7843 42.3952 40.984C42.396 40.9923 42.4375 42.0313 42.4375 42.0373C42.4375 42.0373 42.4268 42.5242 42.4207 42.6404C42.3874 43.2863 42.2519 43.8868 41.7806 44.3873C41.1799 45.0248 40.4503 45.2858 39.5947 45.2853C36.7298 45.284 33.865 45.2836 31 45.2835C28.1351 45.2836 25.2702 45.284 22.4053 45.2853C21.5497 45.2857 20.8201 45.0248 20.2194 44.3873C19.7481 43.8868 19.6126 43.2862 19.5793 42.6404C19.5732 42.5242 19.5625 42.0373 19.5625 42.0373C19.5625 42.0313 19.6041 40.9923 19.6048 40.984C19.6223 40.7843 19.6455 40.5852 19.6746 40.3868C19.6746 40.3868 19.7904 39.7434 19.8128 39.645C20.0706 38.514 20.7733 37.6847 21.7226 37.0415C21.9002 36.9211 22.0844 36.8168 22.271 36.7187C22.5169 36.5895 25.2411 35.5741 26.3304 35.3377C26.8641 35.2219 26.8763 35.1855 27.6619 35.128L28.5801 32.9991L28.0835 32.5546C27.18 31.7785 26.2582 30.5617 25.6644 28.6562C25.6279 28.6562 24.422 29.2683 24.1378 26.1059C24.003 24.6157 25.249 24.9145 25.3838 24.9072C25.3838 24.5246 25.311 23.1511 25.311 22.8341C25.311 19.7628 27.803 17.2708 30.8743 17.2708H31.1294C34.2007 17.2708 36.6928 19.7592 36.6892 22.8305Z"
    fill="#295C54" />
</svg>