<svg width="62" height="62" viewBox="0 0 62 62" fill="none" xmlns="http://www.w3.org/2000/svg">
  <rect x="0.5" y="0.75" width="61" height="61" rx="30.5" fill="#F7F7F7" />
  <path
    d="M19.5625 38.8751V41.4167C19.5625 42.8205 20.7004 43.9584 22.1042 43.9584H39.8958C41.2996 43.9584 42.4375 42.8205 42.4375 41.4167V38.8751C42.4375 35.3658 39.5926 32.5209 36.0833 32.5209H25.9167C22.4074 32.5209 19.5625 35.3658 19.5625 38.8751Z"
    fill="#295C54" />
  <path
    d="M36.7187 24.2605C36.7187 27.4189 34.1584 29.9792 31 29.9792C27.8416 29.9792 25.2812 27.4189 25.2812 24.2605C25.2812 21.1021 27.8416 18.5417 31 18.5417C34.1584 18.5417 36.7187 21.1021 36.7187 24.2605Z"
    fill="#295C54" />
</svg>