<svg width="51" height="18" viewBox="0 0 51 18" fill="none" xmlns="http://www.w3.org/2000/svg">
  <path
    d="M6.95299 13.3889C6.85966 13.3889 6.78032 13.3609 6.71499 13.3049C6.65899 13.2396 6.63099 13.1602 6.63099 13.0669V8.88092C6.63099 8.13425 6.44432 7.55558 6.07099 7.14492C5.69766 6.72492 5.09566 6.51492 4.26499 6.51492H1.63299C1.53966 6.51492 1.46032 6.48692 1.39499 6.43092C1.33899 6.36558 1.31099 6.28625 1.31099 6.19292V5.71692C1.31099 5.62358 1.33899 5.54892 1.39499 5.49292C1.46032 5.42758 1.53966 5.39492 1.63299 5.39492H4.33499C5.54832 5.39492 6.44432 5.68892 7.02299 6.27692C7.61099 6.86492 7.90499 7.71892 7.90499 8.83892V13.0669C7.90499 13.1602 7.87232 13.2396 7.80699 13.3049C7.75099 13.3609 7.67632 13.3889 7.58299 13.3889H6.95299ZM1.63299 13.3889C1.53966 13.3889 1.46032 13.3609 1.39499 13.3049C1.33899 13.2396 1.31099 13.1602 1.31099 13.0669V8.39092C1.31099 8.29758 1.33899 8.22292 1.39499 8.16692C1.46032 8.10158 1.53966 8.06892 1.63299 8.06892H2.27699C2.37032 8.06892 2.44499 8.10158 2.50099 8.16692C2.55699 8.22292 2.58499 8.29758 2.58499 8.39092V13.0669C2.58499 13.1602 2.55699 13.2396 2.50099 13.3049C2.44499 13.3609 2.37032 13.3889 2.27699 13.3889H1.63299ZM13.9065 13.3889C13.8132 13.3889 13.7338 13.3609 13.6685 13.3049C13.6125 13.2396 13.5845 13.1602 13.5845 13.0669V8.88092C13.5845 8.13425 13.3978 7.55558 13.0245 7.14492C12.6512 6.72492 12.0492 6.51492 11.2185 6.51492H9.3845C9.29117 6.51492 9.21184 6.48692 9.1465 6.43092C9.0905 6.36558 9.0625 6.28625 9.0625 6.19292V5.71692C9.0625 5.62358 9.0905 5.54892 9.1465 5.49292C9.21184 5.42758 9.29117 5.39492 9.3845 5.39492H11.2885C12.0912 5.39492 12.7538 5.52092 13.2765 5.77292C13.8085 6.02492 14.2052 6.40758 14.4665 6.92092C14.7278 7.42492 14.8585 8.05492 14.8585 8.81092V13.0669C14.8585 13.1602 14.8258 13.2396 14.7605 13.3049C14.7045 13.3609 14.6298 13.3889 14.5365 13.3889H13.9065ZM17.5126 13.3889C17.3073 13.3889 17.2046 13.2862 17.2046 13.0809V8.08292C17.2046 7.53225 17.2699 7.10292 17.4006 6.79492C17.5313 6.48692 17.6899 6.33292 17.8766 6.33292H19.2626C19.0293 6.33292 18.8379 6.51025 18.6886 6.86492C18.5486 7.21958 18.4786 7.65825 18.4786 8.18092V13.0809C18.4786 13.1742 18.4459 13.2489 18.3806 13.3049C18.3153 13.3609 18.2359 13.3889 18.1426 13.3889H17.5126ZM16.3366 6.51492C16.2433 6.51492 16.1639 6.48692 16.0986 6.43092C16.0426 6.36558 16.0146 6.28625 16.0146 6.19292V5.71692C16.0146 5.62358 16.0426 5.54892 16.0986 5.49292C16.1639 5.42758 16.2433 5.39492 16.3366 5.39492H19.7246C19.8273 5.39492 19.9066 5.42758 19.9626 5.49292C20.0186 5.54892 20.0466 5.62358 20.0466 5.71692V6.19292C20.0466 6.28625 20.0186 6.36558 19.9626 6.43092C19.9066 6.48692 19.8273 6.51492 19.7246 6.51492H16.3366ZM21.916 13.3889C21.8227 13.3889 21.7434 13.3609 21.678 13.3049C21.622 13.2396 21.594 13.1602 21.594 13.0669V5.71692C21.594 5.62358 21.622 5.54892 21.678 5.49292C21.7434 5.42758 21.8227 5.39492 21.916 5.39492H24.646C25.4487 5.39492 26.1114 5.52558 26.634 5.78692C27.166 6.03892 27.5627 6.42158 27.824 6.93492C28.0854 7.43892 28.216 8.07358 28.216 8.83892V13.0669C28.216 13.1602 28.1834 13.2396 28.118 13.3049C28.062 13.3609 27.9874 13.3889 27.894 13.3889H27.264C27.1614 13.3889 27.082 13.3609 27.026 13.3049C26.97 13.2396 26.942 13.1602 26.942 13.0669V8.88092C26.942 8.13425 26.7554 7.55558 26.382 7.14492C26.0087 6.72492 25.4067 6.51492 24.576 6.51492H22.868V13.0669C22.868 13.1602 22.84 13.2396 22.784 13.3049C22.728 13.3609 22.6534 13.3889 22.56 13.3889H21.916Z"
    fill="#222222" />
  <path fill-rule="evenodd" d=" M39.1798 14.2274C38.8906 13.9381 38.8906 13.4691 39.1798 13.1798L43.4709 8.88881L39.1798 4.59778C38.8906 4.3085
    38.8906 3.83949 39.1798 3.55021C39.4691 3.26093 39.9381 3.26093 40.2274 3.55021L44.5184 7.84124C45.097 8.4198 45.097
    9.35782 44.5184 9.93637L40.2274 14.2274C39.9381 14.5167 39.4691 14.5167 39.1798 14.2274Z" fill="#222222" />
</svg>