<svg width="18" height="18" viewBox="0 0 18 18" fill="none" xmlns="http://www.w3.org/2000/svg">
<path fill-rule="evenodd" clip-rule="evenodd" d="M0.94104 12.8854C0.941042 12.5681 1.06996 12.2643 1.29824 12.0438L2.1557 11.2156C2.48211 10.9004 2.66585 10.4656 2.66449 10.0118L2.6566 7.38433C2.64557 3.70816 5.62261 0.722168 9.2988 0.722168C12.9672 0.722168 15.941 3.69599 15.941 7.36439L15.941 10.0318C15.941 10.4738 16.1166 10.8978 16.4292 11.2103L17.2625 12.0437C17.4835 12.2647 17.6077 12.5644 17.6077 12.877C17.6077 13.5279 17.0801 14.0555 16.4292 14.0555H12.6077C12.6077 15.8965 11.1153 17.3888 9.27437 17.3888C7.43342 17.3888 5.94104 15.8965 5.94104 14.0555H2.11111C1.4649 14.0555 0.94104 13.5316 0.94104 12.8854ZM7.60771 14.0555C7.60771 14.976 8.3539 15.7222 9.27437 15.7222C10.1948 15.7222 10.941 14.976 10.941 14.0555H7.60771ZM14.2744 10.0318C14.2744 10.9159 14.6256 11.7637 15.2507 12.3888L3.33979 12.3888C3.97622 11.7605 4.33384 10.9022 4.33115 10.0068L4.32326 7.37933C4.31499 4.62558 6.54504 2.38883 9.2988 2.38883C12.0467 2.38883 14.2744 4.61647 14.2744 7.36439L14.2744 10.0318Z" fill="#2F1B61"/>
</svg>
