<svg width="30" height="30" viewBox="0 0 30 30" fill="none" xmlns="http://www.w3.org/2000/svg">
<path d="M15.0004 17.6506C13.9553 17.6516 12.9263 17.3935 12.0054 16.8994C11.3509 16.5484 10.7655 16.0859 10.2743 15.535C9.94202 15.1623 10.0599 14.5959 10.4758 14.3195C10.8924 14.0427 11.4491 14.1646 11.803 14.5181C12.1142 14.8291 12.4704 15.0942 12.861 15.3039C13.5188 15.657 14.2538 15.8417 15.0004 15.8417C15.747 15.8417 16.482 15.657 17.1398 15.3039C17.5304 15.0942 17.8865 14.8291 18.1978 14.5181C18.5516 14.1646 19.1083 14.0427 19.5249 14.3195C19.9409 14.5959 20.0587 15.1623 19.7264 15.535C19.2353 16.0859 18.6499 16.5484 17.9954 16.8994C17.0745 17.3935 16.0455 17.6516 15.0004 17.6506ZM18.6194 7.69848C18.2615 7.69848 17.9116 7.8046 17.6141 8.00343C17.3165 8.20226 17.0846 8.48486 16.9476 8.8155C16.8107 9.14614 16.7748 9.50997 16.8446 9.86097C16.9145 10.212 17.0868 10.5344 17.3399 10.7875C17.5929 11.0405 17.9153 11.2129 18.2663 11.2827C18.6173 11.3525 18.9812 11.3167 19.3118 11.1797C19.6425 11.0428 19.9251 10.8108 20.1239 10.5133C20.3227 10.2157 20.4288 9.86584 20.4288 9.50796C20.4313 9.26966 20.3861 9.03328 20.296 8.81265C20.2059 8.59202 20.0728 8.39158 19.9042 8.22307C19.7357 8.05456 19.5353 7.92136 19.3147 7.83129C19.094 7.74121 18.8577 7.69606 18.6194 7.69848ZM11.3814 7.69848C11.0235 7.69848 10.6737 7.8046 10.3761 8.00343C10.0785 8.20226 9.84662 8.48486 9.70966 8.8155C9.57271 9.14614 9.53688 9.50997 9.60669 9.86097C9.67651 10.212 9.84885 10.5344 10.1019 10.7875C10.355 11.0405 10.6774 11.2129 11.0284 11.2827C11.3794 11.3525 11.7432 11.3167 12.0739 11.1797C12.4045 11.0428 12.6871 10.8108 12.8859 10.5133C13.0848 10.2157 13.1909 9.86584 13.1909 9.50796C13.1933 9.26966 13.1482 9.03328 13.0581 8.81265C12.968 8.59202 12.8348 8.39158 12.6663 8.22307C12.4978 8.05456 12.2974 7.92136 12.0767 7.83129C11.8561 7.74121 11.6197 7.69606 11.3814 7.69848Z" fill="white"/>
<path d="M17.0223 26.8133C16.7733 27.2489 16.2178 27.3993 15.783 27.1489C15.3503 26.8997 15.2008 26.3474 15.4485 25.9139L17.3169 22.6442C18.1223 21.2347 19.6212 20.3649 21.2446 20.3649H24.0478C24.2855 20.3652 24.521 20.3187 24.7407 20.2279C24.9604 20.1371 25.16 20.0038 25.3281 19.8357C25.4962 19.6676 25.6295 19.468 25.7203 19.2483C25.8111 19.0286 25.8577 18.7931 25.8573 18.5554V5.88899C25.8577 5.65127 25.8111 5.41581 25.7203 5.19611C25.6295 4.97641 25.4962 4.77679 25.3281 4.60869C25.16 4.4406 24.9604 4.30732 24.7407 4.21652C24.521 4.12571 24.2855 4.07915 24.0478 4.07951H5.95296C5.71523 4.07915 5.47977 4.12571 5.26007 4.21652C5.04037 4.30732 4.84076 4.4406 4.67266 4.60869C4.50456 4.77679 4.37129 4.97641 4.28048 5.19611C4.18967 5.41581 4.14311 5.65127 4.14347 5.88899V18.5554C4.14311 18.7931 4.18967 19.0286 4.28048 19.2483C4.37129 19.468 4.50456 19.6676 4.67266 19.8357C4.84076 20.0038 5.04037 20.1371 5.26007 20.2279C5.47977 20.3187 5.71523 20.3652 5.95296 20.3649H13.1909C13.6906 20.3649 14.0956 20.7699 14.0956 21.2696C14.0956 21.7693 13.6906 22.1744 13.1909 22.1744H5.95296C4.99314 22.1744 4.07265 21.7931 3.39396 21.1144C2.71527 20.4357 2.33398 19.5152 2.33398 18.5554V5.88899C2.33398 4.92918 2.71527 4.00868 3.39396 3.32999C4.07265 2.6513 4.99314 2.27002 5.95296 2.27002H24.0478C25.0076 2.27002 25.9281 2.6513 26.6068 3.32999C27.2855 4.00868 27.6668 4.92918 27.6668 5.88899V18.5554C27.6668 19.5152 27.2855 20.4357 26.6068 21.1144C25.9281 21.7931 25.0076 22.1744 24.0478 22.1744H21.9643C20.5477 22.1744 19.2396 22.9334 18.5366 24.1634L17.0223 26.8133Z" fill="white"/>
</svg>
