<svg width="54" height="54" viewBox="0 0 54 54" fill="none" xmlns="http://www.w3.org/2000/svg">
  <rect width="54" height="54" rx="27" fill="#57AA9A" />
  <path
    d="M27 29.6508C25.9549 29.6517 24.9259 29.3936 24.005 28.8996C23.3505 28.5485 22.7651 28.086 22.274 27.5351C21.9417 27.1624 22.0595 26.596 22.4755 26.3196C22.8921 26.0428 23.4488 26.1647 23.8026 26.5182C24.1139 26.8293 24.47 27.0944 24.8606 27.304C25.5184 27.6571 26.2534 27.8419 27 27.8419C27.7466 27.8419 28.4816 27.6571 29.1394 27.304C29.53 27.0944 29.8862 26.8293 30.1974 26.5182C30.5513 26.1647 31.108 26.0428 31.5246 26.3196C31.9405 26.596 32.0584 27.1624 31.7261 27.5351C31.2349 28.086 30.6495 28.5485 29.995 28.8996C29.0741 29.3936 28.0451 29.6517 27 29.6508ZM30.619 19.6986C30.2611 19.6986 29.9113 19.8047 29.6137 20.0036C29.3161 20.2024 29.0842 20.485 28.9472 20.8156C28.8103 21.1463 28.7745 21.5101 28.8443 21.8611C28.9141 22.2121 29.0864 22.5345 29.3395 22.7876C29.5925 23.0406 29.915 23.213 30.266 23.2828C30.617 23.3526 30.9808 23.3168 31.3114 23.1798C31.6421 23.0429 31.9247 22.8109 32.1235 22.5134C32.3223 22.2158 32.4285 21.866 32.4285 21.5081C32.4309 21.2698 32.3857 21.0334 32.2957 20.8128C32.2056 20.5921 32.0724 20.3917 31.9039 20.2232C31.7354 20.0547 31.5349 19.9215 31.3143 19.8314C31.0937 19.7413 30.8573 19.6962 30.619 19.6986ZM23.381 19.6986C23.0232 19.6986 22.6733 19.8047 22.3757 20.0036C22.0782 20.2024 21.8463 20.485 21.7093 20.8156C21.5723 21.1463 21.5365 21.5101 21.6063 21.8611C21.6761 22.2121 21.8485 22.5345 22.1015 22.7876C22.3546 23.0406 22.677 23.213 23.028 23.2828C23.379 23.3526 23.7429 23.3168 24.0735 23.1798C24.4041 23.0429 24.6867 22.8109 24.8856 22.5134C25.0844 22.2158 25.1905 21.866 25.1905 21.5081C25.193 21.2698 25.1478 21.0334 25.0577 20.8128C24.9676 20.5921 24.8344 20.3917 24.6659 20.2232C24.4974 20.0547 24.297 19.9215 24.0764 19.8314C23.8557 19.7413 23.6193 19.6962 23.381 19.6986Z"
    fill="white" />
  <path
    d="M29.0219 38.8134C28.7729 39.249 28.2174 39.3995 27.7826 39.149C27.35 38.8998 27.2004 38.3475 27.4481 37.914L29.3165 34.6443C30.1219 33.2348 31.6208 32.365 33.2442 32.365H36.0474C36.2852 32.3654 36.5206 32.3188 36.7403 32.228C36.96 32.1372 37.1596 32.0039 37.3277 31.8358C37.4958 31.6677 37.6291 31.4681 37.7199 31.2484C37.8107 31.0287 37.8573 30.7932 37.8569 30.5555V17.8891C37.8573 17.6514 37.8107 17.4159 37.7199 17.1962C37.6291 16.9765 37.4958 16.7769 37.3277 16.6088C37.1596 16.4407 36.96 16.3074 36.7403 16.2166C36.5206 16.1258 36.2852 16.0793 36.0474 16.0796H17.9526C17.7149 16.0793 17.4794 16.1258 17.2597 16.2166C17.04 16.3074 16.8404 16.4407 16.6723 16.6088C16.5042 16.7769 16.3709 16.9765 16.2801 17.1962C16.1893 17.4159 16.1427 17.6514 16.1431 17.8891V30.5555C16.1427 30.7932 16.1893 31.0287 16.2801 31.2484C16.3709 31.4681 16.5042 31.6677 16.6723 31.8358C16.8404 32.0039 17.04 32.1372 17.2597 32.228C17.4794 32.3188 17.7149 32.3654 17.9526 32.365H25.1905C25.6902 32.365 26.0953 32.7701 26.0953 33.2697C26.0953 33.7694 25.6902 34.1745 25.1905 34.1745H17.9526C16.9928 34.1745 16.0723 33.7932 15.3936 33.1145C14.7149 32.4358 14.3336 31.5153 14.3336 30.5555V17.8891C14.3336 16.9293 14.7149 16.0088 15.3936 15.3301C16.0723 14.6514 16.9928 14.2701 17.9526 14.2701H36.0474C37.0073 14.2701 37.9278 14.6514 38.6064 15.3301C39.2851 16.0088 39.6664 16.9293 39.6664 17.8891V30.5555C39.6664 31.5153 39.2851 32.4358 38.6064 33.1145C37.9278 33.7932 37.0073 34.1745 36.0474 34.1745H33.964C32.5473 34.1745 31.2392 34.9335 30.5363 36.1635L29.0219 38.8134Z"
    fill="white" />
</svg>