<svg width="19" height="20" viewBox="0 0 19 20" fill="none" xmlns="http://www.w3.org/2000/svg">
<path d="M6.64668 0.400391C6.01016 0.400391 5.39971 0.653247 4.94962 1.10333C4.49954 1.55342 4.24668 2.16387 4.24668 2.80039V14.8004C4.24668 15.4369 4.49954 16.0474 4.94962 16.4974C5.39971 16.9475 6.01016 17.2004 6.64668 17.2004H13.8467C14.4832 17.2004 15.0936 16.9475 15.5437 16.4974C15.9938 16.0474 16.2467 15.4369 16.2467 14.8004V2.80039C16.2467 2.16387 15.9938 1.55342 15.5437 1.10333C15.0936 0.653247 14.4832 0.400391 13.8467 0.400391H6.64668ZM5.44668 2.80039C5.44668 2.48213 5.57311 2.17691 5.79815 1.95186C6.0232 1.72682 6.32842 1.60039 6.64668 1.60039H13.8467C14.1649 1.60039 14.4702 1.72682 14.6952 1.95186C14.9203 2.17691 15.0467 2.48213 15.0467 2.80039V14.8004C15.0467 15.1187 14.9203 15.4239 14.6952 15.6489C14.4702 15.874 14.1649 16.0004 13.8467 16.0004H6.64668C6.32842 16.0004 6.0232 15.874 5.79815 15.6489C5.57311 15.4239 5.44668 15.1187 5.44668 14.8004V2.80039ZM1.84668 5.20039C1.84669 4.77911 1.95759 4.36526 2.16823 4.00043C2.37888 3.63559 2.68184 3.33263 3.04668 3.12199V15.4004C3.04668 16.196 3.36275 16.9591 3.92536 17.5217C4.48797 18.0843 5.25103 18.4004 6.04668 18.4004H13.5251C13.3144 18.7652 13.0115 19.0682 12.6466 19.2788C12.2818 19.4895 11.868 19.6004 11.4467 19.6004H6.04668C4.93277 19.6004 3.86448 19.1579 3.07683 18.3702C2.28918 17.5826 1.84668 16.5143 1.84668 15.4004V5.20039Z" fill="white"/>
</svg>
