<svg width="30" height="30" viewBox="0 0 23 30" fill="none" xmlns="http://www.w3.org/2000/svg">
  <rect x="0.5" y="1" width="22" height="28" rx="3.07812" stroke="#D3CFDD" stroke-dasharray="3 3" />
  <g clip-path="url(#clip0_6226_19037)">
    <path
      d="M12.7891 10.166V4.6875H4.73242C4.19666 4.6875 3.76562 5.11853 3.76562 5.6543V24.3457C3.76562 24.8815 4.19666 25.3125 4.73242 25.3125H18.2676C18.8033 25.3125 19.2344 24.8815 19.2344 24.3457V11.1328H13.7559C13.2241 11.1328 12.7891 10.6978 12.7891 10.166ZM19.2344 9.59802V9.84375H14.0781V4.6875H14.3239C14.5817 4.6875 14.8274 4.78821 15.0087 4.96948L18.9524 8.91724C19.1337 9.09851 19.2344 9.34424 19.2344 9.59802Z"
      fill="#AAA2BE" />
  </g>
  <defs>
    <clipPath id="clip0_6226_19037">
      <rect width="15.4688" height="20.625" fill="white" transform="translate(3.76562 4.6875)" />
    </clipPath>
  </defs>
</svg>