<svg width="28" height="28" viewBox="0 0 28 28" fill="none" xmlns="http://www.w3.org/2000/svg">
  <path fill-rule="evenodd" clip-rule="evenodd"
    d="M15.6905 8.53842C16.4715 7.75737 17.7378 7.75737 18.5189 8.53842L19.4617 9.48123C20.2427 10.2623 20.2427 11.5286 19.4617 12.3097L12.5334 19.238C12.4403 19.3311 12.3218 19.3945 12.1927 19.4203L8.65716 20.1274C8.19068 20.2207 7.7794 19.8094 7.87269 19.343L8.5798 15.8074C8.60561 15.6784 8.66905 15.5598 8.76211 15.4668L15.6905 8.53842ZM17.5761 9.48123L18.5189 10.424C18.7792 10.6844 18.7792 11.1065 18.5189 11.3669L17.5761 12.3097L15.6904 10.424L16.6333 9.48123C16.8936 9.22088 17.3157 9.22088 17.5761 9.48123ZM14.7476 11.3669L9.84765 16.2668L9.37625 18.6239L11.7333 18.1525L16.6333 13.2525L14.7476 11.3669Z"
    fill="#0F2423" />
</svg>