<svg width="1126" height="669" viewBox="0 0 1126 669" fill="none" xmlns="http://www.w3.org/2000/svg">
  <path
    d="M660.952 316.625C660.952 262.69 617.229 218.968 563.295 218.968C509.361 218.968 465.639 262.69 465.639 316.625C465.639 370.559 509.361 414.281 563.295 414.281C617.229 414.281 660.952 370.559 660.952 316.625Z"
    fill="#EDF7F4" />
  <path
    d="M600.249 298.876C595.237 296.093 589.556 297.081 582.099 298.375C577.293 299.21 572.582 300.523 568.037 302.295L586.005 319.545C589.366 329.831 594.661 339.379 601.607 347.675C616.334 365.148 639.645 377.93 644.278 373.323C650.509 367.129 618.644 333.812 607.736 308.182C606.936 306.293 604.986 301.505 600.249 298.876Z"
    fill="white" />
  <path
    d="M641.322 374.758C641.187 374.758 641.049 374.755 640.908 374.749C632.517 374.379 613.768 362.857 601.238 347.991C594.271 339.683 588.958 330.119 585.583 319.815L567.7 302.648C567.641 302.591 567.597 302.52 567.572 302.442C567.548 302.364 567.543 302.281 567.559 302.2C567.575 302.12 567.611 302.045 567.664 301.982C567.717 301.919 567.785 301.871 567.861 301.841C572.437 300.059 577.178 298.737 582.016 297.894C589.451 296.604 595.324 295.586 600.486 298.45C605.264 301.101 607.274 305.839 608.133 307.862L608.188 307.992C613.064 319.445 622.139 332.439 630.147 343.903C641.434 360.062 648.172 370.145 644.626 373.67C643.898 374.392 642.788 374.758 641.322 374.758ZM568.931 302.476L586.347 319.193C586.404 319.248 586.448 319.316 586.472 319.392C589.806 329.621 595.072 339.116 601.984 347.36C614.357 362.04 632.761 373.413 640.949 373.773C642.342 373.836 643.342 373.566 643.936 372.977C647.08 369.852 638.467 357.518 629.345 344.461C621.31 332.958 612.203 319.921 607.288 308.373L607.233 308.242C606.413 306.312 604.495 301.791 600.011 299.303C595.15 296.605 589.708 297.549 582.181 298.856C577.661 299.643 573.224 300.855 568.931 302.476Z"
    fill="#656565" />
  <path
    d="M548.188 301.531C548.188 301.531 523.078 298.358 513.091 309.825C503.104 321.292 492.815 414.28 492.815 414.28H525.802L548.188 301.531Z"
    fill="white" />
  <path
    d="M601.611 298.952C595.408 293.731 579.531 298.561 579.531 298.561L587.539 328.61C587.539 328.61 589.468 338.938 598.32 347.903C607.172 356.868 620.063 364.473 620.063 364.473L634.75 346.065C634.75 346.065 607.815 304.172 601.611 298.952ZM586.145 232.827C586.145 232.827 599.796 239.583 589.355 266.392L576.416 234.416L586.145 232.827Z"
    fill="#656565" />
  <path
    d="M680.529 211.719H608.203C607.235 211.719 606.307 212.103 605.622 212.788C604.938 213.472 604.554 214.4 604.554 215.368V270.068C604.554 271.036 604.938 271.964 605.622 272.648C606.307 273.332 607.235 273.717 608.203 273.717H615.185L609.577 287.929C609.527 288.055 609.521 288.194 609.561 288.323C609.601 288.453 609.684 288.564 609.796 288.64C609.908 288.716 610.043 288.751 610.177 288.74C610.312 288.729 610.439 288.673 610.538 288.58L626.285 273.717H680.529C681.497 273.717 682.425 273.332 683.109 272.648C683.794 271.964 684.178 271.036 684.178 270.068V215.368C684.178 214.4 683.794 213.472 683.109 212.788C682.425 212.103 681.497 211.719 680.529 211.719Z"
    fill="white" />
  <path
    d="M610.132 289.236C609.914 289.235 609.701 289.168 609.522 289.044C609.315 288.909 609.162 288.705 609.089 288.469C609.016 288.233 609.027 287.979 609.121 287.75L614.466 274.205H608.203C607.106 274.204 606.054 273.768 605.279 272.992C604.503 272.217 604.067 271.165 604.065 270.068V215.368C604.067 214.271 604.503 213.219 605.279 212.444C606.054 211.668 607.106 211.232 608.203 211.231H680.529C681.626 211.232 682.678 211.668 683.453 212.444C684.229 213.219 684.665 214.271 684.666 215.368V270.068C684.665 271.165 684.229 272.216 683.453 272.992C682.678 273.768 681.626 274.204 680.529 274.205H626.477L610.871 288.935C610.672 289.126 610.408 289.234 610.132 289.236ZM608.203 212.207C607.365 212.208 606.562 212.541 605.969 213.134C605.376 213.726 605.043 214.53 605.042 215.368V270.068C605.043 270.906 605.376 271.71 605.969 272.302C606.562 272.895 607.365 273.228 608.203 273.229H615.186C615.265 273.229 615.344 273.248 615.414 273.285C615.485 273.322 615.545 273.376 615.59 273.442C615.635 273.508 615.663 273.584 615.671 273.663C615.68 273.742 615.669 273.823 615.64 273.897L610.032 288.109C610.023 288.131 610.023 288.156 610.03 288.179C610.037 288.201 610.051 288.221 610.071 288.235C610.091 288.248 610.115 288.255 610.139 288.253C610.163 288.251 610.186 288.241 610.203 288.225L625.95 273.362C626.041 273.276 626.161 273.229 626.286 273.229H680.529C681.367 273.228 682.171 272.894 682.763 272.302C683.356 271.709 683.689 270.906 683.69 270.068V215.368C683.689 214.53 683.356 213.727 682.763 213.134C682.171 212.542 681.367 212.208 680.529 212.207H608.203Z"
    fill="#656565" />
  <path
    d="M599.898 301.146C595.572 297.414 591.114 298.337 575.36 299.721C574.607 299.787 573.849 299.696 573.133 299.453C572.417 299.21 571.76 298.821 571.202 298.311C570.645 297.8 570.2 297.179 569.895 296.488C569.591 295.796 569.434 295.048 569.433 294.292V280.523H550.822V295.866C550.821 297.331 550.251 298.739 549.233 299.793C548.214 300.847 546.826 301.465 545.362 301.516C532.22 301.972 527.81 302.008 523.533 306.14C516.404 313.029 517.276 323.921 518.086 337.462C519.111 354.601 520.241 379.441 520.458 411.455L598.839 411.606C599.082 386.322 600.648 361.069 603.53 335.949C605.337 320.388 607.372 307.591 599.898 301.146Z"
    fill="white" />
  <path
    d="M598.839 412.094L520.458 411.942C520.329 411.942 520.205 411.891 520.114 411.8C520.022 411.71 519.971 411.586 519.97 411.457C519.795 385.768 518.997 360.882 517.598 337.49L517.53 336.36C516.731 323.108 516.1 312.64 523.194 305.788C527.485 301.642 532.051 301.485 544.254 301.064L545.345 301.027C546.685 300.985 547.956 300.423 548.887 299.459C549.819 298.495 550.338 297.206 550.333 295.865V280.522C550.333 280.393 550.385 280.269 550.476 280.177C550.568 280.085 550.692 280.034 550.822 280.034H569.434C569.563 280.034 569.687 280.085 569.779 280.177C569.87 280.269 569.922 280.393 569.922 280.522V294.292C569.922 294.98 570.065 295.66 570.343 296.29C570.62 296.92 571.025 297.485 571.533 297.95C572.04 298.415 572.639 298.769 573.29 298.99C573.942 299.211 574.632 299.294 575.318 299.234C577.058 299.081 578.661 298.934 580.141 298.798C592.162 297.692 596.212 297.32 600.217 300.775C607.444 307.007 606.072 318.589 604.338 333.253C604.231 334.159 604.123 335.076 604.015 336.003C601.146 361.108 599.582 386.344 599.327 411.61C599.326 411.739 599.274 411.862 599.182 411.952C599.091 412.043 598.967 412.094 598.839 412.094ZM520.943 410.967L598.356 411.116C598.625 385.977 600.189 360.869 603.044 335.892C603.152 334.964 603.26 334.047 603.367 333.14C605.068 318.763 606.411 307.407 599.578 301.515C595.887 298.332 591.942 298.695 580.229 299.771C578.748 299.907 577.144 300.055 575.402 300.208C574.581 300.28 573.755 300.18 572.975 299.916C572.195 299.651 571.479 299.227 570.872 298.671C570.264 298.115 569.779 297.438 569.448 296.685C569.116 295.931 568.944 295.116 568.944 294.293V281.011H551.31V295.866C551.315 297.46 550.698 298.994 549.591 300.14C548.483 301.286 546.972 301.955 545.378 302.004L544.288 302.041C532.024 302.464 527.893 302.606 523.872 306.491C517.101 313.032 517.72 323.301 518.505 336.302L518.573 337.433C519.964 360.694 520.762 385.432 520.943 410.967Z"
    fill="#656565" />
  <path
    d="M545.361 301.515C545.361 301.515 563.222 313.753 577.197 299.052C577.197 299.052 598.661 293.757 603.427 302.672C608.194 311.587 605.221 414.281 605.221 414.281H517.552C517.552 414.281 512.139 319.303 517.552 309.544C522.965 299.785 545.361 301.515 545.361 301.515Z"
    fill="#656565" />
  <path
    d="M542.899 301.128C542.899 301.128 517.563 298.147 509.955 315.913C502.347 333.679 498.048 374.061 498.048 374.061L527.845 380.048L542.899 301.128Z"
    fill="#656565" />
  <path
    d="M492.817 414.769C492.794 414.769 492.771 414.767 492.749 414.764C492.685 414.756 492.624 414.734 492.569 414.702C492.513 414.669 492.465 414.626 492.426 414.575C492.387 414.524 492.359 414.466 492.343 414.404C492.327 414.342 492.323 414.277 492.332 414.214L498.233 371.593C498.241 371.529 498.262 371.467 498.294 371.411C498.326 371.355 498.369 371.306 498.421 371.267C498.472 371.228 498.53 371.199 498.593 371.182C498.655 371.166 498.72 371.162 498.784 371.171C498.848 371.18 498.91 371.201 498.966 371.234C499.021 371.267 499.07 371.31 499.109 371.362C499.147 371.414 499.175 371.473 499.191 371.535C499.207 371.598 499.21 371.663 499.2 371.727L493.3 414.347C493.283 414.464 493.226 414.571 493.137 414.648C493.048 414.726 492.934 414.768 492.817 414.769Z"
    fill="#656565" />
  <path
    d="M591.64 255.071H591.601C591.591 254.846 591.578 254.622 591.563 254.398L591.491 254.323C590.973 246.288 587.39 238.759 581.483 233.288C575.576 227.817 567.794 224.821 559.743 224.92C551.692 225.018 543.986 228.203 538.214 233.817C532.442 239.431 529.045 247.045 528.723 255.091C527.774 255.15 526.848 255.41 526.006 255.852C525.164 256.294 524.425 256.909 523.837 257.657C523.249 258.404 522.826 259.267 522.594 260.19C522.363 261.112 522.328 262.073 522.493 263.009C522.659 263.946 523.019 264.837 523.553 265.624C524.086 266.412 524.779 267.078 525.587 267.579C526.395 268.08 527.3 268.405 528.243 268.533C529.185 268.66 530.144 268.587 531.056 268.319C531.092 268.405 531.122 268.494 531.159 268.58C534.284 278.947 541.35 290.737 557.351 292.333C577.972 294.389 586.936 280.925 590.139 268.421C591.067 268.632 592.03 268.646 592.963 268.46C593.897 268.274 594.78 267.893 595.557 267.343C596.333 266.792 596.984 266.083 597.467 265.263C597.951 264.443 598.256 263.53 598.362 262.585C598.468 261.639 598.374 260.681 598.084 259.774C597.795 258.867 597.318 258.032 596.683 257.323C596.049 256.613 595.271 256.046 594.402 255.657C593.533 255.269 592.592 255.068 591.64 255.069V255.071Z"
    fill="white" />
  <path
    d="M561.51 293.036C560.167 293.036 558.765 292.964 557.303 292.82C540.913 291.186 533.817 278.957 530.747 268.905C530.226 269.023 529.694 269.083 529.16 269.084C527.316 269.085 525.541 268.383 524.196 267.121C522.851 265.859 522.038 264.131 521.923 262.291C521.807 260.45 522.398 258.635 523.575 257.214C524.751 255.794 526.425 254.876 528.255 254.647C528.688 246.532 532.199 238.889 538.073 233.274C543.947 227.659 551.741 224.496 559.866 224.43C567.992 224.363 575.837 227.398 581.802 232.917C587.767 238.435 591.402 246.02 591.967 254.126C592.016 254.198 592.044 254.281 592.05 254.367C592.056 254.442 592.061 254.518 592.065 254.594C593.947 254.706 595.712 255.546 596.985 256.937C598.258 258.328 598.939 260.16 598.884 262.045C598.829 263.93 598.042 265.719 596.689 267.033C595.337 268.347 593.526 269.082 591.641 269.084C591.257 269.083 590.875 269.051 590.496 268.989C587.981 278.422 580.944 293.036 561.51 293.036ZM531.056 267.834C531.153 267.834 531.248 267.862 531.328 267.916C531.408 267.97 531.471 268.046 531.508 268.136L531.609 268.393C531.616 268.409 531.622 268.425 531.627 268.442C534.579 278.242 541.447 290.258 557.4 291.85C579.657 294.071 587.169 278.049 589.667 268.302C589.698 268.179 589.776 268.073 589.885 268.007C589.993 267.941 590.124 267.919 590.248 267.947C591.108 268.144 592 268.156 592.866 267.984C593.732 267.812 594.552 267.459 595.272 266.949C595.992 266.438 596.596 265.781 597.044 265.021C597.493 264.261 597.777 263.415 597.876 262.538C597.975 261.661 597.888 260.772 597.621 259.931C597.353 259.09 596.911 258.315 596.324 257.656C595.736 256.998 595.016 256.47 594.211 256.109C593.405 255.748 592.533 255.561 591.65 255.56H591.601C591.475 255.56 591.355 255.512 591.264 255.425C591.173 255.338 591.119 255.22 591.113 255.094C591.105 254.929 591.096 254.763 591.086 254.597C591.037 254.525 591.009 254.44 591.003 254.353C590.493 246.443 586.966 239.03 581.151 233.644C575.335 228.258 567.674 225.309 559.748 225.406C551.822 225.504 544.235 228.639 538.553 234.166C532.871 239.692 529.527 247.189 529.21 255.109C529.206 255.23 529.156 255.345 529.072 255.431C528.988 255.517 528.874 255.57 528.754 255.577C527.873 255.633 527.014 255.874 526.233 256.284C525.452 256.694 524.766 257.265 524.221 257.958C523.675 258.651 523.282 259.452 523.067 260.308C522.852 261.164 522.821 262.055 522.974 262.924C523.127 263.793 523.462 264.62 523.957 265.35C524.452 266.081 525.095 266.699 525.845 267.164C526.595 267.629 527.434 267.93 528.309 268.048C529.183 268.167 530.073 268.099 530.919 267.85C530.964 267.838 531.01 267.832 531.056 267.834Z"
    fill="#656565" />
  <path
    d="M515.588 375.173C515.46 375.173 515.336 375.122 515.245 375.031C515.153 374.941 515.101 374.818 515.1 374.689L514.658 324.982C514.657 324.918 514.669 324.854 514.693 324.795C514.717 324.735 514.753 324.681 514.798 324.635C514.843 324.589 514.896 324.553 514.955 324.528C515.014 324.503 515.078 324.49 515.142 324.489H515.146C515.275 324.489 515.398 324.54 515.49 324.63C515.581 324.721 515.633 324.844 515.634 324.973L516.077 374.68C516.077 374.744 516.065 374.808 516.041 374.867C516.017 374.927 515.982 374.981 515.937 375.026C515.892 375.072 515.838 375.109 515.779 375.134C515.72 375.159 515.657 375.172 515.593 375.173L515.588 375.173Z"
    fill="white" />
  <path
    d="M552.933 256.466C552.835 256.466 552.739 256.436 552.658 256.38C550.92 255.322 548.926 254.762 546.892 254.76C544.857 254.758 542.862 255.314 541.122 256.368C541.066 256.4 541.005 256.421 540.941 256.429C540.878 256.437 540.813 256.432 540.751 256.416C540.689 256.399 540.632 256.37 540.581 256.33C540.53 256.291 540.488 256.242 540.456 256.187C540.424 256.131 540.404 256.07 540.395 256.006C540.387 255.942 540.392 255.878 540.409 255.816C540.426 255.754 540.455 255.696 540.494 255.645C540.533 255.595 540.582 255.552 540.638 255.52C542.544 254.397 544.719 253.81 546.932 253.819C549.144 253.829 551.314 254.436 553.211 255.575C553.296 255.634 553.361 255.719 553.395 255.818C553.429 255.916 553.431 256.023 553.4 256.123C553.369 256.222 553.307 256.309 553.223 256.371C553.139 256.433 553.037 256.466 552.933 256.466Z"
    fill="#656565" />
  <path
    d="M548.166 266.283C549.841 266.283 551.199 264.925 551.199 263.25C551.199 261.575 549.841 260.217 548.166 260.217C546.491 260.217 545.133 261.575 545.133 263.25C545.133 264.925 546.491 266.283 548.166 266.283Z"
    fill="#656565" />
  <path
    d="M557.947 270.536C557.445 270.536 557.041 270.51 556.852 270.495C556.724 270.484 556.606 270.422 556.523 270.324C556.44 270.226 556.399 270.1 556.409 269.971C556.418 269.843 556.478 269.724 556.575 269.64C556.673 269.556 556.799 269.513 556.927 269.522C558.559 269.646 560.53 269.454 560.864 268.925C561.172 268.328 559.947 264.509 558.608 261.319C558.581 261.259 558.567 261.195 558.565 261.13C558.564 261.065 558.575 261 558.599 260.939C558.623 260.879 558.658 260.823 558.704 260.777C558.749 260.73 558.804 260.693 558.864 260.668C558.924 260.643 558.989 260.63 559.054 260.63C559.119 260.63 559.184 260.643 559.244 260.668C559.304 260.694 559.358 260.731 559.403 260.778C559.449 260.824 559.484 260.88 559.508 260.94C560.415 263.101 562.443 268.254 561.689 269.447C561.105 270.373 559.216 270.536 557.947 270.536Z"
    fill="#656565" />
  <path
    d="M548.003 271.047C548.017 269.536 546.152 268.294 543.838 268.273C541.523 268.252 539.636 269.46 539.622 270.971C539.609 272.481 541.474 273.723 543.788 273.744C546.102 273.765 547.989 272.557 548.003 271.047Z"
    fill="#3D8F80" />
  <path
    d="M554.741 284.044C552.907 284.044 551.416 282.223 551.416 279.984C551.416 277.746 552.907 275.924 554.741 275.924C556.574 275.924 558.067 277.746 558.067 279.984C558.067 282.223 556.575 284.044 554.741 284.044ZM554.741 276.901C553.446 276.901 552.392 278.284 552.392 279.984C552.392 281.685 553.446 283.068 554.741 283.068C556.036 283.068 557.09 281.685 557.09 279.984C557.09 278.284 556.036 276.9 554.741 276.9V276.901ZM525.348 255.977C525.348 255.977 527.79 254.841 528.864 255.977C529.938 257.113 530.055 259.269 531.701 259.269C533.346 259.269 533.063 249.396 534.652 244.97C536.24 240.544 540.877 236.23 540.877 236.23C540.877 236.23 550.993 242.698 555.306 240.315C559.618 237.933 555.306 233.847 555.306 233.847C555.306 233.847 564.158 241.336 568.697 239.521C573.237 237.706 569.721 233.849 569.721 233.849C569.721 233.849 579.725 241.857 586.696 239.554C593.667 237.251 594.007 227.899 590.829 224.916C587.652 221.934 578.989 224.916 578.989 224.916C578.989 224.916 557.017 208.153 539.594 224.916C539.594 224.916 531.249 225.791 527.391 231.239C523.532 236.686 525.348 255.977 525.348 255.977Z"
    fill="#656565" />
  <path
    d="M605.22 353.535C605.101 353.535 604.986 353.491 604.897 353.412C604.807 353.333 604.75 353.224 604.736 353.105L601.732 328.29C601.724 328.226 601.729 328.161 601.746 328.1C601.763 328.038 601.793 327.98 601.832 327.93C601.872 327.879 601.921 327.837 601.977 327.806C602.033 327.774 602.094 327.754 602.158 327.746C602.221 327.739 602.286 327.743 602.348 327.761C602.41 327.778 602.467 327.807 602.518 327.847C602.568 327.886 602.61 327.936 602.642 327.991C602.673 328.047 602.694 328.109 602.701 328.172L605.706 352.988C605.714 353.057 605.708 353.126 605.687 353.192C605.666 353.258 605.632 353.319 605.586 353.371C605.54 353.422 605.484 353.464 605.421 353.492C605.358 353.52 605.289 353.535 605.22 353.535Z"
    fill="white" />
  <path
    d="M643.832 264.652C656.604 264.652 666.958 254.298 666.958 241.526C666.958 228.754 656.604 218.4 643.832 218.4C631.06 218.4 620.706 228.754 620.706 241.526C620.706 254.298 631.06 264.652 643.832 264.652Z"
    fill="white" />
  <path
    d="M643.831 265.629C639.063 265.629 634.403 264.215 630.44 261.567C626.476 258.918 623.387 255.154 621.562 250.75C619.738 246.345 619.261 241.499 620.191 236.823C621.121 232.148 623.416 227.853 626.787 224.482C630.158 221.111 634.453 218.816 639.129 217.886C643.804 216.956 648.65 217.433 653.055 219.258C657.459 221.082 661.223 224.172 663.872 228.135C666.52 232.099 667.934 236.759 667.934 241.526C667.926 247.917 665.385 254.043 660.866 258.562C656.347 263.08 650.221 265.622 643.831 265.629ZM643.831 219.376C639.45 219.376 635.167 220.676 631.525 223.109C627.882 225.543 625.043 229.003 623.367 233.05C621.69 237.097 621.252 241.551 622.106 245.848C622.961 250.144 625.07 254.091 628.168 257.189C631.266 260.286 635.213 262.396 639.509 263.251C643.806 264.105 648.26 263.667 652.307 261.99C656.354 260.314 659.814 257.475 662.248 253.832C664.681 250.19 665.98 245.907 665.98 241.526C665.974 235.654 663.638 230.024 659.486 225.871C655.333 221.719 649.703 219.383 643.831 219.376Z"
    fill="#656565" />
  <path
    d="M643.83 243.301C648.784 243.301 652.8 239.285 652.8 234.331C652.8 229.377 648.784 225.361 643.83 225.361C638.876 225.361 634.86 229.377 634.86 234.331C634.86 239.285 638.876 243.301 643.83 243.301Z"
    fill="#656565" />
  <path
    d="M655.179 251.236C655.179 248.226 653.983 245.34 651.855 243.211C649.726 241.083 646.84 239.887 643.83 239.887C642.34 239.887 640.864 240.181 639.487 240.751C638.11 241.322 636.859 242.158 635.805 243.211C634.752 244.265 633.916 245.516 633.345 246.893C632.775 248.27 632.481 249.746 632.481 251.236V253.785C632.481 255.943 634.23 257.692 636.388 257.692H651.272C653.43 257.692 655.179 255.943 655.179 253.785V251.236Z"
    fill="#656565" />
  <path
    d="M529.951 247.274C529.826 247.274 529.705 247.226 529.614 247.139C529.523 247.052 529.469 246.934 529.463 246.808C529.448 246.492 529.179 239.003 535.116 234.812C535.222 234.737 535.353 234.707 535.481 234.729C535.609 234.751 535.722 234.823 535.797 234.929C535.872 235.035 535.901 235.166 535.879 235.293C535.857 235.421 535.786 235.535 535.68 235.609C530.186 239.487 530.435 246.693 530.439 246.764C530.444 246.894 530.398 247.02 530.311 247.115C530.224 247.211 530.102 247.268 529.972 247.273L529.951 247.274ZM551.755 238.269C548.755 238.269 544.122 233.728 543.565 233.172C543.519 233.127 543.481 233.073 543.456 233.014C543.43 232.954 543.417 232.89 543.416 232.825C543.416 232.761 543.428 232.696 543.452 232.636C543.477 232.576 543.513 232.522 543.559 232.476C543.605 232.43 543.659 232.394 543.719 232.369C543.779 232.345 543.844 232.332 543.909 232.333C543.973 232.333 544.038 232.347 544.097 232.373C544.157 232.398 544.211 232.435 544.256 232.482C545.778 234.003 550.167 237.821 552.172 237.238C552.317 237.199 552.451 237.127 552.564 237.028C552.677 236.93 552.766 236.807 552.824 236.668C553.5 235.24 552.357 231.912 551.86 230.75C551.817 230.649 551.809 230.537 551.837 230.432C551.865 230.326 551.928 230.234 552.015 230.168C552.102 230.102 552.209 230.068 552.318 230.07C552.427 230.072 552.532 230.11 552.617 230.179C552.7 230.247 561.026 236.973 564.775 234.789C564.831 234.756 564.892 234.735 564.955 234.727C565.019 234.718 565.083 234.722 565.146 234.738C565.208 234.754 565.266 234.783 565.317 234.822C565.368 234.86 565.411 234.909 565.443 234.964C565.475 235.02 565.496 235.081 565.505 235.145C565.514 235.208 565.51 235.273 565.494 235.335C565.477 235.397 565.449 235.455 565.41 235.506C565.371 235.557 565.323 235.6 565.267 235.632C561.911 237.59 556.001 233.865 553.347 231.956C553.836 233.483 554.351 235.728 553.71 237.083C553.592 237.345 553.417 237.579 553.199 237.767C552.981 237.956 552.725 238.094 552.447 238.173C552.222 238.238 551.989 238.27 551.755 238.269ZM582.829 235.4C580.933 235.358 579.057 234.994 577.282 234.323C574.942 233.471 572.712 232.341 570.641 230.958C570.587 230.922 570.54 230.876 570.504 230.822C570.467 230.767 570.442 230.707 570.43 230.643C570.417 230.578 570.418 230.513 570.432 230.449C570.445 230.385 570.471 230.324 570.508 230.271C570.546 230.217 570.593 230.172 570.648 230.137C570.704 230.102 570.765 230.079 570.83 230.068C570.894 230.057 570.96 230.06 571.023 230.075C571.087 230.09 571.146 230.118 571.199 230.157C571.311 230.235 582.511 237.915 588.055 232.479C588.148 232.39 588.272 232.342 588.4 232.344C588.528 232.346 588.651 232.399 588.74 232.49C588.83 232.582 588.88 232.705 588.88 232.833C588.88 232.962 588.829 233.085 588.738 233.176C587.952 233.922 587.023 234.503 586.009 234.885C584.994 235.267 583.913 235.442 582.829 235.4Z"
    fill="white" />
  <path
    d="M594.571 313.043C596.979 319.335 619.721 377.551 641.462 374.574C642.211 374.472 646.094 373.939 648.407 371.039C658.578 358.281 622.398 319.793 607.799 304.933L594.571 313.043Z"
    fill="white" />
  <path
    d="M639.822 375.174C630.927 375.174 621.023 365.889 610.347 347.53C601.936 333.066 595.796 317.61 594.117 313.218C594.076 313.112 594.074 312.994 594.111 312.886C594.148 312.778 594.221 312.687 594.318 312.627L607.546 304.517C607.64 304.459 607.751 304.435 607.86 304.449C607.97 304.462 608.072 304.512 608.149 304.591C620.633 317.298 630.605 328.702 637.788 338.486C649.621 354.604 653.323 365.658 648.791 371.343C646.674 373.999 643.334 374.81 641.531 375.058C640.965 375.135 640.394 375.174 639.822 375.174ZM595.173 313.247C598.311 321.377 620.573 376.94 641.396 374.091C643.056 373.863 646.12 373.125 648.025 370.734C654.861 362.158 640.551 339.016 607.723 305.552L595.173 313.247Z"
    fill="#656565" />
  <path d="M582.592 280.442L587.133 278.848L592.537 294.244L587.996 295.837L582.592 280.442Z" fill="#656565" />
  <path
    d="M591.244 290.644L586.831 292.192C585.246 292.749 584.412 294.484 584.968 296.069L594.193 322.353C594.749 323.938 596.485 324.772 598.07 324.216L602.483 322.667C604.068 322.111 604.902 320.375 604.346 318.79L595.121 292.506C594.564 290.921 592.829 290.087 591.244 290.644Z"
    fill="white" />
  <path
    d="M597.11 324.807C596.378 324.807 595.665 324.58 595.068 324.157C594.471 323.735 594.02 323.137 593.777 322.447L584.544 296.166C584.234 295.283 584.288 294.313 584.693 293.469C585.098 292.626 585.821 291.977 586.704 291.666L591.116 290.116C591.554 289.962 592.017 289.896 592.48 289.922C592.943 289.947 593.396 290.063 593.814 290.264C594.232 290.464 594.606 290.745 594.915 291.091C595.225 291.436 595.463 291.839 595.616 292.276L604.849 318.557C605.003 318.995 605.069 319.458 605.043 319.921C605.018 320.384 604.902 320.837 604.701 321.255C604.501 321.673 604.22 322.047 603.874 322.356C603.529 322.666 603.126 322.904 602.689 323.057L598.276 324.607C597.901 324.739 597.507 324.807 597.11 324.807ZM592.284 290.893C591.996 290.893 591.711 290.943 591.44 291.039L587.027 292.589C586.389 292.814 585.866 293.283 585.573 293.893C585.28 294.504 585.241 295.205 585.465 295.844L594.697 322.126C594.922 322.764 595.392 323.287 596.002 323.58C596.612 323.873 597.313 323.912 597.952 323.688L602.365 322.138C603.004 321.913 603.527 321.444 603.82 320.834C604.113 320.224 604.152 319.522 603.928 318.883L594.695 292.602C594.52 292.102 594.193 291.67 593.762 291.364C593.33 291.057 592.813 290.893 592.284 290.893Z"
    fill="#656565" />
  <path
    d="M580.304 285.305C590.749 285.305 599.216 276.837 599.216 266.392C599.216 255.947 590.749 247.48 580.304 247.48C569.859 247.48 561.391 255.947 561.391 266.392C561.391 276.837 569.859 285.305 580.304 285.305Z"
    fill="white" />
  <path
    d="M580.321 285.795C576.762 285.798 573.27 284.822 570.228 282.974C567.186 281.126 564.712 278.476 563.075 275.316C561.438 272.155 560.702 268.605 560.948 265.054C561.193 261.503 562.411 258.088 564.468 255.183C566.525 252.278 569.341 249.995 572.608 248.583C575.876 247.171 579.469 246.686 582.994 247.179C586.519 247.673 589.84 249.127 592.594 251.382C595.348 253.637 597.429 256.606 598.608 259.965C599.635 262.888 599.946 266.016 599.516 269.085C599.086 272.153 597.927 275.075 596.137 277.604C594.346 280.133 591.976 282.197 589.225 283.622C586.473 285.048 583.42 285.793 580.321 285.797V285.795ZM580.287 247.967C576.378 247.97 572.572 249.216 569.418 251.525C566.264 253.835 563.926 257.087 562.742 260.813C561.559 264.538 561.59 268.543 562.833 272.25C564.076 275.956 566.465 279.171 569.655 281.429C572.846 283.688 576.672 284.874 580.58 284.815C584.489 284.756 588.277 283.456 591.398 281.102C594.519 278.748 596.81 275.462 597.94 271.72C599.071 267.978 598.982 263.974 597.687 260.286C596.417 256.685 594.062 253.566 590.946 251.36C587.829 249.154 584.105 247.968 580.287 247.967Z"
    fill="#656565" />
  <path
    d="M580.304 282.868C589.403 282.868 596.78 275.492 596.78 266.392C596.78 257.293 589.403 249.916 580.304 249.916C571.204 249.916 563.828 257.293 563.828 266.392C563.828 275.492 571.204 282.868 580.304 282.868Z"
    fill="white" />
  <path
    d="M580.291 283.365C577.179 283.364 574.127 282.507 571.469 280.888C568.812 279.269 566.65 276.95 565.222 274.186C563.793 271.421 563.152 268.316 563.37 265.212C563.587 262.107 564.653 259.122 566.453 256.583C568.253 254.044 570.716 252.049 573.573 250.816C576.43 249.583 579.572 249.159 582.654 249.591C585.736 250.023 588.64 251.295 591.047 253.266C593.455 255.238 595.275 257.834 596.307 260.77C597.202 263.329 597.472 266.065 597.093 268.75C596.715 271.434 595.699 273.989 594.131 276.201C592.563 278.413 590.489 280.218 588.081 281.464C585.673 282.71 583.002 283.362 580.291 283.365ZM580.316 250.396C576.922 250.393 573.615 251.469 570.873 253.469C568.131 255.469 566.097 258.29 565.064 261.523C564.031 264.756 564.054 268.234 565.128 271.453C566.203 274.672 568.274 277.466 571.042 279.431C573.809 281.395 577.13 282.428 580.524 282.38C583.917 282.332 587.208 281.206 589.919 279.164C592.63 277.123 594.621 274.272 595.605 271.023C596.588 267.775 596.513 264.298 595.389 261.095C594.29 257.973 592.251 255.269 589.552 253.353C586.853 251.438 583.627 250.406 580.317 250.398L580.316 250.396Z"
    fill="#656565" />
  <path
    d="M610.17 307.362C610.17 307.362 601.701 298.261 598.403 296.526C595.104 294.791 585.619 296.18 584.839 297.906C584.058 299.633 586.255 302.054 586.255 302.054C586.255 302.054 584.763 304.778 587.665 306.215C587.665 306.215 585.801 308.787 589.13 310.225C589.13 310.225 588.063 313.215 591.474 314.406C594.885 315.596 600.784 314.161 602.75 315.975C604.717 317.788 604.557 319.379 604.557 319.379"
    fill="white" />
  <path
    d="M604.554 319.867H604.506C604.441 319.861 604.379 319.843 604.322 319.812C604.265 319.782 604.215 319.741 604.174 319.691C604.133 319.641 604.102 319.583 604.084 319.521C604.065 319.459 604.059 319.395 604.066 319.33C604.07 319.282 604.15 317.937 602.412 316.334C601.464 315.457 599.17 315.449 596.951 315.441C594.962 315.433 592.905 315.426 591.306 314.866C590.776 314.714 590.283 314.456 589.855 314.108C589.428 313.76 589.076 313.328 588.82 312.84C588.487 312.106 588.394 311.286 588.554 310.496C588.129 310.314 587.747 310.043 587.435 309.702C587.123 309.36 586.887 308.956 586.744 308.516C586.574 307.804 586.662 307.055 586.994 306.403C586.3 305.999 585.776 305.355 585.523 304.593C585.296 303.779 585.351 302.913 585.678 302.135C585.109 301.427 583.641 299.366 584.392 297.706C584.633 297.173 585.331 296.715 586.528 296.303C589.537 295.269 595.899 294.658 598.628 296.094C601.962 297.848 610.178 306.656 610.526 307.032C610.57 307.078 610.604 307.134 610.626 307.194C610.648 307.254 610.659 307.318 610.656 307.382C610.654 307.446 610.639 307.509 610.612 307.567C610.586 307.626 610.548 307.678 610.501 307.722C610.454 307.765 610.399 307.799 610.339 307.822C610.279 307.844 610.215 307.854 610.151 307.852C610.087 307.85 610.024 307.835 609.965 307.808C609.907 307.781 609.854 307.744 609.811 307.697C609.727 307.606 601.363 298.637 598.174 296.96C595.927 295.78 590.068 296.121 586.845 297.228C585.828 297.578 585.367 297.922 585.283 298.11C584.751 299.287 586.064 301.121 586.613 301.728C586.682 301.804 586.725 301.898 586.737 301.999C586.748 302.1 586.729 302.202 586.68 302.291C586.367 302.915 586.288 303.631 586.458 304.308C586.581 304.638 586.771 304.939 587.016 305.192C587.26 305.445 587.554 305.645 587.879 305.78C587.943 305.811 587.999 305.856 588.043 305.912C588.087 305.967 588.119 306.031 588.136 306.1C588.153 306.169 588.155 306.241 588.141 306.311C588.128 306.38 588.099 306.446 588.057 306.504C587.883 306.759 587.761 307.046 587.698 307.348C587.634 307.65 587.631 307.962 587.689 308.266C587.859 308.876 588.408 309.385 589.32 309.78C589.434 309.829 589.525 309.919 589.575 310.033C589.624 310.147 589.628 310.275 589.587 310.392C589.551 310.493 588.74 312.938 591.63 313.948C593.074 314.452 595.048 314.46 596.956 314.467C599.472 314.476 601.848 314.485 603.076 315.619C605.198 317.577 605.047 319.356 605.039 319.431C605.026 319.551 604.97 319.661 604.88 319.742C604.791 319.823 604.675 319.867 604.554 319.867Z"
    fill="#656565" />
  <path
    d="M572.825 256.186C572.721 256.186 572.619 256.153 572.535 256.091C572.451 256.029 572.39 255.942 572.359 255.842C572.328 255.743 572.33 255.636 572.364 255.537C572.398 255.439 572.463 255.354 572.549 255.295C574.475 253.987 576.746 253.281 579.074 253.268H579.094C581.339 253.277 583.534 253.93 585.42 255.148C585.474 255.183 585.52 255.229 585.557 255.282C585.593 255.335 585.618 255.394 585.632 255.457C585.645 255.52 585.646 255.584 585.634 255.647C585.622 255.71 585.598 255.77 585.563 255.824C585.528 255.878 585.483 255.924 585.43 255.961C585.377 255.997 585.317 256.022 585.255 256.035C585.192 256.049 585.127 256.049 585.064 256.038C585.001 256.026 584.941 256.002 584.887 255.967C583.16 254.851 581.15 254.253 579.094 254.244H579.076C576.944 254.256 574.864 254.902 573.101 256.1C573.02 256.156 572.924 256.186 572.825 256.186Z"
    fill="#656565" />
  <path
    d="M578.253 267.402C580.198 267.402 581.775 265.825 581.775 263.88C581.775 261.935 580.198 260.358 578.253 260.358C576.308 260.358 574.731 261.935 574.731 263.88C574.731 265.825 576.308 267.402 578.253 267.402Z"
    fill="#656565" />
  <path
    d="M586.186 273.306C586.202 271.552 584.036 270.111 581.349 270.086C578.663 270.062 576.471 271.464 576.456 273.218C576.44 274.972 578.605 276.413 581.292 276.437C583.979 276.462 586.17 275.06 586.186 273.306Z"
    fill="#3D8F80" />
  <path
    d="M586.554 302.088C586.435 302.087 586.319 302.043 586.23 301.964C586.141 301.884 586.084 301.774 586.071 301.656C586.057 301.537 586.087 301.417 586.156 301.319C586.224 301.221 586.327 301.152 586.443 301.124C586.603 301.086 590.395 300.203 592.689 300.433C592.818 300.445 592.936 300.509 593.018 300.609C593.1 300.71 593.139 300.838 593.126 300.967C593.113 301.096 593.05 301.214 592.949 301.296C592.849 301.378 592.72 301.417 592.591 301.404C590.461 301.186 586.706 302.066 586.669 302.075C586.631 302.084 586.593 302.088 586.554 302.088ZM587.662 306.701C587.544 306.7 587.429 306.657 587.34 306.578C587.252 306.5 587.194 306.392 587.179 306.274C587.164 306.157 587.192 306.038 587.259 305.939C587.325 305.841 587.425 305.77 587.539 305.74C589.49 305.269 591.508 305.137 593.504 305.35C593.632 305.366 593.748 305.434 593.827 305.536C593.906 305.639 593.941 305.769 593.924 305.897C593.907 306.026 593.84 306.142 593.737 306.221C593.634 306.3 593.504 306.335 593.376 306.318C591.505 306.127 589.616 306.251 587.786 306.684C587.745 306.695 587.704 306.701 587.662 306.701ZM594.572 310.713C594.512 310.713 594.453 310.702 594.398 310.681C592.025 309.774 589.312 310.677 589.285 310.686C589.163 310.725 589.031 310.715 588.917 310.657C588.803 310.6 588.716 310.5 588.674 310.379C588.633 310.258 588.641 310.126 588.696 310.011C588.751 309.896 588.849 309.806 588.969 309.763C589.092 309.72 592.037 308.733 594.746 309.768C594.853 309.809 594.942 309.886 594.998 309.986C595.053 310.085 595.073 310.201 595.052 310.313C595.031 310.425 594.972 310.527 594.884 310.6C594.796 310.673 594.686 310.713 594.572 310.713Z"
    fill="#656565" />
  <path
    d="M536.555 347.167C542.98 347.167 548.189 341.958 548.189 335.533C548.189 329.108 542.98 323.899 536.555 323.899C530.13 323.899 524.921 329.108 524.921 335.533C524.921 341.958 530.13 347.167 536.555 347.167Z"
    fill="#3D8F80" />
  <path
    d="M488.691 473.896C488.584 473.896 488.494 473.864 488.419 473.8C488.344 473.725 488.307 473.629 488.307 473.512V466.184C488.307 466.077 488.344 465.987 488.419 465.912C488.494 465.837 488.584 465.8 488.691 465.8H489.987C490.104 465.8 490.195 465.837 490.259 465.912C490.334 465.987 490.371 466.077 490.371 466.184V473.512C490.371 473.629 490.334 473.725 490.259 473.8C490.195 473.864 490.104 473.896 489.987 473.896H488.691ZM488.595 477C488.488 477 488.398 476.963 488.323 476.888C488.248 476.813 488.211 476.723 488.211 476.616V475.128C488.211 475.011 488.248 474.915 488.323 474.84C488.398 474.765 488.488 474.728 488.595 474.728H490.083C490.2 474.728 490.296 474.765 490.371 474.84C490.446 474.915 490.483 475.011 490.483 475.128V476.616C490.483 476.723 490.446 476.813 490.371 476.888C490.296 476.963 490.2 477 490.083 477H488.595ZM492.972 477C492.866 477 492.775 476.963 492.7 476.888C492.626 476.813 492.588 476.723 492.588 476.616V468.248C492.588 468.141 492.626 468.051 492.7 467.976C492.775 467.901 492.866 467.864 492.972 467.864H496.284C497.223 467.864 497.996 468.003 498.604 468.28C499.223 468.557 499.687 468.984 499.996 469.56C500.306 470.125 500.46 470.861 500.46 471.768V476.616C500.46 476.723 500.423 476.813 500.348 476.888C500.284 476.963 500.194 477 500.076 477H492.972ZM494.444 475.304H498.508V471.848C498.508 471.123 498.322 470.563 497.948 470.168C497.586 469.763 497.004 469.56 496.204 469.56H494.444V475.304ZM502.861 473.256C502.754 473.256 502.663 473.219 502.589 473.144C502.514 473.069 502.477 472.979 502.477 472.872V468.248C502.477 468.141 502.514 468.051 502.589 467.976C502.663 467.901 502.754 467.864 502.861 467.864H504.189C504.306 467.864 504.397 467.901 504.461 467.976C504.535 468.051 504.573 468.141 504.573 468.248V472.872C504.573 472.979 504.535 473.069 504.461 473.144C504.397 473.219 504.306 473.256 504.189 473.256H502.861ZM511.53 475.416C512.159 475.427 512.698 475.309 513.146 475.064C513.604 474.808 513.956 474.456 514.202 474.008C514.458 473.56 514.586 473.048 514.586 472.472V468.248C514.586 468.131 514.618 468.04 514.682 467.976C514.756 467.901 514.852 467.864 514.97 467.864H516.09C516.207 467.864 516.298 467.901 516.362 467.976C516.436 468.051 516.474 468.141 516.474 468.248V472.584C516.474 473.277 516.356 473.907 516.122 474.472C515.898 475.037 515.578 475.517 515.162 475.912C514.746 476.307 514.255 476.611 513.69 476.824C513.135 477.027 512.527 477.123 511.866 477.112H510.506C509.727 477.112 509.044 476.952 508.458 476.632C507.871 476.301 507.412 475.853 507.082 475.288C506.762 474.712 506.602 474.061 506.602 473.336V468.248C506.602 468.141 506.639 468.051 506.714 467.976C506.788 467.901 506.879 467.864 506.986 467.864H508.122C508.228 467.864 508.319 467.901 508.394 467.976C508.468 468.04 508.506 468.131 508.506 468.248L508.538 472.6C508.538 473.507 508.778 474.205 509.258 474.696C509.748 475.176 510.356 475.416 511.082 475.416H511.53ZM508.234 473.944L508.218 472.472C508.858 472.461 509.354 472.355 509.706 472.152C510.058 471.939 510.303 471.651 510.442 471.288C510.58 470.915 510.65 470.488 510.65 470.008V468.264C510.65 468.147 510.682 468.051 510.746 467.976C510.82 467.901 510.916 467.864 511.034 467.864H512.154C512.26 467.864 512.351 467.901 512.426 467.976C512.5 468.051 512.538 468.147 512.538 468.264V470.056C512.538 470.845 512.378 471.533 512.058 472.12C511.738 472.696 511.258 473.144 510.618 473.464C509.978 473.784 509.183 473.944 508.234 473.944ZM518.879 477C518.772 477 518.681 476.963 518.607 476.888C518.532 476.813 518.495 476.723 518.495 476.616V468.248C518.495 468.141 518.532 468.051 518.607 467.976C518.681 467.901 518.772 467.864 518.879 467.864H520.207C520.313 467.864 520.404 467.901 520.479 467.976C520.553 468.051 520.591 468.141 520.591 468.248V476.616C520.591 476.723 520.553 476.813 520.479 476.888C520.404 476.963 520.313 477 520.207 477H518.879ZM524.456 469.624V470.552C524.466 470.861 524.509 471.117 524.584 471.32C524.658 471.512 524.786 471.635 524.968 471.688L525.496 471.848C525.581 471.869 525.645 471.928 525.688 472.024C525.741 472.109 525.768 472.216 525.768 472.344L525.784 472.92C525.784 473.069 525.714 473.181 525.576 473.256C525.448 473.32 525.304 473.341 525.144 473.32L524.504 473.192C524.152 473.128 523.842 472.984 523.576 472.76C523.309 472.525 523.101 472.216 522.952 471.832C522.813 471.437 522.743 470.973 522.743 470.44V468.248C522.754 468.141 522.792 468.051 522.856 467.976C522.92 467.901 523.01 467.864 523.128 467.864H526.216C527.09 467.864 527.81 468.029 528.376 468.36C528.952 468.68 529.384 469.144 529.672 469.752C529.96 470.349 530.12 471.064 530.152 471.896C530.162 472.056 530.168 472.237 530.168 472.44C530.168 472.632 530.162 472.808 530.152 472.968C530.12 473.789 529.96 474.504 529.672 475.112C529.384 475.72 528.952 476.189 528.376 476.52C527.81 476.84 527.09 477 526.216 477H523.32C523.213 477 523.122 476.963 523.048 476.888C522.973 476.813 522.936 476.723 522.936 476.616V475.624C522.936 475.517 522.973 475.427 523.048 475.352C523.122 475.277 523.213 475.24 523.32 475.24H526.136C526.776 475.24 527.282 475.043 527.656 474.648C528.04 474.243 528.248 473.677 528.28 472.952C528.29 472.792 528.296 472.621 528.296 472.44C528.296 472.248 528.29 472.072 528.28 471.912C528.258 471.187 528.056 470.627 527.672 470.232C527.288 469.827 526.776 469.624 526.136 469.624H524.456ZM532.314 473.256C532.207 473.256 532.117 473.219 532.042 473.144C531.967 473.069 531.93 472.979 531.93 472.872V468.248C531.93 468.141 531.967 468.051 532.042 467.976C532.117 467.901 532.207 467.864 532.314 467.864H533.642C533.759 467.864 533.85 467.901 533.914 467.976C533.989 468.051 534.026 468.141 534.026 468.248V472.872C534.026 472.979 533.989 473.069 533.914 473.144C533.85 473.219 533.759 473.256 533.642 473.256H532.314ZM536.535 477C536.428 477 536.338 476.963 536.263 476.888C536.188 476.813 536.151 476.723 536.151 476.616V468.248C536.151 468.141 536.188 468.051 536.263 467.976C536.338 467.901 536.428 467.864 536.535 467.864H539.959C540.908 467.864 541.692 468.003 542.311 468.28C542.94 468.557 543.41 468.989 543.719 469.576C544.039 470.163 544.199 470.915 544.199 471.832V476.616C544.199 476.723 544.162 476.813 544.087 476.888C544.012 476.963 543.922 477 543.815 477H542.551C542.444 477 542.354 476.968 542.279 476.904C542.204 476.829 542.167 476.733 542.167 476.616V471.848C542.167 471.123 541.986 470.563 541.623 470.168C541.26 469.763 540.679 469.56 539.879 469.56H538.183V476.616C538.183 476.723 538.146 476.813 538.071 476.888C537.996 476.963 537.906 477 537.799 477H536.535ZM549.947 477.896C549.83 477.928 549.723 477.907 549.627 477.832C549.542 477.768 549.499 477.683 549.499 477.576V476.648C549.499 476.541 549.526 476.451 549.579 476.376C549.633 476.291 549.713 476.232 549.819 476.2L553.259 475.208C553.857 475.037 554.315 474.813 554.635 474.536C554.955 474.248 555.179 473.912 555.307 473.528C555.435 473.133 555.499 472.696 555.499 472.216V468.248C555.499 468.131 555.531 468.04 555.595 467.976C555.67 467.901 555.766 467.864 555.883 467.864H557.131C557.249 467.864 557.339 467.901 557.403 467.976C557.478 468.051 557.515 468.141 557.515 468.248V472.824C557.515 473.485 557.361 474.088 557.051 474.632C556.753 475.176 556.321 475.645 555.755 476.04C555.19 476.424 554.513 476.712 553.723 476.904L549.947 477.896ZM552.027 476.616L549.771 468.504C549.75 468.419 549.729 468.355 549.707 468.312C549.697 468.269 549.691 468.227 549.691 468.184C549.691 468.099 549.723 468.024 549.787 467.96C549.851 467.896 549.926 467.864 550.011 467.864H551.387C551.59 467.864 551.713 467.944 551.755 468.104L553.867 476.248L552.027 476.616ZM559.812 477C559.705 477 559.614 476.963 559.54 476.888C559.465 476.813 559.428 476.723 559.428 476.616V475.656C559.428 475.549 559.465 475.459 559.54 475.384C559.614 475.309 559.705 475.272 559.812 475.272H563.892L559.044 468.472C559.022 468.419 559.001 468.371 558.98 468.328C558.958 468.275 558.948 468.227 558.948 468.184C558.948 468.099 558.98 468.024 559.044 467.96C559.118 467.896 559.198 467.864 559.284 467.864H560.612C560.74 467.864 560.836 467.896 560.9 467.96C560.974 468.024 561.033 468.083 561.076 468.136L566.116 475.224C566.169 475.299 566.212 475.379 566.244 475.464C566.286 475.539 566.308 475.629 566.308 475.736V476.616C566.308 476.723 566.27 476.813 566.196 476.888C566.132 476.963 566.041 477 565.924 477H559.812ZM564.388 473.288L563.396 471.896C563.865 471.683 564.201 471.363 564.404 470.936C564.606 470.509 564.708 470.003 564.708 469.416V468.264C564.708 468.147 564.74 468.051 564.804 467.976C564.878 467.901 564.974 467.864 565.092 467.864H566.212C566.329 467.864 566.42 467.901 566.484 467.976C566.558 468.051 566.596 468.147 566.596 468.264V469.736C566.596 470.547 566.409 471.261 566.036 471.88C565.662 472.488 565.113 472.957 564.388 473.288ZM568.589 477C568.482 477 568.392 476.963 568.317 476.888C568.242 476.813 568.205 476.723 568.205 476.616V475.688C568.205 475.581 568.242 475.491 568.317 475.416C568.392 475.341 568.482 475.304 568.589 475.304H572.909V471.864C572.909 471.128 572.728 470.563 572.365 470.168C572.002 469.763 571.421 469.56 570.621 469.56H568.749C568.642 469.56 568.552 469.523 568.477 469.448C568.402 469.373 568.365 469.283 568.365 469.176V468.248C568.365 468.141 568.402 468.051 568.477 467.976C568.552 467.901 568.642 467.864 568.749 467.864H570.701C571.64 467.864 572.429 468.008 573.069 468.296C573.709 468.573 574.189 469.005 574.509 469.592C574.84 470.179 575.005 470.925 575.005 471.832V475.304H575.581C575.688 475.304 575.778 475.341 575.853 475.416C575.928 475.491 575.965 475.581 575.965 475.688V476.616C575.965 476.723 575.928 476.813 575.853 476.888C575.778 476.963 575.688 477 575.581 477H568.589ZM579.074 477.176C578.978 477.197 578.887 477.171 578.802 477.096C578.717 477.021 578.674 476.931 578.674 476.824V475.688C578.674 475.581 578.706 475.485 578.77 475.4C578.834 475.315 578.925 475.251 579.042 475.208L579.602 474.984C579.965 474.835 580.295 474.648 580.594 474.424C580.893 474.189 581.127 473.88 581.298 473.496C581.479 473.101 581.57 472.595 581.57 471.976C581.57 471.389 581.501 470.925 581.362 470.584C581.223 470.243 580.994 469.997 580.674 469.848C580.354 469.699 579.911 469.624 579.346 469.624H578.914C578.807 469.624 578.717 469.587 578.642 469.512C578.567 469.437 578.53 469.347 578.53 469.24V468.232C578.53 468.125 578.567 468.04 578.642 467.976C578.717 467.901 578.807 467.864 578.914 467.864H579.73C580.69 467.864 581.453 468.013 582.018 468.312C582.594 468.6 583.01 469.048 583.266 469.656C583.522 470.253 583.65 471.021 583.65 471.96C583.65 472.696 583.538 473.341 583.314 473.896C583.101 474.451 582.807 474.931 582.434 475.336C582.071 475.731 581.655 476.061 581.186 476.328C580.717 476.595 580.231 476.808 579.73 476.968L579.074 477.176ZM579.378 469.624L577.074 469.608C576.967 469.608 576.877 469.576 576.802 469.512C576.727 469.437 576.69 469.347 576.69 469.24V466.024C576.69 465.917 576.727 465.827 576.802 465.752C576.877 465.677 576.967 465.64 577.074 465.64H578.226C578.343 465.64 578.434 465.677 578.498 465.752C578.573 465.827 578.61 465.917 578.61 466.024V467.864H579.41L579.378 469.624ZM589.551 478.984C589.444 478.984 589.353 478.947 589.279 478.872C589.204 478.797 589.167 478.707 589.167 478.6V468.248C589.167 468.141 589.204 468.051 589.279 467.976C589.353 467.901 589.444 467.864 589.551 467.864H590.815C590.921 467.864 591.012 467.901 591.087 467.976C591.161 468.051 591.199 468.141 591.199 468.248V478.6C591.199 478.707 591.161 478.797 591.087 478.872C591.012 478.947 590.921 478.984 590.815 478.984H589.551ZM597.833 469.608L593.545 469.624C593.438 469.624 593.348 469.587 593.273 469.512C593.198 469.437 593.161 469.347 593.161 469.24V468.248C593.161 468.141 593.198 468.051 593.273 467.976C593.348 467.901 593.438 467.864 593.545 467.864H598.105C598.788 467.864 599.401 468.013 599.945 468.312C600.489 468.6 600.91 469.032 601.209 469.608C601.518 470.184 601.673 470.904 601.673 471.768V476.616C601.673 476.723 601.636 476.813 601.561 476.888C601.497 476.963 601.406 477 601.289 477H597.065C596.948 477 596.852 476.963 596.777 476.888C596.713 476.813 596.681 476.723 596.681 476.616V475.688C596.681 475.581 596.713 475.491 596.777 475.416C596.852 475.341 596.948 475.304 597.065 475.304H599.657V471.88C599.657 471.411 599.577 471.005 599.417 470.664C599.257 470.323 599.038 470.061 598.761 469.88C598.484 469.699 598.174 469.608 597.833 469.608ZM593.401 477C593.305 477 593.22 476.963 593.145 476.888C593.07 476.813 593.044 476.717 593.065 476.6L594.585 469.128C594.606 469.011 594.654 468.92 594.729 468.856C594.804 468.792 594.894 468.765 595.001 468.776L596.073 468.808C596.19 468.819 596.281 468.867 596.345 468.952C596.42 469.037 596.446 469.133 596.425 469.24L595.049 476.6C595.049 476.717 595.006 476.813 594.921 476.888C594.836 476.963 594.74 477 594.633 477H593.401ZM604.822 477C604.587 477 604.47 476.883 604.47 476.648V471.336C604.47 470.685 604.545 470.184 604.694 469.832C604.843 469.469 605.051 469.288 605.318 469.288H607.382C607.115 469.288 606.897 469.501 606.726 469.928C606.566 470.344 606.486 470.861 606.486 471.48V476.648C606.486 476.755 606.443 476.84 606.358 476.904C606.273 476.968 606.177 477 606.07 477H604.822ZM603.542 469.56C603.425 469.56 603.329 469.523 603.254 469.448C603.19 469.373 603.158 469.277 603.158 469.16V468.248C603.158 468.141 603.19 468.051 603.254 467.976C603.329 467.901 603.425 467.864 603.542 467.864H607.782C607.899 467.864 607.99 467.901 608.054 467.976C608.129 468.051 608.166 468.141 608.166 468.248V469.16C608.166 469.267 608.134 469.363 608.07 469.448C608.006 469.523 607.91 469.56 607.782 469.56H603.542ZM616.378 477C616.261 477 616.165 476.968 616.09 476.904C616.026 476.829 615.994 476.733 615.994 476.616V471.848C615.994 471.123 615.808 470.563 615.434 470.168C615.072 469.763 614.49 469.56 613.69 469.56H610.394C610.288 469.56 610.197 469.523 610.122 469.448C610.048 469.373 610.01 469.277 610.01 469.16V468.248C610.01 468.141 610.048 468.051 610.122 467.976C610.197 467.901 610.288 467.864 610.394 467.864H613.77C615.189 467.864 616.25 468.195 616.954 468.856C617.658 469.507 618.01 470.499 618.01 471.832V476.616C618.01 476.723 617.973 476.813 617.898 476.888C617.834 476.963 617.744 477 617.626 477H616.378ZM610.394 477C610.288 477 610.197 476.963 610.122 476.888C610.048 476.813 610.01 476.723 610.01 476.616V471.576C610.01 471.469 610.048 471.379 610.122 471.304C610.197 471.229 610.288 471.192 610.394 471.192H611.658C611.765 471.192 611.856 471.229 611.93 471.304C612.005 471.379 612.042 471.469 612.042 471.576V476.616C612.042 476.723 612.005 476.813 611.93 476.888C611.856 476.963 611.765 477 611.658 477H610.394ZM630.144 477C630.027 477 629.931 476.968 629.856 476.904C629.792 476.829 629.76 476.733 629.76 476.616V471.848C629.76 471.123 629.573 470.563 629.2 470.168C628.837 469.763 628.256 469.56 627.456 469.56H624.16C624.053 469.56 623.963 469.523 623.888 469.448C623.813 469.373 623.776 469.277 623.776 469.16V468.248C623.776 468.141 623.813 468.051 623.888 467.976C623.963 467.901 624.053 467.864 624.16 467.864H627.536C628.955 467.864 630.016 468.195 630.72 468.856C631.424 469.507 631.776 470.499 631.776 471.832V476.616C631.776 476.723 631.739 476.813 631.664 476.888C631.6 476.963 631.509 477 631.392 477H630.144ZM624.16 477C624.053 477 623.963 476.963 623.888 476.888C623.813 476.813 623.776 476.723 623.776 476.616V471.576C623.776 471.469 623.813 471.379 623.888 471.304C623.963 471.229 624.053 471.192 624.16 471.192H625.424C625.531 471.192 625.621 471.229 625.696 471.304C625.771 471.379 625.808 471.469 625.808 471.576V476.616C625.808 476.723 625.771 476.813 625.696 476.888C625.621 476.963 625.531 477 625.424 477H624.16ZM634.916 477C634.681 477 634.564 476.883 634.564 476.648V471.336C634.564 470.685 634.638 470.184 634.788 469.832C634.937 469.469 635.145 469.288 635.412 469.288H637.476C637.209 469.288 636.99 469.501 636.82 469.928C636.66 470.344 636.58 470.861 636.58 471.48V476.648C636.58 476.755 636.537 476.84 636.452 476.904C636.366 476.968 636.27 477 636.164 477H634.916ZM633.636 469.56C633.518 469.56 633.422 469.523 633.348 469.448C633.284 469.373 633.252 469.277 633.252 469.16V468.248C633.252 468.141 633.284 468.051 633.348 467.976C633.422 467.901 633.518 467.864 633.636 467.864H637.876C637.993 467.864 638.084 467.901 638.148 467.976C638.222 468.051 638.26 468.141 638.26 468.248V469.16C638.26 469.267 638.228 469.363 638.164 469.448C638.1 469.523 638.004 469.56 637.876 469.56H633.636Z"
    fill="#223F3B" />
</svg>