<svg width="1126" height="669" viewBox="0 0 1126 669" fill="none" xmlns="http://www.w3.org/2000/svg">
  <path
    d="M660.952 316.625C660.952 262.69 617.23 218.968 563.296 218.968C509.362 218.968 465.64 262.69 465.64 316.625C465.64 370.559 509.362 414.281 563.296 414.281C617.23 414.281 660.952 370.559 660.952 316.625Z"
    fill="#EDF7F4" />
  <path
    d="M600.25 298.876C595.238 296.093 589.556 297.081 582.1 298.375C577.293 299.21 572.582 300.523 568.037 302.295L586.006 319.545C589.366 329.831 594.662 339.379 601.608 347.675C616.335 365.148 639.645 377.93 644.279 373.323C650.51 367.129 618.644 333.812 607.736 308.182C606.936 306.293 604.986 301.505 600.25 298.876Z"
    fill="white" />
  <path
    d="M641.323 374.758C641.187 374.758 641.049 374.755 640.908 374.749C632.517 374.379 613.769 362.857 601.238 347.991C594.272 339.683 588.958 330.119 585.584 319.815L567.7 302.648C567.641 302.591 567.597 302.52 567.573 302.442C567.548 302.364 567.544 302.281 567.56 302.2C567.576 302.12 567.612 302.045 567.665 301.982C567.717 301.919 567.785 301.871 567.861 301.841C572.437 300.059 577.179 298.737 582.016 297.894C589.451 296.604 595.324 295.586 600.487 298.45C605.265 301.101 607.274 305.839 608.134 307.862L608.189 307.992C613.064 319.445 622.14 332.439 630.147 343.903C641.435 360.062 648.172 370.145 644.626 373.67C643.898 374.392 642.788 374.758 641.323 374.758ZM568.932 302.476L586.347 319.193C586.405 319.248 586.448 319.316 586.473 319.392C589.807 329.621 595.073 339.116 601.985 347.36C614.358 362.04 632.762 373.413 640.95 373.773C642.342 373.836 643.342 373.566 643.936 372.977C647.081 369.852 638.467 357.518 629.345 344.461C621.31 332.958 612.204 319.921 607.289 308.373L607.233 308.242C606.414 306.312 604.496 301.791 600.011 299.303C595.15 296.605 589.709 297.549 582.182 298.856C577.661 299.643 573.225 300.855 568.932 302.476Z"
    fill="#656565" />
  <path
    d="M548.189 301.531C548.189 301.531 523.078 298.358 513.092 309.825C503.105 321.292 492.816 414.28 492.816 414.28H525.802L548.189 301.531Z"
    fill="white" />
  <path
    d="M601.612 298.952C595.408 293.731 579.532 298.561 579.532 298.561L587.54 328.61C587.54 328.61 589.469 338.938 598.321 347.903C607.173 356.868 620.063 364.473 620.063 364.473L634.75 346.065C634.75 346.065 607.816 304.172 601.612 298.952ZM586.146 232.827C586.146 232.827 599.796 239.583 589.355 266.392L576.416 234.416L586.146 232.827Z"
    fill="#656565" />
  <path
    d="M680.53 211.719H608.203C607.235 211.719 606.307 212.103 605.623 212.788C604.938 213.472 604.554 214.4 604.554 215.368V270.068C604.554 271.036 604.938 271.964 605.623 272.648C606.307 273.332 607.235 273.717 608.203 273.717H615.185L609.577 287.929C609.527 288.055 609.522 288.194 609.562 288.323C609.601 288.453 609.684 288.564 609.796 288.64C609.908 288.716 610.043 288.751 610.178 288.74C610.313 288.729 610.44 288.673 610.538 288.58L626.285 273.717H680.53C681.497 273.717 682.425 273.332 683.11 272.648C683.794 271.964 684.178 271.036 684.178 270.068V215.368C684.178 214.4 683.794 213.472 683.11 212.788C682.425 212.103 681.497 211.719 680.53 211.719Z"
    fill="white" />
  <path
    d="M610.133 289.236C609.914 289.235 609.702 289.168 609.522 289.044C609.315 288.909 609.162 288.705 609.089 288.469C609.016 288.233 609.027 287.979 609.121 287.75L614.467 274.205H608.203C607.106 274.204 606.055 273.768 605.279 272.992C604.503 272.217 604.067 271.165 604.066 270.068V215.368C604.067 214.271 604.503 213.219 605.279 212.444C606.055 211.668 607.106 211.232 608.203 211.231H680.53C681.626 211.232 682.678 211.668 683.454 212.444C684.229 213.219 684.665 214.271 684.667 215.368V270.068C684.665 271.165 684.229 272.216 683.454 272.992C682.678 273.768 681.626 274.204 680.53 274.205H626.477L610.871 288.935C610.673 289.126 610.408 289.234 610.133 289.236ZM608.203 212.207C607.365 212.208 606.562 212.541 605.969 213.134C605.377 213.726 605.043 214.53 605.042 215.368V270.068C605.043 270.906 605.376 271.71 605.969 272.302C606.562 272.895 607.365 273.228 608.203 273.229H615.186C615.265 273.229 615.344 273.248 615.414 273.285C615.485 273.322 615.545 273.376 615.59 273.442C615.635 273.508 615.663 273.584 615.672 273.663C615.68 273.742 615.67 273.823 615.64 273.897L610.032 288.109C610.024 288.131 610.023 288.156 610.03 288.179C610.037 288.201 610.052 288.221 610.072 288.235C610.091 288.248 610.115 288.255 610.139 288.253C610.163 288.251 610.186 288.241 610.203 288.225L625.95 273.362C626.041 273.276 626.161 273.229 626.286 273.229H680.53C681.368 273.228 682.171 272.894 682.763 272.302C683.356 271.709 683.689 270.906 683.69 270.068V215.368C683.689 214.53 683.356 213.727 682.763 213.134C682.171 212.542 681.367 212.208 680.53 212.207H608.203Z"
    fill="#656565" />
  <path
    d="M599.899 301.146C595.572 297.414 591.115 298.337 575.361 299.721C574.608 299.787 573.849 299.696 573.134 299.453C572.418 299.21 571.76 298.821 571.203 298.311C570.646 297.8 570.201 297.179 569.896 296.488C569.591 295.796 569.434 295.048 569.434 294.292V280.523H550.822V295.866C550.821 297.331 550.252 298.739 549.233 299.793C548.215 300.847 546.827 301.465 545.362 301.516C532.221 301.972 527.81 302.008 523.534 306.14C516.405 313.029 517.276 323.921 518.086 337.462C519.112 354.601 520.242 379.441 520.459 411.455L598.84 411.606C599.083 386.322 600.648 361.069 603.531 335.949C605.338 320.388 607.372 307.591 599.899 301.146Z"
    fill="white" />
  <path
    d="M598.839 412.094L520.458 411.942C520.33 411.942 520.206 411.891 520.114 411.8C520.023 411.71 519.971 411.586 519.97 411.457C519.796 385.768 518.997 360.882 517.599 337.49L517.53 336.36C516.731 323.108 516.101 312.64 523.194 305.788C527.486 301.642 532.052 301.485 544.255 301.064L545.345 301.027C546.685 300.985 547.956 300.423 548.888 299.459C549.819 298.495 550.338 297.206 550.334 295.865V280.522C550.334 280.393 550.385 280.269 550.477 280.177C550.569 280.085 550.693 280.034 550.822 280.034H569.434C569.564 280.034 569.688 280.085 569.779 280.177C569.871 280.269 569.922 280.393 569.922 280.522V294.292C569.923 294.98 570.066 295.66 570.343 296.29C570.62 296.92 571.026 297.485 571.533 297.95C572.041 298.415 572.639 298.769 573.291 298.99C573.942 299.211 574.633 299.294 575.318 299.234C577.059 299.081 578.661 298.934 580.141 298.798C592.162 297.692 596.212 297.32 600.218 300.775C607.444 307.007 606.073 318.589 604.339 333.253C604.231 334.159 604.123 335.076 604.015 336.003C601.147 361.108 599.582 386.344 599.328 411.61C599.326 411.739 599.274 411.862 599.183 411.952C599.091 412.043 598.968 412.094 598.839 412.094ZM520.943 410.967L598.357 411.116C598.625 385.977 600.19 360.869 603.044 335.892C603.152 334.964 603.26 334.047 603.368 333.14C605.068 318.763 606.411 307.407 599.579 301.515C595.888 298.332 591.942 298.695 580.229 299.771C578.748 299.907 577.144 300.055 575.402 300.208C574.582 300.28 573.755 300.18 572.976 299.916C572.196 299.651 571.479 299.227 570.872 298.671C570.265 298.115 569.78 297.438 569.448 296.685C569.116 295.931 568.945 295.116 568.945 294.293V281.011H551.31V295.866C551.315 297.46 550.699 298.994 549.591 300.14C548.483 301.286 546.972 301.955 545.379 302.004L544.288 302.041C532.025 302.464 527.893 302.606 523.872 306.491C517.102 313.032 517.72 323.301 518.505 336.302L518.573 337.433C519.965 360.694 520.762 385.432 520.943 410.967Z"
    fill="#656565" />
  <path
    d="M545.361 301.515C545.361 301.515 563.223 313.753 577.197 299.052C577.197 299.052 598.661 293.757 603.428 302.672C608.194 311.587 605.222 414.281 605.222 414.281H517.552C517.552 414.281 512.139 319.303 517.552 309.544C522.965 299.785 545.361 301.515 545.361 301.515Z"
    fill="#656565" />
  <path
    d="M542.9 301.128C542.9 301.128 517.563 298.147 509.956 315.913C502.348 333.679 498.048 374.061 498.048 374.061L527.846 380.048L542.9 301.128Z"
    fill="#656565" />
  <path
    d="M492.817 414.769C492.794 414.769 492.772 414.767 492.749 414.764C492.685 414.756 492.624 414.734 492.569 414.702C492.514 414.669 492.465 414.626 492.426 414.575C492.388 414.524 492.359 414.466 492.343 414.404C492.327 414.342 492.323 414.277 492.332 414.214L498.233 371.593C498.241 371.529 498.262 371.467 498.294 371.411C498.327 371.355 498.37 371.306 498.421 371.267C498.472 371.228 498.531 371.199 498.593 371.182C498.656 371.166 498.721 371.162 498.785 371.171C498.849 371.18 498.91 371.201 498.966 371.234C499.022 371.267 499.07 371.31 499.109 371.362C499.148 371.414 499.176 371.473 499.191 371.535C499.207 371.598 499.21 371.663 499.201 371.727L493.3 414.347C493.284 414.464 493.226 414.571 493.137 414.648C493.048 414.726 492.935 414.768 492.817 414.769Z"
    fill="#656565" />
  <path
    d="M591.641 255.071H591.601C591.591 254.846 591.578 254.622 591.564 254.398L591.491 254.323C590.973 246.288 587.39 238.759 581.483 233.288C575.576 227.817 567.794 224.821 559.743 224.92C551.692 225.018 543.986 228.203 538.214 233.817C532.442 239.431 529.045 247.045 528.723 255.091C527.774 255.15 526.848 255.41 526.007 255.852C525.165 256.294 524.426 256.909 523.838 257.657C523.25 258.404 522.826 259.267 522.594 260.19C522.363 261.112 522.328 262.073 522.494 263.009C522.659 263.946 523.02 264.837 523.553 265.624C524.086 266.412 524.779 267.078 525.587 267.579C526.396 268.08 527.3 268.405 528.243 268.533C529.185 268.66 530.144 268.587 531.056 268.319C531.092 268.405 531.123 268.494 531.159 268.58C534.284 278.947 541.35 290.737 557.352 292.333C577.973 294.389 586.937 280.925 590.14 268.421C591.068 268.632 592.03 268.646 592.963 268.46C593.897 268.274 594.781 267.893 595.557 267.343C596.333 266.792 596.984 266.083 597.468 265.263C597.951 264.443 598.256 263.53 598.362 262.585C598.469 261.639 598.374 260.681 598.085 259.774C597.795 258.867 597.318 258.032 596.683 257.323C596.049 256.613 595.272 256.046 594.403 255.657C593.534 255.269 592.593 255.068 591.641 255.069V255.071Z"
    fill="white" />
  <path
    d="M561.51 293.036C560.168 293.036 558.766 292.964 557.304 292.82C540.914 291.186 533.817 278.957 530.747 268.905C530.227 269.023 529.695 269.083 529.161 269.084C527.316 269.085 525.541 268.383 524.196 267.121C522.852 265.859 522.039 264.131 521.923 262.291C521.808 260.45 522.399 258.635 523.575 257.214C524.752 255.794 526.425 254.876 528.255 254.647C528.688 246.532 532.199 238.889 538.073 233.274C543.947 227.659 551.741 224.496 559.867 224.43C567.992 224.363 575.837 227.398 581.802 232.917C587.767 238.435 591.403 246.02 591.968 254.126C592.016 254.198 592.045 254.281 592.051 254.367C592.056 254.442 592.061 254.518 592.065 254.594C593.948 254.706 595.712 255.546 596.985 256.937C598.259 258.328 598.94 260.16 598.884 262.045C598.829 263.93 598.042 265.719 596.69 267.033C595.338 268.347 593.527 269.082 591.641 269.084C591.258 269.083 590.875 269.051 590.497 268.989C587.982 278.422 580.944 293.036 561.51 293.036ZM531.057 267.834C531.153 267.834 531.248 267.862 531.328 267.916C531.409 267.97 531.471 268.046 531.508 268.136L531.609 268.393C531.616 268.409 531.622 268.425 531.627 268.442C534.58 278.242 541.448 290.258 557.4 291.85C579.657 294.071 587.17 278.049 589.667 268.302C589.699 268.179 589.777 268.073 589.885 268.007C589.994 267.941 590.124 267.919 590.248 267.947C591.109 268.144 592.001 268.156 592.867 267.984C593.732 267.812 594.552 267.459 595.272 266.949C595.992 266.438 596.596 265.781 597.045 265.021C597.494 264.261 597.777 263.415 597.876 262.538C597.976 261.661 597.889 260.772 597.621 259.931C597.354 259.09 596.912 258.315 596.324 257.656C595.736 256.998 595.016 256.47 594.211 256.109C593.406 255.748 592.533 255.561 591.65 255.56H591.602C591.476 255.56 591.355 255.512 591.264 255.425C591.173 255.338 591.119 255.22 591.113 255.094C591.106 254.929 591.097 254.763 591.086 254.597C591.038 254.525 591.009 254.44 591.004 254.353C590.494 246.443 586.967 239.03 581.151 233.644C575.336 228.258 567.675 225.309 559.749 225.406C551.822 225.504 544.236 228.639 538.554 234.166C532.872 239.692 529.528 247.189 529.211 255.109C529.206 255.23 529.157 255.345 529.073 255.431C528.988 255.517 528.875 255.57 528.754 255.577C527.874 255.633 527.015 255.874 526.234 256.284C525.453 256.694 524.767 257.265 524.221 257.958C523.676 258.651 523.283 259.452 523.068 260.308C522.853 261.164 522.821 262.055 522.974 262.924C523.128 263.793 523.463 264.62 523.957 265.35C524.452 266.081 525.095 266.699 525.845 267.164C526.595 267.629 527.435 267.93 528.309 268.048C529.184 268.167 530.073 268.099 530.919 267.85C530.964 267.838 531.01 267.832 531.057 267.834Z"
    fill="#656565" />
  <path
    d="M515.589 375.173C515.46 375.173 515.336 375.122 515.245 375.031C515.154 374.941 515.102 374.818 515.101 374.689L514.658 324.982C514.658 324.918 514.67 324.854 514.694 324.795C514.718 324.735 514.753 324.681 514.798 324.635C514.843 324.589 514.897 324.553 514.956 324.528C515.015 324.503 515.078 324.49 515.142 324.489H515.147C515.275 324.489 515.399 324.54 515.49 324.63C515.582 324.721 515.634 324.844 515.635 324.973L516.077 374.68C516.078 374.744 516.066 374.808 516.042 374.867C516.018 374.927 515.982 374.981 515.937 375.026C515.892 375.072 515.839 375.109 515.78 375.134C515.721 375.159 515.657 375.172 515.593 375.173L515.589 375.173Z"
    fill="white" />
  <path
    d="M552.934 256.466C552.835 256.466 552.739 256.436 552.658 256.38C550.921 255.322 548.926 254.762 546.892 254.76C544.858 254.758 542.862 255.314 541.123 256.368C541.067 256.4 541.006 256.421 540.942 256.429C540.878 256.437 540.814 256.432 540.752 256.416C540.69 256.399 540.632 256.37 540.581 256.33C540.531 256.291 540.488 256.242 540.456 256.187C540.425 256.131 540.404 256.07 540.396 256.006C540.388 255.942 540.392 255.878 540.409 255.816C540.426 255.754 540.455 255.696 540.494 255.645C540.534 255.595 540.583 255.552 540.638 255.52C542.545 254.397 544.719 253.81 546.932 253.819C549.145 253.829 551.314 254.436 553.211 255.575C553.297 255.634 553.362 255.719 553.396 255.818C553.43 255.916 553.432 256.023 553.401 256.123C553.37 256.222 553.308 256.309 553.224 256.371C553.139 256.433 553.038 256.466 552.934 256.466Z"
    fill="#656565" />
  <path
    d="M548.166 266.283C549.842 266.283 551.2 264.925 551.2 263.25C551.2 261.575 549.842 260.217 548.166 260.217C546.491 260.217 545.133 261.575 545.133 263.25C545.133 264.925 546.491 266.283 548.166 266.283Z"
    fill="#656565" />
  <path
    d="M557.948 270.536C557.446 270.536 557.041 270.51 556.853 270.495C556.725 270.484 556.607 270.422 556.523 270.324C556.44 270.226 556.399 270.1 556.409 269.971C556.419 269.843 556.479 269.724 556.576 269.64C556.673 269.556 556.799 269.513 556.928 269.522C558.559 269.646 560.53 269.454 560.865 268.925C561.173 268.328 559.948 264.509 558.609 261.319C558.582 261.259 558.567 261.195 558.566 261.13C558.564 261.065 558.575 261 558.599 260.939C558.623 260.879 558.659 260.823 558.704 260.777C558.75 260.73 558.804 260.693 558.865 260.668C558.925 260.643 558.989 260.63 559.054 260.63C559.12 260.63 559.184 260.643 559.244 260.668C559.304 260.694 559.358 260.731 559.404 260.778C559.449 260.824 559.485 260.88 559.509 260.94C560.416 263.101 562.444 268.254 561.69 269.447C561.106 270.373 559.216 270.536 557.948 270.536Z"
    fill="#656565" />
  <path
    d="M548.003 271.047C548.017 269.536 546.152 268.294 543.838 268.273C541.524 268.252 539.636 269.46 539.623 270.971C539.609 272.481 541.474 273.723 543.788 273.744C546.102 273.765 547.99 272.557 548.003 271.047Z"
    fill="#3D8F80" />
  <path
    d="M554.741 284.044C552.908 284.044 551.416 282.223 551.416 279.984C551.416 277.746 552.908 275.924 554.741 275.924C556.575 275.924 558.067 277.746 558.067 279.984C558.067 282.223 556.575 284.044 554.741 284.044ZM554.741 276.901C553.446 276.901 552.393 278.284 552.393 279.984C552.393 281.685 553.446 283.068 554.741 283.068C556.036 283.068 557.09 281.685 557.09 279.984C557.09 278.284 556.037 276.9 554.741 276.9V276.901ZM525.349 255.977C525.349 255.977 527.79 254.841 528.864 255.977C529.939 257.113 530.056 259.269 531.701 259.269C533.347 259.269 533.063 249.396 534.652 244.97C536.241 240.544 540.878 236.23 540.878 236.23C540.878 236.23 550.994 242.698 555.306 240.315C559.619 237.933 555.306 233.847 555.306 233.847C555.306 233.847 564.158 241.336 568.698 239.521C573.237 237.706 569.722 233.849 569.722 233.849C569.722 233.849 579.726 241.857 586.696 239.554C593.667 237.251 594.007 227.899 590.83 224.916C587.652 221.934 578.99 224.916 578.99 224.916C578.99 224.916 557.017 208.153 539.594 224.916C539.594 224.916 531.25 225.791 527.391 231.239C523.533 236.686 525.349 255.977 525.349 255.977Z"
    fill="#656565" />
  <path
    d="M605.221 353.535C605.102 353.535 604.986 353.491 604.897 353.412C604.808 353.333 604.751 353.224 604.736 353.105L601.732 328.29C601.724 328.226 601.729 328.161 601.747 328.1C601.764 328.038 601.793 327.98 601.833 327.93C601.872 327.879 601.921 327.837 601.977 327.806C602.033 327.774 602.095 327.754 602.158 327.746C602.222 327.739 602.287 327.743 602.348 327.761C602.41 327.778 602.468 327.807 602.518 327.847C602.569 327.886 602.611 327.936 602.642 327.991C602.674 328.047 602.694 328.109 602.702 328.172L605.706 352.988C605.714 353.057 605.708 353.126 605.687 353.192C605.667 353.258 605.632 353.319 605.587 353.371C605.541 353.422 605.484 353.464 605.421 353.492C605.358 353.52 605.29 353.535 605.221 353.535Z"
    fill="white" />
  <path
    d="M643.832 264.652C656.604 264.652 666.958 254.298 666.958 241.526C666.958 228.754 656.604 218.4 643.832 218.4C631.06 218.4 620.706 228.754 620.706 241.526C620.706 254.298 631.06 264.652 643.832 264.652Z"
    fill="white" />
  <path
    d="M643.831 265.629C639.064 265.629 634.404 264.215 630.44 261.567C626.476 258.918 623.387 255.154 621.563 250.75C619.738 246.345 619.261 241.499 620.191 236.823C621.121 232.148 623.417 227.853 626.788 224.482C630.159 221.111 634.454 218.816 639.129 217.886C643.805 216.956 648.651 217.433 653.055 219.258C657.459 221.082 661.224 224.172 663.872 228.135C666.521 232.099 667.934 236.759 667.934 241.526C667.927 247.917 665.385 254.043 660.866 258.562C656.348 263.08 650.221 265.622 643.831 265.629ZM643.831 219.376C639.45 219.376 635.168 220.676 631.525 223.109C627.883 225.543 625.044 229.003 623.367 233.05C621.691 237.097 621.252 241.551 622.107 245.848C622.961 250.144 625.071 254.091 628.169 257.189C631.266 260.286 635.213 262.396 639.51 263.251C643.806 264.105 648.26 263.667 652.307 261.99C656.355 260.314 659.814 257.475 662.248 253.832C664.682 250.19 665.981 245.907 665.981 241.526C665.974 235.654 663.639 230.024 659.486 225.871C655.334 221.719 649.704 219.383 643.831 219.376Z"
    fill="#656565" />
  <path
    d="M643.831 243.301C648.784 243.301 652.8 239.285 652.8 234.331C652.8 229.377 648.784 225.361 643.831 225.361C638.877 225.361 634.861 229.377 634.861 234.331C634.861 239.285 638.877 243.301 643.831 243.301Z"
    fill="#656565" />
  <path
    d="M655.179 251.236C655.179 248.226 653.984 245.34 651.855 243.211C649.727 241.083 646.84 239.887 643.831 239.887C642.34 239.887 640.865 240.181 639.488 240.751C638.111 241.322 636.86 242.158 635.806 243.211C634.752 244.265 633.916 245.516 633.346 246.893C632.775 248.27 632.482 249.746 632.482 251.236V253.785C632.482 255.943 634.231 257.692 636.388 257.692H651.273C653.43 257.692 655.179 255.943 655.179 253.785V251.236Z"
    fill="#656565" />
  <path
    d="M663.921 253.283C663.73 253.283 663.543 253.238 663.373 253.152L622.802 232.726C622.658 232.655 622.529 232.556 622.423 232.434C622.317 232.313 622.236 232.172 622.185 232.019C622.134 231.866 622.114 231.705 622.125 231.544C622.137 231.384 622.18 231.227 622.253 231.083C622.325 230.939 622.425 230.811 622.547 230.706C622.67 230.601 622.811 230.521 622.964 230.471C623.117 230.421 623.279 230.402 623.44 230.415C623.6 230.428 623.757 230.472 623.9 230.546L664.471 250.973C664.716 251.096 664.913 251.299 665.029 251.548C665.145 251.797 665.174 252.079 665.11 252.346C665.047 252.614 664.895 252.852 664.679 253.022C664.463 253.192 664.196 253.285 663.921 253.284V253.283Z"
    fill="#3D8F80" />
  <path
    d="M529.952 247.274C529.826 247.274 529.705 247.226 529.614 247.139C529.523 247.052 529.469 246.934 529.464 246.808C529.449 246.492 529.179 239.003 535.117 234.812C535.223 234.737 535.354 234.707 535.482 234.729C535.609 234.751 535.723 234.823 535.798 234.929C535.872 235.035 535.902 235.166 535.88 235.293C535.858 235.421 535.786 235.535 535.68 235.609C530.187 239.487 530.436 246.693 530.439 246.764C530.445 246.894 530.399 247.02 530.311 247.115C530.224 247.211 530.102 247.268 529.973 247.273L529.952 247.274ZM551.755 238.269C548.755 238.269 544.122 233.728 543.566 233.172C543.519 233.127 543.482 233.073 543.456 233.014C543.431 232.954 543.417 232.89 543.417 232.825C543.416 232.761 543.428 232.696 543.453 232.636C543.477 232.576 543.514 232.522 543.56 232.476C543.605 232.43 543.66 232.394 543.72 232.369C543.78 232.345 543.844 232.332 543.909 232.333C543.974 232.333 544.038 232.347 544.098 232.373C544.157 232.398 544.211 232.435 544.256 232.482C545.778 234.003 550.168 237.821 552.173 237.238C552.317 237.199 552.451 237.127 552.564 237.028C552.677 236.93 552.766 236.807 552.825 236.668C553.5 235.24 552.358 231.912 551.86 230.75C551.817 230.649 551.809 230.537 551.837 230.432C551.866 230.326 551.928 230.234 552.015 230.168C552.103 230.102 552.209 230.068 552.318 230.07C552.427 230.072 552.533 230.11 552.617 230.179C552.701 230.247 561.026 236.973 564.776 234.789C564.831 234.756 564.892 234.735 564.956 234.727C565.019 234.718 565.084 234.722 565.146 234.738C565.208 234.754 565.266 234.783 565.317 234.822C565.368 234.86 565.411 234.909 565.444 234.964C565.476 235.02 565.497 235.081 565.506 235.145C565.514 235.208 565.51 235.273 565.494 235.335C565.478 235.397 565.449 235.455 565.41 235.506C565.372 235.557 565.323 235.6 565.268 235.632C561.911 237.59 556.001 233.865 553.348 231.956C553.836 233.483 554.352 235.728 553.711 237.083C553.592 237.345 553.418 237.579 553.2 237.767C552.982 237.956 552.725 238.094 552.448 238.173C552.223 238.238 551.989 238.27 551.755 238.269ZM582.83 235.4C580.933 235.358 579.057 234.994 577.282 234.323C574.942 233.471 572.713 232.341 570.642 230.958C570.587 230.922 570.54 230.876 570.504 230.822C570.468 230.767 570.443 230.707 570.43 230.643C570.418 230.578 570.419 230.513 570.432 230.449C570.446 230.385 570.472 230.324 570.509 230.271C570.546 230.217 570.594 230.172 570.649 230.137C570.704 230.102 570.766 230.079 570.83 230.068C570.894 230.057 570.96 230.06 571.024 230.075C571.087 230.09 571.147 230.118 571.199 230.157C571.312 230.235 582.511 237.915 588.055 232.479C588.148 232.39 588.272 232.342 588.401 232.344C588.529 232.346 588.651 232.399 588.741 232.49C588.831 232.582 588.881 232.705 588.88 232.833C588.88 232.962 588.829 233.085 588.739 233.176C587.952 233.922 587.024 234.503 586.009 234.885C584.994 235.267 583.913 235.442 582.83 235.4Z"
    fill="white" />
  <path
    d="M594.572 313.043C596.979 319.335 619.722 377.551 641.462 374.574C642.212 374.472 646.095 373.939 648.408 371.039C658.579 358.281 622.399 319.793 607.8 304.933L594.572 313.043Z"
    fill="white" />
  <path
    d="M639.822 375.174C630.927 375.174 621.024 365.889 610.347 347.53C601.936 333.066 595.796 317.61 594.117 313.218C594.077 313.112 594.075 312.994 594.111 312.886C594.148 312.778 594.221 312.687 594.319 312.627L607.546 304.517C607.64 304.459 607.751 304.435 607.861 304.449C607.97 304.462 608.072 304.512 608.149 304.591C620.634 317.298 630.605 328.702 637.788 338.486C649.621 354.604 653.323 365.658 648.792 371.343C646.674 373.999 643.334 374.81 641.531 375.058C640.965 375.135 640.394 375.174 639.822 375.174ZM595.173 313.247C598.311 321.377 620.573 376.94 641.396 374.091C643.056 373.863 646.12 373.125 648.026 370.734C654.862 362.158 640.551 339.016 607.723 305.552L595.173 313.247Z"
    fill="#656565" />
  <path d="M582.593 280.442L587.134 278.848L592.537 294.244L587.997 295.837L582.593 280.442Z" fill="#656565" />
  <path
    d="M591.244 290.644L586.831 292.192C585.246 292.749 584.412 294.484 584.969 296.069L594.194 322.353C594.75 323.938 596.486 324.772 598.071 324.216L602.484 322.667C604.069 322.111 604.903 320.375 604.346 318.79L595.121 292.506C594.565 290.921 592.829 290.087 591.244 290.644Z"
    fill="white" />
  <path
    d="M597.11 324.807C596.379 324.807 595.665 324.58 595.068 324.157C594.471 323.735 594.02 323.137 593.777 322.447L584.544 296.166C584.235 295.283 584.289 294.313 584.694 293.469C585.099 292.626 585.822 291.977 586.704 291.666L591.117 290.116C591.554 289.962 592.017 289.896 592.48 289.922C592.943 289.947 593.396 290.063 593.814 290.264C594.232 290.464 594.606 290.745 594.916 291.091C595.225 291.436 595.463 291.839 595.617 292.276L604.849 318.557C605.003 318.995 605.069 319.458 605.044 319.921C605.019 320.384 604.902 320.837 604.702 321.255C604.501 321.673 604.22 322.047 603.875 322.356C603.529 322.666 603.127 322.904 602.689 323.057L598.277 324.607C597.902 324.739 597.507 324.807 597.11 324.807ZM592.284 290.893C591.997 290.893 591.712 290.943 591.441 291.039L587.028 292.589C586.39 292.814 585.867 293.283 585.574 293.893C585.281 294.504 585.242 295.205 585.465 295.844L594.698 322.126C594.923 322.764 595.392 323.287 596.002 323.58C596.612 323.873 597.314 323.912 597.953 323.688L602.366 322.138C603.005 321.913 603.528 321.444 603.821 320.834C604.114 320.224 604.153 319.522 603.928 318.883L594.696 292.602C594.52 292.102 594.194 291.67 593.762 291.364C593.33 291.057 592.814 290.893 592.284 290.893Z"
    fill="#656565" />
  <path
    d="M580.304 285.305C590.749 285.305 599.217 276.837 599.217 266.392C599.217 255.947 590.749 247.48 580.304 247.48C569.859 247.48 561.392 255.947 561.392 266.392C561.392 276.837 569.859 285.305 580.304 285.305Z"
    fill="white" />
  <path
    d="M580.322 285.795C576.762 285.798 573.271 284.822 570.229 282.974C567.187 281.126 564.712 278.476 563.075 275.316C561.438 272.155 560.702 268.605 560.948 265.054C561.194 261.503 562.412 258.088 564.468 255.183C566.525 252.278 569.341 249.995 572.609 248.583C575.876 247.171 579.469 246.686 582.994 247.179C586.519 247.673 589.84 249.127 592.594 251.382C595.348 253.637 597.429 256.606 598.608 259.965C599.635 262.888 599.946 266.016 599.516 269.085C599.086 272.153 597.928 275.075 596.137 277.604C594.347 280.133 591.977 282.197 589.225 283.622C586.473 285.048 583.421 285.793 580.322 285.797V285.795ZM580.287 247.967C576.379 247.97 572.572 249.216 569.418 251.525C566.264 253.835 563.926 257.087 562.742 260.813C561.559 264.538 561.591 268.543 562.833 272.25C564.076 275.956 566.465 279.171 569.656 281.429C572.846 283.688 576.672 284.874 580.58 284.815C584.489 284.756 588.277 283.456 591.398 281.102C594.519 278.748 596.81 275.462 597.941 271.72C599.071 267.978 598.982 263.974 597.687 260.286C596.417 256.685 594.062 253.566 590.946 251.36C587.83 249.154 584.106 247.968 580.287 247.967Z"
    fill="#656565" />
  <path
    d="M580.304 282.868C589.404 282.868 596.78 275.492 596.78 266.392C596.78 257.293 589.404 249.916 580.304 249.916C571.205 249.916 563.828 257.293 563.828 266.392C563.828 275.492 571.205 282.868 580.304 282.868Z"
    fill="white" />
  <path
    d="M580.291 283.365C577.179 283.364 574.127 282.507 571.47 280.888C568.812 279.269 566.65 276.95 565.222 274.186C563.793 271.421 563.153 268.316 563.37 265.212C563.587 262.107 564.654 259.122 566.453 256.583C568.253 254.044 570.716 252.049 573.573 250.816C576.431 249.583 579.572 249.159 582.654 249.591C585.736 250.023 588.64 251.295 591.048 253.266C593.456 255.238 595.275 257.834 596.307 260.77C597.202 263.329 597.472 266.065 597.093 268.75C596.715 271.434 595.699 273.989 594.131 276.201C592.564 278.413 590.489 280.218 588.081 281.464C585.674 282.71 583.003 283.362 580.291 283.365ZM580.316 250.396C576.922 250.393 573.615 251.469 570.873 253.469C568.131 255.469 566.097 258.29 565.064 261.523C564.031 264.756 564.054 268.234 565.129 271.453C566.203 274.672 568.274 277.466 571.042 279.431C573.809 281.395 577.13 282.428 580.524 282.38C583.917 282.332 587.208 281.206 589.919 279.164C592.63 277.123 594.622 274.272 595.605 271.023C596.588 267.775 596.513 264.298 595.389 261.095C594.29 257.973 592.251 255.269 589.552 253.353C586.853 251.438 583.627 250.406 580.318 250.398L580.316 250.396Z"
    fill="#656565" />
  <path
    d="M610.171 307.362C610.171 307.362 601.701 298.261 598.403 296.526C595.105 294.791 585.62 296.18 584.839 297.906C584.058 299.633 586.255 302.054 586.255 302.054C586.255 302.054 584.763 304.778 587.666 306.215C587.666 306.215 585.801 308.787 589.13 310.225C589.13 310.225 588.064 313.215 591.474 314.406C594.885 315.596 600.784 314.161 602.751 315.975C604.717 317.788 604.557 319.379 604.557 319.379"
    fill="white" />
  <path
    d="M604.555 319.867H604.506C604.442 319.861 604.379 319.843 604.322 319.812C604.265 319.782 604.215 319.741 604.174 319.691C604.133 319.641 604.103 319.583 604.084 319.521C604.066 319.459 604.06 319.395 604.066 319.33C604.07 319.282 604.15 317.937 602.413 316.334C601.464 315.457 599.17 315.449 596.951 315.441C594.962 315.433 592.906 315.426 591.306 314.866C590.776 314.714 590.283 314.456 589.856 314.108C589.428 313.76 589.076 313.328 588.82 312.84C588.487 312.106 588.394 311.286 588.554 310.496C588.129 310.314 587.748 310.043 587.436 309.702C587.123 309.36 586.888 308.956 586.744 308.516C586.574 307.804 586.663 307.055 586.995 306.403C586.3 305.999 585.777 305.355 585.523 304.593C585.296 303.779 585.351 302.913 585.679 302.135C585.109 301.427 583.642 299.366 584.392 297.706C584.633 297.173 585.331 296.715 586.528 296.303C589.537 295.269 595.899 294.658 598.628 296.094C601.962 297.848 610.178 306.656 610.526 307.032C610.57 307.078 610.604 307.134 610.626 307.194C610.649 307.254 610.659 307.318 610.657 307.382C610.654 307.446 610.639 307.509 610.613 307.567C610.586 307.626 610.548 307.678 610.501 307.722C610.454 307.765 610.399 307.799 610.339 307.822C610.279 307.844 610.215 307.854 610.151 307.852C610.087 307.85 610.024 307.835 609.965 307.808C609.907 307.781 609.855 307.744 609.811 307.697C609.727 307.606 601.364 298.637 598.174 296.96C595.928 295.78 590.068 296.121 586.846 297.228C585.828 297.578 585.367 297.922 585.283 298.11C584.751 299.287 586.064 301.121 586.614 301.728C586.682 301.804 586.725 301.898 586.737 301.999C586.749 302.1 586.729 302.202 586.68 302.291C586.367 302.915 586.288 303.631 586.458 304.308C586.581 304.638 586.771 304.939 587.016 305.192C587.26 305.445 587.554 305.645 587.879 305.78C587.943 305.811 587.999 305.856 588.043 305.912C588.088 305.967 588.119 306.031 588.136 306.1C588.153 306.169 588.155 306.241 588.142 306.311C588.128 306.38 588.099 306.446 588.058 306.504C587.883 306.759 587.761 307.046 587.698 307.348C587.635 307.65 587.632 307.962 587.689 308.266C587.859 308.876 588.409 309.385 589.321 309.78C589.435 309.829 589.525 309.919 589.575 310.033C589.624 310.147 589.629 310.275 589.587 310.392C589.552 310.493 588.741 312.938 591.63 313.948C593.075 314.452 595.048 314.46 596.956 314.467C599.472 314.476 601.849 314.485 603.077 315.619C605.198 317.577 605.047 319.356 605.039 319.431C605.027 319.551 604.97 319.661 604.881 319.742C604.791 319.823 604.675 319.867 604.555 319.867Z"
    fill="#656565" />
  <path
    d="M572.825 256.186C572.721 256.186 572.62 256.153 572.536 256.091C572.452 256.029 572.39 255.942 572.359 255.842C572.328 255.743 572.33 255.636 572.364 255.537C572.399 255.439 572.463 255.354 572.549 255.295C574.475 253.987 576.746 253.281 579.074 253.268H579.094C581.339 253.277 583.535 253.93 585.421 255.148C585.474 255.183 585.521 255.229 585.557 255.282C585.593 255.335 585.619 255.394 585.632 255.457C585.645 255.52 585.646 255.584 585.634 255.647C585.622 255.71 585.598 255.77 585.563 255.824C585.528 255.878 585.483 255.924 585.43 255.961C585.377 255.997 585.318 256.022 585.255 256.035C585.192 256.049 585.127 256.049 585.064 256.038C585.001 256.026 584.941 256.002 584.887 255.967C583.161 254.851 581.15 254.253 579.094 254.244H579.076C576.945 254.256 574.865 254.902 573.101 256.1C573.02 256.156 572.924 256.186 572.825 256.186Z"
    fill="#656565" />
  <path
    d="M578.253 267.402C580.199 267.402 581.775 265.825 581.775 263.88C581.775 261.935 580.199 260.358 578.253 260.358C576.308 260.358 574.731 261.935 574.731 263.88C574.731 265.825 576.308 267.402 578.253 267.402Z"
    fill="#656565" />
  <path
    d="M586.186 273.306C586.202 271.552 584.037 270.111 581.35 270.086C578.663 270.062 576.472 271.464 576.456 273.218C576.44 274.972 578.605 276.413 581.292 276.437C583.979 276.462 586.17 275.06 586.186 273.306Z"
    fill="#3D8F80" />
  <path
    d="M586.555 302.088C586.435 302.087 586.32 302.043 586.231 301.964C586.141 301.884 586.085 301.774 586.071 301.656C586.057 301.537 586.087 301.417 586.156 301.319C586.225 301.221 586.327 301.152 586.443 301.124C586.603 301.086 590.395 300.203 592.689 300.433C592.818 300.445 592.937 300.509 593.019 300.609C593.101 300.71 593.139 300.838 593.126 300.967C593.113 301.096 593.05 301.214 592.95 301.296C592.849 301.378 592.721 301.417 592.592 301.404C590.461 301.186 586.706 302.066 586.669 302.075C586.631 302.084 586.593 302.088 586.555 302.088ZM587.662 306.701C587.544 306.7 587.43 306.657 587.341 306.578C587.252 306.5 587.195 306.392 587.179 306.274C587.164 306.157 587.193 306.038 587.259 305.939C587.325 305.841 587.425 305.77 587.539 305.74C589.49 305.269 591.508 305.137 593.504 305.35C593.632 305.366 593.749 305.434 593.827 305.536C593.906 305.639 593.941 305.769 593.924 305.897C593.907 306.026 593.84 306.142 593.737 306.221C593.635 306.3 593.505 306.335 593.376 306.318C591.505 306.127 589.616 306.251 587.786 306.684C587.746 306.695 587.704 306.701 587.662 306.701ZM594.572 310.713C594.513 310.713 594.453 310.702 594.398 310.681C592.025 309.774 589.312 310.677 589.285 310.686C589.163 310.725 589.031 310.715 588.917 310.657C588.803 310.6 588.716 310.5 588.675 310.379C588.633 310.258 588.641 310.126 588.696 310.011C588.751 309.896 588.849 309.806 588.969 309.763C589.093 309.72 592.037 308.733 594.746 309.768C594.853 309.809 594.942 309.886 594.998 309.986C595.054 310.085 595.073 310.201 595.052 310.313C595.031 310.425 594.972 310.527 594.884 310.6C594.797 310.673 594.686 310.713 594.572 310.713Z"
    fill="#656565" />
  <path
    d="M536.556 347.167C542.981 347.167 548.189 341.958 548.189 335.533C548.189 329.108 542.981 323.899 536.556 323.899C530.13 323.899 524.922 329.108 524.922 335.533C524.922 341.958 530.13 347.167 536.556 347.167Z"
    fill="#3D8F80" />
  <path
    d="M478.901 469.56C478.794 469.56 478.704 469.523 478.629 469.448C478.554 469.373 478.517 469.277 478.517 469.16V468.248C478.517 468.141 478.554 468.051 478.629 467.976C478.704 467.901 478.794 467.864 478.901 467.864H482.837C483.776 467.864 484.554 468.008 485.173 468.296C485.802 468.573 486.277 469.005 486.597 469.592C486.917 470.168 487.077 470.893 487.077 471.768V476.616C487.077 476.723 487.04 476.813 486.965 476.888C486.89 476.963 486.8 477 486.693 477H485.429C485.312 477 485.216 476.968 485.141 476.904C485.077 476.829 485.045 476.733 485.045 476.616V471.848C485.045 471.123 484.858 470.563 484.485 470.168C484.122 469.763 483.541 469.56 482.741 469.56H478.901ZM480.629 468.616H481.173C481.408 468.616 481.568 468.664 481.653 468.76C481.749 468.856 481.786 468.968 481.765 469.096C481.669 469.48 481.589 469.843 481.525 470.184C481.472 470.515 481.429 470.851 481.397 471.192C481.376 471.533 481.365 471.912 481.365 472.328L481.445 476.616C481.445 476.723 481.408 476.813 481.333 476.888C481.269 476.963 481.178 477 481.061 477L478.277 476.984C478.17 476.984 478.08 476.947 478.005 476.872C477.93 476.797 477.893 476.707 477.893 476.6V475.736C477.893 475.629 477.93 475.539 478.005 475.464C478.08 475.389 478.17 475.352 478.277 475.352L479.541 475.368V472.376C479.541 471.981 479.546 471.613 479.557 471.272C479.578 470.931 479.616 470.584 479.669 470.232C479.733 469.88 479.824 469.496 479.941 469.08C479.984 468.952 480.053 468.845 480.149 468.76C480.245 468.664 480.405 468.616 480.629 468.616ZM494.014 475.416C494.643 475.427 495.182 475.309 495.63 475.064C496.089 474.808 496.441 474.456 496.686 474.008C496.942 473.56 497.07 473.048 497.07 472.472V468.248C497.07 468.131 497.102 468.04 497.166 467.976C497.241 467.901 497.337 467.864 497.454 467.864H498.574C498.691 467.864 498.782 467.901 498.846 467.976C498.921 468.051 498.958 468.141 498.958 468.248V472.584C498.958 473.277 498.841 473.907 498.606 474.472C498.382 475.037 498.062 475.517 497.646 475.912C497.23 476.307 496.739 476.611 496.174 476.824C495.619 477.027 495.011 477.123 494.35 477.112H492.99C492.211 477.112 491.529 476.952 490.942 476.632C490.355 476.301 489.897 475.853 489.566 475.288C489.246 474.712 489.086 474.061 489.086 473.336V468.248C489.086 468.141 489.123 468.051 489.198 467.976C489.273 467.901 489.363 467.864 489.47 467.864H490.606C490.713 467.864 490.803 467.901 490.878 467.976C490.953 468.04 490.99 468.131 490.99 468.248L491.022 472.6C491.022 473.507 491.262 474.205 491.742 474.696C492.233 475.176 492.841 475.416 493.566 475.416H494.014ZM490.718 473.944L490.702 472.472C491.342 472.461 491.838 472.355 492.19 472.152C492.542 471.939 492.787 471.651 492.926 471.288C493.065 470.915 493.134 470.488 493.134 470.008V468.264C493.134 468.147 493.166 468.051 493.23 467.976C493.305 467.901 493.401 467.864 493.518 467.864H494.638C494.745 467.864 494.835 467.901 494.91 467.976C494.985 468.051 495.022 468.147 495.022 468.264V470.056C495.022 470.845 494.862 471.533 494.542 472.12C494.222 472.696 493.742 473.144 493.102 473.464C492.462 473.784 491.667 473.944 490.718 473.944ZM502.643 469.624V470.552C502.654 470.861 502.696 471.117 502.771 471.32C502.846 471.512 502.974 471.635 503.155 471.688L503.683 471.848C503.768 471.869 503.832 471.928 503.875 472.024C503.928 472.109 503.955 472.216 503.955 472.344L503.971 472.92C503.971 473.069 503.902 473.181 503.763 473.256C503.635 473.32 503.491 473.341 503.331 473.32L502.691 473.192C502.339 473.128 502.03 472.984 501.763 472.76C501.496 472.525 501.288 472.216 501.139 471.832C501 471.437 500.931 470.973 500.931 470.44V468.248C500.942 468.141 500.979 468.051 501.043 467.976C501.107 467.901 501.198 467.864 501.315 467.864H504.403C505.278 467.864 505.998 468.029 506.563 468.36C507.139 468.68 507.571 469.144 507.859 469.752C508.147 470.349 508.307 471.064 508.339 471.896C508.35 472.056 508.355 472.237 508.355 472.44C508.355 472.632 508.35 472.808 508.339 472.968C508.307 473.789 508.147 474.504 507.859 475.112C507.571 475.72 507.139 476.189 506.563 476.52C505.998 476.84 505.278 477 504.403 477H501.507C501.4 477 501.31 476.963 501.235 476.888C501.16 476.813 501.123 476.723 501.123 476.616V475.624C501.123 475.517 501.16 475.427 501.235 475.352C501.31 475.277 501.4 475.24 501.507 475.24H504.323C504.963 475.24 505.47 475.043 505.843 474.648C506.227 474.243 506.435 473.677 506.467 472.952C506.478 472.792 506.483 472.621 506.483 472.44C506.483 472.248 506.478 472.072 506.467 471.912C506.446 471.187 506.243 470.627 505.859 470.232C505.475 469.827 504.963 469.624 504.323 469.624H502.643ZM510.501 473.256C510.395 473.256 510.304 473.219 510.229 473.144C510.155 473.069 510.117 472.979 510.117 472.872V468.248C510.117 468.141 510.155 468.051 510.229 467.976C510.304 467.901 510.395 467.864 510.501 467.864H511.829C511.947 467.864 512.037 467.901 512.101 467.976C512.176 468.051 512.213 468.141 512.213 468.248V472.872C512.213 472.979 512.176 473.069 512.101 473.144C512.037 473.219 511.947 473.256 511.829 473.256H510.501ZM514.722 477C514.616 477 514.525 476.963 514.45 476.888C514.376 476.813 514.338 476.723 514.338 476.616V468.248C514.338 468.141 514.376 468.051 514.45 467.976C514.525 467.901 514.616 467.864 514.722 467.864H518.146C519.096 467.864 519.88 468.003 520.498 468.28C521.128 468.557 521.597 468.989 521.906 469.576C522.226 470.163 522.386 470.915 522.386 471.832V476.616C522.386 476.723 522.349 476.813 522.274 476.888C522.2 476.963 522.109 477 522.002 477H520.738C520.632 477 520.541 476.968 520.466 476.904C520.392 476.829 520.354 476.733 520.354 476.616V471.848C520.354 471.123 520.173 470.563 519.81 470.168C519.448 469.763 518.866 469.56 518.066 469.56H516.37V476.616C516.37 476.723 516.333 476.813 516.258 476.888C516.184 476.963 516.093 477 515.986 477H514.722ZM529.327 475.416C529.956 475.427 530.495 475.309 530.943 475.064C531.401 474.808 531.753 474.456 531.999 474.008C532.255 473.56 532.383 473.048 532.383 472.472V468.248C532.383 468.131 532.415 468.04 532.479 467.976C532.553 467.901 532.649 467.864 532.767 467.864H533.887C534.004 467.864 534.095 467.901 534.159 467.976C534.233 468.051 534.271 468.141 534.271 468.248V472.584C534.271 473.277 534.153 473.907 533.919 474.472C533.695 475.037 533.375 475.517 532.959 475.912C532.543 476.307 532.052 476.611 531.487 476.824C530.932 477.027 530.324 477.123 529.663 477.112H528.303C527.524 477.112 526.841 476.952 526.255 476.632C525.668 476.301 525.209 475.853 524.879 475.288C524.559 474.712 524.399 474.061 524.399 473.336V468.248C524.399 468.141 524.436 468.051 524.511 467.976C524.585 467.901 524.676 467.864 524.783 467.864H525.919C526.025 467.864 526.116 467.901 526.191 467.976C526.265 468.04 526.303 468.131 526.303 468.248L526.335 472.6C526.335 473.507 526.575 474.205 527.055 474.696C527.545 475.176 528.153 475.416 528.879 475.416H529.327ZM526.031 473.944L526.015 472.472C526.655 472.461 527.151 472.355 527.503 472.152C527.855 471.939 528.1 471.651 528.239 471.288C528.377 470.915 528.447 470.488 528.447 470.008V468.264C528.447 468.147 528.479 468.051 528.543 467.976C528.617 467.901 528.713 467.864 528.831 467.864H529.951C530.057 467.864 530.148 467.901 530.223 467.976C530.297 468.051 530.335 468.147 530.335 468.264V470.056C530.335 470.845 530.175 471.533 529.855 472.12C529.535 472.696 529.055 473.144 528.415 473.464C527.775 473.784 526.98 473.944 526.031 473.944ZM546.316 477C546.198 477 546.102 476.968 546.028 476.904C545.964 476.829 545.932 476.733 545.932 476.616V471.848C545.932 471.123 545.745 470.563 545.372 470.168C545.009 469.763 544.428 469.56 543.628 469.56H540.332C540.225 469.56 540.134 469.523 540.06 469.448C539.985 469.373 539.948 469.277 539.948 469.16V468.248C539.948 468.141 539.985 468.051 540.06 467.976C540.134 467.901 540.225 467.864 540.332 467.864H543.708C545.126 467.864 546.188 468.195 546.892 468.856C547.596 469.507 547.948 470.499 547.948 471.832V476.616C547.948 476.723 547.91 476.813 547.836 476.888C547.772 476.963 547.681 477 547.564 477H546.316ZM540.332 477C540.225 477 540.134 476.963 540.06 476.888C539.985 476.813 539.948 476.723 539.948 476.616V471.576C539.948 471.469 539.985 471.379 540.06 471.304C540.134 471.229 540.225 471.192 540.332 471.192H541.596C541.702 471.192 541.793 471.229 541.868 471.304C541.942 471.379 541.98 471.469 541.98 471.576V476.616C541.98 476.723 541.942 476.813 541.868 476.888C541.793 476.963 541.702 477 541.596 477H540.332ZM554.489 469.608L550.201 469.624C550.094 469.624 550.004 469.587 549.929 469.512C549.854 469.437 549.817 469.347 549.817 469.24V468.248C549.817 468.141 549.854 468.051 549.929 467.976C550.004 467.901 550.094 467.864 550.201 467.864H554.761C555.444 467.864 556.057 468.013 556.601 468.312C557.145 468.6 557.566 469.032 557.865 469.608C558.174 470.184 558.329 470.904 558.329 471.768V476.616C558.329 476.723 558.292 476.813 558.217 476.888C558.153 476.963 558.062 477 557.945 477H553.721C553.604 477 553.508 476.963 553.433 476.888C553.369 476.813 553.337 476.723 553.337 476.616V475.688C553.337 475.581 553.369 475.491 553.433 475.416C553.508 475.341 553.604 475.304 553.721 475.304H556.313V471.88C556.313 471.411 556.233 471.005 556.073 470.664C555.913 470.323 555.694 470.061 555.417 469.88C555.14 469.699 554.83 469.608 554.489 469.608ZM550.057 477C549.961 477 549.876 476.963 549.801 476.888C549.726 476.813 549.7 476.717 549.721 476.6L551.241 469.128C551.262 469.011 551.31 468.92 551.385 468.856C551.46 468.792 551.55 468.765 551.657 468.776L552.729 468.808C552.846 468.819 552.937 468.867 553.001 468.952C553.076 469.037 553.102 469.133 553.081 469.24L551.705 476.6C551.705 476.717 551.662 476.813 551.577 476.888C551.492 476.963 551.396 477 551.289 477H550.057ZM564.776 469.56C564.669 469.56 564.579 469.523 564.504 469.448C564.429 469.373 564.392 469.277 564.392 469.16V468.248C564.392 468.141 564.429 468.051 564.504 467.976C564.579 467.901 564.669 467.864 564.776 467.864H568.712C569.651 467.864 570.429 468.008 571.048 468.296C571.677 468.573 572.152 469.005 572.472 469.592C572.792 470.168 572.952 470.893 572.952 471.768V476.616C572.952 476.723 572.915 476.813 572.84 476.888C572.765 476.963 572.675 477 572.568 477H571.304C571.187 477 571.091 476.968 571.016 476.904C570.952 476.829 570.92 476.733 570.92 476.616V471.848C570.92 471.123 570.733 470.563 570.36 470.168C569.997 469.763 569.416 469.56 568.616 469.56H564.776ZM566.504 468.616H567.048C567.283 468.616 567.443 468.664 567.528 468.76C567.624 468.856 567.661 468.968 567.64 469.096C567.544 469.48 567.464 469.843 567.4 470.184C567.347 470.515 567.304 470.851 567.272 471.192C567.251 471.533 567.24 471.912 567.24 472.328L567.32 476.616C567.32 476.723 567.283 476.813 567.208 476.888C567.144 476.963 567.053 477 566.936 477L564.152 476.984C564.045 476.984 563.955 476.947 563.88 476.872C563.805 476.797 563.768 476.707 563.768 476.6V475.736C563.768 475.629 563.805 475.539 563.88 475.464C563.955 475.389 564.045 475.352 564.152 475.352L565.416 475.368V472.376C565.416 471.981 565.421 471.613 565.432 471.272C565.453 470.931 565.491 470.584 565.544 470.232C565.608 469.88 565.699 469.496 565.816 469.08C565.859 468.952 565.928 468.845 566.024 468.76C566.12 468.664 566.28 468.616 566.504 468.616ZM581.281 477C581.142 477 581.036 476.963 580.961 476.888C580.886 476.813 580.828 476.755 580.785 476.712L574.977 468.456C574.913 468.36 574.881 468.275 574.881 468.2C574.881 468.104 574.913 468.024 574.977 467.96C575.041 467.896 575.121 467.864 575.217 467.864H576.481C576.63 467.864 576.742 467.901 576.817 467.976C576.892 468.051 576.95 468.115 576.993 468.168L582.849 476.408C582.892 476.472 582.918 476.525 582.929 476.568C582.94 476.6 582.945 476.632 582.945 476.664C582.945 476.76 582.908 476.84 582.833 476.904C582.769 476.968 582.694 477 582.609 477H581.281ZM575.137 477C575.03 477 574.94 476.963 574.865 476.888C574.79 476.813 574.753 476.717 574.753 476.6V474.392C574.753 473.848 574.801 473.352 574.897 472.904C575.004 472.456 575.196 472.04 575.473 471.656C575.761 471.261 576.172 470.888 576.705 470.536L577.697 471.976C577.377 472.189 577.137 472.44 576.977 472.728C576.817 473.005 576.71 473.293 576.657 473.592C576.614 473.88 576.593 474.157 576.593 474.424V476.6C576.593 476.717 576.556 476.813 576.481 476.888C576.406 476.963 576.316 477 576.209 477H575.137ZM580.577 473.992L579.633 472.552C580.07 472.339 580.38 472.115 580.561 471.88C580.742 471.635 580.849 471.384 580.881 471.128C580.924 470.872 580.945 470.611 580.945 470.344V468.264C580.945 468.147 580.977 468.051 581.041 467.976C581.116 467.901 581.212 467.864 581.329 467.864H582.449C582.566 467.864 582.662 467.901 582.737 467.976C582.812 468.051 582.849 468.147 582.849 468.264V470.424C582.849 470.861 582.79 471.288 582.673 471.704C582.566 472.12 582.353 472.52 582.033 472.904C581.713 473.277 581.228 473.64 580.577 473.992ZM588.879 477C588.772 477 588.681 476.963 588.607 476.888C588.532 476.813 588.495 476.723 588.495 476.616V468.248C588.495 468.141 588.532 468.051 588.607 467.976C588.681 467.901 588.772 467.864 588.879 467.864H590.207C590.313 467.864 590.404 467.901 590.479 467.976C590.553 468.051 590.591 468.141 590.591 468.248V476.616C590.591 476.723 590.553 476.813 590.479 476.888C590.404 476.963 590.313 477 590.207 477H588.879ZM592.743 477C592.626 477 592.53 476.963 592.456 476.888C592.392 476.813 592.36 476.723 592.36 476.616V475.688C592.36 475.581 592.392 475.491 592.456 475.416C592.53 475.341 592.626 475.304 592.743 475.304H597.56V476.664C597.56 476.771 597.522 476.856 597.448 476.92C597.373 476.973 597.282 477 597.176 477H592.743ZM596.088 477C595.981 477 595.896 476.963 595.832 476.888C595.768 476.813 595.725 476.723 595.704 476.616L595.448 471.688C595.426 471.219 595.378 470.824 595.304 470.504C595.24 470.173 595.112 469.923 594.92 469.752C594.738 469.571 594.445 469.48 594.039 469.48H593.304C593.197 469.48 593.106 469.443 593.032 469.368C592.957 469.293 592.92 469.203 592.92 469.096V468.184C592.92 468.077 592.957 467.987 593.032 467.912C593.106 467.837 593.197 467.8 593.304 467.8H594.072C594.722 467.8 595.261 467.885 595.688 468.056C596.125 468.216 596.472 468.461 596.728 468.792C596.994 469.123 597.186 469.533 597.304 470.024C597.432 470.504 597.512 471.053 597.544 471.672L597.8 476.616C597.81 476.723 597.778 476.813 597.704 476.888C597.629 476.963 597.533 477 597.416 477H596.088ZM605.797 477C605.658 477 605.551 476.963 605.477 476.888C605.402 476.813 605.343 476.755 605.301 476.712L599.493 468.456C599.429 468.36 599.397 468.275 599.397 468.2C599.397 468.104 599.429 468.024 599.493 467.96C599.557 467.896 599.637 467.864 599.733 467.864H600.997C601.146 467.864 601.258 467.901 601.333 467.976C601.407 468.051 601.466 468.115 601.509 468.168L607.365 476.408C607.407 476.472 607.434 476.525 607.445 476.568C607.455 476.6 607.461 476.632 607.461 476.664C607.461 476.76 607.423 476.84 607.349 476.904C607.285 476.968 607.21 477 607.125 477H605.797ZM599.653 477C599.546 477 599.455 476.963 599.381 476.888C599.306 476.813 599.269 476.717 599.269 476.6V474.392C599.269 473.848 599.317 473.352 599.413 472.904C599.519 472.456 599.711 472.04 599.989 471.656C600.277 471.261 600.687 470.888 601.221 470.536L602.213 471.976C601.893 472.189 601.653 472.44 601.493 472.728C601.333 473.005 601.226 473.293 601.173 473.592C601.13 473.88 601.109 474.157 601.109 474.424V476.6C601.109 476.717 601.071 476.813 600.997 476.888C600.922 476.963 600.831 477 600.725 477H599.653ZM605.093 473.992L604.149 472.552C604.586 472.339 604.895 472.115 605.077 471.88C605.258 471.635 605.365 471.384 605.397 471.128C605.439 470.872 605.461 470.611 605.461 470.344V468.264C605.461 468.147 605.493 468.051 605.557 467.976C605.631 467.901 605.727 467.864 605.845 467.864H606.965C607.082 467.864 607.178 467.901 607.253 467.976C607.327 468.051 607.365 468.147 607.365 468.264V470.424C607.365 470.861 607.306 471.288 607.189 471.704C607.082 472.12 606.869 472.52 606.549 472.904C606.229 473.277 605.743 473.64 605.093 473.992ZM609.546 477C609.439 477 609.349 476.963 609.274 476.888C609.199 476.813 609.162 476.723 609.162 476.616V475.656C609.162 475.549 609.199 475.459 609.274 475.384C609.349 475.309 609.439 475.272 609.546 475.272H613.626L608.778 468.472C608.757 468.419 608.735 468.371 608.714 468.328C608.693 468.275 608.682 468.227 608.682 468.184C608.682 468.099 608.714 468.024 608.778 467.96C608.853 467.896 608.933 467.864 609.018 467.864H610.346C610.474 467.864 610.57 467.896 610.634 467.96C610.709 468.024 610.767 468.083 610.81 468.136L615.85 475.224C615.903 475.299 615.946 475.379 615.978 475.464C616.021 475.539 616.042 475.629 616.042 475.736V476.616C616.042 476.723 616.005 476.813 615.93 476.888C615.866 476.963 615.775 477 615.658 477H609.546ZM614.122 473.288L613.13 471.896C613.599 471.683 613.935 471.363 614.138 470.936C614.341 470.509 614.442 470.003 614.442 469.416V468.264C614.442 468.147 614.474 468.051 614.538 467.976C614.613 467.901 614.709 467.864 614.826 467.864H615.946C616.063 467.864 616.154 467.901 616.218 467.976C616.293 468.051 616.33 468.147 616.33 468.264V469.736C616.33 470.547 616.143 471.261 615.77 471.88C615.397 472.488 614.847 472.957 614.122 473.288ZM622.724 469.608L618.436 469.624C618.329 469.624 618.238 469.587 618.164 469.512C618.089 469.437 618.052 469.347 618.052 469.24V468.248C618.052 468.141 618.089 468.051 618.164 467.976C618.238 467.901 618.329 467.864 618.436 467.864H622.996C623.678 467.864 624.292 468.013 624.836 468.312C625.38 468.6 625.801 469.032 626.1 469.608C626.409 470.184 626.564 470.904 626.564 471.768V476.616C626.564 476.723 626.526 476.813 626.452 476.888C626.388 476.963 626.297 477 626.18 477H621.956C621.838 477 621.742 476.963 621.668 476.888C621.604 476.813 621.572 476.723 621.572 476.616V475.688C621.572 475.581 621.604 475.491 621.668 475.416C621.742 475.341 621.838 475.304 621.956 475.304H624.548V471.88C624.548 471.411 624.468 471.005 624.308 470.664C624.148 470.323 623.929 470.061 623.652 469.88C623.374 469.699 623.065 469.608 622.724 469.608ZM618.292 477C618.196 477 618.11 476.963 618.036 476.888C617.961 476.813 617.934 476.717 617.956 476.6L619.476 469.128C619.497 469.011 619.545 468.92 619.62 468.856C619.694 468.792 619.785 468.765 619.892 468.776L620.964 468.808C621.081 468.819 621.172 468.867 621.236 468.952C621.31 469.037 621.337 469.133 621.316 469.24L619.94 476.6C619.94 476.717 619.897 476.813 619.812 476.888C619.726 476.963 619.63 477 619.524 477H618.292ZM638.562 477C638.424 477 638.317 476.963 638.242 476.888C638.168 476.813 638.109 476.755 638.066 476.712L632.258 468.456C632.194 468.36 632.162 468.275 632.162 468.2C632.162 468.104 632.194 468.024 632.258 467.96C632.322 467.896 632.402 467.864 632.498 467.864H633.762C633.912 467.864 634.024 467.901 634.098 467.976C634.173 468.051 634.232 468.115 634.274 468.168L640.13 476.408C640.173 476.472 640.2 476.525 640.21 476.568C640.221 476.6 640.226 476.632 640.226 476.664C640.226 476.76 640.189 476.84 640.114 476.904C640.05 476.968 639.976 477 639.89 477H638.562ZM632.418 477C632.312 477 632.221 476.963 632.146 476.888C632.072 476.813 632.034 476.717 632.034 476.6V474.392C632.034 473.848 632.082 473.352 632.178 472.904C632.285 472.456 632.477 472.04 632.754 471.656C633.042 471.261 633.453 470.888 633.986 470.536L634.978 471.976C634.658 472.189 634.418 472.44 634.258 472.728C634.098 473.005 633.992 473.293 633.938 473.592C633.896 473.88 633.874 474.157 633.874 474.424V476.6C633.874 476.717 633.837 476.813 633.762 476.888C633.688 476.963 633.597 477 633.49 477H632.418ZM637.858 473.992L636.914 472.552C637.352 472.339 637.661 472.115 637.842 471.88C638.024 471.635 638.13 471.384 638.162 471.128C638.205 470.872 638.226 470.611 638.226 470.344V468.264C638.226 468.147 638.258 468.051 638.322 467.976C638.397 467.901 638.493 467.864 638.61 467.864H639.73C639.848 467.864 639.944 467.901 640.018 467.976C640.093 468.051 640.13 468.147 640.13 468.264V470.424C640.13 470.861 640.072 471.288 639.954 471.704C639.848 472.12 639.634 472.52 639.314 472.904C638.994 473.277 638.509 473.64 637.858 473.992ZM644.168 477.176C644.072 477.197 643.981 477.171 643.896 477.096C643.81 477.021 643.768 476.931 643.768 476.824V475.688C643.768 475.581 643.8 475.485 643.864 475.4C643.928 475.315 644.018 475.251 644.136 475.208L644.696 474.984C645.058 474.835 645.389 474.648 645.688 474.424C645.986 474.189 646.221 473.88 646.392 473.496C646.573 473.101 646.664 472.595 646.664 471.976C646.664 471.389 646.594 470.925 646.456 470.584C646.317 470.243 646.088 469.997 645.768 469.848C645.448 469.699 645.005 469.624 644.44 469.624H644.008C643.901 469.624 643.81 469.587 643.736 469.512C643.661 469.437 643.624 469.347 643.624 469.24V468.232C643.624 468.125 643.661 468.04 643.736 467.976C643.81 467.901 643.901 467.864 644.008 467.864H644.824C645.784 467.864 646.546 468.013 647.112 468.312C647.688 468.6 648.104 469.048 648.36 469.656C648.616 470.253 648.744 471.021 648.744 471.96C648.744 472.696 648.632 473.341 648.408 473.896C648.194 474.451 647.901 474.931 647.528 475.336C647.165 475.731 646.749 476.061 646.28 476.328C645.81 476.595 645.325 476.808 644.824 476.968L644.168 477.176ZM644.472 469.624L642.168 469.608C642.061 469.608 641.97 469.576 641.896 469.512C641.821 469.437 641.784 469.347 641.784 469.24V466.024C641.784 465.917 641.821 465.827 641.896 465.752C641.97 465.677 642.061 465.64 642.168 465.64H643.32C643.437 465.64 643.528 465.677 643.592 465.752C643.666 465.827 643.704 465.917 643.704 466.024V467.864H644.504L644.472 469.624Z"
    fill="#223F3B" />
</svg>