<svg width="222" height="146" viewBox="0 0 222 146" fill="none" xmlns="http://www.w3.org/2000/svg">
  <g clip-path="url(#clip0_2074_40229)">
    <path
      d="M142.25 100.25H79.75C74.7772 100.25 70.0081 98.2746 66.4917 94.7583C62.9754 91.242 61 86.4728 61 81.5V19C61 14.0272 62.9754 9.25805 66.4917 5.74175C70.0081 2.22544 74.7772 0.25 79.75 0.25L142.25 0.25C147.223 0.25 151.992 2.22544 155.508 5.74175C159.025 9.25805 161 14.0272 161 19V81.5C161 86.4728 159.025 91.242 155.508 94.7583C151.992 98.2746 147.223 100.25 142.25 100.25Z"
      fill="#FFF9DD" />
    <path
      d="M106.98 33.6228C108.305 29.8116 113.695 29.8116 115.02 33.6228L117.032 39.4108C117.616 41.0921 119.185 42.2321 120.965 42.2684L127.091 42.3932C131.125 42.4754 132.791 47.6016 129.576 50.0392L124.693 53.7413C123.274 54.8166 122.675 56.6611 123.19 58.3648L124.965 64.23C126.133 68.092 121.773 71.2602 118.461 68.9555L113.431 65.4555C111.97 64.4388 110.03 64.4388 108.569 65.4555L103.54 68.9555C100.228 71.2602 95.8671 68.092 97.0355 64.23L98.8099 58.3648C99.3254 56.6611 98.726 54.8166 97.3076 53.7413L92.4246 50.0392C89.2093 47.6016 90.8749 42.4754 94.9089 42.3932L101.035 42.2684C102.815 42.2321 104.384 41.0921 104.968 39.4108L106.98 33.6228Z"
      fill="#FFD129" />
  </g>
  <path
    d="M2.50625 133.25C2.39958 133.25 2.30892 133.218 2.23425 133.154C2.17025 133.079 2.13825 132.989 2.13825 132.882V124.482C2.13825 124.375 2.17025 124.29 2.23425 124.226C2.30892 124.151 2.39958 124.114 2.50625 124.114H5.56225C6.47958 124.114 7.23692 124.263 7.83425 124.562C8.43158 124.85 8.87425 125.282 9.16225 125.858C9.46092 126.434 9.61025 127.154 9.61025 128.018V132.882C9.61025 132.989 9.57825 133.079 9.51425 133.154C9.45025 133.218 9.35958 133.25 9.24225 133.25H2.50625ZM3.51425 131.97H8.18625V128.098C8.18625 127.245 7.97292 126.583 7.54625 126.114C7.11958 125.634 6.43158 125.394 5.48225 125.394H3.51425V131.97ZM12.2536 129.538C12.147 129.538 12.0563 129.506 11.9816 129.442C11.9176 129.367 11.8856 129.277 11.8856 129.17V124.482C11.8856 124.375 11.9176 124.29 11.9816 124.226C12.0563 124.151 12.147 124.114 12.2536 124.114H13.0216C13.1283 124.114 13.2136 124.151 13.2776 124.226C13.3416 124.29 13.3736 124.375 13.3736 124.482V129.17C13.3736 129.277 13.3416 129.367 13.2776 129.442C13.2136 129.506 13.1283 129.538 13.0216 129.538H12.2536ZM17.0436 125.426V126.674C17.0543 127.058 17.1023 127.378 17.1876 127.634C17.2836 127.89 17.449 128.05 17.6836 128.114L18.2756 128.274C18.361 128.295 18.425 128.354 18.4676 128.45C18.521 128.535 18.5476 128.642 18.5476 128.77V129.17C18.5476 129.287 18.489 129.373 18.3716 129.426C18.2543 129.479 18.1263 129.495 17.9876 129.474L17.3636 129.346C17.0223 129.261 16.729 129.111 16.4836 128.898C16.2383 128.674 16.0516 128.375 15.9236 128.002C15.8063 127.618 15.7476 127.159 15.7476 126.626V124.482C15.7476 124.375 15.7796 124.29 15.8436 124.226C15.9076 124.151 15.9983 124.114 16.1156 124.114H19.0756C19.8756 124.114 20.5423 124.274 21.0756 124.594C21.609 124.903 22.0143 125.357 22.2916 125.954C22.569 126.541 22.7183 127.25 22.7396 128.082C22.7503 128.242 22.7556 128.445 22.7556 128.69C22.7556 128.925 22.7503 129.122 22.7396 129.282C22.7183 130.103 22.569 130.813 22.2916 131.41C22.0143 132.007 21.609 132.466 21.0756 132.786C20.5423 133.095 19.8756 133.25 19.0756 133.25H16.3076C16.201 133.25 16.1103 133.218 16.0356 133.154C15.9716 133.079 15.9396 132.989 15.9396 132.882V132.306C15.9396 132.199 15.9716 132.114 16.0356 132.05C16.1103 131.975 16.201 131.938 16.3076 131.938H18.9956C19.7316 131.938 20.297 131.703 20.6916 131.234C21.097 130.754 21.321 130.087 21.3636 129.234C21.3743 129.074 21.3796 128.893 21.3796 128.69C21.3796 128.477 21.3743 128.29 21.3636 128.13C21.3423 127.277 21.1236 126.615 20.7076 126.146C20.3023 125.666 19.7316 125.426 18.9956 125.426H17.0436ZM28.7488 133.25C28.5141 133.25 28.3968 133.133 28.3968 132.898V127.186C28.3968 126.557 28.4714 126.066 28.6208 125.714C28.7701 125.362 28.9568 125.186 29.1808 125.186H30.7488C30.4821 125.186 30.2634 125.389 30.0928 125.794C29.9328 126.199 29.8528 126.701 29.8528 127.298V132.898C29.8528 133.005 29.8154 133.09 29.7408 133.154C29.6661 133.218 29.5754 133.25 29.4688 133.25H28.7488ZM24.4288 125.394C24.3221 125.394 24.2314 125.362 24.1568 125.298C24.0928 125.223 24.0608 125.133 24.0608 125.026V124.482C24.0608 124.375 24.0928 124.29 24.1568 124.226C24.2314 124.151 24.3221 124.114 24.4288 124.114H31.2928C31.3994 124.114 31.4848 124.151 31.5487 124.226C31.6234 124.29 31.6608 124.375 31.6608 124.482V125.026C31.6608 125.133 31.6234 125.223 31.5487 125.298C31.4848 125.362 31.3994 125.394 31.2928 125.394H24.4288ZM33.5114 134.13C33.4047 134.173 33.3034 134.162 33.2074 134.098C33.1114 134.045 33.0634 133.965 33.0634 133.858V133.314C33.0634 133.218 33.0847 133.127 33.1274 133.042C33.17 132.957 33.2394 132.898 33.3354 132.866L36.7114 131.762C37.3194 131.559 37.7887 131.298 38.1194 130.978C38.45 130.658 38.6794 130.285 38.8074 129.858C38.946 129.431 39.0154 128.967 39.0154 128.466V124.482C39.0154 124.375 39.0474 124.29 39.1114 124.226C39.186 124.151 39.2767 124.114 39.3834 124.114H40.1034C40.2207 124.114 40.3114 124.151 40.3754 124.226C40.4394 124.29 40.4714 124.375 40.4714 124.482V128.914C40.4714 129.533 40.3327 130.119 40.0554 130.674C39.778 131.218 39.378 131.698 38.8554 132.114C38.3434 132.519 37.7354 132.829 37.0314 133.042L33.5114 134.13ZM35.6074 132.866L33.3514 124.754C33.33 124.669 33.3087 124.605 33.2874 124.562C33.2767 124.519 33.2714 124.477 33.2714 124.434C33.2714 124.349 33.3034 124.274 33.3674 124.21C33.4314 124.146 33.506 124.114 33.5914 124.114H34.3754C34.578 124.114 34.7007 124.194 34.7434 124.354L36.9674 132.498L35.6074 132.866ZM43.2094 133.25C43.1027 133.25 43.012 133.218 42.9374 133.154C42.8734 133.079 42.8414 132.989 42.8414 132.882V124.482C42.8414 124.375 42.8734 124.29 42.9374 124.226C43.012 124.151 43.1027 124.114 43.2094 124.114H43.9614C44.0787 124.114 44.1694 124.151 44.2334 124.226C44.2974 124.29 44.3294 124.375 44.3294 124.482V132.882C44.3294 132.989 44.2974 133.079 44.2334 133.154C44.1694 133.218 44.0787 133.25 43.9614 133.25H43.2094ZM50.7945 125.426H46.9065C46.7892 125.426 46.6985 125.394 46.6345 125.33C46.5705 125.255 46.5385 125.165 46.5385 125.058V124.482C46.5385 124.375 46.5705 124.29 46.6345 124.226C46.6985 124.151 46.7892 124.114 46.9065 124.114H50.9705C51.6318 124.114 52.2185 124.269 52.7305 124.578C53.2532 124.887 53.6585 125.335 53.9465 125.922C54.2452 126.498 54.3945 127.197 54.3945 128.018V132.882C54.3945 132.989 54.3625 133.079 54.2985 133.154C54.2345 133.218 54.1438 133.25 54.0265 133.25H49.8985C49.7918 133.25 49.7012 133.218 49.6265 133.154C49.5625 133.079 49.5305 132.989 49.5305 132.882V132.338C49.5305 132.231 49.5625 132.146 49.6265 132.082C49.7012 132.007 49.7918 131.97 49.8985 131.97H52.9385V128.114C52.9385 127.57 52.8425 127.095 52.6505 126.69C52.4692 126.285 52.2132 125.975 51.8825 125.762C51.5625 125.538 51.1998 125.426 50.7945 125.426ZM46.7465 133.25C46.6505 133.25 46.5705 133.213 46.5065 133.138C46.4425 133.063 46.4158 132.973 46.4265 132.866L47.7865 125.026C47.8078 124.919 47.8558 124.839 47.9305 124.786C48.0052 124.722 48.0958 124.701 48.2025 124.722L48.8425 124.754C48.9492 124.765 49.0345 124.813 49.0985 124.898C49.1625 124.973 49.1838 125.063 49.1625 125.17L47.8825 132.866C47.8718 132.973 47.8238 133.063 47.7385 133.138C47.6638 133.213 47.5732 133.25 47.4665 133.25H46.7465ZM58.45 133.394C58.354 133.426 58.2633 133.41 58.178 133.346C58.0927 133.293 58.05 133.213 58.05 133.106V132.37C58.05 132.274 58.0767 132.189 58.13 132.114C58.194 132.039 58.2847 131.981 58.402 131.938L59.026 131.698C59.442 131.517 59.8207 131.298 60.162 131.042C60.514 130.786 60.786 130.434 60.978 129.986C61.1807 129.538 61.282 128.951 61.282 128.226C61.282 127.533 61.1967 126.983 61.026 126.578C60.866 126.162 60.5887 125.869 60.194 125.698C59.81 125.517 59.282 125.426 58.61 125.426H58.13C58.0233 125.426 57.9327 125.394 57.858 125.33C57.794 125.255 57.762 125.165 57.762 125.058V124.482C57.762 124.375 57.794 124.29 57.858 124.226C57.9327 124.151 58.0233 124.114 58.13 124.114H58.834C59.8047 124.114 60.578 124.253 61.154 124.53C61.73 124.807 62.1407 125.255 62.386 125.874C62.642 126.482 62.77 127.282 62.77 128.274C62.77 129.021 62.6687 129.666 62.466 130.21C62.2633 130.754 61.986 131.218 61.634 131.602C61.2927 131.986 60.9033 132.306 60.466 132.562C60.0287 132.807 59.5753 133.01 59.106 133.17L58.45 133.394ZM58.482 125.426L56.578 125.41C56.4713 125.41 56.3807 125.378 56.306 125.314C56.242 125.25 56.21 125.165 56.21 125.058V122.258C56.21 122.151 56.242 122.066 56.306 122.002C56.3807 121.927 56.4713 121.89 56.578 121.89H57.25C57.3673 121.89 57.458 121.927 57.522 122.002C57.586 122.066 57.618 122.151 57.618 122.258V124.114H58.514L58.482 125.426ZM69.1625 133.25C69.0558 133.25 68.9652 133.218 68.8905 133.154C68.8265 133.079 68.7945 132.989 68.7945 132.882V124.482C68.7945 124.375 68.8265 124.29 68.8905 124.226C68.9652 124.151 69.0558 124.114 69.1625 124.114H69.9145C70.0318 124.114 70.1225 124.151 70.1865 124.226C70.2505 124.29 70.2825 124.375 70.2825 124.482V132.882C70.2825 132.989 70.2505 133.079 70.1865 133.154C70.1225 133.218 70.0318 133.25 69.9145 133.25H69.1625ZM74.0436 125.426V126.674C74.0543 127.058 74.1023 127.378 74.1876 127.634C74.2836 127.89 74.449 128.05 74.6836 128.114L75.2756 128.274C75.361 128.295 75.425 128.354 75.4676 128.45C75.521 128.535 75.5476 128.642 75.5476 128.77V129.17C75.5476 129.287 75.489 129.373 75.3716 129.426C75.2543 129.479 75.1263 129.495 74.9876 129.474L74.3636 129.346C74.0223 129.261 73.729 129.111 73.4836 128.898C73.2383 128.674 73.0516 128.375 72.9236 128.002C72.8063 127.618 72.7476 127.159 72.7476 126.626V124.482C72.7476 124.375 72.7796 124.29 72.8436 124.226C72.9076 124.151 72.9983 124.114 73.1156 124.114H76.0756C76.8756 124.114 77.5423 124.274 78.0756 124.594C78.609 124.903 79.0143 125.357 79.2916 125.954C79.569 126.541 79.7183 127.25 79.7396 128.082C79.7503 128.242 79.7556 128.445 79.7556 128.69C79.7556 128.925 79.7503 129.122 79.7396 129.282C79.7183 130.103 79.569 130.813 79.2916 131.41C79.0143 132.007 78.609 132.466 78.0756 132.786C77.5423 133.095 76.8756 133.25 76.0756 133.25H73.3076C73.201 133.25 73.1103 133.218 73.0356 133.154C72.9716 133.079 72.9396 132.989 72.9396 132.882V132.306C72.9396 132.199 72.9716 132.114 73.0356 132.05C73.1103 131.975 73.201 131.938 73.3076 131.938H75.9956C76.7316 131.938 77.297 131.703 77.6916 131.234C78.097 130.754 78.321 130.087 78.3636 129.234C78.3743 129.074 78.3796 128.893 78.3796 128.69C78.3796 128.477 78.3743 128.29 78.3636 128.13C78.3423 127.277 78.1236 126.615 77.7076 126.146C77.3023 125.666 76.7316 125.426 75.9956 125.426H74.0436ZM82.113 129.538C82.0063 129.538 81.9157 129.506 81.841 129.442C81.777 129.367 81.745 129.277 81.745 129.17V124.482C81.745 124.375 81.777 124.29 81.841 124.226C81.9157 124.151 82.0063 124.114 82.113 124.114H82.881C82.9877 124.114 83.073 124.151 83.137 124.226C83.201 124.29 83.233 124.375 83.233 124.482V129.17C83.233 129.277 83.201 129.367 83.137 129.442C83.073 129.506 82.9877 129.538 82.881 129.538H82.113ZM89.463 133.41C88.1297 133.41 87.1377 133.063 86.487 132.37C85.8363 131.666 85.511 130.679 85.511 129.41V124.482C85.511 124.375 85.543 124.29 85.607 124.226C85.6817 124.151 85.7723 124.114 85.879 124.114H89.735C90.6843 124.114 91.4417 124.258 92.007 124.546C92.5723 124.834 92.983 125.261 93.239 125.826C93.5057 126.381 93.655 127.069 93.687 127.89C93.6977 127.997 93.703 128.167 93.703 128.402C93.703 128.637 93.703 128.871 93.703 129.106C93.703 129.341 93.6977 129.511 93.687 129.618C93.6657 130.429 93.511 131.122 93.223 131.698C92.935 132.263 92.4817 132.69 91.863 132.978C91.255 133.266 90.455 133.41 89.463 133.41ZM89.463 132.098C90.4763 132.098 91.191 131.89 91.607 131.474C92.023 131.047 92.2417 130.402 92.263 129.538C92.2737 129.431 92.279 129.271 92.279 129.058C92.279 128.845 92.279 128.637 92.279 128.434C92.279 128.231 92.2737 128.077 92.263 127.97C92.2417 127.117 91.9963 126.477 91.527 126.05C91.0683 125.613 90.4443 125.394 89.655 125.394H86.919V129.41C86.919 130.263 87.127 130.925 87.543 131.394C87.9697 131.863 88.6097 132.098 89.463 132.098ZM96.1625 133.25C96.0558 133.25 95.9652 133.218 95.8905 133.154C95.8265 133.079 95.7945 132.989 95.7945 132.882V124.482C95.7945 124.375 95.8265 124.29 95.8905 124.226C95.9652 124.151 96.0558 124.114 96.1625 124.114H96.9145C97.0318 124.114 97.1225 124.151 97.1865 124.226C97.2505 124.29 97.2825 124.375 97.2825 124.482V132.882C97.2825 132.989 97.2505 133.079 97.1865 133.154C97.1225 133.218 97.0318 133.25 96.9145 133.25H96.1625ZM106.196 133.25C106.089 133.25 105.998 133.218 105.924 133.154C105.86 133.079 105.828 132.989 105.828 132.882V128.098C105.828 127.245 105.614 126.583 105.188 126.114C104.761 125.634 104.073 125.394 103.124 125.394H100.116C100.009 125.394 99.9183 125.362 99.8436 125.298C99.7796 125.223 99.7476 125.133 99.7476 125.026V124.482C99.7476 124.375 99.7796 124.29 99.8436 124.226C99.9183 124.151 100.009 124.114 100.116 124.114H103.204C104.59 124.114 105.614 124.45 106.276 125.122C106.948 125.794 107.284 126.77 107.284 128.05V132.882C107.284 132.989 107.246 133.079 107.172 133.154C107.108 133.218 107.022 133.25 106.916 133.25H106.196ZM100.116 133.25C100.009 133.25 99.9183 133.218 99.8436 133.154C99.7796 133.079 99.7476 132.989 99.7476 132.882V127.538C99.7476 127.431 99.7796 127.346 99.8436 127.282C99.9183 127.207 100.009 127.17 100.116 127.17H100.852C100.958 127.17 101.044 127.207 101.108 127.282C101.172 127.346 101.204 127.431 101.204 127.538V132.882C101.204 132.989 101.172 133.079 101.108 133.154C101.044 133.218 100.958 133.25 100.852 133.25H100.116ZM110.022 133.25C109.915 133.25 109.825 133.218 109.75 133.154C109.686 133.079 109.654 132.989 109.654 132.882V124.482C109.654 124.375 109.686 124.29 109.75 124.226C109.825 124.151 109.915 124.114 110.022 124.114H110.774C110.891 124.114 110.982 124.151 111.046 124.226C111.11 124.29 111.142 124.375 111.142 124.482V132.882C111.142 132.989 111.11 133.079 111.046 133.154C110.982 133.218 110.891 133.25 110.774 133.25H110.022ZM117.897 133.25C117.79 133.25 117.7 133.218 117.625 133.154C117.561 133.079 117.529 132.989 117.529 132.882V124.482C117.529 124.375 117.561 124.29 117.625 124.226C117.7 124.151 117.79 124.114 117.897 124.114H120.953C121.87 124.114 122.628 124.263 123.225 124.562C123.822 124.85 124.265 125.282 124.553 125.858C124.852 126.434 125.001 127.154 125.001 128.018V132.882C125.001 132.989 124.969 133.079 124.905 133.154C124.841 133.218 124.75 133.25 124.633 133.25H117.897ZM118.905 131.97H123.577V128.098C123.577 127.245 123.364 126.583 122.937 126.114C122.51 125.634 121.822 125.394 120.873 125.394H118.905V131.97ZM127.644 129.538C127.538 129.538 127.447 129.506 127.372 129.442C127.308 129.367 127.276 129.277 127.276 129.17V124.482C127.276 124.375 127.308 124.29 127.372 124.226C127.447 124.151 127.538 124.114 127.644 124.114H128.412C128.519 124.114 128.604 124.151 128.668 124.226C128.732 124.29 128.764 124.375 128.764 124.482V129.17C128.764 129.277 128.732 129.367 128.668 129.442C128.604 129.506 128.519 129.538 128.412 129.538H127.644ZM135.682 132.05C136.376 132.061 136.957 131.933 137.426 131.666C137.906 131.399 138.269 131.021 138.514 130.53C138.77 130.029 138.898 129.458 138.898 128.818V124.482C138.898 124.375 138.93 124.29 138.994 124.226C139.069 124.151 139.16 124.114 139.266 124.114H139.938C140.045 124.114 140.13 124.151 140.194 124.226C140.258 124.29 140.29 124.375 140.29 124.482V128.93C140.29 129.613 140.184 130.231 139.97 130.786C139.757 131.33 139.453 131.799 139.058 132.194C138.664 132.578 138.194 132.871 137.65 133.074C137.117 133.277 136.525 133.367 135.874 133.346H134.674C133.981 133.346 133.357 133.186 132.802 132.866C132.248 132.546 131.81 132.098 131.49 131.522C131.17 130.946 131.01 130.279 131.01 129.522V124.482C131.01 124.375 131.042 124.29 131.106 124.226C131.181 124.151 131.272 124.114 131.378 124.114H132.05C132.157 124.114 132.242 124.151 132.306 124.226C132.381 124.29 132.418 124.375 132.418 124.482L132.466 129.202C132.466 130.119 132.722 130.823 133.234 131.314C133.746 131.805 134.397 132.05 135.186 132.05H135.682ZM132.13 130.178L132.098 129.01C132.888 128.999 133.49 128.882 133.906 128.658C134.322 128.423 134.61 128.114 134.77 127.73C134.941 127.346 135.026 126.925 135.026 126.466V124.482C135.026 124.375 135.058 124.29 135.122 124.226C135.186 124.151 135.277 124.114 135.394 124.114H136.05C136.157 124.114 136.242 124.151 136.306 124.226C136.381 124.29 136.418 124.375 136.418 124.482V126.53C136.418 127.223 136.264 127.847 135.954 128.402C135.645 128.957 135.17 129.394 134.53 129.714C133.901 130.034 133.101 130.189 132.13 130.178ZM146.529 125.426H142.641C142.524 125.426 142.433 125.394 142.369 125.33C142.305 125.255 142.273 125.165 142.273 125.058V124.482C142.273 124.375 142.305 124.29 142.369 124.226C142.433 124.151 142.524 124.114 142.641 124.114H146.705C147.366 124.114 147.953 124.269 148.465 124.578C148.988 124.887 149.393 125.335 149.681 125.922C149.98 126.498 150.129 127.197 150.129 128.018V132.882C150.129 132.989 150.097 133.079 150.033 133.154C149.969 133.218 149.878 133.25 149.761 133.25H145.633C145.526 133.25 145.436 133.218 145.361 133.154C145.297 133.079 145.265 132.989 145.265 132.882V132.338C145.265 132.231 145.297 132.146 145.361 132.082C145.436 132.007 145.526 131.97 145.633 131.97H148.673V128.114C148.673 127.57 148.577 127.095 148.385 126.69C148.204 126.285 147.948 125.975 147.617 125.762C147.297 125.538 146.934 125.426 146.529 125.426ZM142.481 133.25C142.385 133.25 142.305 133.213 142.241 133.138C142.177 133.063 142.15 132.973 142.161 132.866L143.521 125.026C143.542 124.919 143.59 124.839 143.665 124.786C143.74 124.722 143.83 124.701 143.937 124.722L144.577 124.754C144.684 124.765 144.769 124.813 144.833 124.898C144.897 124.973 144.918 125.063 144.897 125.17L143.617 132.866C143.606 132.973 143.558 133.063 143.473 133.138C143.398 133.213 143.308 133.25 143.201 133.25H142.481ZM153.138 125.394C153.031 125.394 152.94 125.362 152.866 125.298C152.802 125.223 152.77 125.133 152.77 125.026V124.482C152.77 124.375 152.802 124.29 152.866 124.226C152.94 124.151 153.031 124.114 153.138 124.114H156.61C157.527 124.114 158.284 124.263 158.882 124.562C159.49 124.85 159.943 125.287 160.242 125.874C160.54 126.45 160.69 127.165 160.69 128.018V132.882C160.69 132.989 160.652 133.079 160.578 133.154C160.514 133.218 160.428 133.25 160.322 133.25H159.602C159.484 133.25 159.394 133.218 159.33 133.154C159.266 133.079 159.234 132.989 159.234 132.882V128.098C159.234 127.245 159.02 126.583 158.594 126.114C158.167 125.634 157.479 125.394 156.53 125.394H153.138ZM154.578 124.61H154.978C155.138 124.61 155.255 124.653 155.33 124.738C155.415 124.813 155.452 124.909 155.442 125.026C155.356 125.474 155.282 125.879 155.218 126.242C155.164 126.605 155.127 126.967 155.106 127.33C155.084 127.682 155.074 128.082 155.074 128.53L155.122 132.882C155.122 132.989 155.084 133.079 155.01 133.154C154.946 133.218 154.86 133.25 154.754 133.25L152.482 133.218C152.375 133.218 152.284 133.186 152.21 133.122C152.146 133.058 152.114 132.967 152.114 132.85V132.338C152.114 132.231 152.146 132.146 152.21 132.082C152.284 132.007 152.375 131.97 152.482 131.97L153.714 131.986V128.594C153.714 128.157 153.719 127.757 153.73 127.394C153.74 127.021 153.772 126.647 153.826 126.274C153.879 125.901 153.964 125.479 154.082 125.01C154.114 124.893 154.162 124.797 154.226 124.722C154.3 124.647 154.418 124.61 154.578 124.61ZM167.604 132.05C168.297 132.061 168.879 131.933 169.348 131.666C169.828 131.399 170.191 131.021 170.436 130.53C170.692 130.029 170.82 129.458 170.82 128.818V124.482C170.82 124.375 170.852 124.29 170.916 124.226C170.991 124.151 171.081 124.114 171.188 124.114H171.86C171.967 124.114 172.052 124.151 172.116 124.226C172.18 124.29 172.212 124.375 172.212 124.482V128.93C172.212 129.613 172.105 130.231 171.892 130.786C171.679 131.33 171.375 131.799 170.98 132.194C170.585 132.578 170.116 132.871 169.572 133.074C169.039 133.277 168.447 133.367 167.796 133.346H166.596C165.903 133.346 165.279 133.186 164.724 132.866C164.169 132.546 163.732 132.098 163.412 131.522C163.092 130.946 162.932 130.279 162.932 129.522V124.482C162.932 124.375 162.964 124.29 163.028 124.226C163.103 124.151 163.193 124.114 163.3 124.114H163.972C164.079 124.114 164.164 124.151 164.228 124.226C164.303 124.29 164.34 124.375 164.34 124.482L164.388 129.202C164.388 130.119 164.644 130.823 165.156 131.314C165.668 131.805 166.319 132.05 167.108 132.05H167.604ZM164.052 130.178L164.02 129.01C164.809 128.999 165.412 128.882 165.828 128.658C166.244 128.423 166.532 128.114 166.692 127.73C166.863 127.346 166.948 126.925 166.948 126.466V124.482C166.948 124.375 166.98 124.29 167.044 124.226C167.108 124.151 167.199 124.114 167.316 124.114H167.972C168.079 124.114 168.164 124.151 168.228 124.226C168.303 124.29 168.34 124.375 168.34 124.482V126.53C168.34 127.223 168.185 127.847 167.876 128.402C167.567 128.957 167.092 129.394 166.452 129.714C165.823 130.034 165.023 130.189 164.052 130.178ZM178.451 125.426H174.563C174.445 125.426 174.355 125.394 174.291 125.33C174.227 125.255 174.195 125.165 174.195 125.058V124.482C174.195 124.375 174.227 124.29 174.291 124.226C174.355 124.151 174.445 124.114 174.563 124.114H178.627C179.288 124.114 179.875 124.269 180.387 124.578C180.909 124.887 181.315 125.335 181.603 125.922C181.901 126.498 182.051 127.197 182.051 128.018V132.882C182.051 132.989 182.019 133.079 181.955 133.154C181.891 133.218 181.8 133.25 181.683 133.25H177.555C177.448 133.25 177.357 133.218 177.283 133.154C177.219 133.079 177.187 132.989 177.187 132.882V132.338C177.187 132.231 177.219 132.146 177.283 132.082C177.357 132.007 177.448 131.97 177.555 131.97H180.595V128.114C180.595 127.57 180.499 127.095 180.307 126.69C180.125 126.285 179.869 125.975 179.539 125.762C179.219 125.538 178.856 125.426 178.451 125.426ZM174.403 133.25C174.307 133.25 174.227 133.213 174.163 133.138C174.099 133.063 174.072 132.973 174.083 132.866L175.443 125.026C175.464 124.919 175.512 124.839 175.587 124.786C175.661 124.722 175.752 124.701 175.859 124.722L176.499 124.754C176.605 124.765 176.691 124.813 176.755 124.898C176.819 124.973 176.84 125.063 176.819 125.17L175.539 132.866C175.528 132.973 175.48 133.063 175.395 133.138C175.32 133.213 175.229 133.25 175.123 133.25H174.403ZM188.709 133.25C188.603 133.25 188.512 133.218 188.437 133.154C188.373 133.079 188.341 132.989 188.341 132.882V124.482C188.341 124.375 188.373 124.29 188.437 124.226C188.512 124.151 188.603 124.114 188.709 124.114H189.461C189.579 124.114 189.669 124.151 189.733 124.226C189.797 124.29 189.829 124.375 189.829 124.482V132.882C189.829 132.989 189.797 133.079 189.733 133.154C189.669 133.218 189.579 133.25 189.461 133.25H188.709ZM196.839 132.05C197.532 132.061 198.113 131.933 198.583 131.666C199.063 131.399 199.425 131.021 199.671 130.53C199.927 130.029 200.055 129.458 200.055 128.818V124.482C200.055 124.375 200.087 124.29 200.151 124.226C200.225 124.151 200.316 124.114 200.423 124.114H201.095C201.201 124.114 201.287 124.151 201.351 124.226C201.415 124.29 201.447 124.375 201.447 124.482V128.93C201.447 129.613 201.34 130.231 201.127 130.786C200.913 131.33 200.609 131.799 200.215 132.194C199.82 132.578 199.351 132.871 198.807 133.074C198.273 133.277 197.681 133.367 197.031 133.346H195.831C195.137 133.346 194.513 133.186 193.959 132.866C193.404 132.546 192.967 132.098 192.647 131.522C192.327 130.946 192.167 130.279 192.167 129.522V124.482C192.167 124.375 192.199 124.29 192.263 124.226C192.337 124.151 192.428 124.114 192.535 124.114H193.207C193.313 124.114 193.399 124.151 193.463 124.226C193.537 124.29 193.575 124.375 193.575 124.482L193.623 129.202C193.623 130.119 193.879 130.823 194.391 131.314C194.903 131.805 195.553 132.05 196.343 132.05H196.839ZM193.287 130.178L193.255 129.01C194.044 128.999 194.647 128.882 195.062 128.658C195.479 128.423 195.767 128.114 195.927 127.73C196.097 127.346 196.183 126.925 196.183 126.466V124.482C196.183 124.375 196.215 124.29 196.279 124.226C196.343 124.151 196.433 124.114 196.551 124.114H197.207C197.313 124.114 197.399 124.151 197.463 124.226C197.537 124.29 197.575 124.375 197.575 124.482V126.53C197.575 127.223 197.42 127.847 197.111 128.402C196.801 128.957 196.327 129.394 195.687 129.714C195.057 130.034 194.257 130.189 193.287 130.178ZM204.981 125.426V126.674C204.992 127.058 205.04 127.378 205.125 127.634C205.221 127.89 205.386 128.05 205.621 128.114L206.213 128.274C206.298 128.295 206.362 128.354 206.405 128.45C206.458 128.535 206.485 128.642 206.485 128.77V129.17C206.485 129.287 206.426 129.373 206.309 129.426C206.192 129.479 206.064 129.495 205.925 129.474L205.301 129.346C204.96 129.261 204.666 129.111 204.421 128.898C204.176 128.674 203.989 128.375 203.861 128.002C203.744 127.618 203.685 127.159 203.685 126.626V124.482C203.685 124.375 203.717 124.29 203.781 124.226C203.845 124.151 203.936 124.114 204.053 124.114H207.013C207.813 124.114 208.48 124.274 209.013 124.594C209.546 124.903 209.952 125.357 210.229 125.954C210.506 126.541 210.656 127.25 210.677 128.082C210.688 128.242 210.693 128.445 210.693 128.69C210.693 128.925 210.688 129.122 210.677 129.282C210.656 130.103 210.506 130.813 210.229 131.41C209.952 132.007 209.546 132.466 209.013 132.786C208.48 133.095 207.813 133.25 207.013 133.25H204.245C204.138 133.25 204.048 133.218 203.973 133.154C203.909 133.079 203.877 132.989 203.877 132.882V132.306C203.877 132.199 203.909 132.114 203.973 132.05C204.048 131.975 204.138 131.938 204.245 131.938H206.933C207.669 131.938 208.234 131.703 208.629 131.234C209.034 130.754 209.258 130.087 209.301 129.234C209.312 129.074 209.317 128.893 209.317 128.69C209.317 128.477 209.312 128.29 209.301 128.13C209.28 127.277 209.061 126.615 208.645 126.146C208.24 125.666 207.669 125.426 206.933 125.426H204.981ZM213.163 133.25C213.056 133.25 212.965 133.218 212.891 133.154C212.827 133.079 212.795 132.989 212.795 132.882V124.482C212.795 124.375 212.827 124.29 212.891 124.226C212.965 124.151 213.056 124.114 213.163 124.114H216.283C217.2 124.114 217.957 124.263 218.555 124.562C219.163 124.85 219.616 125.287 219.915 125.874C220.213 126.45 220.363 127.175 220.363 128.05V132.882C220.363 132.989 220.325 133.079 220.251 133.154C220.187 133.218 220.101 133.25 219.995 133.25H219.275C219.157 133.25 219.067 133.218 219.003 133.154C218.939 133.079 218.907 132.989 218.907 132.882V128.098C218.907 127.245 218.693 126.583 218.267 126.114C217.84 125.634 217.152 125.394 216.203 125.394H214.251V132.882C214.251 132.989 214.219 133.079 214.155 133.154C214.091 133.218 214.005 133.25 213.899 133.25H213.163Z"
    fill="#525252" />
  <defs>
    <clipPath id="clip0_2074_40229">
      <rect width="100" height="100" fill="white" transform="translate(61 0.25)" />
    </clipPath>
  </defs>
</svg>