<svg width="25" height="26" viewBox="0 0 25 26" fill="none" xmlns="http://www.w3.org/2000/svg">
<path d="M18.2875 13.5233H15.9019V12.3023H18.2875V13.5233ZM18.2875 14.2209H15.9019V15.4419H18.2875V14.2209ZM18.2875 8.46511H15.9019V9.68603H18.2875V8.46511ZM18.2875 10.3837H15.9019V11.6046H18.2875V10.3837ZM18.2875 16.1395H15.9019V17.3605H18.2875V16.1395ZM19.9352 18.5465C19.8671 18.9093 19.4411 18.918 19.1565 18.9303H13.8572V20.5H12.799L5 19.1046V6.8971L12.8451 5.5H13.8572V6.89012H18.9742C19.2622 6.90232 19.5791 6.88139 19.8296 7.05754C20.0051 7.31568 19.9881 7.64361 20 7.9401L19.9932 17.0203C19.9847 17.5279 20.0392 18.046 19.9352 18.5465ZM11.2484 15.8099C10.7781 14.8332 10.2993 13.8634 9.83073 12.8866C10.2942 11.936 10.7509 10.982 11.2058 10.0279C10.819 10.0471 10.4322 10.0715 10.0471 10.0994C9.75916 10.8163 9.42348 11.5139 9.19856 12.2552C8.98897 11.5558 8.71124 10.8825 8.45735 10.2006C8.08247 10.2215 7.70759 10.2442 7.33273 10.2668C7.72804 11.1599 8.14894 12.0407 8.53232 12.9389C8.08077 13.811 7.65819 14.6954 7.22026 15.5727C7.59342 15.5884 7.9666 15.6041 8.33975 15.6093C8.60559 14.9151 8.93615 14.2471 9.16789 13.539C9.37578 14.2994 9.72849 15.0023 10.0182 15.7296C10.4288 15.7593 10.8378 15.7855 11.2484 15.8099ZM19.1873 7.71849H13.8572V8.46511H15.2204V9.68603H13.8572V10.3837H15.2204V11.6046H13.8572V12.3023H15.2204V13.5233H13.8572V14.2209H15.2204V15.4419H13.8572V16.1395H15.2204V17.3605H13.8572V18.1671H19.1873V7.71849Z" fill="#FFA047"/>
</svg>
