<svg width="25" height="25" viewBox="0 0 25 25" fill="none" xmlns="http://www.w3.org/2000/svg">
    <path fill-rule="evenodd" clip-rule="evenodd"
        d="M13.4457 7.72016L12.5001 5L11.5546 7.72016C11.0053 9.30044 9.53054 10.3719 7.85786 10.406L4.97865 10.4647L7.27349 12.2045C8.60669 13.2153 9.17 14.949 8.68553 16.5503L7.85161 19.3067L10.2154 17.6618C11.5887 16.7062 13.4116 16.7062 14.7849 17.6618L17.1487 19.3067L16.3148 16.5503C15.8303 14.949 16.3936 13.2153 17.7268 12.2045L20.0216 10.4647L17.1424 10.406C15.4697 10.3719 13.995 9.30044 13.4457 7.72016ZM14.3893 4.34334C13.7667 2.55222 11.2336 2.55222 10.611 4.34334L9.66549 7.0635C9.39084 7.85364 8.65345 8.38938 7.81711 8.40642L4.9379 8.4651C3.04205 8.50373 2.2593 10.9128 3.77036 12.0584L6.0652 13.7983C6.7318 14.3036 7.01345 15.1705 6.77122 15.9712L5.9373 18.7276C5.38819 20.5426 7.43749 22.0315 8.99397 20.9484L11.3578 19.3035C12.0444 18.8257 12.9559 18.8257 13.6425 19.3035L16.0063 20.9484C17.5628 22.0315 19.6121 20.5426 19.063 18.7276L18.2291 15.9712C17.9868 15.1705 18.2685 14.3036 18.9351 13.7983L21.2299 12.0584C22.741 10.9128 21.9582 8.50373 20.0624 8.4651L17.1832 8.40642C16.3468 8.38938 15.6094 7.85364 15.3348 7.0635L14.3893 4.34334Z"
        fill="#BDBDBD" />
</svg>
    