<svg width="20" height="19" viewBox="0 0 20 19" fill="none" xmlns="http://www.w3.org/2000/svg">
<path fill-rule="evenodd" clip-rule="evenodd" d="M10.9457 4.72016L10.0001 2L9.05462 4.72016C8.50531 6.30044 7.03054 7.37192 5.35786 7.40601L2.47865 7.46468L4.77349 9.20451C6.10669 10.2153 6.67 11.949 6.18553 13.5503L5.35161 16.3067L7.71542 14.6618C9.08869 13.7062 10.9116 13.7062 12.2849 14.6618L14.6487 16.3067L13.8148 13.5503C13.3303 11.949 13.8936 10.2153 15.2268 9.20451L17.5216 7.46468L14.6424 7.40601C12.9697 7.37192 11.495 6.30044 10.9457 4.72016ZM11.8893 1.34334C11.2667 -0.447782 8.73361 -0.447779 8.11101 1.34334L7.16549 4.0635C6.89084 4.85364 6.15345 5.38938 5.31711 5.40642L2.4379 5.4651C0.542054 5.50373 -0.240704 7.91282 1.27036 9.05843L3.5652 10.7983C4.2318 11.3036 4.51345 12.1705 4.27122 12.9712L3.4373 15.7276C2.88819 17.5426 4.93749 19.0315 6.49397 17.9484L8.85778 16.3035C9.54441 15.8257 10.4559 15.8257 11.1425 16.3035L13.5063 17.9484C15.0628 19.0315 17.1121 17.5426 16.563 15.7276L15.7291 12.9712C15.4868 12.1705 15.7685 11.3036 16.4351 10.7983L18.7299 9.05843C20.241 7.91282 19.4582 5.50373 17.5624 5.4651L14.6832 5.40642C13.8468 5.38938 13.1094 4.85364 12.8348 4.0635L11.8893 1.34334Z" fill="#BDBDBD"/>
</svg>
