<svg width="18" height="18" viewBox="0 0 18 18" fill="none" xmlns="http://www.w3.org/2000/svg">
    <path
        d="M7.60194 2.88251C8.06888 1.53917 9.96868 1.53916 10.4356 2.8825L11.1448 4.92262C11.3508 5.51523 11.9038 5.91704 12.5311 5.92982L14.6905 5.97382C16.1124 6.0028 16.6994 7.80962 15.5661 8.66882L13.845 9.97369C13.345 10.3527 13.1338 11.0029 13.3155 11.6034L13.9409 13.6707C14.3527 15.0319 12.8158 16.1486 11.6484 15.3363L9.87555 14.1026C9.36058 13.7443 8.67699 13.7443 8.16201 14.1026L6.38915 15.3363C5.22179 16.1486 3.68482 15.0319 4.09665 13.6707L4.72209 11.6034C4.90377 11.0029 4.69252 10.3527 4.19258 9.97369L2.47145 8.66882C1.33815 7.80962 1.92522 6.0028 3.3471 5.97382L5.50651 5.92982C6.13377 5.91704 6.6868 5.51523 6.89279 4.92262L7.60194 2.88251Z"
        fill="#FFD129" />
</svg>
    