<svg width="25" height="25" viewBox="0 0 25 25" fill="none" xmlns="http://www.w3.org/2000/svg">
  <path
    d="M10.6359 4.09334C11.2585 2.30222 13.7916 2.30222 14.4142 4.09334L15.3597 6.8135C15.6344 7.60364 16.3717 8.13938 17.2081 8.15642L20.0873 8.2151C21.9831 8.25373 22.7659 10.6628 21.2548 11.8084L18.96 13.5483C18.2934 14.0536 18.0117 14.9205 18.254 15.7212L19.0879 18.4776C19.637 20.2926 17.5877 21.7815 16.0312 20.6984L13.6674 19.0535C12.9808 18.5757 12.0693 18.5757 11.3827 19.0535L9.01887 20.6984C7.46239 21.7815 5.41309 20.2926 5.9622 18.4776L6.79612 15.7212C7.03835 14.9205 6.7567 14.0536 6.0901 13.5483L3.79526 11.8084C2.2842 10.6628 3.06696 8.25373 4.96281 8.2151L7.84201 8.15642C8.67835 8.13938 9.41574 7.60364 9.69039 6.8135L10.6359 4.09334Z"
    fill="#FFD129" />
</svg>