<svg width="30" height="30" viewBox="0 0 29 28" fill="none" xmlns="http://www.w3.org/2000/svg">
  <g clip-path="url(#clip0_6226_78770)">
    <path
      d="M19.8939 13.1529L13.6232 19.634C12.3844 20.9143 10.3448 21.1469 8.95206 20.0366C8.57933 19.7409 8.27266 19.3704 8.05178 18.949C7.8309 18.5276 7.70071 18.0646 7.6696 17.5898C7.63848 17.1151 7.70713 16.639 7.87112 16.1924C8.03511 15.7458 8.2908 15.3384 8.62175 14.9966L15.9475 7.4251C16.7239 6.62262 18.005 6.45078 18.8784 7.14164C19.1136 7.32594 19.3074 7.55764 19.4472 7.8217C19.587 8.08575 19.6698 8.37625 19.69 8.67435C19.7103 8.97245 19.6677 9.27148 19.5649 9.55203C19.4621 9.83258 19.3014 10.0884 19.0934 10.3028L12.8701 16.7349C12.5441 17.0718 12.0017 17.0808 11.6648 16.7548C11.3279 16.4288 11.3189 15.8864 11.6449 15.5495L16.831 10.1894C17.074 9.93828 17.0672 9.52848 16.8161 9.28548C16.5649 9.04247 16.1551 9.04924 15.9121 9.30039L10.809 14.5747C10.0326 15.3772 9.90308 16.6633 10.6224 17.5134C10.8143 17.7424 11.0523 17.9284 11.3208 18.0595C11.5894 18.1905 11.8824 18.2636 12.181 18.274C12.4796 18.2845 12.7771 18.232 13.0541 18.12C13.3311 18.008 13.5815 17.839 13.7889 17.6239L19.9115 11.296C21.1502 10.0157 21.3154 7.96947 20.1597 6.61415C19.8523 6.25081 19.472 5.95599 19.0435 5.74876C18.615 5.54152 18.1478 5.42647 17.672 5.41102C17.1963 5.39558 16.7226 5.4801 16.2816 5.65911C15.8405 5.83813 15.442 6.10766 15.1116 6.4503L7.83919 13.9667C6.13816 15.7248 5.90135 18.5438 7.49331 20.4043C7.91738 20.9031 8.44116 21.3077 9.03095 21.592C9.62075 21.8763 10.2635 22.034 10.9179 22.055C11.5723 22.076 12.2239 21.9598 12.8307 21.7139C13.4375 21.468 13.9861 21.0978 14.4413 20.6272L20.8128 14.0419C21.0558 13.7908 21.049 13.381 20.7978 13.138C20.5467 12.895 20.1369 12.9017 19.8939 13.1529Z"
      fill="#FFA047" />
  </g>
  <defs>
    <clipPath id="clip0_6226_78770">
      <rect width="19.7812" height="20" fill="white" transform="translate(4.43945 4)" />
    </clipPath>
  </defs>
</svg>