<svg width="28" height="28" viewBox="0 0 28 28" fill="none" xmlns="http://www.w3.org/2000/svg">
<path fill-rule="evenodd" clip-rule="evenodd" d="M6.5 9.58743C6.5 9.10012 6.89504 8.70508 7.38235 8.70508H20.6176C21.105 8.70508 21.5 9.10012 21.5 9.58743C21.5 10.0747 21.105 10.4698 20.6176 10.4698H7.38235C6.89504 10.4698 6.5 10.0747 6.5 9.58743Z" fill="#81759F"/>
<path fill-rule="evenodd" clip-rule="evenodd" d="M9.14722 13.9995C9.14722 13.5122 9.54226 13.1172 10.0296 13.1172H18.8531C19.3404 13.1172 19.7355 13.5122 19.7355 13.9995C19.7355 14.4869 19.3404 14.8819 18.8531 14.8819H10.0296C9.54226 14.8819 9.14722 14.4869 9.14722 13.9995Z" fill="#81759F"/>
<path fill-rule="evenodd" clip-rule="evenodd" d="M12.6765 18.4116C12.6765 17.9243 12.874 17.5293 13.1177 17.5293H15.7647C16.0084 17.5293 16.2059 17.9243 16.2059 18.4116C16.2059 18.899 16.0084 19.294 15.7647 19.294H13.1177C12.874 19.294 12.6765 18.899 12.6765 18.4116Z" fill="#81759F"/>
</svg>
