<svg width="32" height="32" viewBox="0 0 32 32" fill="none" xmlns="http://www.w3.org/2000/svg">
<path fill-rule="evenodd" clip-rule="evenodd" d="M15.7538 21.8516C15.4701 21.5679 15.4701 21.1078 15.7538 20.824L19.9631 16.6148L15.7538 12.4056C15.4701 12.1218 15.4701 11.6617 15.7538 11.378C16.0376 11.0942 16.4977 11.0942 16.7814 11.378L20.9907 15.5872C21.5582 16.1547 21.5582 17.0749 20.9907 17.6424L16.7814 21.8516C16.4977 22.1354 16.0376 22.1354 15.7538 21.8516Z" fill="#2F1B61"/>
<path fill-rule="evenodd" clip-rule="evenodd" d="M11.2128 21.8516C10.9291 21.5679 10.9291 21.1078 11.2128 20.824L15.4221 16.6148L11.2128 12.4056C10.9291 12.1218 10.9291 11.6617 11.2128 11.378C11.4966 11.0942 11.9567 11.0942 12.2404 11.378L16.4496 15.5872C17.0172 16.1547 17.0172 17.0749 16.4496 17.6424L12.2404 21.8516C11.9567 22.1354 11.4966 22.1354 11.2128 21.8516Z" fill="#2F1B61"/>
</svg>
