<svg width="61" height="62" viewBox="0 0 61 62" fill="none" xmlns="http://www.w3.org/2000/svg">
<rect y="0.5" width="61" height="61" rx="30.5" fill="#F7F7F7"/>
<path d="M30.5 18.5C23.6075 18.5 18 24.1075 18 31V36.1788C18 37.4588 19.1213 38.5 20.5 38.5H21.75C22.0815 38.5 22.3995 38.3683 22.6339 38.1339C22.8683 37.8995 23 37.5815 23 37.25V30.8213C23 30.4897 22.8683 30.1718 22.6339 29.9374C22.3995 29.7029 22.0815 29.5713 21.75 29.5713H20.615C21.31 24.7338 25.4725 21 30.5 21C35.5275 21 39.69 24.7338 40.385 29.5713H39.25C38.9185 29.5713 38.6005 29.7029 38.3661 29.9374C38.1317 30.1718 38 30.4897 38 30.8213V38.5C38 39.8788 36.8788 41 35.5 41H33V39.75H28V43.5H35.5C38.2575 43.5 40.5 41.2575 40.5 38.5C41.8788 38.5 43 37.4588 43 36.1788V31C43 24.1075 37.3925 18.5 30.5 18.5Z" fill="#2F7267"/>
</svg>
