<svg width="16" height="12" viewBox="0 0 16 12" fill="none" xmlns="http://www.w3.org/2000/svg">
  <path
    d="M6.49971 0.449951C5.91981 0.449951 5.44971 0.920054 5.44971 1.49995V3.89995C5.44971 4.47985 5.91981 4.94995 6.49971 4.94995H7.54956V8.25H6.19951C6.14699 8.25 6.09657 8.259 6.04971 8.27554V8.10005C6.04971 7.52015 5.57961 7.05005 4.99971 7.05005H1.99971C1.41981 7.05005 0.949707 7.52015 0.949707 8.10005V10.5C0.949707 11.0799 1.41981 11.55 1.99971 11.55H4.99971C5.57961 11.55 6.04971 11.0799 6.04971 10.5V9.12446C6.09657 9.141 6.14699 9.15 6.19951 9.15H9.94971V10.5C9.94971 11.0799 10.4198 11.55 10.9997 11.55H13.9997C14.5796 11.55 15.0497 11.0799 15.0497 10.5V8.10005C15.0497 7.52015 14.5796 7.05005 13.9997 7.05005H10.9997C10.4198 7.05005 9.94971 7.52015 9.94971 8.10005V8.25H8.44956V4.94995H9.49971C10.0796 4.94995 10.5497 4.47985 10.5497 3.89995V1.49995C10.5497 0.920053 10.0796 0.449951 9.49971 0.449951H6.49971Z"
    fill="#223F3B" />
</svg>