<svg width="24" height="26" viewBox="0 0 24 26" fill="none" xmlns="http://www.w3.org/2000/svg">
  <path
    d="M0.835327 11.8788C0.835327 5.56134 6.21432 0.58145 12.513 1.06752L13.1185 1.11424C18.5994 1.53721 22.8456 6.08326 22.8941 11.5803L22.9128 13.6905C22.953 18.2398 19.3706 21.9975 14.8245 22.1746L16.0963 25.0361L15.0131 24.8497C13.593 24.6054 12.3091 23.8561 11.3979 22.7399C5.62825 22.9521 0.835327 18.3323 0.835327 12.5587V11.8788Z"
    fill="url(#paint0_linear_2944_17000)" fill-opacity="0.8" />
  <path
    d="M14.871 3.47575H14.999L15.0447 3.64948C15.0142 3.64948 14.999 3.66472 14.999 3.69519C15.0843 3.69519 15.127 3.72262 15.127 3.77749V3.8232C15.0722 3.79272 15.0295 3.77749 14.999 3.77749C14.9441 3.80796 14.9015 3.8232 14.871 3.8232L15.127 3.99693V4.0335H15.0447L14.9076 3.95121C14.9076 3.99388 14.8649 4.03655 14.7796 4.07922H14.743V3.90549H14.7796L14.743 3.8232C14.8527 3.76225 14.9076 3.6891 14.9076 3.60376C14.8832 3.5489 14.871 3.50623 14.871 3.47575ZM14.5235 4.12494C14.81 4.21637 14.9533 4.34438 14.9533 4.50897C14.9045 4.53944 14.8466 4.55468 14.7796 4.55468V4.68269H15.0447C15.0996 4.69488 15.127 4.72536 15.127 4.77413C14.9563 4.87775 14.871 4.94785 14.871 4.98443C14.871 5.07586 14.9289 5.19168 15.0447 5.33188C14.9045 5.56352 14.8039 5.67934 14.743 5.67934V5.84392H14.7796V5.76163H14.9076C14.9685 5.77382 14.999 5.80125 14.999 5.84392C14.8527 5.88659 14.7796 5.93231 14.7796 5.98107L14.871 6.10908C14.871 6.16394 14.8405 6.19137 14.7796 6.19137L14.8253 6.28281C14.8253 6.30719 14.81 6.31938 14.7796 6.31938C14.81 6.38034 14.8253 6.42606 14.8253 6.45653C14.7704 6.58454 14.7125 6.65464 14.6516 6.66684L14.6973 6.75827V6.88628L14.6516 7.09658H14.5693V7.01429H14.4778V7.09658H14.5693L14.4413 7.22459C14.4656 7.28555 14.4778 7.33126 14.4778 7.36174C14.4534 7.36174 14.4413 7.37393 14.4413 7.39832C14.4656 7.39832 14.4778 7.41356 14.4778 7.44403C14.423 7.45623 14.3955 7.48366 14.3955 7.52633L14.4778 7.57204L14.2675 8.34924L14.3041 8.44068C14.2492 8.72717 14.2066 8.87042 14.1761 8.87042L14.2218 8.95271C14.2218 9.01367 14.1913 9.04415 14.1304 9.04415L14.1761 9.12644V9.47389C14.1029 9.69334 14.0328 9.86402 13.9658 9.98593L14.0024 10.0774V10.1597C14.0024 10.1901 13.9902 10.2054 13.9658 10.2054L14.0024 10.2877L13.8744 10.5528L13.9658 10.6808L13.8744 10.8088C13.9353 10.821 13.9658 10.8485 13.9658 10.8911H13.9201L13.8286 10.8546V10.9369L13.9201 11.0649C13.8591 11.0771 13.8286 11.1075 13.8286 11.1563V11.202C13.8835 11.3483 13.9841 11.4337 14.1304 11.458V11.5403L14.2218 11.5038C14.4291 11.5586 14.5449 11.586 14.5693 11.586H14.6058L14.6973 11.5403L14.743 11.6318V11.6683L14.6973 11.7598C14.7521 11.7659 14.7796 11.7933 14.7796 11.8421C14.7796 11.903 14.7521 11.9335 14.6973 11.9335H14.6516C14.6089 11.9335 14.5662 11.8908 14.5235 11.8055C14.554 11.8055 14.5693 11.7902 14.5693 11.7598H14.5235L14.3498 11.8878H14.2218C14.1913 11.8878 14.1761 11.8725 14.1761 11.8421L14.0938 11.8878H14.0481C13.981 11.8878 13.9231 11.8725 13.8744 11.8421C13.8195 11.8725 13.7768 11.8878 13.7463 11.8878C13.7463 11.8573 13.7311 11.8421 13.7006 11.8421L13.6641 11.9335L13.7463 12.0615C13.7463 12.1164 13.7037 12.1438 13.6183 12.1438C13.6183 12.1865 13.6458 12.3175 13.7006 12.537C13.6519 12.537 13.594 12.7534 13.5269 13.1862H13.4903L13.5269 13.2685L13.3623 13.7896H13.2709L13.3623 13.9176L13.2252 14.0914C13.2861 14.0975 13.3166 14.1249 13.3166 14.1737L13.1886 14.3474L13.2252 14.6034C13.1581 14.9326 13.1032 15.1642 13.0606 15.2983C13.0606 15.3227 13.0728 15.3349 13.0972 15.3349C12.957 16.2249 12.8869 16.6851 12.8869 16.7156H12.7954V16.7613C12.8808 16.7613 12.9234 16.7918 12.9234 16.8527V16.9807C12.9234 17.0051 12.9112 17.0173 12.8869 17.0173L12.9234 17.1087C12.9234 17.1514 12.8808 17.1941 12.7954 17.2367H12.7131V17.1544H12.8411V17.063C12.7436 17.063 12.643 17.1057 12.5394 17.191C12.5394 17.0508 12.4967 16.9807 12.4114 16.9807C12.3504 16.9868 12.32 17.0142 12.32 17.063V17.3647H12.2834C12.1676 17.2794 12.0792 17.2367 12.0182 17.2367V17.191C12.1218 17.191 12.195 17.1331 12.2377 17.0173H12.1919C12.1371 17.0478 12.0944 17.063 12.0639 17.063L12.1097 16.9807L11.9359 16.807V16.679L11.9816 16.5875H11.9359C11.875 16.5997 11.8445 16.6302 11.8445 16.679C11.875 16.679 11.8902 16.6912 11.8902 16.7156L11.7622 16.807C11.8171 16.9228 11.8445 17.0081 11.8445 17.063C11.7896 17.0935 11.747 17.1087 11.7165 17.1087L11.7622 17.191V17.2825C11.7622 17.3373 11.7348 17.3647 11.6799 17.3647C11.5824 17.2794 11.5092 17.2367 11.4605 17.2367V17.1544H11.5885V17.063L11.4147 17.1544V16.9807L11.6342 17.0173H11.6799C11.6799 16.9746 11.622 16.9198 11.5062 16.8527C11.5062 16.8771 11.4909 16.8893 11.4605 16.8893L11.4147 16.807C11.5001 16.7826 11.558 16.7247 11.5885 16.6333H11.5428C11.4879 16.6637 11.4452 16.679 11.4147 16.679V16.6333L11.5062 16.5053C11.4757 16.4504 11.4605 16.4077 11.4605 16.3772H11.5062L11.6342 16.4595V16.4138C11.5732 16.3041 11.5428 16.2035 11.5428 16.1121C11.5732 16.1121 11.5885 16.0999 11.5885 16.0755L11.5062 16.0298H11.4605V16.1578H11.4147C11.3721 16.1578 11.3294 16.1151 11.2867 16.0298V15.9841C11.5001 15.9353 11.6311 15.8652 11.6799 15.7738H11.7165C11.7165 15.7128 11.6738 15.6823 11.5885 15.6823V15.6H11.7165C11.7165 15.5574 11.6738 15.5147 11.5885 15.472L11.4605 15.5543C11.4605 15.4812 11.4026 15.4385 11.2867 15.4263V15.3349H11.4147V15.4263H11.4605C11.5031 15.4263 11.5458 15.3837 11.5885 15.2983C11.558 15.2983 11.5428 15.2831 11.5428 15.2526L11.4605 15.2983H11.4147C11.3599 15.2983 11.3325 15.2678 11.3325 15.2069L11.4147 14.9051C11.3904 14.8503 11.3782 14.8076 11.3782 14.7771H11.4605C11.4605 14.8686 11.5336 14.9539 11.6799 15.0331C11.6799 15.0088 11.6921 14.9966 11.7165 14.9966C11.6982 14.9112 11.6403 14.8533 11.5428 14.8228C11.5732 14.7863 11.5885 14.7009 11.5885 14.5668C11.5031 14.5364 11.4605 14.5059 11.4605 14.4754C11.4909 14.3901 11.5184 14.3474 11.5428 14.3474C11.6037 14.3779 11.6494 14.3931 11.6799 14.3931C11.5885 14.2773 11.5428 14.1889 11.5428 14.1279C11.6037 14.1279 11.6342 14.0853 11.6342 13.9999L11.9359 14.0457V13.9999C11.7348 13.8902 11.6342 13.8201 11.6342 13.7896V13.6525C11.6891 13.6647 11.7165 13.6951 11.7165 13.7439C11.6921 13.7439 11.6799 13.7592 11.6799 13.7896C11.7043 13.7896 11.7165 13.8018 11.7165 13.8262L11.8079 13.7896H11.9816L12.0639 13.8262V13.7439C11.8628 13.7134 11.7622 13.6708 11.7622 13.6159V13.5702L11.8079 13.4879H11.7165L11.6342 13.5245C11.6037 13.4696 11.5885 13.4269 11.5885 13.3965C11.6494 13.2563 11.6921 13.1862 11.7165 13.1862L11.6799 13.0947V13.0124L11.7622 12.8844L11.7165 12.793L11.7622 12.6193C11.6464 12.4852 11.5885 12.3998 11.5885 12.3632L11.5062 12.409C11.4757 12.409 11.4605 12.3937 11.4605 12.3632C11.2044 12.3998 11.046 12.4272 10.985 12.4455L10.9027 12.409L10.6375 12.4455C10.6375 12.4212 10.6254 12.409 10.601 12.409L10.5553 12.4913L10.4638 12.4455C9.83597 12.4455 9.52204 12.5461 9.52204 12.7473C9.49156 12.7473 9.44584 12.7625 9.38489 12.793C9.38489 12.6528 9.35746 12.5827 9.3026 12.5827C9.3026 12.6497 9.27517 12.7198 9.2203 12.793L9.3026 12.921H9.25688L9.3026 13.0124V13.0947H9.17459C9.17459 13.4117 9.11668 13.5702 9.00086 13.5702C9.00086 13.625 9.04353 13.6525 9.12887 13.6525L9.00086 13.8262L9.04658 14.0457H9.17459C9.17459 14.0213 9.20202 13.9481 9.25688 13.8262H9.38489V13.9176C9.38489 13.9359 9.31479 14.006 9.17459 14.1279V14.1737L9.25688 14.3017L9.00086 14.2651L9.04658 14.1737V14.1279H9.00086V14.2194L8.91857 14.1737L8.87285 14.2651V14.3474H8.95514V14.4754H8.87285C8.91552 14.5912 8.95819 14.6491 9.00086 14.6491H9.04658L9.12887 14.6034L9.04658 14.3474H9.08315C9.12582 14.3474 9.17154 14.3901 9.2203 14.4754C9.2203 14.5059 9.20506 14.5211 9.17459 14.5211L9.2203 14.6034V14.6491L8.82713 14.8686C8.82713 14.9112 8.7997 15.024 8.74484 15.2069C8.7997 15.2374 8.84237 15.2526 8.87285 15.2526V15.3349C8.78751 15.3349 8.74484 15.3501 8.74484 15.3806L8.78142 15.472C8.75703 15.6061 8.68693 15.7342 8.57111 15.8561C8.60159 15.9048 8.61683 15.9627 8.61683 16.0298C8.5254 16.0298 8.47968 16.0572 8.47968 16.1121C8.54064 16.1426 8.58635 16.1578 8.61683 16.1578V16.2035C8.61683 16.2584 8.58635 16.2858 8.5254 16.2858L8.39739 16.2035V16.2858L8.44311 16.3772L8.35167 16.4138L8.26938 16.3772L8.22366 16.4595H8.44311V16.3772C8.49797 16.3833 8.5254 16.4108 8.5254 16.4595C8.44006 16.5875 8.39739 16.7186 8.39739 16.8527H8.35167C8.35167 16.7613 8.32424 16.7156 8.26938 16.7156V16.8527H8.35167V16.9807H8.3151C8.25414 16.9502 8.20842 16.935 8.17794 16.935V17.0173C8.26938 17.0173 8.3151 17.0478 8.3151 17.1087C8.25414 17.1819 8.22366 17.252 8.22366 17.319H8.14137V17.2825C8.16575 17.2276 8.17794 17.1849 8.17794 17.1544H8.14137C8.0987 17.1544 8.05603 17.1971 8.01336 17.2825V17.319L8.04993 17.4105C8.02555 17.4105 8.01336 17.4257 8.01336 17.4562L7.92193 17.4105H7.87621L7.96764 17.5385C7.87011 17.5994 7.79696 17.6299 7.7482 17.6299L7.79392 17.7122L7.66591 17.8859H7.70248L7.96764 17.8402V17.8859C7.87011 17.9591 7.75429 18.1298 7.62019 18.398C7.66286 18.398 7.70553 18.4437 7.7482 18.5351C7.69334 18.6753 7.608 18.7759 7.49218 18.8368C7.49218 18.9466 7.40684 19.0014 7.23616 19.0014V19.0472H7.27274L7.5379 18.9649L7.57447 19.0472L7.49218 19.0929L7.5379 19.1752C7.42208 19.3397 7.36417 19.4556 7.36417 19.5226H7.27274L7.31845 19.3123C7.24531 19.3672 7.17216 19.3946 7.09901 19.3946V19.5226C7.21483 19.5348 7.27274 19.5775 7.27274 19.6506V19.7421C7.15692 19.7421 7.09901 19.8 7.09901 19.9158L7.19044 19.8701H7.23616V19.9158C7.23616 19.9706 7.20568 19.9981 7.14473 19.9981H7.01672C6.94357 19.9981 6.9009 19.9402 6.88871 19.8243L6.79727 19.8701H6.58697V19.8243L6.66926 19.6506H6.45896C6.42848 19.5958 6.41325 19.5531 6.41325 19.5226L6.49554 19.4769H6.54125L6.66926 19.5683H6.71498L6.54125 19.3123V19.2209H6.63269L6.49554 18.9649C6.5443 18.9344 6.61745 18.9191 6.71498 18.9191L6.66926 18.8368V18.7911C6.7546 18.6814 6.79727 18.5961 6.79727 18.5351H6.7607C6.74241 18.5351 6.66926 18.6052 6.54125 18.7454H6.49554V18.6997L6.71498 18.4437L6.63269 18.398L6.45896 18.5351L6.41325 18.4437C6.51078 18.3583 6.59612 18.3157 6.66926 18.3157L6.63269 18.2334V18.1877H6.7607V18.0962C6.67536 18.0962 6.63269 18.0688 6.63269 18.0139C6.64488 18.0139 6.73022 17.9286 6.88871 17.7579V17.7122C6.85823 17.7122 6.81556 17.697 6.7607 17.6665C6.81556 17.4348 6.87347 17.319 6.93443 17.319L7.01672 17.3647V17.2367C6.98624 17.2367 6.94357 17.2215 6.88871 17.191C6.91309 17.0752 6.94052 17.0173 6.971 17.0173C6.91614 16.8771 6.88871 16.7765 6.88871 16.7156C6.94357 16.6912 6.98624 16.679 7.01672 16.679L6.971 16.5875L7.01672 16.4138L6.971 16.2035C7.00148 16.1487 7.01672 16.106 7.01672 16.0755L6.971 15.9841C6.971 15.9475 7.02891 15.8469 7.14473 15.6823L7.06244 15.6366C7.08682 15.5696 7.11425 15.4263 7.14473 15.2069L7.09901 15.1246L7.27274 14.6948C7.21788 14.6948 7.19044 14.6644 7.19044 14.6034C7.29407 14.1158 7.39465 13.8719 7.49218 13.8719V13.8262L7.40075 13.6982V13.4879C7.40075 13.4269 7.44646 13.3965 7.5379 13.3965L7.49218 13.1862H7.5379C7.5379 13.1557 7.52266 13.1404 7.49218 13.1404C7.52875 12.8418 7.57142 12.668 7.62019 12.6193V12.537C7.57142 12.537 7.45561 12.4212 7.27274 12.1895L6.88871 12.2352C6.88871 12.1743 6.85823 12.1438 6.79727 12.1438L6.71498 12.1895C6.67231 12.0737 6.59916 11.9884 6.49554 11.9335H6.28524C6.28524 11.9884 6.35534 12.0158 6.49554 12.0158V12.1072C6.43458 12.1072 6.37972 12.092 6.33095 12.0615C6.27609 12.092 6.14504 12.1194 5.93778 12.1438C5.88902 12.1194 5.83111 12.1072 5.76406 12.1072V12.1438L5.80977 12.2352L5.71834 12.2718L5.63605 12.2352L5.71834 12.0158C5.633 12.0158 5.59033 11.9884 5.59033 11.9335V11.8878C5.65738 11.8878 5.71529 11.903 5.76406 11.9335H5.80977V11.8878H5.71834V11.7598C6.29743 11.5098 6.58697 11.3239 6.58697 11.202L6.66926 11.2386H6.71498C6.75765 11.2386 6.80032 11.1959 6.84299 11.1106H6.63269V11.0283C6.60221 11.0283 6.48639 11.0557 6.28524 11.1106H6.23952C6.18466 11.1106 6.15723 11.0832 6.15723 11.0283C6.21209 11.0283 6.23952 10.9978 6.23952 10.9369L6.15723 10.8088V10.6808L6.33095 10.7266L6.49554 10.6808L6.71498 10.7266L6.79727 10.6808C6.85823 10.7113 6.90395 10.7266 6.93443 10.7266L7.01672 10.6808C7.13254 10.7357 7.21788 10.7631 7.27274 10.7631L7.36417 10.7266L7.57447 10.7631L7.66591 10.7266L7.92193 10.7631H7.96764V10.5528C7.96764 10.3761 8.02555 10.2877 8.14137 10.2877C8.14137 10.2328 8.0987 10.2054 8.01336 10.2054V10.1231H8.09565L8.04993 9.90364V9.82135C8.13527 9.71162 8.17794 9.61105 8.17794 9.51961H8.14137C8.14137 9.42818 8.19928 9.38246 8.3151 9.38246C8.3151 9.3215 8.29986 9.26359 8.26938 9.20873C8.26938 9.12339 8.31205 9.08072 8.39739 9.08072L8.35167 8.99843V8.95271L8.57111 8.77899V8.74241L8.47968 8.60526C8.54064 8.60526 8.57111 8.57783 8.57111 8.52297L8.47968 8.47725L8.61683 8.26695V8.22123C8.55588 8.22123 8.5254 8.20599 8.5254 8.17551C8.61074 8.00484 8.71132 7.9195 8.82713 7.9195V7.87378H8.65341V7.79149C8.72046 7.79149 8.77837 7.77625 8.82713 7.74577C8.79665 7.69091 8.78142 7.64824 8.78142 7.61776L8.82713 7.52633C8.79665 7.47146 8.78142 7.42879 8.78142 7.39832C8.81189 7.22764 8.85761 7.1423 8.91857 7.1423V7.22459C8.97343 7.22459 9.00086 7.19716 9.00086 7.1423C8.93381 7.1423 8.8759 7.08439 8.82713 6.96857C8.82713 6.9259 8.8698 6.88323 8.95514 6.84056L8.91857 6.75827L9.04658 6.58454V6.53883L8.87285 6.49311V6.41082H9.04658V6.31938C8.85152 6.31938 8.7357 6.20661 8.69912 5.98107H8.91857C9.05877 5.98107 9.20202 6.09384 9.34831 6.31938L9.52204 6.45653L9.38489 6.84056C9.41537 6.89542 9.4306 6.93809 9.4306 6.96857H9.38489L9.4306 7.06001C9.40013 7.11487 9.38489 7.15754 9.38489 7.18802C9.44584 7.19411 9.47632 7.22154 9.47632 7.27031C9.37879 7.38613 9.29345 7.44403 9.2203 7.44403V7.52633L9.47632 7.61776C9.55557 7.47146 9.64091 7.39832 9.73234 7.39832V7.27031H9.65005C9.65005 7.35565 9.61957 7.39832 9.55861 7.39832L9.52204 7.31602C9.52204 7.25507 9.56471 7.22459 9.65005 7.22459V7.18802L9.60433 7.09658C9.66529 7.09658 9.69577 7.06915 9.69577 7.01429C9.63481 7.01429 9.60433 6.98381 9.60433 6.92285L9.69577 6.79484H9.60433V6.62112C9.61652 6.56626 9.647 6.53883 9.69577 6.53883H9.73234C9.73234 6.64245 9.79025 6.7156 9.90607 6.75827L9.95179 6.66684C9.95179 6.61197 9.90912 6.58454 9.82378 6.58454L9.86035 6.49311L9.82378 6.41082L9.95179 6.31938L9.9975 6.41082C9.96702 6.41082 9.95179 6.42606 9.95179 6.45653C9.99445 6.45653 10.0524 6.5114 10.1255 6.62112L10.0798 6.71255C10.1347 6.71865 10.1621 6.74608 10.1621 6.79484L10.1255 6.88628H10.1621L10.2992 6.79484H10.3358V6.84056C10.281 6.95638 10.2109 7.01429 10.1255 7.01429L10.1621 7.22459C10.1072 7.23678 10.0798 7.26726 10.0798 7.31602H10.1621V7.48975C10.1621 7.51413 10.1499 7.52633 10.1255 7.52633C10.1255 7.5568 10.1377 7.57204 10.1621 7.57204C10.1438 7.74882 10.1164 7.8372 10.0798 7.8372C10.1103 7.89207 10.1255 7.93474 10.1255 7.96521C10.1255 7.9896 10.0676 8.07494 9.95179 8.22123C10.0066 8.25171 10.0493 8.26695 10.0798 8.26695V8.34924C9.99445 8.34924 9.92131 8.40715 9.86035 8.52297V8.56869C9.89083 8.56869 9.93655 8.58088 9.9975 8.60526C9.9975 8.58088 10.0097 8.56869 10.0341 8.56869V8.65098C10.0341 8.66926 9.96398 8.74241 9.82378 8.87042V8.907L9.90607 9.04415C9.85121 9.04415 9.82378 9.05634 9.82378 9.08072C9.82378 9.19654 9.89388 9.25445 10.0341 9.25445V9.30017C9.90607 9.30017 9.80549 9.37331 9.73234 9.51961C9.81768 9.51961 9.86035 9.54704 9.86035 9.6019H9.73234V9.68419H9.82378V9.85792H9.73234L9.77806 9.94936V10.0774C9.77806 10.2176 9.73539 10.2877 9.65005 10.2877L9.73234 10.4248C9.67748 10.4248 9.63481 10.5102 9.60433 10.6808H9.65005L9.90607 10.5894C9.90607 10.6382 10.0066 10.6961 10.2078 10.7631C10.2566 10.7387 10.3876 10.7113 10.601 10.6808C10.6924 10.7235 10.8204 10.7662 10.985 10.8088C11.0338 10.7784 11.0917 10.7631 11.1587 10.7631H11.2044L11.1587 10.8546H11.2044L11.4147 10.8088C11.4269 10.8637 11.4574 10.8911 11.5062 10.8911H11.6342V10.9826C11.7683 10.8119 11.8963 10.7266 12.0182 10.7266V10.6351H11.9359V10.5528H12.0639V10.4614H11.9816V10.4248C12.0914 10.3151 12.1462 10.1993 12.1462 10.0774H12.1097L11.9816 10.1597H11.9359C11.875 10.1597 11.8445 10.117 11.8445 10.0316C11.8445 9.91583 11.9176 9.85792 12.0639 9.85792V9.82135L11.9816 9.68419V9.64762H12.1462V9.68419L12.2377 9.64762L12.1919 9.55618C12.1919 9.50132 12.2346 9.47389 12.32 9.47389V9.42818C12.1798 9.42818 12.1097 9.41294 12.1097 9.38246L12.0182 9.42818C11.9634 9.42818 11.9359 9.40075 11.9359 9.34588C11.9908 9.31541 12.0335 9.30017 12.0639 9.30017V9.20873H11.9816V9.08072C11.9877 9.02586 12.0152 8.99843 12.0639 8.99843C12.0639 9.02891 12.0792 9.04415 12.1097 9.04415V8.95271C12.0243 8.95271 11.9816 8.91004 11.9816 8.8247C12.006 8.67841 12.0335 8.60526 12.0639 8.60526L12.0182 8.52297C12.0487 8.46811 12.0639 8.42544 12.0639 8.39496L12.1462 8.44068H12.1919L12.1462 8.34924L12.1919 8.26695V8.22123H12.1462V8.30352C12.0914 8.30352 12.0639 8.27609 12.0639 8.22123V8.13894L12.2377 7.96521L12.1462 7.9195C12.1462 7.94998 12.134 7.96521 12.1097 7.96521C12.1097 7.78844 12.1676 7.70005 12.2834 7.70005L12.2377 7.61776C12.2925 7.61776 12.32 7.58728 12.32 7.52633L12.2834 7.31602C12.3382 7.31602 12.3657 7.28555 12.3657 7.22459C12.3108 7.22459 12.2834 7.19716 12.2834 7.1423C12.32 6.91066 12.3626 6.79484 12.4114 6.79484L12.3657 6.71255V6.66684C12.4327 6.66684 12.5059 6.60893 12.5851 6.49311C12.5242 6.49311 12.4937 6.45044 12.4937 6.3651C12.579 6.2249 12.6217 6.12432 12.6217 6.06336H12.7497C12.7497 6.20966 12.7223 6.28281 12.6674 6.28281C12.6674 6.30719 12.6826 6.31938 12.7131 6.31938C12.6826 6.50835 12.6247 6.69731 12.5394 6.88628L12.5851 7.1423C12.5242 7.1423 12.4937 7.18497 12.4937 7.27031L12.5394 7.36174C12.5089 7.50194 12.4784 7.57204 12.448 7.57204L12.4937 7.66348C12.4937 7.68786 12.4784 7.70005 12.448 7.70005L12.4937 7.79149C12.4937 7.84635 12.451 7.87378 12.3657 7.87378L12.448 8.00179C12.448 8.04446 12.4053 8.09018 12.32 8.13894L12.3657 8.22123V8.26695C12.3657 8.29133 12.3504 8.30352 12.32 8.30352L12.3657 8.39496C12.3352 8.44372 12.32 8.50163 12.32 8.56869H12.4114C12.4784 8.50773 12.5364 8.47725 12.5851 8.47725L12.5394 8.39496V8.17551C12.5943 8.17551 12.6217 8.16332 12.6217 8.13894V8.00179H12.6674V7.96521H12.5851V7.9195C12.5851 7.88902 12.5973 7.87378 12.6217 7.87378L12.5851 7.79149C12.5851 7.73053 12.64 7.70005 12.7497 7.70005L12.6674 7.57204C12.6674 7.54156 12.6826 7.52633 12.7131 7.52633L12.6674 7.44403L12.7497 7.31602L12.7131 7.22459C12.768 7.22459 12.8259 7.05391 12.8869 6.71255C12.9417 6.59674 12.9844 6.53883 13.0149 6.53883C13.0697 6.5693 13.1124 6.58454 13.1429 6.58454C13.1429 6.54797 13.2435 6.49006 13.4446 6.41082L13.3989 6.31938C13.4598 6.22795 13.4903 6.15785 13.4903 6.10908C13.4598 6.10908 13.4446 6.09384 13.4446 6.06336L13.5269 6.01765L13.4903 5.93535C13.5452 5.86221 13.5726 5.78906 13.5726 5.71591L13.6641 5.76163C13.7555 5.67629 13.8256 5.63362 13.8744 5.63362V5.5879C13.789 5.5879 13.7463 5.56047 13.7463 5.50561H13.8744V5.41417H13.7006V5.33188H13.8286V5.07586C13.8286 5.05758 13.8865 4.98443 14.0024 4.85642C13.8865 4.85642 13.8286 4.79851 13.8286 4.68269C13.8591 4.68269 13.8744 4.66745 13.8744 4.63698L13.9658 4.68269H14.0024C14.0206 4.51201 14.0633 4.42667 14.1304 4.42667H14.2218V4.47239L14.1761 4.55468L14.3955 4.6004L14.3498 4.50897C14.3498 4.42363 14.4504 4.38096 14.6516 4.38096V4.29867C14.5114 4.29867 14.4413 4.26819 14.4413 4.20723C14.4961 4.20723 14.5235 4.1798 14.5235 4.12494ZM14.871 4.12494H14.9076C14.9685 4.13103 14.999 4.15846 14.999 4.20723V4.25295H14.871V4.12494ZM15.0447 4.20723H15.127C15.1819 4.21942 15.2093 4.2499 15.2093 4.29867C15.2093 4.35353 15.1819 4.38096 15.127 4.38096L15.0447 4.25295V4.20723ZM14.4413 4.55468V4.63698H14.5235C14.5906 4.58211 14.6485 4.55468 14.6973 4.55468V4.47239H14.6516C14.5784 4.52725 14.5083 4.55468 14.4413 4.55468ZM15.255 4.42667V4.47239C15.255 4.50897 15.2124 4.55164 15.127 4.6004H14.999C14.999 4.55164 15.0843 4.49373 15.255 4.42667ZM14.6973 4.72841V4.8107H14.8253V4.72841H14.6973ZM14.999 4.90214C15.0539 4.90823 15.0813 4.93566 15.0813 4.98443V5.15816H14.999C14.999 5.12768 14.9838 5.08501 14.9533 5.03015C14.9838 4.97529 14.999 4.93262 14.999 4.90214ZM14.3498 5.11244H14.4778V5.03015H14.4413C14.3803 5.03624 14.3498 5.06367 14.3498 5.11244ZM13.8744 5.15816V5.24045H14.0024V5.15816H13.8744ZM14.6973 5.15816C14.6973 5.20083 14.7399 5.24349 14.8253 5.28616L14.871 5.20387L14.7796 5.15816H14.6973ZM10.2992 5.84392C10.2992 5.86221 10.3419 6.0085 10.4272 6.28281C10.3968 6.33767 10.3815 6.38034 10.3815 6.41082C10.412 6.41082 10.4272 6.42606 10.4272 6.45653C10.3419 6.45653 10.2992 6.4992 10.2992 6.58454H10.2535C10.1926 6.58454 10.1499 6.49616 10.1255 6.31938L10.2078 6.3651H10.2535C10.3084 6.3651 10.3358 6.33767 10.3358 6.28281C10.3358 6.1487 10.2657 6.06032 10.1255 6.01765C10.095 5.96279 10.0798 5.92011 10.0798 5.88964H10.1255L10.2078 5.93535C10.22 5.8744 10.2505 5.84392 10.2992 5.84392ZM14.6058 6.1548V6.23709H14.743C14.743 6.18223 14.7125 6.1548 14.6516 6.1548H14.6058ZM13.3166 6.53883L13.2709 6.71255C13.3257 6.68207 13.3684 6.66684 13.3989 6.66684V6.53883H13.3166ZM9.08315 6.71255H9.12887C9.18983 6.71255 9.2203 6.68207 9.2203 6.62112H9.17459C9.11363 6.63331 9.08315 6.66379 9.08315 6.71255ZM13.0972 6.88628V6.96857C13.1581 6.96857 13.1886 6.98381 13.1886 7.01429L13.2709 6.96857C13.3196 6.99905 13.3776 7.01429 13.4446 7.01429C13.3288 6.92895 13.2709 6.84361 13.2709 6.75827C13.1551 6.80094 13.0972 6.84361 13.0972 6.88628ZM13.0149 7.1423H13.1429V7.06001H13.0972C13.0423 7.0661 13.0149 7.09353 13.0149 7.1423ZM13.0149 7.22459C12.9844 7.4867 12.9417 7.61776 12.8869 7.61776C12.9112 7.67262 12.9234 7.71529 12.9234 7.74577H12.9691C13.0301 7.74577 13.0606 7.71834 13.0606 7.66348L13.0149 7.44403C13.1002 7.32822 13.1703 7.27031 13.2252 7.27031V7.22459H13.0149ZM10.601 7.52633L10.6375 7.61776L10.5553 7.66348L10.5095 7.57204L10.601 7.52633ZM9.25688 7.9195L9.47632 8.04751H9.52204V8.00179H9.4306C9.4306 7.94693 9.47327 7.9195 9.55861 7.9195C9.55861 7.87683 9.51594 7.83416 9.4306 7.79149H9.38489C9.34831 7.79149 9.30564 7.83416 9.25688 7.9195ZM12.8411 7.87378V8.09322L12.7954 8.34924C12.8381 8.46506 12.8808 8.52297 12.9234 8.52297L13.0149 8.47725C12.9539 8.36143 12.9234 8.27609 12.9234 8.22123C12.9844 8.19075 13.0301 8.17551 13.0606 8.17551L12.9234 7.96521L12.9691 7.87378H12.8411ZM10.3815 8.00179H10.4638V8.04751C10.4212 8.16332 10.3785 8.22123 10.3358 8.22123L10.2992 8.13894C10.3541 8.13894 10.3815 8.09322 10.3815 8.00179ZM10.601 8.26695V8.34924L10.5095 8.47725C10.54 8.47725 10.5553 8.49249 10.5553 8.52297L10.4638 8.56869L10.2535 8.30352C10.4547 8.30352 10.5705 8.29133 10.601 8.26695ZM9.12887 8.34924L9.08315 8.52297H9.17459L9.2203 8.34924H9.12887ZM8.91857 8.60526C8.94295 8.66622 8.95514 8.71193 8.95514 8.74241H9.04658C9.0161 8.68146 9.00086 8.63574 9.00086 8.60526H8.91857ZM12.7954 8.60526C12.7223 8.85518 12.6644 8.98624 12.6217 8.99843C12.6522 9.05329 12.6674 9.09596 12.6674 9.12644H12.7131C12.7741 9.12644 12.832 8.95271 12.8869 8.60526H12.7954ZM9.12887 8.65098V8.74241L9.3026 8.77899V8.6967C9.23554 8.6967 9.17763 8.68146 9.12887 8.65098ZM10.3358 8.60526L10.4638 8.6967C10.5248 8.66622 10.5705 8.65098 10.601 8.65098V8.6967C10.601 8.73936 10.5431 8.78203 10.4272 8.8247C10.3724 8.79423 10.3145 8.77899 10.2535 8.77899L10.5553 9.04415C10.4212 9.09901 10.348 9.15387 10.3358 9.20873C10.3968 9.22092 10.4272 9.2514 10.4272 9.30017L10.3358 9.34588C10.2931 9.34588 10.2352 9.28798 10.1621 9.17216C10.3389 9.10511 10.4272 9.0472 10.4272 8.99843C10.1956 8.92528 10.0798 8.86737 10.0798 8.8247C10.2505 8.72717 10.3358 8.65403 10.3358 8.60526ZM8.95514 9.08072H9.08315V8.95271C9.04658 8.95271 9.00391 8.99538 8.95514 9.08072ZM10.1621 8.99843L10.2078 9.08072V9.12644H10.1621C10.1072 9.12644 10.0798 9.09901 10.0798 9.04415L10.1621 8.99843ZM10.0341 9.38246H10.1255V9.47389C10.0402 9.47389 9.9975 9.50132 9.9975 9.55618H9.86035C9.86035 9.51352 9.91826 9.45561 10.0341 9.38246ZM12.0182 9.47389H12.1097V9.51961C12.1097 9.57447 12.0792 9.6019 12.0182 9.6019C11.9634 9.6019 11.9359 9.57447 11.9359 9.51961L12.0182 9.47389ZM12.5394 9.6019H12.7131V9.51961H12.6217C12.5668 9.52571 12.5394 9.55314 12.5394 9.6019ZM9.9975 9.6019H10.0341C10.095 9.608 10.1255 9.63543 10.1255 9.68419C10.095 9.68419 10.0798 9.69943 10.0798 9.72991C10.1103 9.72991 10.1255 9.74515 10.1255 9.77563L10.0341 9.82135L9.9975 9.6019ZM12.5394 9.64762L12.448 9.77563C12.5089 9.78172 12.5394 9.80916 12.5394 9.85792C12.4967 9.85792 12.4541 9.90059 12.4114 9.98593L12.4937 10.0316L12.4114 10.2511C12.4358 10.2511 12.448 10.2633 12.448 10.2877C12.5943 10.2755 12.6674 10.1627 12.6674 9.94936C12.6125 9.94936 12.5851 9.91888 12.5851 9.85792V9.82135H12.6674V9.77563C12.6674 9.73296 12.6247 9.69029 12.5394 9.64762ZM11.9359 10.0316V10.0774H11.9816L12.1097 9.98593C12.1584 10.0164 12.2163 10.0316 12.2834 10.0316L12.32 9.94936H12.2834C12.2224 9.97374 12.1767 9.98593 12.1462 9.98593C12.1462 9.93107 12.1188 9.90364 12.0639 9.90364C12.0213 9.90364 11.9786 9.94631 11.9359 10.0316ZM12.448 10.4614C12.3992 10.5284 12.3565 10.6595 12.32 10.8546H12.3657C12.4022 10.8546 12.4602 10.7387 12.5394 10.5071L12.448 10.4614ZM5.46232 11.5403C5.52328 11.5525 5.55376 11.583 5.55376 11.6318L5.4166 11.7141C5.36174 11.7141 5.33431 11.6866 5.33431 11.6318L5.46232 11.5403ZM5.93778 11.7141V11.8055C6.0536 11.8055 6.11151 11.8329 6.11151 11.8878C6.11151 11.9731 6.0536 12.0158 5.93778 12.0158V12.0615H6.02007C6.05665 12.0615 6.1298 12.0188 6.23952 11.9335L6.1938 11.8421V11.8055C6.30962 11.8055 6.36753 11.775 6.36753 11.7141V11.6683H6.23952L5.93778 11.7141ZM6.71498 12.0615H6.88871V11.9701H6.79727C6.74241 11.9823 6.71498 12.0127 6.71498 12.0615ZM7.49218 12.1895V12.2718C7.52266 12.2718 7.56533 12.287 7.62019 12.3175C7.62019 12.2627 7.6781 12.2352 7.79392 12.2352V12.1438H7.70248L7.49218 12.1895ZM12.0182 12.2352V12.3175H12.1462V12.2352H12.0182ZM11.8902 12.665C11.9024 12.7198 11.9329 12.7473 11.9816 12.7473H12.0182C12.0182 12.6924 11.9908 12.665 11.9359 12.665H11.8902ZM9.77806 12.793C9.83292 12.8052 9.86035 12.8357 9.86035 12.8844L9.77806 12.921C9.7232 12.921 9.69577 12.8936 9.69577 12.8387L9.77806 12.793ZM9.3026 13.0947H9.38489C9.44584 13.1069 9.47632 13.1374 9.47632 13.1862C9.47632 13.241 9.44584 13.2685 9.38489 13.2685H9.34831C9.34831 13.2014 9.33307 13.1435 9.3026 13.0947ZM11.8902 13.3142L11.9359 13.5702C11.9786 13.5702 12.0213 13.5275 12.0639 13.4422C12.0639 13.3995 12.0213 13.3568 11.9359 13.3142H11.8902ZM9.55861 13.3507C9.61957 13.3629 9.65005 13.3934 9.65005 13.4422L9.55861 13.4879C9.50375 13.4879 9.47632 13.4574 9.47632 13.3965L9.55861 13.3507ZM9.25688 13.5702H9.3026L9.34831 13.7439H9.3026C9.25993 13.7439 9.21726 13.7012 9.17459 13.6159L9.25688 13.5702ZM11.7622 14.2194L11.7165 14.3017C11.8018 14.3017 11.8445 14.3321 11.8445 14.3931H11.9359V14.3017C11.8872 14.3017 11.8293 14.2742 11.7622 14.2194ZM11.5062 14.5668H11.5428V14.6034C11.5428 14.6644 11.5153 14.6948 11.4605 14.6948L11.4147 14.6034L11.5062 14.5668ZM9.00086 14.8228H9.04658C9.08925 14.8228 9.13192 14.8655 9.17459 14.9509C9.14411 15.0057 9.12887 15.0484 9.12887 15.0789H9.04658V14.9966L9.08315 14.9051H9.00086V14.8228ZM11.5428 15.2069H11.7165V15.1246H11.6342C11.5732 15.1307 11.5428 15.1581 11.5428 15.2069ZM12.5394 15.4263H12.5851C12.64 15.4263 12.6674 15.3958 12.6674 15.3349V15.1246C12.6125 15.1246 12.5699 15.2252 12.5394 15.4263ZM11.8902 15.3349C11.8902 15.3958 11.9329 15.4263 12.0182 15.4263V15.472L11.9816 15.5543H12.0639C12.0639 15.408 12.0914 15.3349 12.1462 15.3349V15.2069H12.1097C12.0121 15.2922 11.939 15.3349 11.8902 15.3349ZM12.4937 15.6823V15.7281H12.5394C12.5394 15.6854 12.5668 15.6275 12.6217 15.5543V15.5086C12.5546 15.5086 12.512 15.5665 12.4937 15.6823ZM11.4147 15.6H11.4605C11.5153 15.6061 11.5428 15.6336 11.5428 15.6823H11.5062L11.5428 15.7738V15.8103H11.4605L11.4147 15.6ZM8.82713 15.7281L8.87285 15.8103L8.78142 15.8561H8.65341C8.65341 15.8134 8.71132 15.7707 8.82713 15.7281ZM12.448 15.9475V16.2492H12.5394V15.9475H12.448ZM8.14137 16.2492C8.14137 16.3041 8.0987 16.3315 8.01336 16.3315V16.3772H8.14137L8.17794 16.2858V16.2492H8.14137ZM8.69912 16.2858H8.78142C8.82409 16.2858 8.8698 16.3285 8.91857 16.4138L8.82713 16.4595C8.82713 16.4047 8.78446 16.3772 8.69912 16.3772V16.2858ZM11.8902 16.3315C11.8902 16.4169 11.8475 16.4595 11.7622 16.4595V16.551L11.9816 16.5053V16.3315H11.8902ZM11.2044 16.3315L11.241 16.4138L11.1587 16.4595L11.113 16.3772L11.2044 16.3315ZM12.5851 16.4595V16.6333H12.6217C12.6217 16.6028 12.6369 16.5601 12.6674 16.5053L12.5851 16.4595ZM8.57111 16.807H8.69912C8.69912 16.8619 8.67169 16.8893 8.61683 16.8893L8.57111 16.807ZM8.01336 16.9807V17.1087C8.06822 17.1087 8.09565 17.0782 8.09565 17.0173V16.9807H8.01336ZM8.26938 17.4105H8.35167V17.4562C8.35167 17.511 8.32424 17.5385 8.26938 17.5385C8.20842 17.5385 8.17794 17.511 8.17794 17.4562L8.26938 17.4105ZM8.35167 18.0597H8.39739V18.0962C8.39739 18.1572 8.36996 18.1877 8.3151 18.1877L8.26938 18.0962L8.35167 18.0597ZM7.5379 18.5717C7.5379 18.6022 7.52266 18.6448 7.49218 18.6997H7.57447V18.5717H7.5379ZM6.7607 19.0472C6.7668 19.1081 6.79423 19.1386 6.84299 19.1386L6.88871 19.0472H6.7607ZM6.88871 19.5226H6.93443C6.98929 19.5226 7.01672 19.4952 7.01672 19.4403H6.971C6.91614 19.4464 6.88871 19.4738 6.88871 19.5226Z"
    fill="white" />
  <path
    d="M16.5077 8.1938H16.5443V8.23038C16.5443 8.27914 16.5229 8.30352 16.4803 8.30352L16.4437 8.23038L16.5077 8.1938ZM16.654 8.1938L16.7271 8.23038H16.7546L16.8277 8.1938C16.8521 8.23647 16.8643 8.27305 16.8643 8.30352L17.0106 8.1938H17.038C17.0868 8.1999 17.1112 8.22428 17.1112 8.26695V8.33095C17.1112 8.37972 17.0868 8.4041 17.038 8.4041L16.974 8.36753V8.68755C16.974 8.77289 16.9618 8.87957 16.9374 9.00757C16.9618 9.05024 16.974 9.09596 16.974 9.14473C16.9252 9.15692 16.9009 9.1813 16.9009 9.21788C16.9252 9.26664 16.9374 9.30321 16.9374 9.3276C16.8887 9.33369 16.8643 9.35503 16.8643 9.3916C16.8887 9.3916 16.9009 9.40379 16.9009 9.42818C16.8521 9.44037 16.8277 9.46475 16.8277 9.50132V9.5379H16.974C16.974 9.59886 17.0075 9.66895 17.0746 9.7482L17.038 9.82135H17.0746C17.1173 9.79696 17.166 9.78477 17.2209 9.78477L17.2575 9.85792L17.1843 9.8945C17.1355 9.87011 17.099 9.85792 17.0746 9.85792L17.038 9.92193L16.974 9.8945H16.9374V9.92193L16.974 9.99507C16.9374 10.1353 16.8643 10.2054 16.7546 10.2054V10.2785L16.8277 10.2419L16.9009 10.2785C16.9435 10.2541 16.9801 10.2419 17.0106 10.2419V10.2785C17.0411 10.2785 17.1112 10.2206 17.2209 10.1048C17.2209 10.1292 17.2331 10.1414 17.2575 10.1414L17.1477 10.3151C17.1477 10.3882 17.1934 10.4248 17.2849 10.4248L17.1843 10.562V10.5985H17.2209L17.2849 10.562V10.6351C17.1447 10.6351 17.0746 10.6686 17.0746 10.7357H17.1477C17.1904 10.7113 17.227 10.6991 17.2575 10.6991C17.2575 10.7235 17.2666 10.7357 17.2849 10.7357C17.2849 10.9125 17.2392 11.0557 17.1477 11.1654C17.2209 11.1654 17.2575 11.1868 17.2575 11.2294C17.2148 11.2538 17.1538 11.266 17.0746 11.266L17.1477 11.3757L17.1112 11.4489L17.1477 11.5129C17.1233 11.5617 17.1112 11.5982 17.1112 11.6226V11.7323C17.0685 11.708 17.035 11.6958 17.0106 11.6958V11.7598C17.0776 11.7598 17.1112 11.7842 17.1112 11.8329V11.9426L16.9374 12.0066V12.0432H16.974C17.0167 12.0188 17.0502 12.0066 17.0746 12.0066V12.1164C17.0075 12.1164 16.974 12.1408 16.974 12.1895H17.0106C17.0532 12.1651 17.0868 12.1529 17.1112 12.1529V12.2261C17.1112 12.3663 17.0654 12.4364 16.974 12.4364L17.038 12.537V12.6101C17.038 12.665 16.9801 12.7016 16.8643 12.7198V12.793H17.0106V12.8204C17.0106 12.8448 16.9984 12.857 16.974 12.857L17.0106 12.9301V12.9667C17.0106 12.9911 16.9984 13.0033 16.974 13.0033C16.974 13.0277 16.9862 13.0399 17.0106 13.0399C17.0106 13.2776 16.9252 13.4178 16.7546 13.4605C16.7363 13.4605 16.7271 13.4727 16.7271 13.497V13.5336C16.7942 13.5336 16.8277 13.5458 16.8277 13.5702C16.8277 13.7348 16.782 13.8171 16.6906 13.8171V13.9542C16.782 13.9542 16.8277 13.9786 16.8277 14.0274C16.7363 14.0517 16.6906 14.0975 16.6906 14.1645C16.7149 14.2133 16.7271 14.2499 16.7271 14.2742C16.6845 14.2986 16.6235 14.3108 16.5443 14.3108V14.3474C16.6418 14.3474 16.6906 14.3687 16.6906 14.4114V14.448H16.654C16.6052 14.4236 16.5686 14.4114 16.5443 14.4114V14.4845L16.6174 14.5943L16.5443 14.6948C16.593 14.7009 16.6174 14.7253 16.6174 14.768C16.6174 14.8168 16.5808 14.8411 16.5077 14.8411V14.8777L16.6174 15.0149C16.4772 15.1551 16.337 15.2252 16.1968 15.2252C16.1663 15.1154 16.1176 15.0575 16.0505 15.0514C16.0505 15.1002 16.0383 15.1246 16.0139 15.1246L16.0505 15.1886V15.2252C16.0505 15.2495 16.0383 15.2617 16.0139 15.2617L16.0871 15.408C16.02 15.408 15.9743 15.4416 15.9499 15.5086L16.0139 15.7555C15.9225 15.7982 15.8768 15.8804 15.8768 16.0024H15.9499L15.9134 16.1852C15.9377 16.1852 15.9499 16.1974 15.9499 16.2218C15.9012 16.2401 15.8646 16.2492 15.8402 16.2492L15.8768 16.3224V16.359H15.8036V16.4687L15.8402 16.5327L15.7671 16.5693V16.4961C15.7244 16.5083 15.7031 16.5327 15.7031 16.5693H15.7671C15.7671 16.7095 15.7213 16.7796 15.6299 16.7796V16.8527H15.7305V16.9259L15.7031 16.999H15.7671V17.0996L15.6665 17.0264C15.6665 17.1483 15.6055 17.2093 15.4836 17.2093V17.2733L15.5568 17.2459C15.6055 17.252 15.6299 17.2733 15.6299 17.3099C15.6055 17.3099 15.5933 17.3221 15.5933 17.3465C15.6421 17.3526 15.6665 17.3769 15.6665 17.4196V17.4562H15.6299L15.5568 17.4196C15.5324 17.4562 15.5202 17.5141 15.5202 17.5933H15.447L15.3465 17.5293H15.3099C15.3099 17.6208 15.2855 17.6665 15.2367 17.6665C15.1453 17.6299 15.0996 17.5933 15.0996 17.5568C15.0996 17.5141 15.1331 17.4928 15.2002 17.4928V17.4196C15.0782 17.4196 15.0081 17.383 14.9899 17.3099V17.2733C15.063 17.2733 15.0996 17.252 15.0996 17.2093C15.0021 17.2093 14.9533 17.1727 14.9533 17.0996V17.063C14.9655 17.0203 14.9899 16.999 15.0264 16.999C15.0752 16.999 15.1819 17.0691 15.3465 17.2093L15.4196 17.2459V17.1362L15.3465 17.1727C15.255 17.0325 15.1727 16.9624 15.0996 16.9624L15.1362 16.8893H15.063V16.8527C15.063 16.8283 15.0752 16.8161 15.0996 16.8161L15.063 16.743V16.7156H15.0996C15.1483 16.7156 15.1727 16.7491 15.1727 16.8161H15.2367L15.2733 16.6424L15.0996 16.679C15.0996 16.6302 15.0752 16.6058 15.0264 16.6058C15.0264 16.6546 15.0021 16.679 14.9533 16.679V16.4961C15.0021 16.5205 15.0386 16.5327 15.063 16.5327C15.063 16.49 15.0996 16.4687 15.1727 16.4687V16.4321L14.9899 16.3955C14.9899 16.3468 15.0508 16.3224 15.1727 16.3224V16.2858C15.1727 16.2614 15.124 16.2279 15.0264 16.1852C14.9655 16.1913 14.9198 16.2492 14.8893 16.359C14.9563 16.359 14.9899 16.3833 14.9899 16.4321L14.8893 16.4961H14.8527C14.8527 16.4291 14.8283 16.3955 14.7796 16.3955C14.7796 16.3712 14.7918 16.359 14.8161 16.359L14.7796 16.1852C14.7796 16.0389 14.8253 15.9658 14.9167 15.9658L14.8527 15.8652C14.8893 15.7677 14.9228 15.7189 14.9533 15.7189C14.9655 15.7677 14.9899 15.7921 15.0264 15.7921H15.0996C15.1483 15.7921 15.1727 15.7677 15.1727 15.7189V15.5818H15.0996V15.7189H15.0264C14.9777 15.7189 14.9533 15.6854 14.9533 15.6183H14.8893L14.8527 15.7555H14.7796V15.6183L14.8893 15.472L14.8527 15.408C14.9685 15.3776 15.0264 15.341 15.0264 15.2983C14.9533 15.2983 14.9167 15.2861 14.9167 15.2617C14.9411 15.2191 14.9533 15.1855 14.9533 15.1612C14.9106 15.1612 14.8893 15.1368 14.8893 15.088C15.0051 14.9966 15.063 14.9265 15.063 14.8777H15.1362V14.9417H15.2002V14.8777C15.1514 14.8777 15.1179 14.8289 15.0996 14.7314C15.0508 14.7314 15.0264 14.707 15.0264 14.6583C15.0508 14.6156 15.063 14.5821 15.063 14.5577C15.0386 14.5089 15.0264 14.4723 15.0264 14.448C15.063 14.448 15.0996 14.4144 15.1362 14.3474V14.2742L15.063 14.3108C15.063 14.2864 15.0508 14.2742 15.0264 14.2742C15.0996 14.0548 15.1362 13.9146 15.1362 13.8536C15.1118 13.8049 15.0996 13.7683 15.0996 13.7439C15.1605 13.5549 15.2184 13.4605 15.2733 13.4605L15.3099 13.5336C15.2489 13.625 15.2032 13.6708 15.1727 13.6708V13.7805C15.1788 13.8293 15.2002 13.8536 15.2367 13.8536C15.2367 13.6647 15.3434 13.5702 15.5568 13.5702C15.5568 13.5336 15.4988 13.4848 15.383 13.4239C15.383 13.3446 15.4166 13.2502 15.4836 13.1404L15.447 13.0673C15.4958 13.049 15.5324 13.0399 15.5568 13.0399L15.383 12.8936L15.447 12.857L15.4196 12.5095V12.4364L15.6299 12.1895L15.7031 12.2261C15.7457 12.2261 15.7671 12.2017 15.7671 12.1529C15.6269 12.1286 15.5568 12.092 15.5568 12.0432C15.6116 12.0006 15.6604 11.9792 15.7031 11.9792C15.6787 11.9487 15.6665 11.8878 15.6665 11.7963C15.7579 11.772 15.8036 11.7141 15.8036 11.6226C15.7549 11.6226 15.7305 11.5982 15.7305 11.5495V11.5129H15.7671L15.8402 11.5495C15.8402 11.4702 15.8524 11.4123 15.8768 11.3757C15.828 11.3757 15.8036 11.3514 15.8036 11.3026L15.8402 11.2294L15.8036 11.1654C15.8036 11.0435 15.8402 10.9826 15.9134 10.9826L15.8768 10.9186V10.882C15.9682 10.7967 16.0139 10.7022 16.0139 10.5985H15.9499V10.562L16.1237 10.4248C16.0993 10.3761 16.0871 10.3395 16.0871 10.3151C16.1237 10.3151 16.1602 10.2572 16.1968 10.1414L16.1602 10.0682C16.1846 9.99507 16.2059 9.9585 16.2242 9.9585L16.1968 9.8945V9.85792C16.2395 9.85792 16.2608 9.84573 16.2608 9.82135V9.71163H16.2974V9.57447C16.2059 9.57447 16.1602 9.55009 16.1602 9.50132V9.46475H16.2242L16.334 9.5379V9.50132L16.2974 9.42818C16.3461 9.33674 16.3705 9.25445 16.3705 9.1813C16.3218 9.1813 16.2974 9.15997 16.2974 9.1173V9.08072C16.4254 9.08072 16.5686 8.99843 16.7271 8.83385H16.654L16.5443 8.89785H16.4437V8.83385L16.654 8.58697H16.5443V8.68755H16.3705V8.58697C16.3827 8.51382 16.4772 8.47725 16.654 8.47725V8.44068C16.6052 8.44068 16.5808 8.42849 16.5808 8.4041L16.5077 8.44068H16.4437V8.36753C16.5839 8.32486 16.654 8.26695 16.654 8.1938ZM16.2242 8.86128V8.89785C16.2242 8.94662 16.2029 8.971 16.1602 8.971H16.1237C16.1237 8.93443 16.1572 8.89785 16.2242 8.86128ZM17.2209 8.89785H17.2849V8.93443C17.2849 8.98319 17.2635 9.00757 17.2209 9.00757V8.89785ZM17.0746 9.21788H17.1112V9.25445C17.1112 9.30321 17.0868 9.3276 17.038 9.3276L17.0106 9.25445L17.0746 9.21788ZM17.1477 9.46475H17.1843C17.1599 9.50742 17.1477 9.55618 17.1477 9.61105H17.1112C17.0624 9.61105 17.038 9.58666 17.038 9.5379L17.1477 9.46475ZM16.8643 9.57447V9.67505C16.8887 9.72382 16.9009 9.76039 16.9009 9.78477H16.974V9.7482C16.9252 9.68724 16.9009 9.62933 16.9009 9.57447H16.8643ZM16.0139 9.61105H16.1237C16.1724 9.61714 16.1968 9.63848 16.1968 9.67505V9.71163H16.0871C16.0383 9.71163 16.0139 9.68724 16.0139 9.63848V9.61105ZM17.2209 9.63848L17.2575 9.71163L17.1843 9.7482L17.1477 9.67505L17.2209 9.63848ZM16.8643 10.3517V10.3882H17.0106V10.3151C16.9679 10.3395 16.9191 10.3517 16.8643 10.3517ZM16.8277 10.4522L16.7911 10.5254H16.9009C16.9009 10.4766 16.8765 10.4522 16.8277 10.4522ZM16.7911 10.5985L16.7271 10.6991C16.7454 10.6991 16.7546 10.7113 16.7546 10.7357L16.974 10.6991V10.6351L16.7911 10.5985ZM16.9374 10.7357L16.9009 10.8088V10.8454L16.974 10.8088H17.0106L17.1477 10.9186V10.882C17.099 10.7845 17.0289 10.7357 16.9374 10.7357ZM16.7546 10.8454C16.8033 10.9003 16.8277 10.946 16.8277 10.9826H16.8643C16.913 10.9826 16.9374 10.9612 16.9374 10.9186C16.8887 10.9186 16.8643 10.8942 16.8643 10.8454H16.7546ZM17.0106 10.9551V10.9826L17.1843 11.0191C17.1843 10.9765 17.1477 10.9551 17.0746 10.9551H17.0106ZM16.7271 11.0191V11.0557C16.7881 11.1715 16.8338 11.2294 16.8643 11.2294C16.8643 11.1746 16.913 11.1411 17.0106 11.1289V11.0923C16.9435 11.0923 16.849 11.0679 16.7271 11.0191ZM16.654 11.202V11.266C16.6601 11.3148 16.6845 11.3392 16.7271 11.3392C16.7698 11.3148 16.8033 11.3026 16.8277 11.3026C16.8277 11.2721 16.7942 11.2386 16.7271 11.202H16.654ZM16.8643 11.266C16.8704 11.3148 16.8948 11.3392 16.9374 11.3392H16.974C16.974 11.2904 16.9496 11.266 16.9009 11.266H16.8643ZM16.7546 11.4123C16.7546 11.4489 16.7332 11.4946 16.6906 11.5495C16.7332 11.5495 16.7546 11.5617 16.7546 11.586C16.7119 11.7384 16.6906 11.8207 16.6906 11.8329H16.7271L16.8277 11.7598C16.8521 11.8085 16.8643 11.8451 16.8643 11.8695H16.9009C16.9009 11.8451 16.913 11.8085 16.9374 11.7598C16.8887 11.7598 16.8521 11.6897 16.8277 11.5495H16.8643C16.8399 11.5068 16.8277 11.4611 16.8277 11.4123H16.7546ZM15.9774 11.586V11.6958H16.0505V11.586H15.9774ZM16.654 12.0798V12.1164H16.7911L16.7546 12.0432C16.7119 12.0676 16.6784 12.0798 16.654 12.0798ZM16.5077 12.3267V12.3632C16.5077 12.3876 16.5199 12.3998 16.5443 12.3998L16.5077 12.473C16.5321 12.5156 16.5443 12.5492 16.5443 12.5735H16.6174L16.5808 12.3998C16.6296 12.3998 16.654 12.3754 16.654 12.3267H16.5077ZM15.4836 12.4364V12.537C15.5324 12.537 15.5568 12.5156 15.5568 12.473V12.4364H15.4836ZM16.4437 12.7198L16.4803 12.8936C16.4559 12.9667 16.4437 13.0368 16.4437 13.1039H16.4803V13.177C16.4071 13.2441 16.334 13.3751 16.2608 13.5702L16.334 13.5976H16.3705V13.4605L16.4803 13.5336H16.5077L16.4803 13.4605C16.4803 13.4239 16.5138 13.3873 16.5808 13.3507V13.3873C16.5564 13.43 16.5443 13.4788 16.5443 13.5336L16.6174 13.5702C16.6174 13.4483 16.6418 13.3873 16.6906 13.3873C16.6906 13.3203 16.6418 13.2867 16.5443 13.2867V13.2502C16.5504 13.2014 16.5747 13.177 16.6174 13.177C16.6601 13.2014 16.7058 13.2136 16.7546 13.2136V13.1404L16.5443 13.1039V13.0673C16.5443 13.0551 16.593 12.9972 16.6906 12.8936V12.857C16.6357 12.857 16.5991 12.7869 16.5808 12.6467H16.5443L16.4437 12.7198ZM16.7271 12.8936H16.8643V12.8204H16.7911C16.7485 12.8326 16.7271 12.857 16.7271 12.8936ZM16.654 13.0673H16.6906C16.7332 13.0673 16.7546 13.046 16.7546 13.0033V12.9667C16.7241 12.9667 16.6906 13.0002 16.654 13.0673ZM15.5202 13.1404V13.2867C15.569 13.2867 15.5933 13.2624 15.5933 13.2136V13.1404H15.5202ZM16.7911 13.2502V13.3507H16.8643V13.2502H16.7911ZM15.7305 13.3507L15.8036 13.3873V13.2867C15.7549 13.2928 15.7305 13.3142 15.7305 13.3507ZM16.4071 13.2867H16.5077V13.3507H16.4803C16.4315 13.3507 16.4071 13.3294 16.4071 13.2867ZM15.6299 13.3873C15.6299 13.4239 15.6634 13.4605 15.7305 13.497H15.7671V13.4605C15.7671 13.4117 15.7457 13.3873 15.7031 13.3873H15.6299ZM15.8036 13.8171V13.8536C15.8097 13.8963 15.8341 13.9176 15.8768 13.9176V13.8171H15.8036ZM15.5568 13.9176V13.9542H15.5933C15.6482 13.9054 15.6939 13.8811 15.7305 13.8811V13.8536H15.6299C15.5811 13.8597 15.5568 13.8811 15.5568 13.9176ZM15.5568 14.1645H15.7031V14.1005H15.6299C15.5811 14.1066 15.5568 14.1279 15.5568 14.1645ZM16.2608 14.1005V14.2011C16.3583 14.2011 16.4071 14.2377 16.4071 14.3108C16.4559 14.3108 16.4803 14.2864 16.4803 14.2377V14.1645C16.4437 14.1645 16.3949 14.1432 16.334 14.1005H16.2608ZM16.1602 14.3108V14.3748C16.2029 14.3748 16.2242 14.387 16.2242 14.4114C16.3218 14.3809 16.3705 14.3474 16.3705 14.3108C16.2974 14.3108 16.2608 14.2986 16.2608 14.2742C16.2181 14.2986 16.1846 14.3108 16.1602 14.3108ZM15.5933 14.3474V14.3748C15.6177 14.3748 15.6543 14.387 15.7031 14.4114H15.7305V14.3748C15.7061 14.3748 15.6726 14.3657 15.6299 14.3474H15.5933ZM15.4836 14.448V14.5211H15.5568V14.3748C15.508 14.387 15.4836 14.4114 15.4836 14.448ZM16.1602 14.448V14.5211H16.2608V14.448H16.1602ZM15.1362 14.5577V14.6583H15.2002V14.6308C15.2002 14.5821 15.1788 14.5577 15.1362 14.5577ZM16.1968 14.8777H16.2242C16.273 14.8777 16.2974 14.8533 16.2974 14.8046H16.2608C16.2181 14.8107 16.1968 14.835 16.1968 14.8777ZM16.0505 14.9051C16.0749 14.9539 16.0871 14.9905 16.0871 15.0149H16.1602L16.1237 14.8411C16.0749 14.8472 16.0505 14.8686 16.0505 14.9051ZM14.9533 15.088C14.9655 15.1368 14.9899 15.1612 15.0264 15.1612H15.063C15.063 15.1124 15.0386 15.088 14.9899 15.088H14.9533ZM16.1968 15.2617L16.2242 15.3349L16.1602 15.3715H16.1237V15.3349C16.1298 15.2861 16.1541 15.2617 16.1968 15.2617ZM15.1362 15.3349V15.408H15.2367V15.3349H15.1362ZM16.4803 15.5086H16.5077V15.5818C16.4406 15.5818 16.4071 15.6061 16.4071 15.6549C16.4559 15.661 16.4803 15.6823 16.4803 15.7189L16.4071 15.7555C16.4315 15.8043 16.4437 15.8408 16.4437 15.8652C16.4193 15.9079 16.4071 15.9414 16.4071 15.9658H16.3705L16.2974 15.9384C16.2974 15.9688 16.2639 16.0024 16.1968 16.0389H16.1602C16.1602 15.9231 16.1358 15.8652 16.0871 15.8652C16.0871 15.914 16.0627 15.9384 16.0139 15.9384V15.9018C16.02 15.8286 16.1145 15.7585 16.2974 15.6915C16.2974 15.6122 16.3583 15.5513 16.4803 15.5086ZM15.3465 15.6549L15.2733 15.7555L15.3465 15.7921H15.383C15.383 15.7677 15.3952 15.7342 15.4196 15.6915L15.3465 15.6549ZM15.5933 15.7189L15.5568 15.7921C15.6055 15.7677 15.6421 15.7555 15.6665 15.7555V15.7189H15.5933ZM15.1727 16.1121V16.1852H15.2367C15.2367 16.1121 15.2611 16.0755 15.3099 16.0755C15.3526 16.0999 15.3983 16.1121 15.447 16.1121C15.4288 16.0633 15.4196 16.0267 15.4196 16.0024H15.3099C15.2489 16.0755 15.2032 16.1121 15.1727 16.1121ZM14.8527 16.1852V16.2492H14.8893L14.9167 16.0755C14.874 16.0755 14.8527 16.1121 14.8527 16.1852ZM16.2608 16.0389C16.3705 16.0877 16.4315 16.1365 16.4437 16.1852L16.3705 16.2218C16.3705 16.173 16.3461 16.1487 16.2974 16.1487H16.2608C16.2608 16.1974 16.2273 16.2218 16.1602 16.2218V16.2858L16.4071 16.2492L16.4437 16.3224C16.401 16.3224 16.3187 16.4047 16.1968 16.5693C16.1419 16.5693 16.0932 16.5814 16.0505 16.6058L16.0139 16.5327C16.0383 16.4169 16.0871 16.359 16.1602 16.359L16.0871 16.2492V16.2218C16.0871 16.1852 16.145 16.1243 16.2608 16.0389ZM15.4836 16.1487V16.1852C15.4958 16.2279 15.5202 16.2492 15.5568 16.2492V16.2218C15.5568 16.173 15.5324 16.1487 15.4836 16.1487ZM16.1602 16.3955L16.1237 16.4687H16.2242C16.2242 16.4199 16.2029 16.3955 16.1602 16.3955ZM15.447 16.5693C15.4592 16.618 15.4836 16.6424 15.5202 16.6424H15.5568C15.5568 16.5936 15.5324 16.5693 15.4836 16.5693H15.447ZM16.334 16.5693H16.3705V16.679H16.334C16.2852 16.679 16.2608 16.6546 16.2608 16.6058L16.334 16.5693ZM16.1602 16.6058L16.1968 16.679L16.1602 16.743H16.2242C16.2242 16.7918 16.2029 16.8161 16.1602 16.8161C16.0871 16.7918 16.0505 16.7674 16.0505 16.743C16.0871 16.6516 16.1237 16.6058 16.1602 16.6058ZM15.4196 16.679C15.4196 16.7217 15.3952 16.743 15.3465 16.743V16.7796H15.4196L15.4836 16.679H15.4196ZM15.2002 16.8893C15.2124 16.938 15.2367 16.9624 15.2733 16.9624H15.3099V16.8893H15.2002ZM15.4836 16.999L15.5568 17.0264L15.5933 16.9624V16.9259H15.5568C15.508 16.932 15.4836 16.9563 15.4836 16.999ZM15.3099 16.999V17.063H15.4196V16.999H15.3099Z"
    fill="white" />
  <path
    d="M12.0972 0.522016C12.0104 0.522365 11.9236 0.522714 11.8341 0.523074C11.1137 0.532321 10.4272 0.599367 9.72471 0.757487C9.64083 0.776352 9.64083 0.776352 9.55526 0.795598C6.91074 1.4093 4.39253 2.81005 2.75831 5.02263C2.67831 5.12627 2.67831 5.12627 2.5967 5.232C1.50255 6.67599 0.865528 8.31326 0.483568 10.0697C0.470281 10.1278 0.456994 10.1859 0.443305 10.2458C0.32093 10.833 0.306958 11.4183 0.305854 12.0157C0.305711 12.0698 0.305567 12.1239 0.30542 12.1797C0.310882 15.2635 1.5596 18.0868 3.71353 20.2683C5.53318 22.0658 8.13619 23.3779 10.7421 23.3805C10.877 23.3761 11.0118 23.3709 11.1464 23.3627C11.1626 23.4012 11.1789 23.4397 11.1956 23.4794C11.7447 24.4694 12.8605 25.2084 13.9143 25.5442C14.0339 25.5768 14.1539 25.6079 14.2742 25.6375C14.3626 25.6595 14.3626 25.6595 14.4527 25.6819C15.052 25.8109 15.9327 25.9533 16.5001 25.6641C16.7754 25.4208 16.8799 25.2159 16.9399 24.8555C16.8926 24.5717 16.7522 24.4075 16.5489 24.2158C16.4621 24.1561 16.4621 24.1561 16.3734 24.0953C16.14 23.8827 16.0628 23.673 15.958 23.3805C15.9299 23.3062 15.9299 23.3062 15.9013 23.2303C15.8555 23.1089 15.8111 22.9871 15.767 22.8651C15.8476 22.8607 15.9283 22.8563 16.0114 22.8518C18.0872 22.604 20.1597 21.3506 21.4539 19.7374C23.0371 17.6683 23.7068 15.0172 23.6931 12.4422C23.693 12.3804 23.6929 12.3186 23.6928 12.2549C23.6886 11.2306 23.5945 10.274 23.3021 9.28777C23.2861 9.23097 23.2702 9.17417 23.2537 9.11565C22.7609 7.38524 21.8603 5.74401 20.6008 4.45394C20.5219 4.36104 20.4434 4.26774 20.3654 4.17404C19.688 3.40413 18.8905 2.81572 18.0417 2.25029C17.9743 2.20429 17.9069 2.15829 17.8374 2.11089C16.1798 1.06013 14.0477 0.512606 12.0972 0.522016ZM14.2031 1.61052C14.3114 1.63361 14.3114 1.63361 14.4219 1.65717C17.2704 2.29693 19.6945 4.22276 21.2406 6.6576C22.2778 8.37936 22.8384 10.2418 22.8223 12.2556C22.822 12.3057 22.8218 12.3558 22.8215 12.4075C22.8173 13.1524 22.8022 13.8853 22.6623 14.6192C22.6512 14.6783 22.6401 14.7373 22.6287 14.7982C22.301 16.4867 21.7477 18.0716 20.6008 19.3819C20.5581 19.4348 20.5154 19.4877 20.4714 19.5422C19.1928 21.0802 17.1189 21.8804 15.1983 22.2254C14.9935 22.2379 14.9935 22.2379 14.8429 22.2254C15.2169 24.1633 15.2169 24.1633 15.9803 24.9266C14.8049 24.9918 13.6444 24.7331 12.7353 23.9463C12.3059 23.5566 11.9054 23.1279 11.5729 22.6519C11.5729 22.605 11.5729 22.5581 11.5729 22.5097C11.4841 22.5138 11.3954 22.518 11.3039 22.5222C8.7188 22.6041 6.36454 21.5604 4.48714 19.8218C4.43271 19.7705 4.37828 19.7192 4.3222 19.6663C4.2707 19.6194 4.2192 19.5725 4.16614 19.5241C2.63877 18.0789 1.68786 16.0351 1.3366 13.9794C1.32212 13.9069 1.30764 13.8345 1.29272 13.7598C0.825304 11.1185 1.5143 8.31528 3.00406 6.10558C3.15228 5.9031 3.30561 5.71045 3.46917 5.52023C3.5192 5.46131 3.56923 5.40239 3.62078 5.34168C3.77968 5.16029 3.94318 4.98452 4.10894 4.80937C4.20048 4.70972 4.20048 4.70972 4.29387 4.60806C5.26868 3.57028 6.45858 2.86099 7.73431 2.25029C7.81493 2.21149 7.81493 2.21149 7.89717 2.17191C8.27001 1.9988 8.64214 1.87893 9.04051 1.77934C9.09967 1.76425 9.15882 1.74915 9.21977 1.7336C9.64593 1.62647 10.0708 1.52728 10.5067 1.46834C10.5649 1.46046 10.6232 1.45258 10.6833 1.44446C11.8597 1.31866 13.0525 1.32936 14.2031 1.61052Z"
    fill="#F7F7F8" />
  <defs>
    <linearGradient id="paint0_linear_2944_17000" x1="11.9993" y1="0.521896" x2="11.9993" y2="25.8331"
      gradientUnits="userSpaceOnUse">
      <stop stop-color="#005CC9" />
      <stop offset="1" stop-color="#01274C" />
    </linearGradient>
  </defs>
</svg>