<svg width="24" height="26" viewBox="0 0 24 26" fill="none" xmlns="http://www.w3.org/2000/svg">
  <path
    d="M0.835083 11.8788C0.835083 5.56135 6.21408 0.581457 12.5128 1.06753L13.1182 1.11425C18.5992 1.53722 22.8453 6.08327 22.8939 11.5803L22.9125 13.6905C22.9527 18.2398 19.3704 21.9975 14.8243 22.1747L16.0961 25.0361L15.0129 24.8497C13.5928 24.6054 12.3089 23.8561 11.3977 22.7399C5.628 22.9521 0.835083 18.3323 0.835083 12.5587V11.8788Z"
    fill="url(#paint0_linear_2520_17301)" fill-opacity="0.8" />
  <path
    d="M14.8708 3.47576H14.9988L15.0445 3.64948C15.014 3.64948 14.9988 3.66472 14.9988 3.6952C15.0841 3.6952 15.1268 3.72263 15.1268 3.77749V3.82321C15.0719 3.79273 15.0292 3.77749 14.9988 3.77749C14.9439 3.80797 14.9012 3.82321 14.8708 3.82321L15.1268 3.99694V4.03351H15.0445L14.9073 3.95122C14.9073 3.99389 14.8647 4.03656 14.7793 4.07923H14.7427V3.9055H14.7793L14.7427 3.82321C14.8525 3.76225 14.9073 3.68911 14.9073 3.60377C14.8829 3.54891 14.8708 3.50624 14.8708 3.47576ZM14.5233 4.12495C14.8098 4.21638 14.953 4.34439 14.953 4.50897C14.9043 4.53945 14.8464 4.55469 14.7793 4.55469V4.6827H15.0445C15.0993 4.69489 15.1268 4.72537 15.1268 4.77414C14.9561 4.87776 14.8708 4.94786 14.8708 4.98444C14.8708 5.07587 14.9287 5.19169 15.0445 5.33189C14.9043 5.56353 14.8037 5.67934 14.7427 5.67934V5.84393H14.7793V5.76163H14.9073C14.9683 5.77383 14.9988 5.80126 14.9988 5.84393C14.8525 5.8866 14.7793 5.93231 14.7793 5.98108L14.8708 6.10909C14.8708 6.16395 14.8403 6.19138 14.7793 6.19138L14.825 6.28282C14.825 6.3072 14.8098 6.31939 14.7793 6.31939C14.8098 6.38035 14.825 6.42606 14.825 6.45654C14.7702 6.58455 14.7123 6.65465 14.6513 6.66684L14.697 6.75828V6.88629L14.6513 7.09659H14.569V7.0143H14.4776V7.09659H14.569L14.441 7.2246C14.4654 7.28555 14.4776 7.33127 14.4776 7.36175C14.4532 7.36175 14.441 7.37394 14.441 7.39832C14.4654 7.39832 14.4776 7.41356 14.4776 7.44404C14.4227 7.45623 14.3953 7.48366 14.3953 7.52633L14.4776 7.57205L14.2673 8.34925L14.3039 8.44068C14.249 8.72718 14.2063 8.87043 14.1758 8.87043L14.2216 8.95272C14.2216 9.01368 14.1911 9.04416 14.1301 9.04416L14.1758 9.12645V9.4739C14.1027 9.69335 14.0326 9.86402 13.9655 9.98594L14.0021 10.0774V10.1597C14.0021 10.1901 13.9899 10.2054 13.9655 10.2054L14.0021 10.2877L13.8741 10.5528L13.9655 10.6808L13.8741 10.8089C13.9351 10.821 13.9655 10.8485 13.9655 10.8911H13.9198L13.8284 10.8546V10.9369L13.9198 11.0649C13.8589 11.0771 13.8284 11.1075 13.8284 11.1563V11.202C13.8833 11.3483 13.9838 11.4337 14.1301 11.458V11.5403L14.2216 11.5038C14.4288 11.5586 14.5446 11.5861 14.569 11.5861H14.6056L14.697 11.5403L14.7427 11.6318V11.6683L14.697 11.7598C14.7519 11.7659 14.7793 11.7933 14.7793 11.8421C14.7793 11.903 14.7519 11.9335 14.697 11.9335H14.6513C14.6086 11.9335 14.566 11.8908 14.5233 11.8055C14.5538 11.8055 14.569 11.7903 14.569 11.7598H14.5233L14.3496 11.8878H14.2216C14.1911 11.8878 14.1758 11.8725 14.1758 11.8421L14.0936 11.8878H14.0478C13.9808 11.8878 13.9229 11.8725 13.8741 11.8421C13.8192 11.8725 13.7766 11.8878 13.7461 11.8878C13.7461 11.8573 13.7309 11.8421 13.7004 11.8421L13.6638 11.9335L13.7461 12.0615C13.7461 12.1164 13.7034 12.1438 13.6181 12.1438C13.6181 12.1865 13.6455 12.3175 13.7004 12.537C13.6516 12.537 13.5937 12.7534 13.5267 13.1862H13.4901L13.5267 13.2685L13.3621 13.7896H13.2706L13.3621 13.9176L13.2249 14.0914C13.2859 14.0975 13.3164 14.1249 13.3164 14.1737L13.1883 14.3474L13.2249 14.6034C13.1579 14.9326 13.103 15.1642 13.0603 15.2983C13.0603 15.3227 13.0725 15.3349 13.0969 15.3349C12.9567 16.2249 12.8866 16.6851 12.8866 16.7156H12.7952V16.7613C12.8805 16.7613 12.9232 16.7918 12.9232 16.8527V16.9807C12.9232 17.0051 12.911 17.0173 12.8866 17.0173L12.9232 17.1087C12.9232 17.1514 12.8805 17.1941 12.7952 17.2367H12.7129V17.1545H12.8409V17.063C12.7434 17.063 12.6428 17.1057 12.5392 17.191C12.5392 17.0508 12.4965 16.9807 12.4111 16.9807C12.3502 16.9868 12.3197 17.0143 12.3197 17.063V17.3648H12.2831C12.1673 17.2794 12.0789 17.2367 12.018 17.2367V17.191C12.1216 17.191 12.1947 17.1331 12.2374 17.0173H12.1917C12.1368 17.0478 12.0942 17.063 12.0637 17.063L12.1094 16.9807L11.9357 16.807V16.679L11.9814 16.5876H11.9357C11.8747 16.5997 11.8442 16.6302 11.8442 16.679C11.8747 16.679 11.89 16.6912 11.89 16.7156L11.762 16.807C11.8168 16.9228 11.8442 17.0082 11.8442 17.063C11.7894 17.0935 11.7467 17.1087 11.7162 17.1087L11.762 17.191V17.2825C11.762 17.3373 11.7345 17.3648 11.6797 17.3648C11.5821 17.2794 11.509 17.2367 11.4602 17.2367V17.1545H11.5882V17.063L11.4145 17.1545V16.9807L11.6339 17.0173H11.6797C11.6797 16.9746 11.6218 16.9198 11.5059 16.8527C11.5059 16.8771 11.4907 16.8893 11.4602 16.8893L11.4145 16.807C11.4998 16.7826 11.5578 16.7247 11.5882 16.6333H11.5425C11.4877 16.6637 11.445 16.679 11.4145 16.679V16.6333L11.5059 16.5053C11.4755 16.4504 11.4602 16.4077 11.4602 16.3773H11.5059L11.6339 16.4595V16.4138C11.573 16.3041 11.5425 16.2035 11.5425 16.1121C11.573 16.1121 11.5882 16.0999 11.5882 16.0755L11.5059 16.0298H11.4602V16.1578H11.4145C11.3718 16.1578 11.3292 16.1151 11.2865 16.0298V15.9841C11.4998 15.9353 11.6309 15.8652 11.6797 15.7738H11.7162C11.7162 15.7128 11.6736 15.6823 11.5882 15.6823V15.6001H11.7162C11.7162 15.5574 11.6736 15.5147 11.5882 15.472L11.4602 15.5543C11.4602 15.4812 11.4023 15.4385 11.2865 15.4263V15.3349H11.4145V15.4263H11.4602C11.5029 15.4263 11.5456 15.3837 11.5882 15.2983C11.5578 15.2983 11.5425 15.2831 11.5425 15.2526L11.4602 15.2983H11.4145C11.3596 15.2983 11.3322 15.2678 11.3322 15.2069L11.4145 14.9051C11.3901 14.8503 11.3779 14.8076 11.3779 14.7771H11.4602C11.4602 14.8686 11.5334 14.9539 11.6797 15.0332C11.6797 15.0088 11.6919 14.9966 11.7162 14.9966C11.698 14.9112 11.64 14.8533 11.5425 14.8229C11.573 14.7863 11.5882 14.7009 11.5882 14.5668C11.5029 14.5364 11.4602 14.5059 11.4602 14.4754C11.4907 14.3901 11.5181 14.3474 11.5425 14.3474C11.6035 14.3779 11.6492 14.3931 11.6797 14.3931C11.5882 14.2773 11.5425 14.1889 11.5425 14.1279C11.6035 14.1279 11.6339 14.0853 11.6339 13.9999L11.9357 14.0457V13.9999C11.7345 13.8902 11.6339 13.8201 11.6339 13.7896V13.6525C11.6888 13.6647 11.7162 13.6952 11.7162 13.7439C11.6919 13.7439 11.6797 13.7592 11.6797 13.7896C11.704 13.7896 11.7162 13.8018 11.7162 13.8262L11.8077 13.7896H11.9814L12.0637 13.8262V13.7439C11.8625 13.7134 11.762 13.6708 11.762 13.6159V13.5702L11.8077 13.4879H11.7162L11.6339 13.5245C11.6035 13.4696 11.5882 13.4269 11.5882 13.3965C11.6492 13.2563 11.6919 13.1862 11.7162 13.1862L11.6797 13.0947V13.0124L11.762 12.8844L11.7162 12.793L11.762 12.6193C11.6461 12.4852 11.5882 12.3998 11.5882 12.3633L11.5059 12.409C11.4755 12.409 11.4602 12.3937 11.4602 12.3633C11.2042 12.3998 11.0457 12.4273 10.9848 12.4455L10.9025 12.409L10.6373 12.4455C10.6373 12.4212 10.6251 12.409 10.6007 12.409L10.555 12.4913L10.4636 12.4455C9.83572 12.4455 9.5218 12.5461 9.5218 12.7473C9.49132 12.7473 9.4456 12.7625 9.38464 12.793C9.38464 12.6528 9.35721 12.5827 9.30235 12.5827C9.30235 12.6497 9.27492 12.7198 9.22006 12.793L9.30235 12.921H9.25663L9.30235 13.0124V13.0947H9.17434C9.17434 13.4117 9.11643 13.5702 9.00062 13.5702C9.00062 13.6251 9.04329 13.6525 9.12862 13.6525L9.00062 13.8262L9.04633 14.0457H9.17434C9.17434 14.0213 9.20177 13.9481 9.25663 13.8262H9.38464V13.9176C9.38464 13.9359 9.31454 14.006 9.17434 14.1279V14.1737L9.25663 14.3017L9.00062 14.2651L9.04633 14.1737V14.1279H9.00062V14.2194L8.91832 14.1737L8.87261 14.2651V14.3474H8.9549V14.4754H8.87261C8.91528 14.5912 8.95795 14.6491 9.00062 14.6491H9.04633L9.12862 14.6034L9.04633 14.3474H9.08291C9.12558 14.3474 9.17129 14.3901 9.22006 14.4754C9.22006 14.5059 9.20482 14.5211 9.17434 14.5211L9.22006 14.6034V14.6491L8.82689 14.8686C8.82689 14.9112 8.79946 15.024 8.7446 15.2069C8.79946 15.2374 8.84213 15.2526 8.87261 15.2526V15.3349C8.78727 15.3349 8.7446 15.3501 8.7446 15.3806L8.78117 15.472C8.75679 15.6062 8.68669 15.7342 8.57087 15.8561C8.60135 15.9048 8.61659 15.9627 8.61659 16.0298C8.52515 16.0298 8.47944 16.0572 8.47944 16.1121C8.54039 16.1426 8.58611 16.1578 8.61659 16.1578V16.2035C8.61659 16.2584 8.58611 16.2858 8.52515 16.2858L8.39714 16.2035V16.2858L8.44286 16.3773L8.35143 16.4138L8.26913 16.3773L8.22342 16.4595H8.44286V16.3773C8.49772 16.3833 8.52515 16.4108 8.52515 16.4595C8.43981 16.5876 8.39714 16.7186 8.39714 16.8527H8.35143C8.35143 16.7613 8.324 16.7156 8.26913 16.7156V16.8527H8.35143V16.9807H8.31485C8.2539 16.9502 8.20818 16.935 8.1777 16.935V17.0173C8.26913 17.0173 8.31485 17.0478 8.31485 17.1087C8.2539 17.1819 8.22342 17.252 8.22342 17.319H8.14113V17.2825C8.16551 17.2276 8.1777 17.1849 8.1777 17.1545H8.14113C8.09846 17.1545 8.05579 17.1971 8.01312 17.2825V17.319L8.04969 17.4105C8.02531 17.4105 8.01312 17.4257 8.01312 17.4562L7.92168 17.4105H7.87596L7.9674 17.5385C7.86987 17.5994 7.79672 17.6299 7.74795 17.6299L7.79367 17.7122L7.66566 17.8859H7.70224L7.9674 17.8402V17.8859C7.86987 17.9591 7.75405 18.1298 7.61995 18.398C7.66262 18.398 7.70528 18.4437 7.74795 18.5351C7.69309 18.6753 7.60775 18.7759 7.49194 18.8369C7.49194 18.9466 7.4066 19.0014 7.23592 19.0014V19.0472H7.27249L7.53765 18.9649L7.57423 19.0472L7.49194 19.0929L7.53765 19.1752C7.42184 19.3398 7.36393 19.4556 7.36393 19.5226H7.27249L7.31821 19.3123C7.24506 19.3672 7.17191 19.3946 7.09877 19.3946V19.5226C7.21458 19.5348 7.27249 19.5775 7.27249 19.6506V19.7421C7.15667 19.7421 7.09877 19.8 7.09877 19.9158L7.1902 19.8701H7.23592V19.9158C7.23592 19.9707 7.20544 19.9981 7.14448 19.9981H7.01647C6.94333 19.9981 6.90066 19.9402 6.88846 19.8244L6.79703 19.8701H6.58673V19.8244L6.66902 19.6506H6.45872C6.42824 19.5958 6.413 19.5531 6.413 19.5226L6.49529 19.4769H6.54101L6.66902 19.5683H6.71474L6.54101 19.3123V19.2209H6.63245L6.49529 18.9649C6.54406 18.9344 6.61721 18.9191 6.71474 18.9191L6.66902 18.8369V18.7911C6.75436 18.6814 6.79703 18.5961 6.79703 18.5351H6.76046C6.74217 18.5351 6.66902 18.6052 6.54101 18.7454H6.49529V18.6997L6.71474 18.4437L6.63245 18.398L6.45872 18.5351L6.413 18.4437C6.51053 18.3583 6.59587 18.3157 6.66902 18.3157L6.63245 18.2334V18.1877H6.76046V18.0962C6.67512 18.0962 6.63245 18.0688 6.63245 18.0139C6.64464 18.0139 6.72998 17.9286 6.88846 17.7579V17.7122C6.85799 17.7122 6.81532 17.697 6.76046 17.6665C6.81532 17.4349 6.87323 17.319 6.93418 17.319L7.01647 17.3648V17.2367C6.986 17.2367 6.94333 17.2215 6.88846 17.191C6.91285 17.0752 6.94028 17.0173 6.97076 17.0173C6.91589 16.8771 6.88846 16.7765 6.88846 16.7156C6.94333 16.6912 6.986 16.679 7.01647 16.679L6.97076 16.5876L7.01647 16.4138L6.97076 16.2035C7.00123 16.1487 7.01647 16.106 7.01647 16.0755L6.97076 15.9841C6.97076 15.9475 7.02867 15.8469 7.14448 15.6823L7.06219 15.6366C7.08657 15.5696 7.114 15.4263 7.14448 15.2069L7.09877 15.1246L7.27249 14.6948C7.21763 14.6948 7.1902 14.6644 7.1902 14.6034C7.29383 14.1158 7.39441 13.8719 7.49194 13.8719V13.8262L7.4005 13.6982V13.4879C7.4005 13.4269 7.44622 13.3965 7.53765 13.3965L7.49194 13.1862H7.53765C7.53765 13.1557 7.52241 13.1405 7.49194 13.1405C7.52851 12.8418 7.57118 12.668 7.61995 12.6193V12.537C7.57118 12.537 7.45536 12.4212 7.27249 12.1895L6.88846 12.2352C6.88846 12.1743 6.85799 12.1438 6.79703 12.1438L6.71474 12.1895C6.67207 12.0737 6.59892 11.9884 6.49529 11.9335H6.28499C6.28499 11.9884 6.35509 12.0158 6.49529 12.0158V12.1072C6.43434 12.1072 6.37948 12.092 6.33071 12.0615C6.27585 12.092 6.14479 12.1194 5.93754 12.1438C5.88877 12.1194 5.83086 12.1072 5.76381 12.1072V12.1438L5.80953 12.2352L5.71809 12.2718L5.6358 12.2352L5.71809 12.0158C5.63275 12.0158 5.59009 11.9884 5.59009 11.9335V11.8878C5.65714 11.8878 5.71505 11.903 5.76381 11.9335H5.80953V11.8878H5.71809V11.7598C6.29718 11.5099 6.58673 11.3239 6.58673 11.202L6.66902 11.2386H6.71474C6.75741 11.2386 6.80008 11.1959 6.84275 11.1106H6.63245V11.0283C6.60197 11.0283 6.48615 11.0557 6.28499 11.1106H6.23927C6.18441 11.1106 6.15698 11.0832 6.15698 11.0283C6.21184 11.0283 6.23927 10.9978 6.23927 10.9369L6.15698 10.8089V10.6808L6.33071 10.7266L6.49529 10.6808L6.71474 10.7266L6.79703 10.6808C6.85799 10.7113 6.9037 10.7266 6.93418 10.7266L7.01647 10.6808C7.13229 10.7357 7.21763 10.7631 7.27249 10.7631L7.36393 10.7266L7.57423 10.7631L7.66566 10.7266L7.92168 10.7631H7.9674V10.5528C7.9674 10.3761 8.02531 10.2877 8.14113 10.2877C8.14113 10.2328 8.09846 10.2054 8.01312 10.2054V10.1231H8.09541L8.04969 9.90365V9.82135C8.13503 9.71163 8.1777 9.61105 8.1777 9.51962H8.14113C8.14113 9.42818 8.19903 9.38247 8.31485 9.38247C8.31485 9.32151 8.29961 9.2636 8.26913 9.20874C8.26913 9.1234 8.3118 9.08073 8.39714 9.08073L8.35143 8.99844V8.95272L8.57087 8.77899V8.74242L8.47944 8.60527C8.54039 8.60527 8.57087 8.57784 8.57087 8.52298L8.47944 8.47726L8.61659 8.26696V8.22124C8.55563 8.22124 8.52515 8.206 8.52515 8.17552C8.61049 8.00484 8.71107 7.9195 8.82689 7.9195V7.87379H8.65316V7.79149C8.72021 7.79149 8.77812 7.77626 8.82689 7.74578C8.79641 7.69092 8.78117 7.64825 8.78117 7.61777L8.82689 7.52633C8.79641 7.47147 8.78117 7.4288 8.78117 7.39832C8.81165 7.22764 8.85737 7.14231 8.91832 7.14231V7.2246C8.97319 7.2246 9.00062 7.19717 9.00062 7.14231C8.93356 7.14231 8.87565 7.0844 8.82689 6.96858C8.82689 6.92591 8.86956 6.88324 8.9549 6.84057L8.91832 6.75828L9.04633 6.58455V6.53883L8.87261 6.49312V6.41082H9.04633V6.31939C8.85127 6.31939 8.73545 6.20662 8.69888 5.98108H8.91832C9.05853 5.98108 9.20177 6.09385 9.34807 6.31939L9.5218 6.45654L9.38464 6.84057C9.41512 6.89543 9.43036 6.9381 9.43036 6.96858H9.38464L9.43036 7.06001C9.39988 7.11488 9.38464 7.15754 9.38464 7.18802C9.4456 7.19412 9.47608 7.22155 9.47608 7.27031C9.37855 7.38613 9.29321 7.44404 9.22006 7.44404V7.52633L9.47608 7.61777C9.55532 7.47147 9.64066 7.39832 9.7321 7.39832V7.27031H9.64981C9.64981 7.35565 9.61933 7.39832 9.55837 7.39832L9.5218 7.31603C9.5218 7.25508 9.56447 7.2246 9.64981 7.2246V7.18802L9.60409 7.09659C9.66504 7.09659 9.69552 7.06916 9.69552 7.0143C9.63457 7.0143 9.60409 6.98382 9.60409 6.92286L9.69552 6.79485H9.60409V6.62113C9.61628 6.56626 9.64676 6.53883 9.69552 6.53883H9.7321C9.7321 6.64246 9.79001 6.71561 9.90582 6.75828L9.95154 6.66684C9.95154 6.61198 9.90887 6.58455 9.82353 6.58455L9.86011 6.49312L9.82353 6.41082L9.95154 6.31939L9.99726 6.41082C9.96678 6.41082 9.95154 6.42606 9.95154 6.45654C9.99421 6.45654 10.0521 6.5114 10.1253 6.62113L10.0795 6.71256C10.1344 6.71866 10.1618 6.74609 10.1618 6.79485L10.1253 6.88629H10.1618L10.299 6.79485H10.3356V6.84057C10.2807 6.95639 10.2106 7.0143 10.1253 7.0143L10.1618 7.2246C10.107 7.23679 10.0795 7.26727 10.0795 7.31603H10.1618V7.48976C10.1618 7.51414 10.1497 7.52633 10.1253 7.52633C10.1253 7.55681 10.1375 7.57205 10.1618 7.57205C10.1436 7.74883 10.1161 7.83721 10.0795 7.83721C10.11 7.89207 10.1253 7.93474 10.1253 7.96522C10.1253 7.9896 10.0674 8.07494 9.95154 8.22124C10.0064 8.25172 10.0491 8.26696 10.0795 8.26696V8.34925C9.99421 8.34925 9.92106 8.40716 9.86011 8.52298V8.56869C9.89058 8.56869 9.9363 8.58088 9.99726 8.60527C9.99726 8.58088 10.0094 8.56869 10.0338 8.56869V8.65098C10.0338 8.66927 9.96373 8.74242 9.82353 8.87043V8.907L9.90582 9.04416C9.85096 9.04416 9.82353 9.05635 9.82353 9.08073C9.82353 9.19655 9.89363 9.25446 10.0338 9.25446V9.30017C9.90582 9.30017 9.80524 9.37332 9.7321 9.51962C9.81744 9.51962 9.86011 9.54705 9.86011 9.60191H9.7321V9.6842H9.82353V9.85793H9.7321L9.77781 9.94936V10.0774C9.77781 10.2176 9.73514 10.2877 9.64981 10.2877L9.7321 10.4248C9.67724 10.4248 9.63457 10.5102 9.60409 10.6808H9.64981L9.90582 10.5894C9.90582 10.6382 10.0064 10.6961 10.2076 10.7631C10.2563 10.7388 10.3874 10.7113 10.6007 10.6808C10.6922 10.7235 10.8202 10.7662 10.9848 10.8089C11.0335 10.7784 11.0914 10.7631 11.1585 10.7631H11.2042L11.1585 10.8546H11.2042L11.4145 10.8089C11.4267 10.8637 11.4572 10.8911 11.5059 10.8911H11.6339V10.9826C11.7681 10.8119 11.8961 10.7266 12.018 10.7266V10.6351H11.9357V10.5528H12.0637V10.4614H11.9814V10.4248C12.0911 10.3151 12.146 10.1993 12.146 10.0774H12.1094L11.9814 10.1597H11.9357C11.8747 10.1597 11.8442 10.117 11.8442 10.0317C11.8442 9.91584 11.9174 9.85793 12.0637 9.85793V9.82135L11.9814 9.6842V9.64763H12.146V9.6842L12.2374 9.64763L12.1917 9.55619C12.1917 9.50133 12.2344 9.4739 12.3197 9.4739V9.42818C12.1795 9.42818 12.1094 9.41294 12.1094 9.38247L12.018 9.42818C11.9631 9.42818 11.9357 9.40075 11.9357 9.34589C11.9905 9.31541 12.0332 9.30017 12.0637 9.30017V9.20874H11.9814V9.08073C11.9875 9.02587 12.0149 8.99844 12.0637 8.99844C12.0637 9.02892 12.0789 9.04416 12.1094 9.04416V8.95272C12.0241 8.95272 11.9814 8.91005 11.9814 8.82471C12.0058 8.67842 12.0332 8.60527 12.0637 8.60527L12.018 8.52298C12.0485 8.46811 12.0637 8.42545 12.0637 8.39497L12.146 8.44068H12.1917L12.146 8.34925L12.1917 8.26696V8.22124H12.146V8.30353C12.0911 8.30353 12.0637 8.2761 12.0637 8.22124V8.13895L12.2374 7.96522L12.146 7.9195C12.146 7.94998 12.1338 7.96522 12.1094 7.96522C12.1094 7.78845 12.1673 7.70006 12.2831 7.70006L12.2374 7.61777C12.2923 7.61777 12.3197 7.58729 12.3197 7.52633L12.2831 7.31603C12.338 7.31603 12.3654 7.28555 12.3654 7.2246C12.3106 7.2246 12.2831 7.19717 12.2831 7.14231C12.3197 6.91067 12.3624 6.79485 12.4111 6.79485L12.3654 6.71256V6.66684C12.4325 6.66684 12.5056 6.60893 12.5849 6.49312C12.5239 6.49312 12.4934 6.45045 12.4934 6.36511C12.5788 6.22491 12.6214 6.12433 12.6214 6.06337H12.7495C12.7495 6.20967 12.722 6.28282 12.6672 6.28282C12.6672 6.3072 12.6824 6.31939 12.7129 6.31939C12.6824 6.50836 12.6245 6.69732 12.5392 6.88629L12.5849 7.14231C12.5239 7.14231 12.4934 7.18498 12.4934 7.27031L12.5392 7.36175C12.5087 7.50195 12.4782 7.57205 12.4477 7.57205L12.4934 7.66349C12.4934 7.68787 12.4782 7.70006 12.4477 7.70006L12.4934 7.79149C12.4934 7.84636 12.4508 7.87379 12.3654 7.87379L12.4477 8.0018C12.4477 8.04447 12.4051 8.09018 12.3197 8.13895L12.3654 8.22124V8.26696C12.3654 8.29134 12.3502 8.30353 12.3197 8.30353L12.3654 8.39497C12.3349 8.44373 12.3197 8.50164 12.3197 8.56869H12.4111C12.4782 8.50774 12.5361 8.47726 12.5849 8.47726L12.5392 8.39497V8.17552C12.594 8.17552 12.6214 8.16333 12.6214 8.13895V8.0018H12.6672V7.96522H12.5849V7.9195C12.5849 7.88903 12.5971 7.87379 12.6214 7.87379L12.5849 7.79149C12.5849 7.73054 12.6397 7.70006 12.7495 7.70006L12.6672 7.57205C12.6672 7.54157 12.6824 7.52633 12.7129 7.52633L12.6672 7.44404L12.7495 7.31603L12.7129 7.2246C12.7677 7.2246 12.8257 7.05392 12.8866 6.71256C12.9415 6.59674 12.9841 6.53883 13.0146 6.53883C13.0695 6.56931 13.1121 6.58455 13.1426 6.58455C13.1426 6.54798 13.2432 6.49007 13.4444 6.41082L13.3986 6.31939C13.4596 6.22795 13.4901 6.15785 13.4901 6.10909C13.4596 6.10909 13.4444 6.09385 13.4444 6.06337L13.5267 6.01765L13.4901 5.93536C13.5449 5.86221 13.5724 5.78907 13.5724 5.71592L13.6638 5.76163C13.7552 5.6763 13.8253 5.63363 13.8741 5.63363V5.58791C13.7888 5.58791 13.7461 5.56048 13.7461 5.50562H13.8741V5.41418H13.7004V5.33189H13.8284V5.07587C13.8284 5.05758 13.8863 4.98444 14.0021 4.85643C13.8863 4.85643 13.8284 4.79852 13.8284 4.6827C13.8589 4.6827 13.8741 4.66746 13.8741 4.63698L13.9655 4.6827H14.0021C14.0204 4.51202 14.0631 4.42668 14.1301 4.42668H14.2216V4.4724L14.1758 4.55469L14.3953 4.60041L14.3496 4.50897C14.3496 4.42363 14.4501 4.38096 14.6513 4.38096V4.29867C14.5111 4.29867 14.441 4.26819 14.441 4.20724C14.4959 4.20724 14.5233 4.17981 14.5233 4.12495ZM14.8708 4.12495H14.9073C14.9683 4.13104 14.9988 4.15847 14.9988 4.20724V4.25296H14.8708V4.12495ZM15.0445 4.20724H15.1268C15.1816 4.21943 15.2091 4.24991 15.2091 4.29867C15.2091 4.35353 15.1816 4.38096 15.1268 4.38096L15.0445 4.25296V4.20724ZM14.441 4.55469V4.63698H14.5233C14.5904 4.58212 14.6483 4.55469 14.697 4.55469V4.4724H14.6513C14.5782 4.52726 14.5081 4.55469 14.441 4.55469ZM15.2548 4.42668V4.4724C15.2548 4.50897 15.2121 4.55164 15.1268 4.60041H14.9988C14.9988 4.55164 15.0841 4.49373 15.2548 4.42668ZM14.697 4.72842V4.81071H14.825V4.72842H14.697ZM14.9988 4.90214C15.0536 4.90824 15.0811 4.93567 15.0811 4.98444V5.15816H14.9988C14.9988 5.12769 14.9835 5.08502 14.953 5.03015C14.9835 4.97529 14.9988 4.93262 14.9988 4.90214ZM14.3496 5.11245H14.4776V5.03015H14.441C14.38 5.03625 14.3496 5.06368 14.3496 5.11245ZM13.8741 5.15816V5.24045H14.0021V5.15816H13.8741ZM14.697 5.15816C14.697 5.20083 14.7397 5.2435 14.825 5.28617L14.8708 5.20388L14.7793 5.15816H14.697ZM10.299 5.84393C10.299 5.86221 10.3417 6.00851 10.427 6.28282C10.3965 6.33768 10.3813 6.38035 10.3813 6.41082C10.4118 6.41082 10.427 6.42606 10.427 6.45654C10.3417 6.45654 10.299 6.49921 10.299 6.58455H10.2533C10.1923 6.58455 10.1497 6.49616 10.1253 6.31939L10.2076 6.36511H10.2533C10.3081 6.36511 10.3356 6.33768 10.3356 6.28282C10.3356 6.14871 10.2655 6.06032 10.1253 6.01765C10.0948 5.96279 10.0795 5.92012 10.0795 5.88964H10.1253L10.2076 5.93536C10.2198 5.8744 10.2502 5.84393 10.299 5.84393ZM14.6056 6.15481V6.2371H14.7427C14.7427 6.18224 14.7123 6.15481 14.6513 6.15481H14.6056ZM13.3164 6.53883L13.2706 6.71256C13.3255 6.68208 13.3682 6.66684 13.3986 6.66684V6.53883H13.3164ZM9.08291 6.71256H9.12862C9.18958 6.71256 9.22006 6.68208 9.22006 6.62113H9.17434C9.11339 6.63332 9.08291 6.66379 9.08291 6.71256ZM13.0969 6.88629V6.96858C13.1579 6.96858 13.1883 6.98382 13.1883 7.0143L13.2706 6.96858C13.3194 6.99906 13.3773 7.0143 13.4444 7.0143C13.3285 6.92896 13.2706 6.84362 13.2706 6.75828C13.1548 6.80095 13.0969 6.84362 13.0969 6.88629ZM13.0146 7.14231H13.1426V7.06001H13.0969C13.042 7.06611 13.0146 7.09354 13.0146 7.14231ZM13.0146 7.2246C12.9841 7.48671 12.9415 7.61777 12.8866 7.61777C12.911 7.67263 12.9232 7.7153 12.9232 7.74578H12.9689C13.0299 7.74578 13.0603 7.71835 13.0603 7.66349L13.0146 7.44404C13.1 7.32822 13.1701 7.27031 13.2249 7.27031V7.2246H13.0146ZM10.6007 7.52633L10.6373 7.61777L10.555 7.66349L10.5093 7.57205L10.6007 7.52633ZM9.25663 7.9195L9.47608 8.04751H9.5218V8.0018H9.43036C9.43036 7.94693 9.47303 7.9195 9.55837 7.9195C9.55837 7.87683 9.5157 7.83416 9.43036 7.79149H9.38464C9.34807 7.79149 9.3054 7.83416 9.25663 7.9195ZM12.8409 7.87379V8.09323L12.7952 8.34925C12.8378 8.46507 12.8805 8.52298 12.9232 8.52298L13.0146 8.47726C12.9537 8.36144 12.9232 8.2761 12.9232 8.22124C12.9841 8.19076 13.0299 8.17552 13.0603 8.17552L12.9232 7.96522L12.9689 7.87379H12.8409ZM10.3813 8.0018H10.4636V8.04751C10.4209 8.16333 10.3782 8.22124 10.3356 8.22124L10.299 8.13895C10.3539 8.13895 10.3813 8.09323 10.3813 8.0018ZM10.6007 8.26696V8.34925L10.5093 8.47726C10.5398 8.47726 10.555 8.4925 10.555 8.52298L10.4636 8.56869L10.2533 8.30353C10.4544 8.30353 10.5703 8.29134 10.6007 8.26696ZM9.12862 8.34925L9.08291 8.52298H9.17434L9.22006 8.34925H9.12862ZM8.91832 8.60527C8.94271 8.66622 8.9549 8.71194 8.9549 8.74242H9.04633C9.01585 8.68146 9.00062 8.63575 9.00062 8.60527H8.91832ZM12.7952 8.60527C12.722 8.85519 12.6641 8.98625 12.6214 8.99844C12.6519 9.0533 12.6672 9.09597 12.6672 9.12645H12.7129C12.7738 9.12645 12.8317 8.95272 12.8866 8.60527H12.7952ZM9.12862 8.65098V8.74242L9.30235 8.77899V8.6967C9.2353 8.6967 9.17739 8.68146 9.12862 8.65098ZM10.3356 8.60527L10.4636 8.6967C10.5245 8.66622 10.5703 8.65098 10.6007 8.65098V8.6967C10.6007 8.73937 10.5428 8.78204 10.427 8.82471C10.3721 8.79423 10.3142 8.77899 10.2533 8.77899L10.555 9.04416C10.4209 9.09902 10.3478 9.15388 10.3356 9.20874C10.3965 9.22093 10.427 9.25141 10.427 9.30017L10.3356 9.34589C10.2929 9.34589 10.235 9.28798 10.1618 9.17216C10.3386 9.10511 10.427 9.0472 10.427 8.99844C10.1954 8.92529 10.0795 8.86738 10.0795 8.82471C10.2502 8.72718 10.3356 8.65403 10.3356 8.60527ZM8.9549 9.08073H9.08291V8.95272C9.04633 8.95272 9.00366 8.99539 8.9549 9.08073ZM10.1618 8.99844L10.2076 9.08073V9.12645H10.1618C10.107 9.12645 10.0795 9.09902 10.0795 9.04416L10.1618 8.99844ZM10.0338 9.38247H10.1253V9.4739C10.0399 9.4739 9.99726 9.50133 9.99726 9.55619H9.86011C9.86011 9.51352 9.91801 9.45561 10.0338 9.38247ZM12.018 9.4739H12.1094V9.51962C12.1094 9.57448 12.0789 9.60191 12.018 9.60191C11.9631 9.60191 11.9357 9.57448 11.9357 9.51962L12.018 9.4739ZM12.5392 9.60191H12.7129V9.51962H12.6214C12.5666 9.52571 12.5392 9.55314 12.5392 9.60191ZM9.99726 9.60191H10.0338C10.0948 9.60801 10.1253 9.63544 10.1253 9.6842C10.0948 9.6842 10.0795 9.69944 10.0795 9.72992C10.11 9.72992 10.1253 9.74516 10.1253 9.77564L10.0338 9.82135L9.99726 9.60191ZM12.5392 9.64763L12.4477 9.77564C12.5087 9.78173 12.5392 9.80916 12.5392 9.85793C12.4965 9.85793 12.4538 9.9006 12.4111 9.98594L12.4934 10.0317L12.4111 10.2511C12.4355 10.2511 12.4477 10.2633 12.4477 10.2877C12.594 10.2755 12.6672 10.1627 12.6672 9.94936C12.6123 9.94936 12.5849 9.91889 12.5849 9.85793V9.82135H12.6672V9.77564C12.6672 9.73297 12.6245 9.6903 12.5392 9.64763ZM11.9357 10.0317V10.0774H11.9814L12.1094 9.98594C12.1582 10.0164 12.2161 10.0317 12.2831 10.0317L12.3197 9.94936H12.2831C12.2222 9.97375 12.1765 9.98594 12.146 9.98594C12.146 9.93108 12.1186 9.90365 12.0637 9.90365C12.021 9.90365 11.9784 9.94632 11.9357 10.0317ZM12.4477 10.4614C12.399 10.5285 12.3563 10.6595 12.3197 10.8546H12.3654C12.402 10.8546 12.4599 10.7388 12.5392 10.5071L12.4477 10.4614ZM5.46208 11.5403C5.52303 11.5525 5.55351 11.583 5.55351 11.6318L5.41636 11.7141C5.3615 11.7141 5.33407 11.6866 5.33407 11.6318L5.46208 11.5403ZM5.93754 11.7141V11.8055C6.05336 11.8055 6.11127 11.8329 6.11127 11.8878C6.11127 11.9731 6.05336 12.0158 5.93754 12.0158V12.0615H6.01983C6.0564 12.0615 6.12955 12.0188 6.23927 11.9335L6.19356 11.8421V11.8055C6.30937 11.8055 6.36728 11.775 6.36728 11.7141V11.6683H6.23927L5.93754 11.7141ZM6.71474 12.0615H6.88846V11.9701H6.79703C6.74217 11.9823 6.71474 12.0127 6.71474 12.0615ZM7.49194 12.1895V12.2718C7.52241 12.2718 7.56508 12.2871 7.61995 12.3175C7.61995 12.2627 7.67785 12.2352 7.79367 12.2352V12.1438H7.70224L7.49194 12.1895ZM12.018 12.2352V12.3175H12.146V12.2352H12.018ZM11.89 12.665C11.9022 12.7198 11.9326 12.7473 11.9814 12.7473H12.018C12.018 12.6924 11.9905 12.665 11.9357 12.665H11.89ZM9.77781 12.793C9.83267 12.8052 9.86011 12.8357 9.86011 12.8844L9.77781 12.921C9.72295 12.921 9.69552 12.8936 9.69552 12.8387L9.77781 12.793ZM9.30235 13.0947H9.38464C9.4456 13.1069 9.47608 13.1374 9.47608 13.1862C9.47608 13.241 9.4456 13.2685 9.38464 13.2685H9.34807C9.34807 13.2014 9.33283 13.1435 9.30235 13.0947ZM11.89 13.3142L11.9357 13.5702C11.9784 13.5702 12.021 13.5275 12.0637 13.4422C12.0637 13.3995 12.021 13.3568 11.9357 13.3142H11.89ZM9.55837 13.3508C9.61933 13.3629 9.64981 13.3934 9.64981 13.4422L9.55837 13.4879C9.50351 13.4879 9.47608 13.4574 9.47608 13.3965L9.55837 13.3508ZM9.25663 13.5702H9.30235L9.34807 13.7439H9.30235C9.25968 13.7439 9.21701 13.7013 9.17434 13.6159L9.25663 13.5702ZM11.762 14.2194L11.7162 14.3017C11.8016 14.3017 11.8442 14.3322 11.8442 14.3931H11.9357V14.3017C11.8869 14.3017 11.829 14.2742 11.762 14.2194ZM11.5059 14.5668H11.5425V14.6034C11.5425 14.6644 11.5151 14.6948 11.4602 14.6948L11.4145 14.6034L11.5059 14.5668ZM9.00062 14.8229H9.04633C9.089 14.8229 9.13167 14.8655 9.17434 14.9509C9.14386 15.0057 9.12862 15.0484 9.12862 15.0789H9.04633V14.9966L9.08291 14.9051H9.00062V14.8229ZM11.5425 15.2069H11.7162V15.1246H11.6339C11.573 15.1307 11.5425 15.1581 11.5425 15.2069ZM12.5392 15.4263H12.5849C12.6397 15.4263 12.6672 15.3958 12.6672 15.3349V15.1246C12.6123 15.1246 12.5696 15.2252 12.5392 15.4263ZM11.89 15.3349C11.89 15.3958 11.9326 15.4263 12.018 15.4263V15.472L11.9814 15.5543H12.0637C12.0637 15.408 12.0911 15.3349 12.146 15.3349V15.2069H12.1094C12.0119 15.2922 11.9387 15.3349 11.89 15.3349ZM12.4934 15.6823V15.7281H12.5392C12.5392 15.6854 12.5666 15.6275 12.6214 15.5543V15.5086C12.5544 15.5086 12.5117 15.5665 12.4934 15.6823ZM11.4145 15.6001H11.4602C11.5151 15.6062 11.5425 15.6336 11.5425 15.6823H11.5059L11.5425 15.7738V15.8104H11.4602L11.4145 15.6001ZM8.82689 15.7281L8.87261 15.8104L8.78117 15.8561H8.65316C8.65316 15.8134 8.71107 15.7707 8.82689 15.7281ZM12.4477 15.9475V16.2492H12.5392V15.9475H12.4477ZM8.14113 16.2492C8.14113 16.3041 8.09846 16.3315 8.01312 16.3315V16.3773H8.14113L8.1777 16.2858V16.2492H8.14113ZM8.69888 16.2858H8.78117C8.82384 16.2858 8.86956 16.3285 8.91832 16.4138L8.82689 16.4595C8.82689 16.4047 8.78422 16.3773 8.69888 16.3773V16.2858ZM11.89 16.3315C11.89 16.4169 11.8473 16.4595 11.762 16.4595V16.551L11.9814 16.5053V16.3315H11.89ZM11.2042 16.3315L11.2408 16.4138L11.1585 16.4595L11.1128 16.3773L11.2042 16.3315ZM12.5849 16.4595V16.6333H12.6214C12.6214 16.6028 12.6367 16.5601 12.6672 16.5053L12.5849 16.4595ZM8.57087 16.807H8.69888C8.69888 16.8619 8.67145 16.8893 8.61659 16.8893L8.57087 16.807ZM8.01312 16.9807V17.1087C8.06798 17.1087 8.09541 17.0783 8.09541 17.0173V16.9807H8.01312ZM8.26913 17.4105H8.35143V17.4562C8.35143 17.511 8.324 17.5385 8.26913 17.5385C8.20818 17.5385 8.1777 17.511 8.1777 17.4562L8.26913 17.4105ZM8.35143 18.0597H8.39714V18.0962C8.39714 18.1572 8.36971 18.1877 8.31485 18.1877L8.26913 18.0962L8.35143 18.0597ZM7.53765 18.5717C7.53765 18.6022 7.52241 18.6448 7.49194 18.6997H7.57423V18.5717H7.53765ZM6.76046 19.0472C6.76655 19.1081 6.79398 19.1386 6.84275 19.1386L6.88846 19.0472H6.76046ZM6.88846 19.5226H6.93418C6.98904 19.5226 7.01647 19.4952 7.01647 19.4403H6.97076C6.91589 19.4464 6.88846 19.4739 6.88846 19.5226Z"
    fill="white" />
  <path
    d="M16.5074 8.19381H16.544V8.23038C16.544 8.27915 16.5227 8.30353 16.48 8.30353L16.4434 8.23038L16.5074 8.19381ZM16.6537 8.19381L16.7269 8.23038H16.7543L16.8275 8.19381C16.8518 8.23648 16.864 8.27305 16.864 8.30353L17.0103 8.19381H17.0378C17.0865 8.1999 17.1109 8.22429 17.1109 8.26696V8.33096C17.1109 8.37973 17.0865 8.40411 17.0378 8.40411L16.9738 8.36754V8.68756C16.9738 8.7729 16.9616 8.87957 16.9372 9.00758C16.9616 9.05025 16.9738 9.09597 16.9738 9.14473C16.925 9.15693 16.9006 9.18131 16.9006 9.21788C16.925 9.26665 16.9372 9.30322 16.9372 9.32761C16.8884 9.3337 16.864 9.35504 16.864 9.39161C16.8884 9.39161 16.9006 9.4038 16.9006 9.42818C16.8518 9.44037 16.8275 9.46476 16.8275 9.50133V9.53791H16.9738C16.9738 9.59886 17.0073 9.66896 17.0743 9.74821L17.0378 9.82135H17.0743C17.117 9.79697 17.1658 9.78478 17.2206 9.78478L17.2572 9.85793L17.1841 9.8945C17.1353 9.87012 17.0987 9.85793 17.0743 9.85793L17.0378 9.92193L16.9738 9.8945H16.9372V9.92193L16.9738 9.99508C16.9372 10.1353 16.864 10.2054 16.7543 10.2054V10.2785L16.8275 10.242L16.9006 10.2785C16.9433 10.2541 16.9799 10.242 17.0103 10.242V10.2785C17.0408 10.2785 17.1109 10.2206 17.2206 10.1048C17.2206 10.1292 17.2328 10.1414 17.2572 10.1414L17.1475 10.3151C17.1475 10.3883 17.1932 10.4248 17.2846 10.4248L17.1841 10.562V10.5986H17.2206L17.2846 10.562V10.6351C17.1444 10.6351 17.0743 10.6687 17.0743 10.7357H17.1475C17.1902 10.7113 17.2267 10.6991 17.2572 10.6991C17.2572 10.7235 17.2664 10.7357 17.2846 10.7357C17.2846 10.9125 17.2389 11.0557 17.1475 11.1655C17.2206 11.1655 17.2572 11.1868 17.2572 11.2295C17.2145 11.2538 17.1536 11.266 17.0743 11.266L17.1475 11.3758L17.1109 11.4489L17.1475 11.5129C17.1231 11.5617 17.1109 11.5982 17.1109 11.6226V11.7323C17.0682 11.708 17.0347 11.6958 17.0103 11.6958V11.7598C17.0774 11.7598 17.1109 11.7842 17.1109 11.8329V11.9426L16.9372 12.0067V12.0432H16.9738C17.0164 12.0188 17.05 12.0067 17.0743 12.0067V12.1164C17.0073 12.1164 16.9738 12.1408 16.9738 12.1895H17.0103C17.053 12.1651 17.0865 12.1529 17.1109 12.1529V12.2261C17.1109 12.3663 17.0652 12.4364 16.9738 12.4364L17.0378 12.537V12.6101C17.0378 12.665 16.9799 12.7016 16.864 12.7198V12.793H17.0103V12.8204C17.0103 12.8448 16.9981 12.857 16.9738 12.857L17.0103 12.9301V12.9667C17.0103 12.9911 16.9981 13.0033 16.9738 13.0033C16.9738 13.0277 16.986 13.0399 17.0103 13.0399C17.0103 13.2776 16.925 13.4178 16.7543 13.4605C16.736 13.4605 16.7269 13.4727 16.7269 13.497V13.5336C16.7939 13.5336 16.8275 13.5458 16.8275 13.5702C16.8275 13.7348 16.7817 13.8171 16.6903 13.8171V13.9542C16.7817 13.9542 16.8275 13.9786 16.8275 14.0274C16.736 14.0518 16.6903 14.0975 16.6903 14.1645C16.7147 14.2133 16.7269 14.2499 16.7269 14.2742C16.6842 14.2986 16.6233 14.3108 16.544 14.3108V14.3474C16.6415 14.3474 16.6903 14.3687 16.6903 14.4114V14.448H16.6537C16.605 14.4236 16.5684 14.4114 16.544 14.4114V14.4845L16.6172 14.5943L16.544 14.6948C16.5928 14.7009 16.6172 14.7253 16.6172 14.768C16.6172 14.8168 16.5806 14.8411 16.5074 14.8411V14.8777L16.6172 15.0149C16.477 15.1551 16.3368 15.2252 16.1966 15.2252C16.1661 15.1154 16.1173 15.0575 16.0503 15.0514C16.0503 15.1002 16.0381 15.1246 16.0137 15.1246L16.0503 15.1886V15.2252C16.0503 15.2496 16.0381 15.2617 16.0137 15.2617L16.0868 15.408C16.0198 15.408 15.9741 15.4416 15.9497 15.5086L16.0137 15.7555C15.9223 15.7982 15.8765 15.8805 15.8765 16.0024H15.9497L15.9131 16.1852C15.9375 16.1852 15.9497 16.1974 15.9497 16.2218C15.9009 16.2401 15.8643 16.2492 15.84 16.2492L15.8765 16.3224V16.359H15.8034V16.4687L15.84 16.5327L15.7668 16.5693V16.4961C15.7241 16.5083 15.7028 16.5327 15.7028 16.5693H15.7668C15.7668 16.7095 15.7211 16.7796 15.6297 16.7796V16.8527H15.7302V16.9259L15.7028 16.999H15.7668V17.0996L15.6662 17.0264C15.6662 17.1484 15.6053 17.2093 15.4834 17.2093V17.2733L15.5565 17.2459C15.6053 17.252 15.6297 17.2733 15.6297 17.3099C15.6053 17.3099 15.5931 17.3221 15.5931 17.3465C15.6419 17.3526 15.6662 17.3769 15.6662 17.4196V17.4562H15.6297L15.5565 17.4196C15.5321 17.4562 15.5199 17.5141 15.5199 17.5933H15.4468L15.3462 17.5293H15.3096C15.3096 17.6208 15.2853 17.6665 15.2365 17.6665C15.1451 17.6299 15.0993 17.5933 15.0993 17.5568C15.0993 17.5141 15.1329 17.4928 15.1999 17.4928V17.4196C15.078 17.4196 15.0079 17.383 14.9896 17.3099V17.2733C15.0628 17.2733 15.0993 17.252 15.0993 17.2093C15.0018 17.2093 14.953 17.1727 14.953 17.0996V17.063C14.9652 17.0203 14.9896 16.999 15.0262 16.999C15.075 16.999 15.1816 17.0691 15.3462 17.2093L15.4194 17.2459V17.1362L15.3462 17.1727C15.2548 17.0325 15.1725 16.9624 15.0993 16.9624L15.1359 16.8893H15.0628V16.8527C15.0628 16.8283 15.075 16.8161 15.0993 16.8161L15.0628 16.743V16.7156H15.0993C15.1481 16.7156 15.1725 16.7491 15.1725 16.8161H15.2365L15.2731 16.6424L15.0993 16.679C15.0993 16.6302 15.075 16.6058 15.0262 16.6058C15.0262 16.6546 15.0018 16.679 14.953 16.679V16.4961C15.0018 16.5205 15.0384 16.5327 15.0628 16.5327C15.0628 16.49 15.0993 16.4687 15.1725 16.4687V16.4321L14.9896 16.3955C14.9896 16.3468 15.0506 16.3224 15.1725 16.3224V16.2858C15.1725 16.2614 15.1237 16.2279 15.0262 16.1852C14.9652 16.1913 14.9195 16.2492 14.889 16.359C14.9561 16.359 14.9896 16.3833 14.9896 16.4321L14.889 16.4961H14.8525C14.8525 16.4291 14.8281 16.3955 14.7793 16.3955C14.7793 16.3712 14.7915 16.359 14.8159 16.359L14.7793 16.1852C14.7793 16.0389 14.825 15.9658 14.9165 15.9658L14.8525 15.8652C14.889 15.7677 14.9226 15.7189 14.953 15.7189C14.9652 15.7677 14.9896 15.7921 15.0262 15.7921H15.0993C15.1481 15.7921 15.1725 15.7677 15.1725 15.7189V15.5818H15.0993V15.7189H15.0262C14.9774 15.7189 14.953 15.6854 14.953 15.6183H14.889L14.8525 15.7555H14.7793V15.6183L14.889 15.472L14.8525 15.408C14.9683 15.3776 15.0262 15.341 15.0262 15.2983C14.953 15.2983 14.9165 15.2861 14.9165 15.2617C14.9409 15.2191 14.953 15.1855 14.953 15.1612C14.9104 15.1612 14.889 15.1368 14.889 15.088C15.0049 14.9966 15.0628 14.9265 15.0628 14.8777H15.1359V14.9417H15.1999V14.8777C15.1512 14.8777 15.1176 14.829 15.0993 14.7314C15.0506 14.7314 15.0262 14.707 15.0262 14.6583C15.0506 14.6156 15.0628 14.5821 15.0628 14.5577C15.0384 14.5089 15.0262 14.4724 15.0262 14.448C15.0628 14.448 15.0993 14.4144 15.1359 14.3474V14.2742L15.0628 14.3108C15.0628 14.2864 15.0506 14.2742 15.0262 14.2742C15.0993 14.0548 15.1359 13.9146 15.1359 13.8536C15.1115 13.8049 15.0993 13.7683 15.0993 13.7439C15.1603 13.555 15.2182 13.4605 15.2731 13.4605L15.3096 13.5336C15.2487 13.6251 15.203 13.6708 15.1725 13.6708V13.7805C15.1786 13.8293 15.1999 13.8536 15.2365 13.8536C15.2365 13.6647 15.3432 13.5702 15.5565 13.5702C15.5565 13.5336 15.4986 13.4849 15.3828 13.4239C15.3828 13.3447 15.4163 13.2502 15.4834 13.1405L15.4468 13.0673C15.4956 13.049 15.5321 13.0399 15.5565 13.0399L15.3828 12.8936L15.4468 12.857L15.4194 12.5095V12.4364L15.6297 12.1895L15.7028 12.2261C15.7455 12.2261 15.7668 12.2017 15.7668 12.1529C15.6266 12.1286 15.5565 12.092 15.5565 12.0432C15.6114 12.0006 15.6601 11.9792 15.7028 11.9792C15.6784 11.9487 15.6662 11.8878 15.6662 11.7964C15.7577 11.772 15.8034 11.7141 15.8034 11.6226C15.7546 11.6226 15.7302 11.5982 15.7302 11.5495V11.5129H15.7668L15.84 11.5495C15.84 11.4702 15.8522 11.4123 15.8765 11.3758C15.8278 11.3758 15.8034 11.3514 15.8034 11.3026L15.84 11.2295L15.8034 11.1655C15.8034 11.0435 15.84 10.9826 15.9131 10.9826L15.8765 10.9186V10.882C15.968 10.7967 16.0137 10.7022 16.0137 10.5986H15.9497V10.562L16.1234 10.4248C16.099 10.3761 16.0868 10.3395 16.0868 10.3151C16.1234 10.3151 16.16 10.2572 16.1966 10.1414L16.16 10.0682C16.1844 9.99508 16.2057 9.95851 16.224 9.95851L16.1966 9.8945V9.85793C16.2392 9.85793 16.2606 9.84574 16.2606 9.82135V9.71163H16.2971V9.57448C16.2057 9.57448 16.16 9.5501 16.16 9.50133V9.46476H16.224L16.3337 9.53791V9.50133L16.2971 9.42818C16.3459 9.33675 16.3703 9.25446 16.3703 9.18131C16.3215 9.18131 16.2971 9.15997 16.2971 9.1173V9.08073C16.4251 9.08073 16.5684 8.99844 16.7269 8.83386H16.6537L16.544 8.89786H16.4434V8.83386L16.6537 8.58698H16.544V8.68756H16.3703V8.58698C16.3825 8.51383 16.477 8.47726 16.6537 8.47726V8.44068C16.605 8.44068 16.5806 8.42849 16.5806 8.40411L16.5074 8.44068H16.4434V8.36754C16.5836 8.32487 16.6537 8.26696 16.6537 8.19381ZM16.224 8.86129V8.89786C16.224 8.94662 16.2027 8.97101 16.16 8.97101H16.1234C16.1234 8.93443 16.1569 8.89786 16.224 8.86129ZM17.2206 8.89786H17.2846V8.93443C17.2846 8.9832 17.2633 9.00758 17.2206 9.00758V8.89786ZM17.0743 9.21788H17.1109V9.25446C17.1109 9.30322 17.0865 9.32761 17.0378 9.32761L17.0103 9.25446L17.0743 9.21788ZM17.1475 9.46476H17.1841C17.1597 9.50743 17.1475 9.55619 17.1475 9.61105H17.1109C17.0621 9.61105 17.0378 9.58667 17.0378 9.53791L17.1475 9.46476ZM16.864 9.57448V9.67506C16.8884 9.72382 16.9006 9.7604 16.9006 9.78478H16.9738V9.74821C16.925 9.68725 16.9006 9.62934 16.9006 9.57448H16.864ZM16.0137 9.61105H16.1234C16.1722 9.61715 16.1966 9.63848 16.1966 9.67506V9.71163H16.0868C16.0381 9.71163 16.0137 9.68725 16.0137 9.63848V9.61105ZM17.2206 9.63848L17.2572 9.71163L17.1841 9.74821L17.1475 9.67506L17.2206 9.63848ZM16.864 10.3517V10.3883H17.0103V10.3151C16.9677 10.3395 16.9189 10.3517 16.864 10.3517ZM16.8275 10.4523L16.7909 10.5254H16.9006C16.9006 10.4766 16.8762 10.4523 16.8275 10.4523ZM16.7909 10.5986L16.7269 10.6991C16.7452 10.6991 16.7543 10.7113 16.7543 10.7357L16.9738 10.6991V10.6351L16.7909 10.5986ZM16.9372 10.7357L16.9006 10.8089V10.8454L16.9738 10.8089H17.0103L17.1475 10.9186V10.882C17.0987 10.7845 17.0286 10.7357 16.9372 10.7357ZM16.7543 10.8454C16.8031 10.9003 16.8275 10.946 16.8275 10.9826H16.864C16.9128 10.9826 16.9372 10.9612 16.9372 10.9186C16.8884 10.9186 16.864 10.8942 16.864 10.8454H16.7543ZM17.0103 10.9551V10.9826L17.1841 11.0192C17.1841 10.9765 17.1475 10.9551 17.0743 10.9551H17.0103ZM16.7269 11.0192V11.0557C16.7878 11.1715 16.8336 11.2295 16.864 11.2295C16.864 11.1746 16.9128 11.1411 17.0103 11.1289V11.0923C16.9433 11.0923 16.8488 11.0679 16.7269 11.0192ZM16.6537 11.202V11.266C16.6598 11.3148 16.6842 11.3392 16.7269 11.3392C16.7696 11.3148 16.8031 11.3026 16.8275 11.3026C16.8275 11.2721 16.7939 11.2386 16.7269 11.202H16.6537ZM16.864 11.266C16.8701 11.3148 16.8945 11.3392 16.9372 11.3392H16.9738C16.9738 11.2904 16.9494 11.266 16.9006 11.266H16.864ZM16.7543 11.4123C16.7543 11.4489 16.733 11.4946 16.6903 11.5495C16.733 11.5495 16.7543 11.5617 16.7543 11.5861C16.7116 11.7384 16.6903 11.8207 16.6903 11.8329H16.7269L16.8275 11.7598C16.8518 11.8085 16.864 11.8451 16.864 11.8695H16.9006C16.9006 11.8451 16.9128 11.8085 16.9372 11.7598C16.8884 11.7598 16.8518 11.6897 16.8275 11.5495H16.864C16.8397 11.5068 16.8275 11.4611 16.8275 11.4123H16.7543ZM15.9771 11.5861V11.6958H16.0503V11.5861H15.9771ZM16.6537 12.0798V12.1164H16.7909L16.7543 12.0432C16.7116 12.0676 16.6781 12.0798 16.6537 12.0798ZM16.5074 12.3267V12.3633C16.5074 12.3876 16.5196 12.3998 16.544 12.3998L16.5074 12.473C16.5318 12.5156 16.544 12.5492 16.544 12.5736H16.6172L16.5806 12.3998C16.6294 12.3998 16.6537 12.3754 16.6537 12.3267H16.5074ZM15.4834 12.4364V12.537C15.5321 12.537 15.5565 12.5156 15.5565 12.473V12.4364H15.4834ZM16.4434 12.7198L16.48 12.8936C16.4556 12.9667 16.4434 13.0368 16.4434 13.1039H16.48V13.177C16.4069 13.2441 16.3337 13.3751 16.2606 13.5702L16.3337 13.5976H16.3703V13.4605L16.48 13.5336H16.5074L16.48 13.4605C16.48 13.4239 16.5135 13.3873 16.5806 13.3508V13.3873C16.5562 13.43 16.544 13.4788 16.544 13.5336L16.6172 13.5702C16.6172 13.4483 16.6415 13.3873 16.6903 13.3873C16.6903 13.3203 16.6415 13.2867 16.544 13.2867V13.2502C16.5501 13.2014 16.5745 13.177 16.6172 13.177C16.6598 13.2014 16.7055 13.2136 16.7543 13.2136V13.1405L16.544 13.1039V13.0673C16.544 13.0551 16.5928 12.9972 16.6903 12.8936V12.857C16.6354 12.857 16.5989 12.7869 16.5806 12.6467H16.544L16.4434 12.7198ZM16.7269 12.8936H16.864V12.8204H16.7909C16.7482 12.8326 16.7269 12.857 16.7269 12.8936ZM16.6537 13.0673H16.6903C16.733 13.0673 16.7543 13.046 16.7543 13.0033V12.9667C16.7238 12.9667 16.6903 13.0002 16.6537 13.0673ZM15.5199 13.1405V13.2867C15.5687 13.2867 15.5931 13.2624 15.5931 13.2136V13.1405H15.5199ZM16.7909 13.2502V13.3508H16.864V13.2502H16.7909ZM15.7302 13.3508L15.8034 13.3873V13.2867C15.7546 13.2928 15.7302 13.3142 15.7302 13.3508ZM16.4069 13.2867H16.5074V13.3508H16.48C16.4312 13.3508 16.4069 13.3294 16.4069 13.2867ZM15.6297 13.3873C15.6297 13.4239 15.6632 13.4605 15.7302 13.497H15.7668V13.4605C15.7668 13.4117 15.7455 13.3873 15.7028 13.3873H15.6297ZM15.8034 13.8171V13.8536C15.8095 13.8963 15.8339 13.9176 15.8765 13.9176V13.8171H15.8034ZM15.5565 13.9176V13.9542H15.5931C15.648 13.9055 15.6937 13.8811 15.7302 13.8811V13.8536H15.6297C15.5809 13.8597 15.5565 13.8811 15.5565 13.9176ZM15.5565 14.1645H15.7028V14.1005H15.6297C15.5809 14.1066 15.5565 14.1279 15.5565 14.1645ZM16.2606 14.1005V14.2011C16.3581 14.2011 16.4069 14.2377 16.4069 14.3108C16.4556 14.3108 16.48 14.2864 16.48 14.2377V14.1645C16.4434 14.1645 16.3947 14.1432 16.3337 14.1005H16.2606ZM16.16 14.3108V14.3748C16.2027 14.3748 16.224 14.387 16.224 14.4114C16.3215 14.3809 16.3703 14.3474 16.3703 14.3108C16.2971 14.3108 16.2606 14.2986 16.2606 14.2742C16.2179 14.2986 16.1844 14.3108 16.16 14.3108ZM15.5931 14.3474V14.3748C15.6175 14.3748 15.654 14.387 15.7028 14.4114H15.7302V14.3748C15.7059 14.3748 15.6723 14.3657 15.6297 14.3474H15.5931ZM15.4834 14.448V14.5211H15.5565V14.3748C15.5077 14.387 15.4834 14.4114 15.4834 14.448ZM16.16 14.448V14.5211H16.2606V14.448H16.16ZM15.1359 14.5577V14.6583H15.1999V14.6308C15.1999 14.5821 15.1786 14.5577 15.1359 14.5577ZM16.1966 14.8777H16.224C16.2728 14.8777 16.2971 14.8533 16.2971 14.8046H16.2606C16.2179 14.8107 16.1966 14.835 16.1966 14.8777ZM16.0503 14.9051C16.0746 14.9539 16.0868 14.9905 16.0868 15.0149H16.16L16.1234 14.8411C16.0746 14.8472 16.0503 14.8686 16.0503 14.9051ZM14.953 15.088C14.9652 15.1368 14.9896 15.1612 15.0262 15.1612H15.0628C15.0628 15.1124 15.0384 15.088 14.9896 15.088H14.953ZM16.1966 15.2617L16.224 15.3349L16.16 15.3715H16.1234V15.3349C16.1295 15.2861 16.1539 15.2617 16.1966 15.2617ZM15.1359 15.3349V15.408H15.2365V15.3349H15.1359ZM16.48 15.5086H16.5074V15.5818C16.4404 15.5818 16.4069 15.6062 16.4069 15.6549C16.4556 15.661 16.48 15.6823 16.48 15.7189L16.4069 15.7555C16.4312 15.8043 16.4434 15.8408 16.4434 15.8652C16.4191 15.9079 16.4069 15.9414 16.4069 15.9658H16.3703L16.2971 15.9384C16.2971 15.9688 16.2636 16.0024 16.1966 16.0389H16.16C16.16 15.9231 16.1356 15.8652 16.0868 15.8652C16.0868 15.914 16.0625 15.9384 16.0137 15.9384V15.9018C16.0198 15.8286 16.1143 15.7585 16.2971 15.6915C16.2971 15.6122 16.3581 15.5513 16.48 15.5086ZM15.3462 15.6549L15.2731 15.7555L15.3462 15.7921H15.3828C15.3828 15.7677 15.395 15.7342 15.4194 15.6915L15.3462 15.6549ZM15.5931 15.7189L15.5565 15.7921C15.6053 15.7677 15.6419 15.7555 15.6662 15.7555V15.7189H15.5931ZM15.1725 16.1121V16.1852H15.2365C15.2365 16.1121 15.2609 16.0755 15.3096 16.0755C15.3523 16.0999 15.398 16.1121 15.4468 16.1121C15.4285 16.0633 15.4194 16.0268 15.4194 16.0024H15.3096C15.2487 16.0755 15.203 16.1121 15.1725 16.1121ZM14.8525 16.1852V16.2492H14.889L14.9165 16.0755C14.8738 16.0755 14.8525 16.1121 14.8525 16.1852ZM16.2606 16.0389C16.3703 16.0877 16.4312 16.1365 16.4434 16.1852L16.3703 16.2218C16.3703 16.173 16.3459 16.1487 16.2971 16.1487H16.2606C16.2606 16.1974 16.227 16.2218 16.16 16.2218V16.2858L16.4069 16.2492L16.4434 16.3224C16.4008 16.3224 16.3185 16.4047 16.1966 16.5693C16.1417 16.5693 16.0929 16.5815 16.0503 16.6058L16.0137 16.5327C16.0381 16.4169 16.0868 16.359 16.16 16.359L16.0868 16.2492V16.2218C16.0868 16.1852 16.1447 16.1243 16.2606 16.0389ZM15.4834 16.1487V16.1852C15.4956 16.2279 15.5199 16.2492 15.5565 16.2492V16.2218C15.5565 16.173 15.5321 16.1487 15.4834 16.1487ZM16.16 16.3955L16.1234 16.4687H16.224C16.224 16.4199 16.2027 16.3955 16.16 16.3955ZM15.4468 16.5693C15.459 16.618 15.4834 16.6424 15.5199 16.6424H15.5565C15.5565 16.5936 15.5321 16.5693 15.4834 16.5693H15.4468ZM16.3337 16.5693H16.3703V16.679H16.3337C16.2849 16.679 16.2606 16.6546 16.2606 16.6058L16.3337 16.5693ZM16.16 16.6058L16.1966 16.679L16.16 16.743H16.224C16.224 16.7918 16.2027 16.8161 16.16 16.8161C16.0868 16.7918 16.0503 16.7674 16.0503 16.743C16.0868 16.6516 16.1234 16.6058 16.16 16.6058ZM15.4194 16.679C15.4194 16.7217 15.395 16.743 15.3462 16.743V16.7796H15.4194L15.4834 16.679H15.4194ZM15.1999 16.8893C15.2121 16.9381 15.2365 16.9624 15.2731 16.9624H15.3096V16.8893H15.1999ZM15.4834 16.999L15.5565 17.0264L15.5931 16.9624V16.9259H15.5565C15.5077 16.932 15.4834 16.9563 15.4834 16.999ZM15.3096 16.999V17.063H15.4194V16.999H15.3096Z"
    fill="white" />
  <path
    d="M12.097 0.522023C12.0101 0.522373 11.9233 0.522722 11.8339 0.523082C11.1135 0.532328 10.427 0.599374 9.72447 0.757495C9.64059 0.77636 9.64059 0.77636 9.55502 0.795606C6.91049 1.40931 4.39228 2.81006 2.75807 5.02264C2.67807 5.12628 2.67807 5.12628 2.59646 5.23201C1.5023 6.67599 0.865284 8.31327 0.483324 10.0697C0.470037 10.1278 0.45675 10.1859 0.443061 10.2458C0.320686 10.833 0.306714 11.4184 0.30561 12.0157C0.305466 12.0698 0.305323 12.124 0.305176 12.1797C0.310637 15.2636 1.55935 18.0868 3.71328 20.2683C5.53294 22.0658 8.13595 23.3779 10.7419 23.3805C10.8767 23.3761 11.0115 23.3709 11.1462 23.3628C11.1624 23.4012 11.1786 23.4397 11.1953 23.4794C11.7445 24.4695 12.8603 25.2084 13.9141 25.5442C14.0336 25.5768 14.1536 25.6079 14.274 25.6375C14.3623 25.6595 14.3623 25.6595 14.4525 25.6819C15.0518 25.8109 15.9325 25.9533 16.4998 25.6642C16.7752 25.4208 16.8796 25.2159 16.9397 24.8556C16.8924 24.5718 16.752 24.4075 16.5487 24.2158C16.4618 24.1561 16.4618 24.1561 16.3732 24.0953C16.1397 23.8827 16.0626 23.673 15.9578 23.3805C15.9297 23.3062 15.9297 23.3062 15.901 23.2303C15.8553 23.1089 15.8109 22.9871 15.7668 22.8652C15.8474 22.8608 15.928 22.8564 16.0111 22.8518C18.0869 22.604 20.1595 21.3507 21.4536 19.7374C23.0368 17.6683 23.7066 15.0172 23.6928 12.4422C23.6927 12.3804 23.6926 12.3186 23.6925 12.2549C23.6884 11.2306 23.5943 10.274 23.3018 9.28778C23.2859 9.23098 23.2699 9.17418 23.2535 9.11565C22.7607 7.38525 21.8601 5.74402 20.6006 4.45395C20.5216 4.36104 20.4431 4.26775 20.3651 4.17405C19.6878 3.40413 18.8903 2.81573 18.0415 2.25029C17.9741 2.20429 17.9066 2.15829 17.8371 2.1109C16.1796 1.06014 14.0475 0.512614 12.097 0.522023ZM14.2029 1.61052C14.3112 1.63362 14.3112 1.63362 14.4217 1.65717C17.2702 2.29694 19.6942 4.22277 21.2404 6.65761C22.2775 8.37937 22.8381 10.2418 22.822 12.2556C22.8218 12.3057 22.8215 12.3559 22.8213 12.4075C22.817 13.1524 22.8019 13.8853 22.6621 14.6192C22.651 14.6783 22.6399 14.7373 22.6285 14.7982C22.3007 16.4867 21.7474 18.0716 20.6006 19.382C20.5579 19.4348 20.5152 19.4877 20.4712 19.5422C19.1926 21.0802 17.1186 21.8804 15.1981 22.2254C14.9932 22.2379 14.9932 22.2379 14.8426 22.2254C15.2167 24.1633 15.2167 24.1633 15.98 24.9266C14.8046 24.9918 13.6441 24.7331 12.735 23.9463C12.3056 23.5566 11.9051 23.1279 11.5727 22.6519C11.5727 22.605 11.5727 22.5581 11.5727 22.5097C11.4839 22.5138 11.3951 22.518 11.3036 22.5222C8.71856 22.6041 6.3643 21.5604 4.48689 19.8218C4.43246 19.7705 4.37803 19.7192 4.32195 19.6663C4.27046 19.6194 4.21896 19.5725 4.1659 19.5241C2.63853 18.0789 1.68762 16.0351 1.33635 13.9794C1.32187 13.907 1.3074 13.8345 1.29248 13.7598C0.82506 11.1186 1.51405 8.31528 3.00381 6.10558C3.15204 5.90311 3.30536 5.71046 3.46892 5.52024C3.51896 5.46132 3.56899 5.4024 3.62054 5.34169C3.77944 5.16029 3.94294 4.98453 4.1087 4.80938C4.20024 4.70973 4.20024 4.70973 4.29363 4.60806C5.26844 3.57029 6.45834 2.86099 7.73407 2.25029C7.81468 2.2115 7.81468 2.2115 7.89693 2.17192C8.26977 1.9988 8.6419 1.87893 9.04027 1.77935C9.09942 1.76426 9.15858 1.74916 9.21953 1.7336C9.64568 1.62647 10.0706 1.52729 10.5064 1.46835C10.5647 1.46047 10.623 1.45259 10.683 1.44447C11.8594 1.31867 13.0522 1.32937 14.2029 1.61052Z"
    fill="#F7F7F8" />
  <defs>
    <linearGradient id="paint0_linear_2520_17301" x1="11.9991" y1="0.521904" x2="11.9991" y2="25.8331"
      gradientUnits="userSpaceOnUse">
      <stop stop-color="#005CC9" />
      <stop offset="1" stop-color="#01274C" />
    </linearGradient>
  </defs>
</svg>