<svg width="23" height="23" viewBox="0 0 23 23" fill="none" xmlns="http://www.w3.org/2000/svg">
<path d="M2.80078 10.6266C2.80078 5.70388 6.99221 1.82345 11.9003 2.20221L12.3721 2.23862C16.6429 2.5682 19.9516 6.11058 19.9895 10.394L20.004 12.0383C20.0353 15.5832 17.2439 18.5113 13.7015 18.6493V18.6493L14.6924 20.879L13.8484 20.7338C12.7419 20.5434 11.7414 19.9595 11.0314 19.0898V19.0898V19.0898C6.53552 19.2552 2.80078 15.6553 2.80078 11.1564V10.6266Z" fill="url(#paint0_linear_4378_130893)" fill-opacity="0.8"/>
<path d="M14.1224 3.99575H14.2286L14.2666 4.13996C14.2413 4.13996 14.2286 4.15261 14.2286 4.17791C14.2995 4.17791 14.3349 4.20068 14.3349 4.24622V4.28417C14.2894 4.25887 14.2539 4.24622 14.2286 4.24622C14.1831 4.27152 14.1477 4.28417 14.1224 4.28417L14.3349 4.42838V4.45874H14.2666L14.1527 4.39043C14.1527 4.42585 14.1173 4.46127 14.0465 4.49669H14.0161V4.35248H14.0465L14.0161 4.28417C14.1072 4.23357 14.1527 4.17285 14.1527 4.10201C14.1325 4.05647 14.1224 4.02105 14.1224 3.99575ZM13.834 4.53464C14.0718 4.61054 14.1907 4.7168 14.1907 4.85342C14.1502 4.87872 14.1021 4.89137 14.0465 4.89137V4.99763H14.2666C14.3121 5.00775 14.3349 5.03305 14.3349 5.07353C14.1932 5.15955 14.1224 5.21774 14.1224 5.2481C14.1224 5.324 14.1705 5.42014 14.2666 5.53652C14.1502 5.7288 14.0667 5.82494 14.0161 5.82494V5.96156H14.0465V5.89325H14.1527C14.2033 5.90337 14.2286 5.92614 14.2286 5.96156C14.1072 5.99698 14.0465 6.03493 14.0465 6.07541L14.1224 6.18167C14.1224 6.22721 14.0971 6.24998 14.0465 6.24998L14.0844 6.32588C14.0844 6.34612 14.0718 6.35624 14.0465 6.35624C14.0718 6.40684 14.0844 6.44478 14.0844 6.47008C14.0389 6.57634 13.9908 6.63453 13.9402 6.64465L13.9782 6.72055V6.82681L13.9402 7.00138H13.8719V6.93307H13.796V7.00138H13.8719L13.7657 7.10764C13.7859 7.15824 13.796 7.19619 13.796 7.22149C13.7758 7.22149 13.7657 7.23161 13.7657 7.25185C13.7859 7.25185 13.796 7.2645 13.796 7.2898C13.7505 7.29992 13.7277 7.32269 13.7277 7.35811L13.796 7.39606L13.6214 8.04121L13.6518 8.11711C13.6063 8.35493 13.5708 8.47384 13.5455 8.47384L13.5835 8.54215C13.5835 8.59275 13.5582 8.61805 13.5076 8.61805L13.5455 8.68636V8.97478C13.4848 9.15693 13.4266 9.29861 13.371 9.39981L13.4013 9.47571V9.54402C13.4013 9.56932 13.3912 9.58197 13.371 9.58197L13.4013 9.65028L13.2951 9.87039L13.371 9.97665L13.2951 10.0829C13.3457 10.093 13.371 10.1158 13.371 10.1512H13.333L13.2571 10.1209V10.1892L13.333 10.2954C13.2824 10.3056 13.2571 10.3309 13.2571 10.3713V10.4093C13.3027 10.5307 13.3862 10.6016 13.5076 10.6218V10.6901L13.5835 10.6597C13.7555 10.7053 13.8517 10.7281 13.8719 10.7281H13.9023L13.9782 10.6901L14.0161 10.766V10.7964L13.9782 10.8723C14.0237 10.8773 14.0465 10.9001 14.0465 10.9406C14.0465 10.9912 14.0237 11.0165 13.9782 11.0165H13.9402C13.9048 11.0165 13.8694 10.9811 13.834 10.9102C13.8593 10.9102 13.8719 10.8976 13.8719 10.8723H13.834L13.6898 10.9785H13.5835C13.5582 10.9785 13.5455 10.9659 13.5455 10.9406L13.4772 10.9785H13.4393C13.3836 10.9785 13.3356 10.9659 13.2951 10.9406C13.2495 10.9659 13.2141 10.9785 13.1888 10.9785C13.1888 10.9532 13.1762 10.9406 13.1509 10.9406L13.1205 11.0165L13.1888 11.1227C13.1888 11.1683 13.1534 11.191 13.0826 11.191C13.0826 11.2265 13.1053 11.3353 13.1509 11.5174C13.1104 11.5174 13.0623 11.697 13.0067 12.0563H12.9763L13.0067 12.1246L12.87 12.5572H12.7941L12.87 12.6635L12.7562 12.8077C12.8068 12.8128 12.8321 12.8355 12.8321 12.876L12.7258 13.0202L12.7562 13.2327C12.7005 13.506 12.655 13.6983 12.6196 13.8096C12.6196 13.8298 12.6297 13.8399 12.6499 13.8399C12.5336 14.5787 12.4754 14.9607 12.4754 14.986H12.3995V15.024C12.4703 15.024 12.5057 15.0493 12.5057 15.0999V15.2061C12.5057 15.2264 12.4956 15.2365 12.4754 15.2365L12.5057 15.3124C12.5057 15.3478 12.4703 15.3832 12.3995 15.4187H12.3312V15.3504H12.4374V15.2745C12.3565 15.2745 12.273 15.3099 12.1869 15.3807C12.1869 15.2643 12.1515 15.2061 12.0807 15.2061C12.0301 15.2112 12.0048 15.234 12.0048 15.2745V15.5249H11.9744C11.8783 15.4541 11.8049 15.4187 11.7543 15.4187V15.3807C11.8403 15.3807 11.9011 15.3326 11.9365 15.2365H11.8985C11.853 15.2618 11.8176 15.2745 11.7923 15.2745L11.8302 15.2061L11.686 15.0619V14.9557L11.724 14.8798H11.686C11.6354 14.8899 11.6101 14.9152 11.6101 14.9557C11.6354 14.9557 11.6481 14.9658 11.6481 14.986L11.5418 15.0619C11.5873 15.1581 11.6101 15.2289 11.6101 15.2745C11.5646 15.2998 11.5291 15.3124 11.5038 15.3124L11.5418 15.3807V15.4566C11.5418 15.5022 11.519 15.5249 11.4735 15.5249C11.3925 15.4541 11.3318 15.4187 11.2913 15.4187V15.3504H11.3976V15.2745L11.2534 15.3504V15.2061L11.4355 15.2365H11.4735C11.4735 15.2011 11.4254 15.1555 11.3293 15.0999C11.3293 15.1201 11.3166 15.1302 11.2913 15.1302L11.2534 15.0619C11.3242 15.0417 11.3723 14.9936 11.3976 14.9177H11.3596C11.3141 14.943 11.2787 14.9557 11.2534 14.9557V14.9177L11.3293 14.8115C11.304 14.7659 11.2913 14.7305 11.2913 14.7052H11.3293L11.4355 14.7735V14.7356C11.3849 14.6445 11.3596 14.561 11.3596 14.4851C11.3849 14.4851 11.3976 14.475 11.3976 14.4547L11.3293 14.4168H11.2913V14.523H11.2534C11.218 14.523 11.1825 14.4876 11.1471 14.4168V14.3788C11.3242 14.3384 11.433 14.2802 11.4735 14.2043H11.5038C11.5038 14.1537 11.4684 14.1284 11.3976 14.1284V14.0601H11.5038C11.5038 14.0246 11.4684 13.9892 11.3976 13.9538L11.2913 14.0221C11.2913 13.9614 11.2433 13.926 11.1471 13.9158V13.8399H11.2534V13.9158H11.2913C11.3267 13.9158 11.3622 13.8804 11.3976 13.8096C11.3723 13.8096 11.3596 13.7969 11.3596 13.7716L11.2913 13.8096H11.2534C11.2078 13.8096 11.1851 13.7843 11.1851 13.7337L11.2534 13.4832C11.2331 13.4377 11.223 13.4023 11.223 13.377H11.2913C11.2913 13.4529 11.352 13.5237 11.4735 13.5895C11.4735 13.5692 11.4836 13.5591 11.5038 13.5591C11.4887 13.4883 11.4406 13.4402 11.3596 13.4149C11.3849 13.3845 11.3976 13.3137 11.3976 13.2024C11.3267 13.1771 11.2913 13.1518 11.2913 13.1265C11.3166 13.0557 11.3394 13.0202 11.3596 13.0202C11.4102 13.0455 11.4482 13.0582 11.4735 13.0582C11.3976 12.962 11.3596 12.8887 11.3596 12.8381C11.4102 12.8381 11.4355 12.8027 11.4355 12.7318L11.686 12.7698V12.7318C11.519 12.6407 11.4355 12.5825 11.4355 12.5572V12.4434C11.4811 12.4535 11.5038 12.4788 11.5038 12.5193C11.4836 12.5193 11.4735 12.5319 11.4735 12.5572C11.4937 12.5572 11.5038 12.5674 11.5038 12.5876L11.5797 12.5572H11.724L11.7923 12.5876V12.5193C11.6253 12.494 11.5418 12.4586 11.5418 12.413V12.3751L11.5797 12.3068H11.5038L11.4355 12.3371C11.4102 12.2916 11.3976 12.2562 11.3976 12.2309C11.4482 12.1145 11.4836 12.0563 11.5038 12.0563L11.4735 11.9804V11.9121L11.5418 11.8058L11.5038 11.7299L11.5418 11.5857C11.4457 11.4744 11.3976 11.4036 11.3976 11.3732L11.3293 11.4112C11.304 11.4112 11.2913 11.3985 11.2913 11.3732C11.0788 11.4036 10.9472 11.4263 10.8966 11.4415L10.8283 11.4112L10.6082 11.4415C10.6082 11.4213 10.5981 11.4112 10.5779 11.4112L10.5399 11.4795L10.464 11.4415C9.94284 11.4415 9.68225 11.525 9.68225 11.692C9.65695 11.692 9.619 11.7046 9.5684 11.7299C9.5684 11.6136 9.54563 11.5554 9.50009 11.5554C9.50009 11.611 9.47732 11.6692 9.43178 11.7299L9.50009 11.8362H9.46214L9.50009 11.9121V11.9804H9.39383C9.39383 12.2435 9.34577 12.3751 9.24963 12.3751C9.24963 12.4206 9.28505 12.4434 9.35589 12.4434L9.24963 12.5876L9.28758 12.7698H9.39383C9.39383 12.7495 9.4166 12.6888 9.46214 12.5876H9.5684V12.6635C9.5684 12.6787 9.51021 12.7369 9.39383 12.8381V12.876L9.46214 12.9823L9.24963 12.9519L9.28758 12.876V12.8381H9.24963V12.914L9.18132 12.876L9.14337 12.9519V13.0202H9.21168V13.1265H9.14337C9.17879 13.2226 9.21421 13.2707 9.24963 13.2707H9.28758L9.35589 13.2327L9.28758 13.0202H9.31794C9.35336 13.0202 9.3913 13.0557 9.43178 13.1265C9.43178 13.1518 9.41913 13.1644 9.39383 13.1644L9.43178 13.2327V13.2707L9.10542 13.4529C9.10542 13.4883 9.08265 13.5819 9.03711 13.7337C9.08265 13.759 9.11807 13.7716 9.14337 13.7716V13.8399C9.07253 13.8399 9.03711 13.8526 9.03711 13.8779L9.06747 13.9538C9.04723 14.0651 8.98904 14.1714 8.8929 14.2726C8.9182 14.3131 8.93085 14.3611 8.93085 14.4168C8.85495 14.4168 8.817 14.4396 8.817 14.4851C8.8676 14.5104 8.90555 14.523 8.93085 14.523V14.561C8.93085 14.6065 8.90555 14.6293 8.85495 14.6293L8.74869 14.561V14.6293L8.78664 14.7052L8.71074 14.7356L8.64243 14.7052L8.60448 14.7735H8.78664V14.7052C8.83218 14.7103 8.85495 14.733 8.85495 14.7735C8.78411 14.8798 8.74869 14.9886 8.74869 15.0999H8.71074C8.71074 15.024 8.68797 14.986 8.64243 14.986V15.0999H8.71074V15.2061H8.68038C8.62978 15.1808 8.59183 15.1682 8.56653 15.1682V15.2365C8.64243 15.2365 8.68038 15.2618 8.68038 15.3124C8.62978 15.3731 8.60448 15.4313 8.60448 15.487H8.53617V15.4566C8.55641 15.4111 8.56653 15.3757 8.56653 15.3504H8.53617C8.50075 15.3504 8.46533 15.3858 8.42991 15.4566V15.487L8.46027 15.5629C8.44003 15.5629 8.42991 15.5755 8.42991 15.6008L8.35401 15.5629H8.31606L8.39196 15.6691C8.311 15.7197 8.25028 15.745 8.2098 15.745L8.24775 15.8133L8.14149 15.9575H8.17185L8.39196 15.9196V15.9575C8.311 16.0183 8.21486 16.1599 8.10354 16.3826C8.13896 16.3826 8.17438 16.4205 8.2098 16.4964C8.16426 16.6128 8.09342 16.6963 7.99728 16.7469C7.99728 16.838 7.92644 16.8835 7.78476 16.8835V16.9215H7.81512L8.03523 16.8532L8.06559 16.9215L7.99728 16.9594L8.03523 17.0277C7.93909 17.1644 7.89102 17.2605 7.89102 17.3162H7.81512L7.85307 17.1416C7.79235 17.1871 7.73163 17.2099 7.67091 17.2099V17.3162C7.76705 17.3263 7.81512 17.3617 7.81512 17.4224V17.4983C7.71898 17.4983 7.67091 17.5464 7.67091 17.6425L7.74681 17.6046H7.78476V17.6425C7.78476 17.6881 7.75946 17.7108 7.70886 17.7108H7.6026C7.54188 17.7108 7.50646 17.6628 7.49634 17.5666L7.42044 17.6046H7.24587V17.5666L7.31418 17.4224H7.13961C7.11431 17.3769 7.10166 17.3415 7.10166 17.3162L7.16997 17.2782H7.20792L7.31418 17.3541H7.35213L7.20792 17.1416V17.0657H7.28382L7.16997 16.8532C7.21045 16.8279 7.27117 16.8152 7.35213 16.8152L7.31418 16.7469V16.709C7.38502 16.6179 7.42044 16.547 7.42044 16.4964H7.39008C7.3749 16.4964 7.31418 16.5546 7.20792 16.671H7.16997V16.6331L7.35213 16.4205L7.28382 16.3826L7.13961 16.4964L7.10166 16.4205C7.18262 16.3497 7.25346 16.3143 7.31418 16.3143L7.28382 16.246V16.208H7.39008V16.1321C7.31924 16.1321 7.28382 16.1093 7.28382 16.0638C7.29394 16.0638 7.36478 15.993 7.49634 15.8513V15.8133C7.47104 15.8133 7.43562 15.8007 7.39008 15.7754C7.43562 15.5831 7.48369 15.487 7.53429 15.487L7.6026 15.5249V15.4187C7.5773 15.4187 7.54188 15.406 7.49634 15.3807C7.51658 15.2846 7.53935 15.2365 7.56465 15.2365C7.51911 15.1201 7.49634 15.0366 7.49634 14.986C7.54188 14.9658 7.5773 14.9557 7.6026 14.9557L7.56465 14.8798L7.6026 14.7356L7.56465 14.561C7.58995 14.5155 7.6026 14.48 7.6026 14.4547L7.56465 14.3788C7.56465 14.3485 7.61272 14.265 7.70886 14.1284L7.64055 14.0904C7.66079 14.0348 7.68356 13.9158 7.70886 13.7337L7.67091 13.6654L7.81512 13.3086C7.76958 13.3086 7.74681 13.2833 7.74681 13.2327C7.83283 12.828 7.91632 12.6256 7.99728 12.6256V12.5876L7.92138 12.4813V12.3068C7.92138 12.2562 7.95933 12.2309 8.03523 12.2309L7.99728 12.0563H8.03523C8.03523 12.031 8.02258 12.0184 7.99728 12.0184C8.02764 11.7704 8.06306 11.6262 8.10354 11.5857V11.5174C8.06306 11.5174 7.96692 11.4213 7.81512 11.229L7.49634 11.2669C7.49634 11.2163 7.47104 11.191 7.42044 11.191L7.35213 11.229C7.31671 11.1329 7.25599 11.062 7.16997 11.0165H6.9954C6.9954 11.062 7.05359 11.0848 7.16997 11.0848V11.1607C7.11937 11.1607 7.07383 11.148 7.03335 11.1227C6.98781 11.148 6.87902 11.1708 6.70698 11.191C6.6665 11.1708 6.61844 11.1607 6.56278 11.1607V11.191L6.60073 11.2669L6.52483 11.2973L6.45652 11.2669L6.52483 11.0848C6.45399 11.0848 6.41857 11.062 6.41857 11.0165V10.9785C6.47423 10.9785 6.5223 10.9912 6.56278 11.0165H6.60073V10.9785H6.52483V10.8723C7.00552 10.6648 7.24587 10.5105 7.24587 10.4093L7.31418 10.4396H7.35213C7.38755 10.4396 7.42297 10.4042 7.45839 10.3334H7.28382V10.2651C7.25852 10.2651 7.16238 10.2878 6.9954 10.3334H6.95745C6.91191 10.3334 6.88914 10.3106 6.88914 10.2651C6.93468 10.2651 6.95745 10.2398 6.95745 10.1892L6.88914 10.0829V9.97665L7.03335 10.0146L7.16997 9.97665L7.35213 10.0146L7.42044 9.97665C7.47104 10.002 7.50899 10.0146 7.53429 10.0146L7.6026 9.97665C7.69874 10.0222 7.76958 10.045 7.81512 10.045L7.89102 10.0146L8.06559 10.045L8.14149 10.0146L8.35401 10.045H8.39196V9.87039C8.39196 9.72365 8.44003 9.65028 8.53617 9.65028C8.53617 9.60474 8.50075 9.58197 8.42991 9.58197V9.51366H8.49822L8.46027 9.3315V9.26319C8.53111 9.17211 8.56653 9.08863 8.56653 9.01273H8.53617C8.53617 8.93683 8.58424 8.89888 8.68038 8.89888C8.68038 8.84828 8.66773 8.80021 8.64243 8.75467C8.64243 8.68383 8.67785 8.64841 8.74869 8.64841L8.71074 8.5801V8.54215L8.8929 8.39794V8.36758L8.817 8.25373C8.8676 8.25373 8.8929 8.23096 8.8929 8.18542L8.817 8.14747L8.93085 7.9729V7.93495C8.88025 7.93495 8.85495 7.9223 8.85495 7.897C8.92579 7.75532 9.00928 7.68448 9.10542 7.68448V7.64653H8.96121V7.57822C9.01687 7.57822 9.06494 7.56557 9.10542 7.54027C9.08012 7.49473 9.06747 7.45931 9.06747 7.43401L9.10542 7.35811C9.08012 7.31257 9.06747 7.27715 9.06747 7.25185C9.09277 7.11017 9.13072 7.03933 9.18132 7.03933V7.10764C9.22686 7.10764 9.24963 7.08487 9.24963 7.03933C9.19397 7.03933 9.1459 6.99126 9.10542 6.89512C9.10542 6.8597 9.14084 6.82428 9.21168 6.78886L9.18132 6.72055L9.28758 6.57634V6.53839L9.14337 6.50044V6.43213H9.28758V6.35624C9.12566 6.35624 9.02952 6.26263 8.99916 6.07541H9.18132C9.2977 6.07541 9.4166 6.16902 9.53804 6.35624L9.68225 6.47008L9.5684 6.78886C9.5937 6.8344 9.60635 6.86982 9.60635 6.89512H9.5684L9.60635 6.97102C9.58105 7.01656 9.5684 7.05198 9.5684 7.07728C9.619 7.08234 9.6443 7.10511 9.6443 7.14559C9.56334 7.24173 9.4925 7.2898 9.43178 7.2898V7.35811L9.6443 7.43401C9.71008 7.31257 9.78092 7.25185 9.85682 7.25185V7.14559H9.78851C9.78851 7.21643 9.76321 7.25185 9.71261 7.25185L9.68225 7.18354C9.68225 7.13294 9.71767 7.10764 9.78851 7.10764V7.07728L9.75056 7.00138C9.80116 7.00138 9.82646 6.97861 9.82646 6.93307C9.77586 6.93307 9.75056 6.90777 9.75056 6.85717L9.82646 6.75091H9.75056V6.6067C9.76068 6.56116 9.78598 6.53839 9.82646 6.53839H9.85682C9.85682 6.62441 9.90489 6.68513 10.001 6.72055L10.039 6.64465C10.039 6.59911 10.0036 6.57634 9.93272 6.57634L9.96308 6.50044L9.93272 6.43213L10.039 6.35624L10.0769 6.43213C10.0516 6.43213 10.039 6.44478 10.039 6.47008C10.0744 6.47008 10.1225 6.51562 10.1832 6.6067L10.1452 6.6826C10.1908 6.68766 10.2136 6.71043 10.2136 6.75091L10.1832 6.82681H10.2136L10.3274 6.75091H10.3578V6.78886C10.3122 6.885 10.254 6.93307 10.1832 6.93307L10.2136 7.10764C10.168 7.11776 10.1452 7.14306 10.1452 7.18354H10.2136V7.32775C10.2136 7.34799 10.2034 7.35811 10.1832 7.35811C10.1832 7.38341 10.1933 7.39606 10.2136 7.39606C10.1984 7.5428 10.1756 7.61617 10.1452 7.61617C10.1705 7.66171 10.1832 7.69713 10.1832 7.72243C10.1832 7.74267 10.1351 7.81351 10.039 7.93495C10.0845 7.96025 10.1199 7.9729 10.1452 7.9729V8.04121C10.0744 8.04121 10.0137 8.08928 9.96308 8.18542V8.22337C9.98838 8.22337 10.0263 8.23349 10.0769 8.25373C10.0769 8.23349 10.0871 8.22337 10.1073 8.22337V8.29168C10.1073 8.30686 10.0491 8.36758 9.93272 8.47384V8.5042L10.001 8.61805C9.95549 8.61805 9.93272 8.62817 9.93272 8.64841C9.93272 8.74455 9.99091 8.79262 10.1073 8.79262V8.83057C10.001 8.83057 9.91754 8.89129 9.85682 9.01273C9.92766 9.01273 9.96308 9.0355 9.96308 9.08104H9.85682V9.14934H9.93272V9.29355H9.85682L9.89477 9.36945V9.47571C9.89477 9.59209 9.85935 9.65028 9.78851 9.65028L9.85682 9.76413C9.81128 9.76413 9.77586 9.83497 9.75056 9.97665H9.78851L10.001 9.90075C10.001 9.94123 10.0845 9.9893 10.2515 10.045C10.292 10.0247 10.4008 10.002 10.5779 9.97665C10.6538 10.0121 10.76 10.0475 10.8966 10.0829C10.9371 10.0576 10.9852 10.045 11.0409 10.045H11.0788L11.0409 10.1209H11.0788L11.2534 10.0829C11.2635 10.1285 11.2888 10.1512 11.3293 10.1512H11.4355V10.2271C11.5469 10.0854 11.6531 10.0146 11.7543 10.0146V9.9387H11.686V9.87039H11.7923V9.79449H11.724V9.76413C11.815 9.67305 11.8606 9.57691 11.8606 9.47571H11.8302L11.724 9.54402H11.686C11.6354 9.54402 11.6101 9.5086 11.6101 9.43776C11.6101 9.34162 11.6708 9.29355 11.7923 9.29355V9.26319L11.724 9.14934V9.11899H11.8606V9.14934L11.9365 9.11899L11.8985 9.04309C11.8985 8.99755 11.9339 8.97478 12.0048 8.97478V8.93683C11.8884 8.93683 11.8302 8.92418 11.8302 8.89888L11.7543 8.93683C11.7088 8.93683 11.686 8.91406 11.686 8.86852C11.7315 8.84322 11.767 8.83057 11.7923 8.83057V8.75467H11.724V8.64841C11.729 8.60287 11.7518 8.5801 11.7923 8.5801C11.7923 8.6054 11.8049 8.61805 11.8302 8.61805V8.54215C11.7594 8.54215 11.724 8.50673 11.724 8.43589C11.7442 8.31445 11.767 8.25373 11.7923 8.25373L11.7543 8.18542C11.7796 8.13988 11.7923 8.10446 11.7923 8.07916L11.8606 8.11711H11.8985L11.8606 8.04121L11.8985 7.9729V7.93495H11.8606V8.00326C11.815 8.00326 11.7923 7.98049 11.7923 7.93495V7.86664L11.9365 7.72243L11.8606 7.68448C11.8606 7.70978 11.8505 7.72243 11.8302 7.72243C11.8302 7.57569 11.8783 7.50232 11.9744 7.50232L11.9365 7.43401C11.982 7.43401 12.0048 7.40871 12.0048 7.35811L11.9744 7.18354C12.02 7.18354 12.0427 7.15824 12.0427 7.10764C11.9972 7.10764 11.9744 7.08487 11.9744 7.03933C12.0048 6.84705 12.0402 6.75091 12.0807 6.75091L12.0427 6.6826V6.64465C12.0984 6.64465 12.1591 6.59658 12.2249 6.50044C12.1743 6.50044 12.149 6.46502 12.149 6.39419C12.2198 6.27781 12.2553 6.19432 12.2553 6.14372H12.3615C12.3615 6.26516 12.3387 6.32588 12.2932 6.32588C12.2932 6.34612 12.3059 6.35624 12.3312 6.35624C12.3059 6.51309 12.2578 6.66995 12.1869 6.82681L12.2249 7.03933C12.1743 7.03933 12.149 7.07475 12.149 7.14559L12.1869 7.22149C12.1616 7.33787 12.1363 7.39606 12.111 7.39606L12.149 7.47196C12.149 7.4922 12.1363 7.50232 12.111 7.50232L12.149 7.57822C12.149 7.62376 12.1136 7.64653 12.0427 7.64653L12.111 7.75279C12.111 7.78821 12.0756 7.82616 12.0048 7.86664L12.0427 7.93495V7.9729C12.0427 7.99314 12.0301 8.00326 12.0048 8.00326L12.0427 8.07916C12.0174 8.11964 12.0048 8.16771 12.0048 8.22337H12.0807C12.1363 8.17277 12.1844 8.14747 12.2249 8.14747L12.1869 8.07916V7.897C12.2325 7.897 12.2553 7.88688 12.2553 7.86664V7.75279H12.2932V7.72243H12.2249V7.68448C12.2249 7.65918 12.235 7.64653 12.2553 7.64653L12.2249 7.57822C12.2249 7.52762 12.2704 7.50232 12.3615 7.50232L12.2932 7.39606C12.2932 7.37076 12.3059 7.35811 12.3312 7.35811L12.2932 7.2898L12.3615 7.18354L12.3312 7.10764C12.3767 7.10764 12.4248 6.96596 12.4754 6.6826C12.5209 6.58646 12.5563 6.53839 12.5816 6.53839C12.6272 6.56369 12.6626 6.57634 12.6879 6.57634C12.6879 6.54598 12.7714 6.49791 12.9384 6.43213L12.9004 6.35624C12.951 6.28034 12.9763 6.22215 12.9763 6.18167C12.951 6.18167 12.9384 6.16902 12.9384 6.14372L13.0067 6.10577L12.9763 6.03746C13.0218 5.97674 13.0446 5.91602 13.0446 5.8553L13.1205 5.89325C13.1964 5.82241 13.2546 5.78699 13.2951 5.78699V5.74904C13.2242 5.74904 13.1888 5.72627 13.1888 5.68073H13.2951V5.60483H13.1509V5.53652H13.2571V5.324C13.2571 5.30882 13.3052 5.2481 13.4013 5.14184C13.3052 5.14184 13.2571 5.09377 13.2571 4.99763C13.2824 4.99763 13.2951 4.98498 13.2951 4.95968L13.371 4.99763H13.4013C13.4165 4.85595 13.4519 4.78511 13.5076 4.78511H13.5835V4.82306L13.5455 4.89137L13.7277 4.92932L13.6898 4.85342C13.6898 4.78258 13.7732 4.74716 13.9402 4.74716V4.67885C13.8238 4.67885 13.7657 4.65355 13.7657 4.60295C13.8112 4.60295 13.834 4.58018 13.834 4.53464ZM14.1224 4.53464H14.1527C14.2033 4.5397 14.2286 4.56247 14.2286 4.60295V4.6409H14.1224V4.53464ZM14.2666 4.60295H14.3349C14.3804 4.61307 14.4032 4.63837 14.4032 4.67885C14.4032 4.72439 14.3804 4.74716 14.3349 4.74716L14.2666 4.6409V4.60295ZM13.7657 4.89137V4.95968H13.834C13.8896 4.91414 13.9377 4.89137 13.9782 4.89137V4.82306H13.9402C13.8795 4.8686 13.8213 4.89137 13.7657 4.89137ZM14.4412 4.78511V4.82306C14.4412 4.85342 14.4057 4.88884 14.3349 4.92932H14.2286C14.2286 4.88884 14.2995 4.84077 14.4412 4.78511ZM13.9782 5.03558V5.10389H14.0844V5.03558H13.9782ZM14.2286 5.17979C14.2742 5.18485 14.297 5.20762 14.297 5.2481V5.39231H14.2286C14.2286 5.36701 14.216 5.33159 14.1907 5.28605C14.216 5.24051 14.2286 5.20509 14.2286 5.17979ZM13.6898 5.35436H13.796V5.28605H13.7657C13.7151 5.29111 13.6898 5.31388 13.6898 5.35436ZM13.2951 5.39231V5.46062H13.4013V5.39231H13.2951ZM13.9782 5.39231C13.9782 5.42773 14.0136 5.46315 14.0844 5.49857L14.1224 5.43026L14.0465 5.39231H13.9782ZM10.3274 5.96156C10.3274 5.97674 10.3628 6.09818 10.4337 6.32588C10.4084 6.37142 10.3957 6.40684 10.3957 6.43213C10.421 6.43213 10.4337 6.44478 10.4337 6.47008C10.3628 6.47008 10.3274 6.5055 10.3274 6.57634H10.2895C10.2389 6.57634 10.2034 6.50297 10.1832 6.35624L10.2515 6.39419H10.2895C10.335 6.39419 10.3578 6.37142 10.3578 6.32588C10.3578 6.21456 10.2996 6.14119 10.1832 6.10577C10.1579 6.06023 10.1452 6.02481 10.1452 5.99951H10.1832L10.2515 6.03746C10.2616 5.98686 10.2869 5.96156 10.3274 5.96156ZM13.9023 6.21962V6.28793H14.0161C14.0161 6.24239 13.9908 6.21962 13.9402 6.21962H13.9023ZM12.8321 6.53839L12.7941 6.6826C12.8397 6.6573 12.8751 6.64465 12.9004 6.64465V6.53839H12.8321ZM9.31794 6.6826H9.35589C9.40648 6.6826 9.43178 6.6573 9.43178 6.6067H9.39383C9.34324 6.61682 9.31794 6.64212 9.31794 6.6826ZM12.6499 6.82681V6.89512C12.7005 6.89512 12.7258 6.90777 12.7258 6.93307L12.7941 6.89512C12.8346 6.92042 12.8827 6.93307 12.9384 6.93307C12.8422 6.86223 12.7941 6.79139 12.7941 6.72055C12.698 6.75597 12.6499 6.79139 12.6499 6.82681ZM12.5816 7.03933H12.6879V6.97102H12.6499C12.6044 6.97608 12.5816 6.99885 12.5816 7.03933ZM12.5816 7.10764C12.5563 7.32522 12.5209 7.43401 12.4754 7.43401C12.4956 7.47955 12.5057 7.51497 12.5057 7.54027H12.5437C12.5943 7.54027 12.6196 7.5175 12.6196 7.47196L12.5816 7.2898C12.6525 7.19366 12.7107 7.14559 12.7562 7.14559V7.10764H12.5816ZM10.5779 7.35811L10.6082 7.43401L10.5399 7.47196L10.502 7.39606L10.5779 7.35811ZM9.46214 7.68448L9.6443 7.79074H9.68225V7.75279H9.60635C9.60635 7.70725 9.64177 7.68448 9.71261 7.68448C9.71261 7.64906 9.67719 7.61364 9.60635 7.57822H9.5684C9.53804 7.57822 9.50262 7.61364 9.46214 7.68448ZM12.4374 7.64653V7.82869L12.3995 8.04121C12.4349 8.13735 12.4703 8.18542 12.5057 8.18542L12.5816 8.14747C12.531 8.05133 12.5057 7.98049 12.5057 7.93495C12.5563 7.90965 12.5943 7.897 12.6196 7.897L12.5057 7.72243L12.5437 7.64653H12.4374ZM10.3957 7.75279H10.464V7.79074C10.4286 7.88688 10.3932 7.93495 10.3578 7.93495L10.3274 7.86664C10.3729 7.86664 10.3957 7.82869 10.3957 7.75279ZM10.5779 7.9729V8.04121L10.502 8.14747C10.5273 8.14747 10.5399 8.16012 10.5399 8.18542L10.464 8.22337L10.2895 8.00326C10.4564 8.00326 10.5526 7.99314 10.5779 7.9729ZM9.35589 8.04121L9.31794 8.18542H9.39383L9.43178 8.04121H9.35589ZM9.18132 8.25373C9.20156 8.30433 9.21168 8.34228 9.21168 8.36758H9.28758C9.26228 8.31698 9.24963 8.27903 9.24963 8.25373H9.18132ZM12.3995 8.25373C12.3387 8.46119 12.2907 8.56998 12.2553 8.5801C12.2806 8.62564 12.2932 8.66106 12.2932 8.68636H12.3312C12.3818 8.68636 12.4298 8.54215 12.4754 8.25373H12.3995ZM9.35589 8.29168V8.36758L9.50009 8.39794V8.32963C9.44443 8.32963 9.39636 8.31698 9.35589 8.29168ZM10.3578 8.25373L10.464 8.32963C10.5146 8.30433 10.5526 8.29168 10.5779 8.29168V8.32963C10.5779 8.36505 10.5298 8.40047 10.4337 8.43589C10.3881 8.41059 10.3401 8.39794 10.2895 8.39794L10.5399 8.61805C10.4286 8.66359 10.3679 8.70913 10.3578 8.75467C10.4084 8.76479 10.4337 8.79009 10.4337 8.83057L10.3578 8.86852C10.3223 8.86852 10.2743 8.82045 10.2136 8.72431C10.3603 8.66865 10.4337 8.62058 10.4337 8.5801C10.2414 8.51938 10.1452 8.47131 10.1452 8.43589C10.2869 8.35493 10.3578 8.29421 10.3578 8.25373ZM9.21168 8.64841H9.31794V8.54215C9.28758 8.54215 9.25216 8.57757 9.21168 8.64841ZM10.2136 8.5801L10.2515 8.64841V8.68636H10.2136C10.168 8.68636 10.1452 8.66359 10.1452 8.61805L10.2136 8.5801ZM10.1073 8.89888H10.1832V8.97478C10.1124 8.97478 10.0769 8.99755 10.0769 9.04309H9.96308C9.96308 9.00767 10.0112 8.9596 10.1073 8.89888ZM11.7543 8.97478H11.8302V9.01273C11.8302 9.05827 11.8049 9.08104 11.7543 9.08104C11.7088 9.08104 11.686 9.05827 11.686 9.01273L11.7543 8.97478ZM12.1869 9.08104H12.3312V9.01273H12.2553C12.2097 9.01779 12.1869 9.04056 12.1869 9.08104ZM10.0769 9.08104H10.1073C10.1579 9.0861 10.1832 9.10887 10.1832 9.14934C10.1579 9.14934 10.1452 9.16199 10.1452 9.18729C10.1705 9.18729 10.1832 9.19994 10.1832 9.22524L10.1073 9.26319L10.0769 9.08104ZM12.1869 9.11899L12.111 9.22524C12.1616 9.2303 12.1869 9.25307 12.1869 9.29355C12.1515 9.29355 12.1161 9.32897 12.0807 9.39981L12.149 9.43776L12.0807 9.61992C12.1009 9.61992 12.111 9.63004 12.111 9.65028C12.2325 9.64016 12.2932 9.54655 12.2932 9.36945C12.2477 9.36945 12.2249 9.34415 12.2249 9.29355V9.26319H12.2932V9.22524C12.2932 9.18982 12.2578 9.1544 12.1869 9.11899ZM11.686 9.43776V9.47571H11.724L11.8302 9.39981C11.8707 9.42511 11.9188 9.43776 11.9744 9.43776L12.0048 9.36945H11.9744C11.9238 9.38969 11.8859 9.39981 11.8606 9.39981C11.8606 9.35427 11.8378 9.3315 11.7923 9.3315C11.7568 9.3315 11.7214 9.36692 11.686 9.43776ZM12.111 9.79449C12.0706 9.85015 12.0351 9.95894 12.0048 10.1209H12.0427C12.0731 10.1209 12.1212 10.0247 12.1869 9.83244L12.111 9.79449ZM6.31231 10.6901C6.36291 10.7002 6.38821 10.7255 6.38821 10.766L6.27436 10.8343C6.22882 10.8343 6.20605 10.8115 6.20605 10.766L6.31231 10.6901ZM6.70698 10.8343V10.9102C6.80312 10.9102 6.85119 10.933 6.85119 10.9785C6.85119 11.0494 6.80312 11.0848 6.70698 11.0848V11.1227H6.77529C6.80565 11.1227 6.86637 11.0873 6.95745 11.0165L6.9195 10.9406V10.9102C7.01564 10.9102 7.06371 10.8849 7.06371 10.8343V10.7964H6.95745L6.70698 10.8343ZM7.35213 11.1227H7.49634V11.0468H7.42044C7.3749 11.057 7.35213 11.0823 7.35213 11.1227ZM7.99728 11.229V11.2973C8.02258 11.2973 8.058 11.31 8.10354 11.3353C8.10354 11.2897 8.15161 11.2669 8.24775 11.2669V11.191H8.17185L7.99728 11.229ZM11.7543 11.2669V11.3353H11.8606V11.2669H11.7543ZM11.6481 11.6237C11.6582 11.6692 11.6835 11.692 11.724 11.692H11.7543C11.7543 11.6464 11.7315 11.6237 11.686 11.6237H11.6481ZM9.89477 11.7299C9.94031 11.7401 9.96308 11.7654 9.96308 11.8058L9.89477 11.8362C9.84923 11.8362 9.82646 11.8134 9.82646 11.7679L9.89477 11.7299ZM9.50009 11.9804H9.5684C9.619 11.9905 9.6443 12.0158 9.6443 12.0563C9.6443 12.1018 9.619 12.1246 9.5684 12.1246H9.53804C9.53804 12.069 9.52539 12.0209 9.50009 11.9804ZM11.6481 12.1626L11.686 12.3751C11.7214 12.3751 11.7568 12.3397 11.7923 12.2688C11.7923 12.2334 11.7568 12.198 11.686 12.1626H11.6481ZM9.71261 12.1929C9.76321 12.203 9.78851 12.2283 9.78851 12.2688L9.71261 12.3068C9.66707 12.3068 9.6443 12.2815 9.6443 12.2309L9.71261 12.1929ZM9.46214 12.3751H9.50009L9.53804 12.5193H9.50009C9.46467 12.5193 9.42925 12.4839 9.39383 12.413L9.46214 12.3751ZM11.5418 12.914L11.5038 12.9823C11.5747 12.9823 11.6101 13.0076 11.6101 13.0582H11.686V12.9823C11.6455 12.9823 11.5975 12.9595 11.5418 12.914ZM11.3293 13.2024H11.3596V13.2327C11.3596 13.2833 11.3369 13.3086 11.2913 13.3086L11.2534 13.2327L11.3293 13.2024ZM9.24963 13.4149H9.28758C9.323 13.4149 9.35842 13.4503 9.39383 13.5212C9.36854 13.5667 9.35589 13.6021 9.35589 13.6274H9.28758V13.5591L9.31794 13.4832H9.24963V13.4149ZM11.3596 13.7337H11.5038V13.6654H11.4355C11.3849 13.6704 11.3596 13.6932 11.3596 13.7337ZM12.1869 13.9158H12.2249C12.2704 13.9158 12.2932 13.8905 12.2932 13.8399V13.6654C12.2477 13.6654 12.2122 13.7489 12.1869 13.9158ZM11.6481 13.8399C11.6481 13.8905 11.6835 13.9158 11.7543 13.9158V13.9538L11.724 14.0221H11.7923C11.7923 13.9007 11.815 13.8399 11.8606 13.8399V13.7337H11.8302C11.7493 13.8045 11.6885 13.8399 11.6481 13.8399ZM12.149 14.1284V14.1663H12.1869C12.1869 14.1309 12.2097 14.0828 12.2553 14.0221V13.9842C12.1996 13.9842 12.1642 14.0322 12.149 14.1284ZM11.2534 14.0601H11.2913C11.3369 14.0651 11.3596 14.0879 11.3596 14.1284H11.3293L11.3596 14.2043V14.2346H11.2913L11.2534 14.0601ZM9.10542 14.1663L9.14337 14.2346L9.06747 14.2726H8.96121C8.96121 14.2372 9.00928 14.2017 9.10542 14.1663ZM12.111 14.3485V14.5989H12.1869V14.3485H12.111ZM8.53617 14.5989C8.53617 14.6445 8.50075 14.6673 8.42991 14.6673V14.7052H8.53617L8.56653 14.6293V14.5989H8.53617ZM8.99916 14.6293H9.06747C9.10289 14.6293 9.14084 14.6647 9.18132 14.7356L9.10542 14.7735C9.10542 14.728 9.07 14.7052 8.99916 14.7052V14.6293ZM11.6481 14.6673C11.6481 14.7381 11.6126 14.7735 11.5418 14.7735V14.8494L11.724 14.8115V14.6673H11.6481ZM11.0788 14.6673L11.1092 14.7356L11.0409 14.7735L11.0029 14.7052L11.0788 14.6673ZM12.2249 14.7735V14.9177H12.2553C12.2553 14.8924 12.2679 14.857 12.2932 14.8115L12.2249 14.7735ZM8.8929 15.0619H8.99916C8.99916 15.1075 8.97639 15.1302 8.93085 15.1302L8.8929 15.0619ZM8.42991 15.2061V15.3124C8.47545 15.3124 8.49822 15.2871 8.49822 15.2365V15.2061H8.42991ZM8.64243 15.5629H8.71074V15.6008C8.71074 15.6464 8.68797 15.6691 8.64243 15.6691C8.59183 15.6691 8.56653 15.6464 8.56653 15.6008L8.64243 15.5629ZM8.71074 16.1018H8.74869V16.1321C8.74869 16.1827 8.72592 16.208 8.68038 16.208L8.64243 16.1321L8.71074 16.1018ZM8.03523 16.5268C8.03523 16.5521 8.02258 16.5875 7.99728 16.6331H8.06559V16.5268H8.03523ZM7.39008 16.9215C7.39514 16.9721 7.41791 16.9974 7.45839 16.9974L7.49634 16.9215H7.39008ZM7.49634 17.3162H7.53429C7.57983 17.3162 7.6026 17.2934 7.6026 17.2478H7.56465C7.51911 17.2529 7.49634 17.2757 7.49634 17.3162ZM15.481 7.91218H15.5114V7.94254C15.5114 7.98302 15.4936 8.00326 15.4582 8.00326L15.4279 7.94254L15.481 7.91218ZM15.6024 7.91218L15.6632 7.94254H15.6859L15.7466 7.91218C15.7669 7.9476 15.777 7.97796 15.777 8.00326L15.8984 7.91218H15.9212C15.9617 7.91724 15.9819 7.93748 15.9819 7.9729V8.02603C15.9819 8.06651 15.9617 8.08675 15.9212 8.08675L15.8681 8.05639V8.32204C15.8681 8.39288 15.858 8.48143 15.8377 8.58769C15.858 8.62311 15.8681 8.66106 15.8681 8.70154C15.8276 8.71166 15.8074 8.7319 15.8074 8.76226C15.8276 8.80274 15.8377 8.8331 15.8377 8.85334C15.7972 8.8584 15.777 8.87611 15.777 8.90647C15.7972 8.90647 15.8074 8.91659 15.8074 8.93683C15.7669 8.94695 15.7466 8.96719 15.7466 8.99755V9.02791H15.8681C15.8681 9.07851 15.8959 9.1367 15.9516 9.20247L15.9212 9.26319H15.9516C15.987 9.24295 16.0275 9.23283 16.073 9.23283L16.1034 9.29355L16.0427 9.32391C16.0022 9.30367 15.9718 9.29355 15.9516 9.29355L15.9212 9.34668L15.8681 9.32391H15.8377V9.34668L15.8681 9.4074C15.8377 9.52378 15.777 9.58197 15.6859 9.58197V9.64269L15.7466 9.61233L15.8074 9.64269C15.8428 9.62245 15.8731 9.61233 15.8984 9.61233V9.64269C15.9237 9.64269 15.9819 9.59462 16.073 9.49848C16.073 9.51872 16.0831 9.52884 16.1034 9.52884L16.0123 9.67305C16.0123 9.73377 16.0502 9.76413 16.1261 9.76413L16.0427 9.87798V9.90834H16.073L16.1261 9.87798V9.9387C16.0098 9.9387 15.9516 9.96653 15.9516 10.0222H16.0123C16.0477 10.002 16.0781 9.99183 16.1034 9.99183C16.1034 10.0121 16.111 10.0222 16.1261 10.0222C16.1261 10.1689 16.0882 10.2878 16.0123 10.3789C16.073 10.3789 16.1034 10.3966 16.1034 10.4321C16.068 10.4523 16.0174 10.4624 15.9516 10.4624L16.0123 10.5535L15.9819 10.6142L16.0123 10.6673C15.9921 10.7078 15.9819 10.7382 15.9819 10.7584V10.8495C15.9465 10.8293 15.9187 10.8191 15.8984 10.8191V10.8723C15.9541 10.8723 15.9819 10.8925 15.9819 10.933V11.0241L15.8377 11.0772V11.1076H15.8681C15.9035 11.0873 15.9313 11.0772 15.9516 11.0772V11.1683C15.8959 11.1683 15.8681 11.1885 15.8681 11.229H15.8984C15.9339 11.2088 15.9617 11.1986 15.9819 11.1986V11.2594C15.9819 11.3757 15.944 11.4339 15.8681 11.4339L15.9212 11.5174V11.5781C15.9212 11.6237 15.8731 11.654 15.777 11.6692V11.7299H15.8984V11.7527C15.8984 11.7729 15.8883 11.7831 15.8681 11.7831L15.8984 11.8438V11.8741C15.8984 11.8944 15.8883 11.9045 15.8681 11.9045C15.8681 11.9247 15.8782 11.9349 15.8984 11.9349C15.8984 12.1322 15.8276 12.2486 15.6859 12.284C15.6707 12.284 15.6632 12.2941 15.6632 12.3144V12.3447C15.7188 12.3447 15.7466 12.3548 15.7466 12.3751C15.7466 12.5117 15.7087 12.58 15.6328 12.58V12.6939C15.7087 12.6939 15.7466 12.7141 15.7466 12.7546C15.6707 12.7748 15.6328 12.8128 15.6328 12.8684C15.653 12.9089 15.6632 12.9393 15.6632 12.9595C15.6277 12.9798 15.5771 12.9899 15.5114 12.9899V13.0202C15.5923 13.0202 15.6328 13.0379 15.6328 13.0734V13.1037H15.6024C15.562 13.0835 15.5316 13.0734 15.5114 13.0734V13.1341L15.5721 13.2252L15.5114 13.3086C15.5518 13.3137 15.5721 13.3339 15.5721 13.3694C15.5721 13.4098 15.5417 13.4301 15.481 13.4301V13.4604L15.5721 13.5743C15.4557 13.6907 15.3393 13.7489 15.2229 13.7489C15.1976 13.6578 15.1572 13.6097 15.1015 13.6047C15.1015 13.6451 15.0914 13.6654 15.0711 13.6654L15.1015 13.7185V13.7489C15.1015 13.7691 15.0914 13.7792 15.0711 13.7792L15.1319 13.9007C15.0762 13.9007 15.0382 13.9285 15.018 13.9842L15.0711 14.1891C14.9952 14.2245 14.9573 14.2928 14.9573 14.394H15.018L14.9876 14.5458C15.0079 14.5458 15.018 14.5559 15.018 14.5762C14.9775 14.5914 14.9472 14.5989 14.9269 14.5989L14.9573 14.6597V14.69H14.8966V14.7811L14.9269 14.8342L14.8662 14.8646V14.8039C14.8308 14.814 14.8131 14.8342 14.8131 14.8646H14.8662C14.8662 14.981 14.8283 15.0392 14.7524 15.0392V15.0999H14.8358V15.1606L14.8131 15.2213H14.8662V15.3048L14.7827 15.2441C14.7827 15.3453 14.7321 15.3959 14.6309 15.3959V15.449L14.6916 15.4263C14.7321 15.4313 14.7524 15.449 14.7524 15.4794C14.7321 15.4794 14.722 15.4895 14.722 15.5097C14.7625 15.5148 14.7827 15.535 14.7827 15.5705V15.6008H14.7524L14.6916 15.5705C14.6714 15.6008 14.6613 15.6489 14.6613 15.7147H14.6006L14.5171 15.6615H14.4867C14.4867 15.7374 14.4665 15.7754 14.426 15.7754C14.3501 15.745 14.3121 15.7147 14.3121 15.6843C14.3121 15.6489 14.34 15.6312 14.3956 15.6312V15.5705C14.2944 15.5705 14.2362 15.5401 14.2211 15.4794V15.449C14.2818 15.449 14.3121 15.4313 14.3121 15.3959C14.2312 15.3959 14.1907 15.3655 14.1907 15.3048V15.2745C14.2008 15.239 14.2211 15.2213 14.2514 15.2213C14.2919 15.2213 14.3804 15.2795 14.5171 15.3959L14.5778 15.4263V15.3352L14.5171 15.3655C14.4412 15.2492 14.3729 15.191 14.3121 15.191L14.3425 15.1302H14.2818V15.0999C14.2818 15.0796 14.2919 15.0695 14.3121 15.0695L14.2818 15.0088V14.986H14.3121C14.3526 14.986 14.3729 15.0139 14.3729 15.0695H14.426L14.4563 14.9253L14.3121 14.9557C14.3121 14.9152 14.2919 14.895 14.2514 14.895C14.2514 14.9354 14.2312 14.9557 14.1907 14.9557V14.8039C14.2312 14.8241 14.2615 14.8342 14.2818 14.8342C14.2818 14.7988 14.3121 14.7811 14.3729 14.7811V14.7507L14.2211 14.7204C14.2211 14.6799 14.2717 14.6597 14.3729 14.6597V14.6293C14.3729 14.6091 14.3324 14.5812 14.2514 14.5458C14.2008 14.5509 14.1629 14.5989 14.1376 14.69C14.1932 14.69 14.2211 14.7103 14.2211 14.7507L14.1376 14.8039H14.1072C14.1072 14.7482 14.087 14.7204 14.0465 14.7204C14.0465 14.7001 14.0566 14.69 14.0768 14.69L14.0465 14.5458C14.0465 14.4244 14.0844 14.3637 14.1603 14.3637L14.1072 14.2802C14.1376 14.1992 14.1654 14.1587 14.1907 14.1587C14.2008 14.1992 14.2211 14.2194 14.2514 14.2194H14.3121C14.3526 14.2194 14.3729 14.1992 14.3729 14.1587V14.0449H14.3121V14.1587H14.2514C14.2109 14.1587 14.1907 14.1309 14.1907 14.0752H14.1376L14.1072 14.1891H14.0465V14.0752L14.1376 13.9538L14.1072 13.9007C14.2033 13.8754 14.2514 13.845 14.2514 13.8096C14.1907 13.8096 14.1603 13.7995 14.1603 13.7792C14.1806 13.7438 14.1907 13.716 14.1907 13.6957C14.1553 13.6957 14.1376 13.6755 14.1376 13.635C14.2337 13.5591 14.2818 13.5009 14.2818 13.4604H14.3425V13.5136H14.3956V13.4604C14.3551 13.4604 14.3273 13.42 14.3121 13.339C14.2717 13.339 14.2514 13.3188 14.2514 13.2783C14.2717 13.2429 14.2818 13.215 14.2818 13.1948C14.2615 13.1543 14.2514 13.124 14.2514 13.1037C14.2818 13.1037 14.3121 13.0759 14.3425 13.0202V12.9595L14.2818 12.9899C14.2818 12.9696 14.2717 12.9595 14.2514 12.9595C14.3121 12.7774 14.3425 12.661 14.3425 12.6104C14.3223 12.5699 14.3121 12.5395 14.3121 12.5193C14.3627 12.3624 14.4108 12.284 14.4563 12.284L14.4867 12.3447C14.4361 12.4206 14.3982 12.4586 14.3729 12.4586V12.5497C14.3779 12.5901 14.3956 12.6104 14.426 12.6104C14.426 12.4535 14.5145 12.3751 14.6916 12.3751C14.6916 12.3447 14.6436 12.3042 14.5474 12.2536C14.5474 12.1879 14.5753 12.1094 14.6309 12.0184L14.6006 11.9576C14.641 11.9425 14.6714 11.9349 14.6916 11.9349L14.5474 11.8134L14.6006 11.7831L14.5778 11.4946V11.4339L14.7524 11.229L14.8131 11.2594C14.8485 11.2594 14.8662 11.2391 14.8662 11.1986C14.7498 11.1784 14.6916 11.148 14.6916 11.1076C14.7372 11.0721 14.7777 11.0544 14.8131 11.0544C14.7928 11.0291 14.7827 10.9785 14.7827 10.9026C14.8586 10.8824 14.8966 10.8343 14.8966 10.7584C14.8561 10.7584 14.8358 10.7382 14.8358 10.6977V10.6673H14.8662L14.9269 10.6977C14.9269 10.6319 14.937 10.5838 14.9573 10.5535C14.9168 10.5535 14.8966 10.5332 14.8966 10.4928L14.9269 10.4321L14.8966 10.3789C14.8966 10.2777 14.9269 10.2271 14.9876 10.2271L14.9573 10.174V10.1436C15.0332 10.0728 15.0711 9.99436 15.0711 9.90834H15.018V9.87798L15.1622 9.76413C15.142 9.72365 15.1319 9.69329 15.1319 9.67305C15.1622 9.67305 15.1926 9.62498 15.2229 9.52884L15.1926 9.46812C15.2128 9.4074 15.2305 9.37704 15.2457 9.37704L15.2229 9.32391V9.29355C15.2584 9.29355 15.2761 9.28343 15.2761 9.26319V9.17211H15.3064V9.05827C15.2305 9.05827 15.1926 9.03803 15.1926 8.99755V8.96719H15.2457L15.3368 9.02791V8.99755L15.3064 8.93683C15.3469 8.86093 15.3671 8.79262 15.3671 8.7319C15.3267 8.7319 15.3064 8.71419 15.3064 8.67877V8.64841C15.4127 8.64841 15.5316 8.5801 15.6632 8.44348H15.6024L15.5114 8.49661H15.4279V8.44348L15.6024 8.23855H15.5114V8.32204H15.3671V8.23855C15.3773 8.17783 15.4557 8.14747 15.6024 8.14747V8.11711C15.562 8.11711 15.5417 8.10699 15.5417 8.08675L15.481 8.11711H15.4279V8.05639C15.5442 8.02097 15.6024 7.9729 15.6024 7.91218ZM15.2457 8.46625V8.49661C15.2457 8.53709 15.228 8.55733 15.1926 8.55733H15.1622C15.1622 8.52697 15.19 8.49661 15.2457 8.46625ZM16.073 8.49661H16.1261V8.52697C16.1261 8.56745 16.1084 8.58769 16.073 8.58769V8.49661ZM15.9516 8.76226H15.9819V8.79262C15.9819 8.8331 15.9617 8.85334 15.9212 8.85334L15.8984 8.79262L15.9516 8.76226ZM16.0123 8.96719H16.0427C16.0224 9.00261 16.0123 9.04309 16.0123 9.08863H15.9819C15.9415 9.08863 15.9212 9.06839 15.9212 9.02791L16.0123 8.96719ZM15.777 9.05827V9.14175C15.7972 9.18223 15.8074 9.21259 15.8074 9.23283H15.8681V9.20247C15.8276 9.15187 15.8074 9.10381 15.8074 9.05827H15.777ZM15.0711 9.08863H15.1622C15.2027 9.09369 15.2229 9.1114 15.2229 9.14175V9.17211H15.1319C15.0914 9.17211 15.0711 9.15187 15.0711 9.1114V9.08863ZM16.073 9.1114L16.1034 9.17211L16.0427 9.20247L16.0123 9.14175L16.073 9.1114ZM15.777 9.70341V9.73377H15.8984V9.67305C15.863 9.69329 15.8225 9.70341 15.777 9.70341ZM15.7466 9.7869L15.7163 9.84762H15.8074C15.8074 9.80714 15.7871 9.7869 15.7466 9.7869ZM15.7163 9.90834L15.6632 9.99183C15.6783 9.99183 15.6859 10.002 15.6859 10.0222L15.8681 9.99183V9.9387L15.7163 9.90834ZM15.8377 10.0222L15.8074 10.0829V10.1133L15.8681 10.0829H15.8984L16.0123 10.174V10.1436C15.9718 10.0627 15.9136 10.0222 15.8377 10.0222ZM15.6859 10.1133C15.7264 10.1588 15.7466 10.1968 15.7466 10.2271H15.777C15.8175 10.2271 15.8377 10.2094 15.8377 10.174C15.7972 10.174 15.777 10.1538 15.777 10.1133H15.6859ZM15.8984 10.2044V10.2271L16.0427 10.2575C16.0427 10.2221 16.0123 10.2044 15.9516 10.2044H15.8984ZM15.6632 10.2575V10.2878C15.7138 10.384 15.7517 10.4321 15.777 10.4321C15.777 10.3865 15.8175 10.3587 15.8984 10.3486V10.3182C15.8428 10.3182 15.7644 10.298 15.6632 10.2575ZM15.6024 10.4093V10.4624C15.6075 10.5029 15.6277 10.5231 15.6632 10.5231C15.6986 10.5029 15.7264 10.4928 15.7466 10.4928C15.7466 10.4675 15.7188 10.4396 15.6632 10.4093H15.6024ZM15.777 10.4624C15.7821 10.5029 15.8023 10.5231 15.8377 10.5231H15.8681C15.8681 10.4827 15.8478 10.4624 15.8074 10.4624H15.777ZM15.6859 10.5838C15.6859 10.6142 15.6682 10.6522 15.6328 10.6977C15.6682 10.6977 15.6859 10.7078 15.6859 10.7281C15.6505 10.8546 15.6328 10.9229 15.6328 10.933H15.6632L15.7466 10.8723C15.7669 10.9127 15.777 10.9431 15.777 10.9633H15.8074C15.8074 10.9431 15.8175 10.9127 15.8377 10.8723C15.7972 10.8723 15.7669 10.8141 15.7466 10.6977H15.777C15.7568 10.6623 15.7466 10.6243 15.7466 10.5838H15.6859ZM15.0408 10.7281V10.8191H15.1015V10.7281H15.0408ZM15.6024 11.1379V11.1683H15.7163L15.6859 11.1076C15.6505 11.1278 15.6227 11.1379 15.6024 11.1379ZM15.481 11.3428V11.3732C15.481 11.3934 15.4911 11.4036 15.5114 11.4036L15.481 11.4643C15.5012 11.4997 15.5114 11.5275 15.5114 11.5478H15.5721L15.5417 11.4036C15.5822 11.4036 15.6024 11.3833 15.6024 11.3428H15.481ZM14.6309 11.4339V11.5174C14.6714 11.5174 14.6916 11.4997 14.6916 11.4643V11.4339H14.6309ZM15.4279 11.6692L15.4582 11.8134C15.438 11.8741 15.4279 11.9323 15.4279 11.988H15.4582V12.0487C15.3975 12.1044 15.3368 12.2132 15.2761 12.3751L15.3368 12.3979H15.3671V12.284L15.4582 12.3447H15.481L15.4582 12.284C15.4582 12.2536 15.4861 12.2233 15.5417 12.1929V12.2233C15.5215 12.2587 15.5114 12.2992 15.5114 12.3447L15.5721 12.3751C15.5721 12.2739 15.5923 12.2233 15.6328 12.2233C15.6328 12.1676 15.5923 12.1398 15.5114 12.1398V12.1094C15.5164 12.069 15.5367 12.0487 15.5721 12.0487C15.6075 12.069 15.6454 12.0791 15.6859 12.0791V12.0184L15.5114 11.988V11.9576C15.5114 11.9475 15.5518 11.8994 15.6328 11.8134V11.7831C15.5873 11.7831 15.5569 11.7249 15.5417 11.6085H15.5114L15.4279 11.6692ZM15.6632 11.8134H15.777V11.7527H15.7163C15.6809 11.7628 15.6632 11.7831 15.6632 11.8134ZM15.6024 11.9576H15.6328C15.6682 11.9576 15.6859 11.9399 15.6859 11.9045V11.8741C15.6606 11.8741 15.6328 11.902 15.6024 11.9576ZM14.6613 12.0184V12.1398C14.7018 12.1398 14.722 12.1196 14.722 12.0791V12.0184H14.6613ZM15.7163 12.1094V12.1929H15.777V12.1094H15.7163ZM14.8358 12.1929L14.8966 12.2233V12.1398C14.8561 12.1449 14.8358 12.1626 14.8358 12.1929ZM15.3975 12.1398H15.481V12.1929H15.4582C15.4177 12.1929 15.3975 12.1752 15.3975 12.1398ZM14.7524 12.2233C14.7524 12.2536 14.7802 12.284 14.8358 12.3144H14.8662V12.284C14.8662 12.2435 14.8485 12.2233 14.8131 12.2233H14.7524ZM14.8966 12.58V12.6104C14.9016 12.6458 14.9219 12.6635 14.9573 12.6635V12.58H14.8966ZM14.6916 12.6635V12.6939H14.722C14.7675 12.6534 14.8055 12.6331 14.8358 12.6331V12.6104H14.7524C14.7119 12.6154 14.6916 12.6331 14.6916 12.6635ZM14.6916 12.8684H14.8131V12.8153H14.7524C14.7119 12.8204 14.6916 12.8381 14.6916 12.8684ZM15.2761 12.8153V12.8988C15.357 12.8988 15.3975 12.9292 15.3975 12.9899C15.438 12.9899 15.4582 12.9696 15.4582 12.9292V12.8684C15.4279 12.8684 15.3874 12.8507 15.3368 12.8153H15.2761ZM15.1926 12.9899V13.043C15.228 13.043 15.2457 13.0531 15.2457 13.0734C15.3267 13.0481 15.3671 13.0202 15.3671 12.9899C15.3064 12.9899 15.2761 12.9798 15.2761 12.9595C15.2406 12.9798 15.2128 12.9899 15.1926 12.9899ZM14.722 13.0202V13.043C14.7422 13.043 14.7726 13.0531 14.8131 13.0734H14.8358V13.043C14.8156 13.043 14.7878 13.0354 14.7524 13.0202H14.722ZM14.6309 13.1037V13.1644H14.6916V13.043C14.6512 13.0531 14.6309 13.0734 14.6309 13.1037ZM15.1926 13.1037V13.1644H15.2761V13.1037H15.1926ZM14.3425 13.1948V13.2783H14.3956V13.2555C14.3956 13.215 14.3779 13.1948 14.3425 13.1948ZM15.2229 13.4604H15.2457C15.2862 13.4604 15.3064 13.4402 15.3064 13.3997H15.2761C15.2406 13.4048 15.2229 13.425 15.2229 13.4604ZM15.1015 13.4832C15.1217 13.5237 15.1319 13.5541 15.1319 13.5743H15.1926L15.1622 13.4301C15.1217 13.4351 15.1015 13.4529 15.1015 13.4832ZM14.1907 13.635C14.2008 13.6755 14.2211 13.6957 14.2514 13.6957H14.2818C14.2818 13.6553 14.2615 13.635 14.2211 13.635H14.1907ZM15.2229 13.7792L15.2457 13.8399L15.1926 13.8703H15.1622V13.8399C15.1673 13.7995 15.1875 13.7792 15.2229 13.7792ZM14.3425 13.8399V13.9007H14.426V13.8399H14.3425ZM15.4582 13.9842H15.481V14.0449C15.4253 14.0449 15.3975 14.0651 15.3975 14.1056C15.438 14.1107 15.4582 14.1284 15.4582 14.1587L15.3975 14.1891C15.4177 14.2296 15.4279 14.2599 15.4279 14.2802C15.4076 14.3156 15.3975 14.3434 15.3975 14.3637H15.3671L15.3064 14.3409C15.3064 14.3662 15.2786 14.394 15.2229 14.4244H15.1926C15.1926 14.3282 15.1723 14.2802 15.1319 14.2802C15.1319 14.3206 15.1116 14.3409 15.0711 14.3409V14.3105C15.0762 14.2498 15.1546 14.1916 15.3064 14.136C15.3064 14.0702 15.357 14.0196 15.4582 13.9842ZM14.5171 14.1056L14.4563 14.1891L14.5171 14.2194H14.5474C14.5474 14.1992 14.5575 14.1714 14.5778 14.136L14.5171 14.1056ZM14.722 14.1587L14.6916 14.2194C14.7321 14.1992 14.7625 14.1891 14.7827 14.1891V14.1587H14.722ZM14.3729 14.4851V14.5458H14.426C14.426 14.4851 14.4462 14.4547 14.4867 14.4547C14.5221 14.475 14.5601 14.4851 14.6006 14.4851C14.5854 14.4446 14.5778 14.4143 14.5778 14.394H14.4867C14.4361 14.4547 14.3982 14.4851 14.3729 14.4851ZM14.1072 14.5458V14.5989H14.1376L14.1603 14.4547C14.1249 14.4547 14.1072 14.4851 14.1072 14.5458ZM15.2761 14.4244C15.3671 14.4649 15.4177 14.5053 15.4279 14.5458L15.3671 14.5762C15.3671 14.5357 15.3469 14.5155 15.3064 14.5155H15.2761C15.2761 14.5559 15.2482 14.5762 15.1926 14.5762V14.6293L15.3975 14.5989L15.4279 14.6597C15.3924 14.6597 15.3241 14.728 15.2229 14.8646C15.1774 14.8646 15.1369 14.8747 15.1015 14.895L15.0711 14.8342C15.0914 14.7381 15.1319 14.69 15.1926 14.69L15.1319 14.5989V14.5762C15.1319 14.5458 15.1799 14.4952 15.2761 14.4244ZM14.6309 14.5155V14.5458C14.641 14.5812 14.6613 14.5989 14.6916 14.5989V14.5762C14.6916 14.5357 14.6714 14.5155 14.6309 14.5155ZM15.1926 14.7204L15.1622 14.7811H15.2457C15.2457 14.7406 15.228 14.7204 15.1926 14.7204ZM14.6006 14.8646C14.6107 14.9051 14.6309 14.9253 14.6613 14.9253H14.6916C14.6916 14.8848 14.6714 14.8646 14.6309 14.8646H14.6006ZM15.3368 14.8646H15.3671V14.9557H15.3368C15.2963 14.9557 15.2761 14.9354 15.2761 14.895L15.3368 14.8646ZM15.1926 14.895L15.2229 14.9557L15.1926 15.0088H15.2457C15.2457 15.0493 15.228 15.0695 15.1926 15.0695C15.1319 15.0493 15.1015 15.029 15.1015 15.0088C15.1319 14.9329 15.1622 14.895 15.1926 14.895ZM14.5778 14.9557C14.5778 14.9911 14.5575 15.0088 14.5171 15.0088V15.0392H14.5778L14.6309 14.9557H14.5778ZM14.3956 15.1302C14.4057 15.1707 14.426 15.191 14.4563 15.191H14.4867V15.1302H14.3956ZM14.6309 15.2213L14.6916 15.2441L14.722 15.191V15.1606H14.6916C14.6512 15.1657 14.6309 15.1859 14.6309 15.2213ZM14.4867 15.2213V15.2745H14.5778V15.2213H14.4867Z" fill="white"/>
<path d="M11.5764 1.77695C11.5088 1.77722 11.4411 1.77749 11.3714 1.77777C10.8101 1.78498 10.2751 1.83722 9.72772 1.96043C9.66236 1.97513 9.66236 1.97513 9.59568 1.99013C7.53501 2.46834 5.57277 3.55983 4.29935 5.28392C4.23702 5.36468 4.23702 5.36468 4.17342 5.44707C3.32084 6.57225 2.82446 7.84805 2.52683 9.21672C2.51647 9.26199 2.50612 9.30726 2.49545 9.3539C2.4001 9.81147 2.38921 10.2676 2.38835 10.7331C2.38824 10.7752 2.38813 10.8174 2.38801 10.8609C2.39227 13.2639 3.36529 15.4638 5.04368 17.1637C6.46159 18.5643 8.48991 19.5867 10.5205 19.5888C10.6256 19.5854 10.7306 19.5813 10.8355 19.5749C10.8482 19.6049 10.8608 19.6349 10.8738 19.6658C11.3017 20.4373 12.1712 21.0131 12.9924 21.2747C13.0855 21.3002 13.179 21.3244 13.2728 21.3474C13.3416 21.3646 13.3416 21.3646 13.4119 21.3821C13.8789 21.4826 14.5651 21.5935 15.0072 21.3682C15.2218 21.1786 15.3032 21.019 15.35 20.7381C15.3131 20.517 15.2037 20.389 15.0453 20.2396C14.9776 20.1931 14.9776 20.1931 14.9086 20.1457C14.7266 19.9801 14.6665 19.8166 14.5849 19.5888C14.563 19.5308 14.563 19.5308 14.5406 19.4717C14.505 19.3771 14.4704 19.2822 14.436 19.1872C14.4988 19.1838 14.5617 19.1803 14.6264 19.1768C16.2439 18.9837 17.8589 18.0071 18.8673 16.75C20.101 15.1377 20.6229 13.0719 20.6121 11.0654C20.6121 11.0172 20.612 10.9691 20.6119 10.9195C20.6087 10.1213 20.5354 9.37593 20.3075 8.60741C20.295 8.56315 20.2826 8.51889 20.2698 8.47329C19.8858 7.12491 19.184 5.84603 18.2026 4.84079C18.1411 4.76839 18.0799 4.6957 18.0191 4.62269C17.4913 4.02275 16.8699 3.56425 16.2085 3.12365C16.156 3.08781 16.1034 3.05197 16.0493 3.01503C14.7577 2.19626 13.0963 1.76962 11.5764 1.77695ZM13.2174 2.62513C13.3018 2.64312 13.3018 2.64312 13.3879 2.66148C15.6075 3.16 17.4963 4.66064 18.7011 6.55793C19.5093 7.89956 19.9461 9.35079 19.9336 10.92C19.9334 10.9591 19.9332 10.9981 19.933 11.0384C19.9297 11.6188 19.9179 12.1899 19.809 12.7618C19.8003 12.8078 19.7917 12.8538 19.7828 12.9012C19.5274 14.217 19.0963 15.4519 18.2026 16.473C18.1693 16.5142 18.1361 16.5554 18.1018 16.5978C17.1055 17.7963 15.4894 18.4198 13.9929 18.6887C13.8333 18.6984 13.8333 18.6984 13.7159 18.6887C14.0074 20.1987 14.0074 20.1987 14.6022 20.7935C13.6863 20.8443 12.782 20.6427 12.0736 20.0296C11.739 19.726 11.4269 19.3919 11.1679 19.021C11.1679 18.9844 11.1679 18.9479 11.1679 18.9102C11.0987 18.9134 11.0295 18.9167 10.9582 18.92C8.94389 18.9838 7.1094 18.1705 5.64649 16.8157C5.60408 16.7757 5.56167 16.7358 5.51797 16.6946C5.47784 16.658 5.43771 16.6214 5.39636 16.5838C4.20621 15.4576 3.46524 13.8651 3.19152 12.2632C3.18024 12.2068 3.16896 12.1503 3.15734 12.0921C2.79311 10.034 3.32999 7.84962 4.49084 6.12778C4.60634 5.97 4.72582 5.81989 4.85327 5.67166C4.89225 5.62575 4.93124 5.57984 4.97141 5.53253C5.09523 5.39119 5.22263 5.25422 5.35179 5.11775C5.42312 5.0401 5.42312 5.0401 5.4959 4.96088C6.25549 4.15222 7.18268 3.59952 8.17676 3.12365C8.23957 3.09342 8.23957 3.09342 8.30366 3.06258C8.59418 2.92769 8.88416 2.83428 9.19458 2.75669C9.24067 2.74492 9.28677 2.73316 9.33426 2.72104C9.66633 2.63756 9.99741 2.56027 10.337 2.51435C10.3824 2.50821 10.4278 2.50207 10.4746 2.49574C11.3913 2.39771 12.3208 2.40605 13.2174 2.62513Z" fill="#F7F7F8"/>
<defs>
<linearGradient id="paint0_linear_4378_130893" x1="11.4305" y1="1.5" x2="11.4305" y2="20.879" gradientUnits="userSpaceOnUse">
<stop stop-color="#005CC9"/>
<stop offset="1" stop-color="#01274C"/>
</linearGradient>
</defs>
</svg>
