<svg width="16" height="16" viewBox="0 0 16 16" fill="none" xmlns="http://www.w3.org/2000/svg">
<path d="M5.00073 4.05682C3.3237 4.92245 2.26213 6.36485 1.73461 7.24447C1.4531 7.71388 1.4531 8.2862 1.73461 8.75561C2.5268 10.0766 4.5234 12.6667 8.00008 12.6667C9.74186 12.6667 11.1121 12.0166 12.1456 11.2017L9.80551 8.8616C9.48362 9.53492 8.79617 10 8.00008 10C6.89551 10 6.00008 9.10461 6.00008 8.00004C6.00008 7.20395 6.46521 6.5165 7.13852 6.19461L5.00073 4.05682Z" fill="#0F2423"/>
<path d="M13.1216 10.292C13.633 9.73422 14.0113 9.17955 14.2656 8.75561C14.5471 8.2862 14.5471 7.71388 14.2656 7.24447C13.4734 5.92351 11.4768 3.33337 8.00008 3.33337C7.41355 3.33337 6.86914 3.40709 6.36553 3.536L13.1216 10.292Z" fill="#0F2423"/>
<path fill-rule="evenodd" clip-rule="evenodd" d="M1.52864 1.52864C1.78899 1.26829 2.2111 1.26829 2.47145 1.52864L14.4714 13.5286C14.7318 13.789 14.7318 14.2111 14.4714 14.4714C14.2111 14.7318 13.789 14.7318 13.5286 14.4714L1.52864 2.47145C1.26829 2.2111 1.26829 1.78899 1.52864 1.52864Z" fill="#0F2423"/>
</svg>
