<svg width="18" height="18" viewBox="0 0 18 18" fill="none" xmlns="http://www.w3.org/2000/svg">
<path fill-rule="evenodd" clip-rule="evenodd" d="M4.70429 3.32415C3.70267 3.57455 3 4.47452 3 5.50697V15.0002H2.25C1.83579 15.0002 1.5 15.336 1.5 15.7502C1.5 16.1645 1.83579 16.5002 2.25 16.5002H15.75C16.1642 16.5002 16.5 16.1645 16.5 15.7502C16.5 15.336 16.1642 15.0002 15.75 15.0002H15V8.25024C15 7.0076 13.9926 6.00024 12.75 6.00024H12V4.38197C12 2.91818 10.6244 1.84413 9.2043 2.19915L4.70429 3.32415ZM13.5 8.25024V15.0002H12V7.50024H12.75C13.1642 7.50024 13.5 7.83603 13.5 8.25024ZM6.75 12.0002C6.33579 12.0002 6 12.336 6 12.7502C6 13.1645 6.33579 13.5002 6.75 13.5002H8.25C8.66421 13.5002 9 13.1645 9 12.7502C9 12.336 8.66421 12.0002 8.25 12.0002H6.75ZM6 9.75024C6 9.33603 6.33579 9.00024 6.75 9.00024H8.25C8.66421 9.00024 9 9.33603 9 9.75024C9 10.1645 8.66421 10.5002 8.25 10.5002H6.75C6.33579 10.5002 6 10.1645 6 9.75024ZM6.75 6.00024C6.33579 6.00024 6 6.33603 6 6.75024C6 7.16446 6.33579 7.50024 6.75 7.50024H8.25C8.66421 7.50024 9 7.16446 9 6.75024C9 6.33603 8.66421 6.00024 8.25 6.00024H6.75Z" fill="#3D3D3D"/>
</svg>
