<svg width="61" height="62" viewBox="0 0 61 62" fill="none" xmlns="http://www.w3.org/2000/svg">
<rect y="0.5" width="61" height="61" rx="30.5" fill="#F7F7F7"/>
<path d="M27.6875 20.5938C26.6002 20.5938 25.7188 21.4752 25.7188 22.5625V27.0625C25.7188 28.1498 26.6002 29.0313 27.6875 29.0313H29.656V35.2188H27.1246C27.0262 35.2188 26.9316 35.2357 26.8438 35.2667V34.9377C26.8438 33.8504 25.9623 32.9689 24.875 32.9689H19.25C18.1627 32.9689 17.2812 33.8504 17.2812 34.9377V39.4377C17.2812 40.525 18.1627 41.4064 19.25 41.4064H24.875C25.9623 41.4064 26.8438 40.525 26.8438 39.4377V36.8585C26.9316 36.8895 27.0262 36.9063 27.1246 36.9063H34.1562V39.4377C34.1562 40.525 35.0377 41.4064 36.125 41.4064H41.75C42.8373 41.4064 43.7187 40.525 43.7187 39.4377V34.9377C43.7187 33.8504 42.8373 32.9689 41.75 32.9689H36.125C35.0377 32.9689 34.1562 33.8504 34.1562 34.9377V35.2188H31.3435V29.0313H33.3125C34.3998 29.0313 35.2812 28.1498 35.2812 27.0625V22.5625C35.2812 21.4752 34.3998 20.5938 33.3125 20.5938H27.6875Z" fill="#2F7267"/>
</svg>
