<svg width="20" height="19" viewBox="0 0 20 19" fill="none" xmlns="http://www.w3.org/2000/svg">
<path d="M8.05578 2.07914C8.6338 1.70125 9.30942 1.5 10 1.5C10.6906 1.5 11.3662 1.70125 11.9443 2.07914L19.6274 7.10176C19.7255 7.16589 19.8062 7.25329 19.8623 7.35617C19.9185 7.45905 19.9483 7.57422 19.9491 7.69141C19.95 7.80861 19.9218 7.92419 19.8672 8.02787C19.8125 8.13155 19.7331 8.2201 19.6359 8.28564L11.9926 13.4589C11.4046 13.857 10.7108 14.0697 10.0007 14.0697C9.29065 14.0697 8.59687 13.857 8.00887 13.4589L1.47265 9.03747V13.5243C1.47265 13.7128 1.39778 13.8935 1.26452 14.0268C1.13125 14.16 0.950505 14.2349 0.762039 14.2349C0.573572 14.2349 0.392825 14.16 0.259559 14.0268C0.126293 13.8935 0.0514251 13.7128 0.0514251 13.5243V7.83938L0.0542675 7.76831C0.0414047 7.63893 0.0642857 7.5085 0.120419 7.39122C0.176552 7.27394 0.263786 7.17431 0.372622 7.10318L8.05578 2.07914ZM2.89388 14.9441V11.7136L7.21157 14.6371C8.03474 15.1943 9.00598 15.4922 10 15.4922C10.9941 15.4922 11.9653 15.1943 12.7885 14.6371L17.1061 11.7136V14.9455C17.1062 15.1142 17.0463 15.2774 16.937 15.406L16.9356 15.4088L16.9328 15.4117L16.9242 15.4216L16.8958 15.4529L16.7992 15.5581C16.6824 15.68 16.562 15.7985 16.4382 15.9134C16.1255 16.2019 15.6664 16.5828 15.0752 16.9651C13.8956 17.7269 12.1631 18.5 10.0014 18.5C7.83691 18.5 6.10585 17.7269 4.92481 16.9651C4.44096 16.6545 3.98493 16.3027 3.56186 15.9134C3.40238 15.7669 3.24967 15.6133 3.10422 15.4529L3.0758 15.4216L3.06727 15.4117L3.06443 15.4088L3.60449 14.9469C3.063 15.406 3.06443 15.4074 3.06443 15.4074C2.95435 15.2787 2.89387 15.1149 2.89388 14.9455" fill="#249B9B"/>
</svg>
