<svg width="62" height="62" viewBox="0 0 62 62" fill="none" xmlns="http://www.w3.org/2000/svg">
  <rect x="0.5" y="0.75" width="61" height="61" rx="30.5" fill="#F7F7F7" />
  <path
    d="M28.1875 20.8438C27.1002 20.8438 26.2188 21.7252 26.2188 22.8125V27.3125C26.2188 28.3998 27.1002 29.2813 28.1875 29.2813H30.156V35.4688H27.6246C27.5262 35.4688 27.4316 35.4857 27.3438 35.5167V35.1877C27.3438 34.1004 26.4623 33.2189 25.375 33.2189H19.75C18.6627 33.2189 17.7812 34.1004 17.7812 35.1877V39.6877C17.7812 40.775 18.6627 41.6564 19.75 41.6564H25.375C26.4623 41.6564 27.3438 40.775 27.3438 39.6877V37.1085C27.4316 37.1395 27.5262 37.1563 27.6246 37.1563H34.6562V39.6877C34.6562 40.775 35.5377 41.6564 36.625 41.6564H42.25C43.3373 41.6564 44.2187 40.775 44.2187 39.6877V35.1877C44.2187 34.1004 43.3373 33.2189 42.25 33.2189H36.625C35.5377 33.2189 34.6562 34.1004 34.6562 35.1877V35.4688H31.8435V29.2813H33.8125C34.8998 29.2813 35.7812 28.3998 35.7812 27.3125V22.8125C35.7812 21.7252 34.8998 20.8438 33.8125 20.8438H28.1875Z"
    fill="#2F7267" />
</svg>