<svg width="29" height="29" viewBox="0 0 29 29" fill="none" xmlns="http://www.w3.org/2000/svg">
<path d="M4.54883 14.4844C4.54883 14.8952 4.87385 15.1435 5.27629 15.1435C5.52462 15.1435 5.72146 15.0238 5.89274 14.8525L14.2465 7.24332C14.3404 7.1491 14.4434 7.11478 14.5544 7.11478C14.6574 7.11478 14.7516 7.1491 14.8538 7.24332L23.1992 14.8525C23.3789 15.0238 23.5758 15.1435 23.8157 15.1435C24.2178 15.1435 24.5431 14.8952 24.5431 14.4844C24.5431 14.2276 24.4489 14.0651 24.2864 13.9194L21.3247 11.2236V6.16491C21.3247 5.78839 21.0851 5.54883 20.7086 5.54883H19.5875C19.2194 5.54883 18.9626 5.78839 18.9626 6.16491V9.07513L15.5729 5.97647C15.2735 5.69417 14.9053 5.55759 14.546 5.55759C14.1863 5.55759 13.8269 5.69454 13.5187 5.97683L4.80556 13.9194C4.65145 14.0651 4.54883 14.2276 4.54883 14.4844ZM6.99672 21.6655C6.99672 22.8553 7.71578 23.5488 8.92238 23.5488H12.3892V17.4629C12.3892 17.0692 12.6543 16.8128 13.048 16.8128H16.0696C16.4633 16.8128 16.72 17.0692 16.72 17.4629V23.5488H20.178C21.3846 23.5488 22.0953 22.8553 22.0953 21.6655V15.4003L14.8283 8.85236C14.7341 8.76691 14.6314 8.72418 14.5288 8.72418C14.4346 8.72418 14.3404 8.76691 14.2378 8.86113L6.99672 15.443V21.6655Z" fill="white"/>
</svg>
