<svg width="75" height="54" viewBox="0 0 75 54" fill="none" xmlns="http://www.w3.org/2000/svg">
<path d="M25.1818 3.89936C25.2265 3.63113 25.4586 3.43457 25.7306 3.43457H31.8776C32.1504 3.43457 32.3829 3.63231 32.4268 3.90153L37.6712 36.104C37.7263 36.4425 37.465 36.7498 37.122 36.7498H32.9314C32.7074 36.7498 32.5174 36.5852 32.4855 36.3635L31.6019 30.2223C31.6008 30.2145 31.5892 30.2153 31.5892 30.2232C31.5892 30.2267 31.5864 30.2295 31.5829 30.2295H26.1113C25.8394 30.2295 25.6073 30.4261 25.5625 30.6944L21.9838 52.1421C21.9391 52.4104 21.707 52.607 21.435 52.607H17.7087C17.3648 52.607 17.1033 52.2981 17.1599 51.959L25.1818 3.89936ZM30.3298 25.7082C30.6681 25.7082 30.9281 25.4088 30.8807 25.0738L28.6451 9.288C28.6413 9.26101 28.6182 9.24094 28.5909 9.24094C28.5636 9.24094 28.5405 9.26109 28.5367 9.28815L26.3466 25.0753C26.3002 25.4098 26.56 25.7082 26.8977 25.7082H30.3298Z" fill="#3D8F80"/>
<path d="M41.413 3.99096C41.413 3.68368 41.6621 3.43457 41.9694 3.43457H46.0918C46.3991 3.43457 46.6482 3.68368 46.6482 3.99096V31.4341C46.6482 31.7414 46.8973 31.9905 47.2046 31.9905H54.7062C55.0135 31.9905 55.2626 32.2396 55.2626 32.5469V36.1934C55.2626 36.5007 55.0135 36.7498 54.7062 36.7498H41.9694C41.6621 36.7498 41.413 36.5007 41.413 36.1934V3.99096Z" fill="#3D8F80"/>
<path d="M57.7665 3.99096C57.7665 3.68368 58.0156 3.43457 58.3229 3.43457H62.4453C62.7526 3.43457 63.0017 3.68368 63.0017 3.99096V31.4341C63.0017 31.7414 63.2508 31.9905 63.5581 31.9905H71.0597C71.367 31.9905 71.6161 32.2396 71.6161 32.5469V36.1934C71.6161 36.5007 71.367 36.7498 71.0597 36.7498H58.3229C58.0156 36.7498 57.7665 36.5007 57.7665 36.1934V3.99096Z" fill="#3D8F80"/>
<path d="M33.6456 44.5674C33.544 44.5674 33.4537 44.5335 33.3747 44.4658C33.3069 44.3868 33.2731 44.2965 33.2731 44.1949L33.8995 40.0974C33.9221 39.9393 33.9898 39.7926 34.1027 39.6571C34.2269 39.5104 34.4019 39.437 34.6276 39.437H37.3367C37.4383 39.437 37.523 39.4765 37.5907 39.5555C37.6697 39.6233 37.7092 39.7079 37.7092 39.8095C37.7092 39.8547 37.7036 39.8942 37.6923 39.928L36.0838 44.0255C36.0386 44.1384 35.9596 44.2569 35.8467 44.3811C35.7451 44.5053 35.5814 44.5674 35.3557 44.5674H33.6456ZM28.2055 44.5674C28.1039 44.5674 28.0136 44.5335 27.9346 44.4658C27.8669 44.3868 27.833 44.2965 27.833 44.1949L28.4595 40.0974C28.4821 39.9393 28.5498 39.7926 28.6627 39.6571C28.7868 39.5104 28.9618 39.437 29.1876 39.437H31.8967C31.9982 39.437 32.0829 39.4765 32.1506 39.5555C32.2296 39.6233 32.2692 39.7079 32.2692 39.8095C32.2692 39.8547 32.2635 39.8942 32.2522 39.928L30.6437 44.0255C30.5985 44.1384 30.5195 44.2569 30.4067 44.3811C30.3051 44.5053 30.1414 44.5674 29.9156 44.5674H28.2055Z" fill="#3D8F80"/>
<path d="M48.9305 43.0604L43.3091 43.0774C43.1849 43.0774 43.0777 43.0322 42.9874 42.9419C42.8971 42.8516 42.8519 42.7444 42.8519 42.6202V40.4021C42.8519 40.278 42.8971 40.1707 42.9874 40.0804C43.0777 39.9901 43.1849 39.945 43.3091 39.945H49.54C50.3302 39.945 51.0413 40.0804 51.6734 40.3513C52.3056 40.611 52.8022 41.0455 53.1634 41.6551C53.5359 42.2533 53.7222 43.0604 53.7222 44.0763V49.1559C53.7222 49.2801 53.677 49.3873 53.5867 49.4776C53.4964 49.5679 53.3892 49.6131 53.265 49.6131H48.4903C48.3661 49.6131 48.2589 49.5679 48.1685 49.4776C48.0782 49.3873 48.0331 49.2801 48.0331 49.1559V47.1071C48.0331 46.983 48.0782 46.8757 48.1685 46.7854C48.2589 46.6951 48.3661 46.65 48.4903 46.65H49.9464V44.2457C49.9464 43.9635 49.9012 43.7377 49.8109 43.5684C49.7319 43.3878 49.6134 43.258 49.4554 43.179C49.3086 43.0999 49.1337 43.0604 48.9305 43.0604ZM43.1906 49.6131C43.0664 49.6131 42.9479 49.5679 42.835 49.4776C42.7334 49.3873 42.6996 49.2801 42.7334 49.1559L44.816 42.2646C44.8499 42.1405 44.9007 42.0332 44.9684 41.9429C45.0474 41.8526 45.149 41.8075 45.2732 41.8075H47.6606C47.7848 41.8075 47.8976 41.8696 47.9992 41.9937C48.1121 42.1066 48.1516 42.2251 48.1178 42.3493L46.4076 49.1559C46.4076 49.2801 46.3625 49.3873 46.2722 49.4776C46.1819 49.5679 46.0746 49.6131 45.9505 49.6131H43.1906Z" fill="#3D8F80"/>
<path d="M66.9341 49.6131C66.7197 49.6131 66.556 49.5623 66.4431 49.4607C66.3415 49.3478 66.2738 49.2688 66.2399 49.2236L60.263 40.5037C60.2291 40.4586 60.2122 40.3965 60.2122 40.3175C60.2122 40.2159 60.246 40.1312 60.3138 40.0635C60.3928 39.9845 60.4831 39.945 60.5847 39.945H63.4123C63.6381 39.945 63.8017 40.0014 63.9033 40.1143C64.0049 40.2272 64.0783 40.3118 64.1234 40.3683L70.2189 49.0543C70.2528 49.0995 70.2697 49.139 70.2697 49.1728C70.2697 49.1954 70.2697 49.218 70.2697 49.2406C70.2697 49.3422 70.2302 49.4325 70.1512 49.5115C70.0835 49.5792 69.9988 49.6131 69.8972 49.6131H66.9341ZM60.7032 49.6131C60.579 49.6131 60.4718 49.5623 60.3815 49.4607C60.2912 49.3591 60.246 49.2462 60.246 49.122V47.3103C60.246 46.5879 60.3081 45.984 60.4323 45.4986C60.5565 45.0132 60.7596 44.5843 61.0418 44.2118C61.3353 43.828 61.736 43.4442 62.244 43.0604L64.0049 45.6002C63.8356 45.7582 63.7171 45.9445 63.6493 46.159C63.5816 46.3621 63.5421 46.5597 63.5308 46.7516C63.5195 46.9435 63.5139 47.1071 63.5139 47.2426V49.122C63.5139 49.2688 63.4687 49.3873 63.3784 49.4776C63.2881 49.5679 63.1809 49.6131 63.0567 49.6131H60.7032ZM67.8654 46.1759L66.0029 43.6869C66.2061 43.574 66.3472 43.4329 66.4262 43.2636C66.5165 43.0943 66.5729 42.925 66.5955 42.7557C66.6181 42.5751 66.6294 42.4283 66.6294 42.3154V40.436C66.6294 40.2892 66.6745 40.1707 66.7648 40.0804C66.8551 39.9901 66.9623 39.945 67.0865 39.945H69.6094C69.7335 39.945 69.8408 39.9958 69.9311 40.0974C70.0214 40.1989 70.0665 40.3118 70.0665 40.436V42.3832C70.0665 42.8234 69.9988 43.2693 69.8633 43.7208C69.7392 44.161 69.5191 44.5899 69.203 45.0076C68.8869 45.4252 68.4411 45.8147 67.8654 46.1759Z" fill="#3D8F80"/>
<path d="M14.0878 3.25164C13.4012 3.17103 12.5482 3.47415 11.634 4.13392C10.7197 4.79375 9.74373 5.81053 8.81107 7.15789C6.94575 9.85264 5.25341 13.87 4.57349 18.9998C3.89527 24.1306 4.48408 28.4504 5.58407 31.5376C6.13406 33.0812 6.81188 34.3168 7.52307 35.1916C8.2342 36.0663 8.97897 36.5805 9.66293 36.6809C11.0289 36.8814 12.6055 37.0811 13.8364 36.6928C14.4519 36.4986 14.9811 36.1573 15.3542 35.5954C15.7274 35.0336 15.9443 34.2514 15.9357 33.1758C15.915 30.6598 15.4261 29.4148 14.6065 28.7547C14.1967 28.4247 13.7046 28.2411 13.1476 28.1178C12.7148 28.0221 12.2427 27.9627 11.7395 27.8994C11.5951 27.8812 11.4482 27.8627 11.2989 27.8429C10.8328 27.7812 10.4881 27.4808 10.241 27.0048C9.99393 26.5288 9.84464 25.8776 9.76944 25.115C9.61904 23.59 9.76505 21.6207 10.0166 19.7202C10.2681 17.8198 10.6395 15.8808 11.1814 14.4476C11.4524 13.7309 11.766 13.141 12.1284 12.7456C12.4908 12.3503 12.9018 12.1496 13.368 12.2109C13.5173 12.2307 13.664 12.251 13.8082 12.2711C14.3105 12.3408 14.7818 12.4063 15.2245 12.4264C15.7945 12.4523 16.3174 12.4031 16.7989 12.191C17.762 11.7669 18.558 10.692 19.2326 8.268C19.5207 7.23208 19.5147 6.42065 19.3006 5.78116C19.0865 5.14163 18.6643 4.67435 18.1205 4.32659C17.0331 3.63119 15.4588 3.41347 14.0878 3.25164Z" fill="#3D8F80" stroke="#3D8F80" stroke-width="0.0051434"/>
</svg>
