<svg width="28" height="29" viewBox="0 0 28 29" fill="none" xmlns="http://www.w3.org/2000/svg">
<path d="M13.8937 1.45181C7.36037 1.45181 2.0659 6.74044 2.06006 13.2738C2.06006 17.1774 3.98267 20.8357 7.20844 23.0388L7.08572 23.0621C6.8695 23.2959 6.62406 23.553 6.31434 23.8627C6.19746 23.9796 6.06305 24.0965 5.92865 24.2134C5.79424 24.3302 5.72411 24.3945 5.62477 24.4939C4.99364 25.014 4.90599 25.949 5.42608 26.5743C5.43777 26.5918 5.44946 26.6035 5.46699 26.621C5.63646 26.7437 5.81177 26.8606 5.99293 26.9658C6.27343 27.1002 7.44803 27.0827 7.48894 27.0827C8.55835 26.9833 9.61023 26.7379 10.6154 26.3522C11.2874 26.1126 11.9361 25.8087 12.5497 25.4406L13.1574 25.0549C13.4029 25.0549 13.6541 25.0782 13.9054 25.0782C20.4388 25.1893 25.8267 19.9825 25.9378 13.4491C26.0488 6.91575 20.842 1.52778 14.3086 1.41675C14.1742 1.41675 14.0398 1.41675 13.9054 1.41675L13.8937 1.45181Z" fill="url(#paint0_linear_2272_13024)"/>
<path d="M11.8484 2.84263C12.7717 2.69069 13.7126 2.66732 14.6476 2.76082C15.3547 2.8251 16.0559 2.96535 16.7338 3.17573C18.4928 3.71336 20.1057 4.64836 21.4556 5.89893C22.8289 7.18457 23.7639 8.74486 24.2723 10.5564C24.5645 11.5908 24.6872 12.666 24.6405 13.7413C24.5995 14.6646 24.4359 15.5762 24.1437 16.447C23.647 17.9371 22.8172 19.2929 21.7186 20.4149C21.1751 20.9759 20.5673 21.4726 19.9128 21.8992C18.7616 22.6531 17.4701 23.1673 16.1144 23.4128C15.8631 23.4595 15.6118 23.5004 15.3547 23.5296C14.7411 23.5881 14.1216 23.5998 13.508 23.5647C12.7893 23.5238 12.0705 23.4186 11.3692 23.255C10.5336 23.0738 9.71542 22.8167 8.93235 22.4778C7.70516 21.946 6.59484 21.1863 5.64814 20.2454C4.83001 19.4273 4.1872 18.4572 3.74891 17.3878C3.50932 16.8093 3.34569 16.1957 3.25804 15.5762C3.13532 14.764 3.11194 13.94 3.18207 13.1219C3.22297 12.7069 3.33401 12.3096 3.44504 11.9063C3.53854 11.5674 3.70216 11.2635 3.84826 10.9538C4.06448 10.5038 4.38004 10.1298 4.73067 9.77921C5.50205 9.01952 6.43706 8.5637 7.48894 8.34748C8.41226 8.15464 9.33558 8.19554 10.253 8.36501C11.2114 8.54033 12.1289 8.8968 12.9529 9.41689C13.1457 9.54546 13.3269 9.67986 13.508 9.82596C13.8294 10.0714 14.1275 10.3519 14.408 10.6499C15.2612 11.6025 15.8923 12.6777 16.1903 13.9283C16.2605 14.2205 16.3014 14.5244 16.3189 14.8224C16.3306 14.8925 16.2955 14.9626 16.2371 14.9977C15.3138 15.6814 14.2619 16.1665 13.1399 16.4178C12.9879 16.4528 12.8302 16.4879 12.6782 16.5288C12.5964 16.5522 12.5789 16.5288 12.6023 16.447C12.6782 16.1431 12.7425 15.8392 12.7776 15.5295C12.8009 15.3659 12.7951 15.1964 12.8185 15.0328C12.8477 14.7289 12.8477 14.4192 12.8185 14.1153C12.76 13.1978 12.5497 12.292 12.199 11.4447C11.8893 10.7142 11.4744 10.0656 10.8666 9.5513C9.99008 8.8033 8.9791 8.42345 7.81619 8.47604C6.79937 8.52279 5.93449 8.9377 5.13973 9.54546C4.51445 10.013 4.08201 10.6967 3.92423 11.4681C3.77813 12.1693 3.87747 12.853 4.09369 13.5251C4.3742 14.3958 4.91183 15.0561 5.63646 15.5879C6.01046 15.8626 6.40784 16.0963 6.82274 16.2892C7.41297 16.5638 8.0441 16.7099 8.67523 16.8443C9.38232 17.0021 10.1128 17.0664 10.8374 17.043C11.3867 17.0138 11.9302 16.9378 12.462 16.8093C13.0698 16.669 13.6834 16.5405 14.2736 16.3301C15.0566 16.0496 15.793 15.6405 16.4475 15.1263C16.6111 14.9977 16.7572 14.8575 16.915 14.7289C17.3299 14.3666 17.7156 13.9692 18.0662 13.5485C18.5103 13.0284 18.896 12.4674 19.2174 11.8654C19.4278 11.4798 19.6031 11.0707 19.7492 10.6558C20.1407 9.49286 20.1057 8.33579 19.72 7.17288C19.4512 6.36644 19.0772 5.61843 18.522 4.96977C17.8266 4.16917 16.9617 3.6257 15.9683 3.2926C15.0683 2.98873 14.1392 2.86016 13.1983 2.83679C12.7951 2.8251 12.3919 2.83094 11.9945 2.86016C11.9361 2.84263 11.8952 2.84263 11.8484 2.84263Z" fill="#FEFEFE"/>
<path d="M19.6674 9.82012C19.4921 9.62143 19.3284 9.43443 19.1531 9.24742C18.9778 9.06042 18.7908 8.87927 18.5921 8.7098C17.8558 8.07867 17.0435 7.54688 16.167 7.12029C15.2378 6.65863 14.2444 6.34306 13.2159 6.17944C12.8126 6.11515 12.4036 6.08009 11.9945 6.0684C10.2706 6.01581 8.55251 6.38981 7.0039 7.15535C6.53056 7.3891 6.09812 7.69298 5.65983 7.99101C5.48452 8.11373 5.29752 8.21892 5.09883 8.29489C5.0813 8.30073 5.06377 8.30657 5.04039 8.31242C4.96442 8.32995 4.88261 8.36501 4.81833 8.30073C4.75405 8.23645 4.78326 8.15464 4.80664 8.07867C5.06961 7.19625 5.52542 6.37812 6.13902 5.68856C6.94546 4.77108 7.93306 4.11073 9.04923 3.6257C9.76217 3.32767 10.5102 3.12898 11.2757 3.03548C11.9127 2.94782 12.5613 2.91276 13.2042 2.92445C14.3729 2.95366 15.4949 3.19326 16.5293 3.74258C17.5987 4.30942 18.4519 5.10418 19.0129 6.18528C19.3577 6.869 19.5856 7.60532 19.6849 8.36501C19.755 8.83251 19.72 9.30002 19.6674 9.77337C19.6791 9.79674 19.6732 9.80843 19.6674 9.82012Z" fill="#A6BDE9"/>
<path d="M12.6198 13.303C12.5263 13.2446 12.4386 13.1861 12.351 13.1277C11.8835 12.8121 11.3517 12.6602 10.8082 12.5433C10.2589 12.4323 9.69789 12.3914 9.13689 12.4323C8.06747 12.5024 7.07403 12.7946 6.20915 13.455C5.76502 13.788 5.40271 14.2205 5.13974 14.7114C5.09883 14.7873 5.07545 14.7756 5.0287 14.7231C4.76573 14.425 4.55536 14.0919 4.40342 13.7238C4.15214 13.1043 4.01189 12.4674 4.06448 11.8012C4.10539 11.2168 4.30992 10.6558 4.6547 10.1824C5.03455 9.66818 5.5488 9.33508 6.1098 9.06627C6.50718 8.87926 6.92793 8.7507 7.36622 8.69811C7.75191 8.65136 8.1376 8.6572 8.51744 8.71564C9.3531 8.83251 10.142 9.18899 10.779 9.7383C11.3108 10.2 11.7315 10.7668 12.0237 11.4096C12.2984 11.9998 12.4971 12.6251 12.6198 13.2621C12.6198 13.2738 12.6198 13.2913 12.6198 13.303Z" fill="#A6BDE9"/>
<path d="M12.7717 23.6699C12.5146 23.8627 12.2516 24.0381 11.9711 24.1958C10.9601 24.7919 9.86736 25.2302 8.72782 25.499C8.03241 25.6626 7.31947 25.7678 6.60652 25.797C6.5364 25.8087 6.47212 25.7795 6.43121 25.7211C6.40199 25.686 6.39615 25.6334 6.42537 25.5983C6.47796 25.5224 6.54809 25.4522 6.61821 25.3997C7.06819 25.0257 7.48894 24.6166 7.88047 24.1783C8.28369 23.7225 8.68107 23.2725 9.06091 22.7992C9.08429 22.7583 9.13688 22.7407 9.17779 22.7641C9.17779 22.7641 9.17779 22.7641 9.18364 22.7641C10.3115 23.2082 11.4919 23.5063 12.6899 23.6524L12.7717 23.6699Z" fill="#FEFEFE"/>
<defs>
<linearGradient id="paint0_linear_2272_13024" x1="13.9966" y1="27.1119" x2="13.9966" y2="1.44451" gradientUnits="userSpaceOnUse">
<stop stop-color="#1BA9EF"/>
<stop offset="1" stop-color="#1033A4"/>
</linearGradient>
</defs>
</svg>
