<svg width="24" height="26" viewBox="0 0 24 26" fill="none" xmlns="http://www.w3.org/2000/svg">
  <path
    d="M11.8937 0.201727C5.36037 0.201727 0.0659024 5.49035 0.0600586 12.0237C0.0600586 15.9274 1.98267 19.5856 5.20844 21.7887L5.08572 21.8121C4.8695 22.0458 4.62406 22.3029 4.31434 22.6127C4.19746 22.7295 4.06305 22.8464 3.92865 22.9633C3.79424 23.0802 3.72411 23.1444 3.62477 23.2438C2.99364 23.7639 2.90599 24.6989 3.42608 25.3242C3.43777 25.3417 3.44946 25.3534 3.46699 25.3709C3.63646 25.4936 3.81177 25.6105 3.99293 25.7157C4.27343 25.8501 5.44803 25.8326 5.48894 25.8326C6.55835 25.7332 7.61023 25.4878 8.61536 25.1021C9.2874 24.8625 9.93606 24.5586 10.5497 24.1905L11.1574 23.8048C11.4029 23.8048 11.6541 23.8282 11.9054 23.8282C18.4388 23.9392 23.8267 18.7324 23.9378 12.199C24.0488 5.66567 18.842 0.277696 12.3086 0.166664C12.1742 0.166664 12.0398 0.166664 11.9054 0.166664L11.8937 0.201727Z"
    fill="url(#paint0_linear_2520_17296)" />
  <path
    d="M9.8484 1.59255C10.7717 1.44061 11.7126 1.41723 12.6476 1.51074C13.3547 1.57502 14.0559 1.71527 14.7338 1.92564C16.4928 2.46327 18.1057 3.39828 19.4556 4.64885C20.8289 5.93448 21.7639 7.49477 22.2723 9.30635C22.5645 10.3407 22.6872 11.416 22.6405 12.4912C22.5995 13.4145 22.4359 14.3262 22.1437 15.1969C21.647 16.6871 20.8172 18.0428 19.7186 19.1648C19.1751 19.7258 18.5673 20.2225 17.9128 20.6491C16.7616 21.403 15.4701 21.9172 14.1144 22.1627C13.8631 22.2094 13.6118 22.2503 13.3547 22.2796C12.7411 22.338 12.1216 22.3497 11.508 22.3146C10.7893 22.2737 10.0705 22.1685 9.36921 22.0049C8.53355 21.8237 7.71542 21.5666 6.93235 21.2277C5.70516 20.6959 4.59484 19.9362 3.64814 18.9953C2.83001 18.1772 2.1872 17.2072 1.74891 16.1377C1.50932 15.5592 1.34569 14.9456 1.25804 14.3262C1.13532 13.5139 1.11194 12.6899 1.18207 11.8718C1.22297 11.4569 1.33401 11.0595 1.44504 10.6563C1.53854 10.3173 1.70216 10.0134 1.84826 9.70373C2.06448 9.25375 2.38004 8.87975 2.73067 8.52913C3.50205 7.76943 4.43706 7.31362 5.48894 7.0974C6.41226 6.90455 7.33558 6.94546 8.25305 7.11493C9.21143 7.29024 10.1289 7.64671 10.9529 8.16681C11.1457 8.29537 11.3269 8.42978 11.508 8.57587C11.8294 8.82131 12.1275 9.10182 12.408 9.39985C13.2612 10.3524 13.8923 11.4276 14.1903 12.6782C14.2605 12.9704 14.3014 13.2743 14.3189 13.5723C14.3306 13.6424 14.2955 13.7126 14.2371 13.7476C13.3138 14.4314 12.2619 14.9164 11.1399 15.1677C10.9879 15.2027 10.8302 15.2378 10.6782 15.2787C10.5964 15.3021 10.5789 15.2787 10.6023 15.1969C10.6782 14.893 10.7425 14.5891 10.7776 14.2794C10.8009 14.1158 10.7951 13.9463 10.8185 13.7827C10.8477 13.4788 10.8477 13.1691 10.8185 12.8652C10.76 11.9477 10.5497 11.042 10.199 10.1946C9.88931 9.46413 9.4744 8.81547 8.86665 8.30122C7.99008 7.55321 6.9791 7.17337 5.81619 7.22596C4.79937 7.27271 3.93449 7.68762 3.13973 8.29537C2.51445 8.76288 2.08201 9.4466 1.92423 10.218C1.77813 10.9192 1.87747 11.603 2.09369 12.275C2.3742 13.1457 2.91183 13.8061 3.63646 14.3379C4.01046 14.6125 4.40784 14.8463 4.82274 15.0391C5.41297 15.3138 6.0441 15.4599 6.67523 15.5943C7.38232 15.752 8.1128 15.8163 8.83743 15.793C9.38674 15.7637 9.93021 15.6878 10.462 15.5592C11.0698 15.419 11.6834 15.2904 12.2736 15.08C13.0566 14.7995 13.793 14.3904 14.4475 13.8762C14.6111 13.7476 14.7572 13.6074 14.915 13.4788C15.3299 13.1165 15.7156 12.7191 16.0662 12.2984C16.5103 11.7783 16.896 11.2173 17.2174 10.6154C17.4278 10.2297 17.6031 9.8206 17.7492 9.40569C18.1407 8.24278 18.1057 7.08571 17.72 5.9228C17.4512 5.11635 17.0772 4.36835 16.522 3.71969C15.8266 2.91909 14.9617 2.37562 13.9683 2.04252C13.0683 1.73864 12.1392 1.61008 11.1983 1.5867C10.7951 1.57502 10.3919 1.58086 9.9945 1.61008C9.93606 1.59255 9.89515 1.59255 9.8484 1.59255Z"
    fill="#FEFEFE" />
  <path
    d="M17.6674 8.57003C17.4921 8.37134 17.3284 8.18434 17.1531 7.99734C16.9778 7.81034 16.7908 7.62918 16.5921 7.45971C15.8558 6.82858 15.0435 6.2968 14.167 5.8702C13.2378 5.40854 12.2444 5.09298 11.2159 4.92935C10.8126 4.86507 10.4036 4.83001 9.9945 4.81832C8.27058 4.76573 6.55251 5.13973 5.0039 5.90526C4.53056 6.13902 4.09812 6.44289 3.65983 6.74093C3.48452 6.86365 3.29752 6.96883 3.09883 7.0448C3.0813 7.05065 3.06377 7.05649 3.04039 7.06233C2.96442 7.07987 2.88261 7.11493 2.81833 7.05065C2.75405 6.98637 2.78326 6.90455 2.80664 6.82858C3.06961 5.94617 3.52542 5.12804 4.13902 4.43847C4.94546 3.521 5.93306 2.86065 7.04923 2.37562C7.76217 2.07758 8.51018 1.87889 9.27571 1.78539C9.91269 1.69774 10.5613 1.66267 11.2042 1.67436C12.3729 1.70358 13.4949 1.94318 14.5293 2.49249C15.5987 3.05934 16.4519 3.85409 17.0129 4.9352C17.3577 5.61892 17.5856 6.35524 17.6849 7.11493C17.755 7.58243 17.72 8.04993 17.6674 8.52328C17.6791 8.54666 17.6732 8.55834 17.6674 8.57003Z"
    fill="#A6BDE9" />
  <path
    d="M10.6198 12.0529C10.5263 11.9945 10.4386 11.9361 10.351 11.8776C9.88347 11.5621 9.35168 11.4101 8.80821 11.2932C8.25889 11.1822 7.69789 11.1413 7.13689 11.1822C6.06747 11.2523 5.07403 11.5445 4.20915 12.2049C3.76502 12.538 3.40271 12.9704 3.13974 13.4613C3.09883 13.5373 3.07545 13.5256 3.0287 13.473C2.76573 13.1749 2.55536 12.8418 2.40342 12.4737C2.15214 11.8542 2.01189 11.2173 2.06448 10.5511C2.10539 9.9667 2.30992 9.40569 2.6547 8.93235C3.03455 8.41809 3.5488 8.085 4.1098 7.81618C4.50718 7.62918 4.92793 7.50062 5.36622 7.44802C5.75191 7.40127 6.1376 7.40712 6.51744 7.46555C7.3531 7.58243 8.14202 7.9389 8.77899 8.48822C9.31078 8.94988 9.73153 9.51673 10.0237 10.1595C10.2984 10.7498 10.4971 11.3751 10.6198 12.012C10.6198 12.0237 10.6198 12.0412 10.6198 12.0529Z"
    fill="#A6BDE9" />
  <path
    d="M10.7717 22.4198C10.5146 22.6127 10.2516 22.788 9.97112 22.9457C8.96015 23.5418 7.86736 23.9801 6.72782 24.2489C6.03241 24.4125 5.31947 24.5177 4.60652 24.5469C4.5364 24.5586 4.47212 24.5294 4.43121 24.471C4.40199 24.4359 4.39615 24.3833 4.42537 24.3483C4.47796 24.2723 4.54809 24.2022 4.61821 24.1496C5.06819 23.7756 5.48894 23.3665 5.88047 22.9282C6.28369 22.4724 6.68107 22.0224 7.06091 21.5491C7.08429 21.5082 7.13688 21.4906 7.17779 21.514C7.17779 21.514 7.17779 21.514 7.18364 21.514C8.31149 21.9581 9.49193 22.2562 10.6899 22.4023L10.7717 22.4198Z"
    fill="#FEFEFE" />
  <defs>
    <linearGradient id="paint0_linear_2520_17296" x1="11.9966" y1="25.8618" x2="11.9966" y2="0.194429"
      gradientUnits="userSpaceOnUse">
      <stop stop-color="#1BA9EF" />
      <stop offset="1" stop-color="#1033A4" />
    </linearGradient>
  </defs>
</svg>