<svg width="16" height="17" viewBox="0 0 16 17" fill="none" xmlns="http://www.w3.org/2000/svg">
  <path
    d="M2.12198 6.7562C1.38643 5.28007 2.12859 3.65096 3.54281 2.80244C4.22369 2.3939 5.10368 2.5712 5.57325 3.21152L6.61502 4.63212C7.05843 5.23677 7.12639 6.03863 6.79107 6.70928L6.51792 7.25558C6.43884 7.41372 6.42634 7.59666 6.50723 7.75389C6.65459 8.04033 6.9684 8.54795 7.57293 9.15248C8.17746 9.75702 8.68509 10.0708 8.97153 10.2182C9.12876 10.2991 9.31169 10.2866 9.46984 10.2075L10.0161 9.93435C10.6868 9.59903 11.4887 9.66699 12.0933 10.1104L13.5139 11.1522C14.1542 11.6217 14.3315 12.5017 13.923 13.1826C13.0745 14.5968 11.4454 15.339 9.96921 14.6034C8.72513 13.9835 7.13535 12.9575 5.45161 11.2738C3.76787 9.59006 2.7419 8.00029 2.12198 6.7562Z"
    fill="gray" />
</svg>