<svg width="24" height="27" viewBox="0 0 24 27" fill="none" xmlns="http://www.w3.org/2000/svg">
<path d="M11.8937 0.701689C5.36037 0.701689 0.0659024 5.99032 0.0600586 12.5237C0.0600586 16.4273 1.98267 20.0855 5.20844 22.2886L5.08572 22.312C4.8695 22.5458 4.62406 22.8029 4.31434 23.1126C4.19746 23.2295 4.06305 23.3464 3.92865 23.4632C3.79424 23.5801 3.72411 23.6444 3.62477 23.7437C2.99364 24.2638 2.90599 25.1988 3.42608 25.8241C3.43777 25.8417 3.44946 25.8534 3.46699 25.8709C3.63646 25.9936 3.81177 26.1105 3.99293 26.2157C4.27343 26.3501 5.44803 26.3325 5.48894 26.3325C6.55835 26.2332 7.61023 25.9878 8.61536 25.6021C9.2874 25.3625 9.93606 25.0586 10.5497 24.6904L11.1574 24.3047C11.4029 24.3047 11.6541 24.3281 11.9054 24.3281C18.4388 24.4392 23.8267 19.2323 23.9378 12.699C24.0488 6.16563 18.842 0.777658 12.3086 0.666626C12.1742 0.666626 12.0398 0.666626 11.9054 0.666626L11.8937 0.701689Z" fill="url(#paint0_linear_2335_20987)"/>
<path d="M9.8484 2.09251C10.7717 1.94057 11.7126 1.9172 12.6476 2.0107C13.3547 2.07498 14.0559 2.21523 14.7338 2.42561C16.4928 2.96323 18.1057 3.89824 19.4556 5.14881C20.8289 6.43444 21.7639 7.99474 22.2723 9.80631C22.5645 10.8407 22.6872 11.9159 22.6405 12.9912C22.5995 13.9145 22.4359 14.8261 22.1437 15.6969C21.647 17.187 20.8172 18.5428 19.7186 19.6648C19.1751 20.2258 18.5673 20.7225 17.9128 21.1491C16.7616 21.903 15.4701 22.4172 14.1144 22.6626C13.8631 22.7094 13.6118 22.7503 13.3547 22.7795C12.7411 22.838 12.1216 22.8496 11.508 22.8146C10.7893 22.7737 10.0705 22.6685 9.36921 22.5049C8.53355 22.3237 7.71542 22.0666 6.93235 21.7276C5.70516 21.1959 4.59484 20.4362 3.64814 19.4953C2.83001 18.6772 2.1872 17.7071 1.74891 16.6377C1.50932 16.0592 1.34569 15.4456 1.25804 14.8261C1.13532 14.0138 1.11194 13.1899 1.18207 12.3717C1.22297 11.9568 1.33401 11.5594 1.44504 11.1562C1.53854 10.8173 1.70216 10.5134 1.84826 10.2037C2.06448 9.75372 2.38004 9.37971 2.73067 9.02909C3.50205 8.26939 4.43706 7.81358 5.48894 7.59736C6.41226 7.40451 7.33558 7.44542 8.25305 7.61489C9.21143 7.7902 10.1289 8.14667 10.9529 8.66677C11.1457 8.79533 11.3269 8.92974 11.508 9.07584C11.8294 9.32127 12.1275 9.60178 12.408 9.89981C13.2612 10.8523 13.8923 11.9276 14.1903 13.1782C14.2605 13.4704 14.3014 13.7742 14.3189 14.0723C14.3306 14.1424 14.2955 14.2125 14.2371 14.2476C13.3138 14.9313 12.2619 15.4163 11.1399 15.6676C10.9879 15.7027 10.8302 15.7378 10.6782 15.7787C10.5964 15.802 10.5789 15.7787 10.6023 15.6969C10.6782 15.393 10.7425 15.0891 10.7776 14.7794C10.8009 14.6157 10.7951 14.4463 10.8185 14.2827C10.8477 13.9788 10.8477 13.6691 10.8185 13.3652C10.76 12.4477 10.5497 11.5419 10.199 10.6946C9.88931 9.96409 9.4744 9.31543 8.86665 8.80118C7.99008 8.05317 6.9791 7.67333 5.81619 7.72592C4.79937 7.77267 3.93449 8.18758 3.13973 8.79534C2.51445 9.26284 2.08201 9.94656 1.92423 10.7179C1.77813 11.4192 1.87747 12.1029 2.09369 12.775C2.3742 13.6457 2.91183 14.306 3.63646 14.8378C4.01046 15.1125 4.40784 15.3462 4.82274 15.5391C5.41297 15.8137 6.0441 15.9598 6.67523 16.0942C7.38232 16.252 8.1128 16.3163 8.83743 16.2929C9.38674 16.2637 9.93021 16.1877 10.462 16.0592C11.0698 15.9189 11.6834 15.7904 12.2736 15.58C13.0566 15.2995 13.793 14.8904 14.4475 14.3762C14.6111 14.2476 14.7572 14.1073 14.915 13.9788C15.3299 13.6165 15.7156 13.2191 16.0662 12.7983C16.5103 12.2782 16.896 11.7172 17.2174 11.1153C17.4278 10.7296 17.6031 10.3206 17.7492 9.90566C18.1407 8.74274 18.1057 7.58567 17.72 6.42276C17.4512 5.61631 17.0772 4.86831 16.522 4.21965C15.8266 3.41905 14.9617 2.87558 13.9683 2.54248C13.0683 2.2386 12.1392 2.11004 11.1983 2.08667C10.7951 2.07498 10.3919 2.08082 9.9945 2.11004C9.93606 2.09251 9.89515 2.09251 9.8484 2.09251Z" fill="#FEFEFE"/>
<path d="M17.6674 9.06999C17.4921 8.8713 17.3284 8.6843 17.1531 8.4973C16.9778 8.3103 16.7908 8.12914 16.5921 7.95967C15.8558 7.32855 15.0435 6.79676 14.167 6.37016C13.2378 5.9085 12.2444 5.59294 11.2159 5.42931C10.8126 5.36503 10.4036 5.32997 9.9945 5.31828C8.27058 5.26569 6.55251 5.63969 5.0039 6.40523C4.53056 6.63898 4.09812 6.94285 3.65983 7.24089C3.48452 7.36361 3.29752 7.46879 3.09883 7.54476C3.0813 7.55061 3.06377 7.55645 3.04039 7.5623C2.96442 7.57983 2.88261 7.61489 2.81833 7.55061C2.75405 7.48633 2.78326 7.40451 2.80664 7.32854C3.06961 6.44613 3.52542 5.628 4.13902 4.93844C4.94546 4.02096 5.93306 3.36061 7.04923 2.87558C7.76217 2.57754 8.51018 2.37886 9.27571 2.28536C9.91269 2.1977 10.5613 2.16264 11.2042 2.17432C12.3729 2.20354 13.4949 2.44314 14.5293 2.99245C15.5987 3.5593 16.4519 4.35406 17.0129 5.43516C17.3577 6.11888 17.5856 6.8552 17.6849 7.61489C17.755 8.08239 17.72 8.5499 17.6674 9.02324C17.6791 9.04662 17.6732 9.05831 17.6674 9.06999Z" fill="#A6BDE9"/>
<path d="M10.6198 12.5529C10.5263 12.4945 10.4386 12.436 10.351 12.3776C9.88347 12.062 9.35168 11.9101 8.80821 11.7932C8.25889 11.6822 7.69789 11.6413 7.13689 11.6822C6.06747 11.7523 5.07403 12.0445 4.20915 12.7048C3.76502 13.0379 3.40271 13.4704 3.13974 13.9612C3.09883 14.0372 3.07545 14.0255 3.0287 13.9729C2.76573 13.6749 2.55536 13.3418 2.40342 12.9736C2.15214 12.3542 2.01189 11.7172 2.06448 11.051C2.10539 10.4667 2.30992 9.90565 2.6547 9.43231C3.03455 8.91805 3.5488 8.58496 4.1098 8.31614C4.50718 8.12914 4.92793 8.00058 5.36622 7.94799C5.75191 7.90124 6.1376 7.90708 6.51744 7.96552C7.3531 8.08239 8.14202 8.43886 8.77899 8.98818C9.31078 9.44984 9.73153 10.0167 10.0237 10.6595C10.2984 11.2497 10.4971 11.875 10.6198 12.512C10.6198 12.5237 10.6198 12.5412 10.6198 12.5529Z" fill="#A6BDE9"/>
<path d="M10.7717 22.9198C10.5146 23.1126 10.2516 23.2879 9.97112 23.4457C8.96015 24.0418 7.86736 24.4801 6.72782 24.7489C6.03241 24.9125 5.31947 25.0177 4.60652 25.0469C4.5364 25.0586 4.47212 25.0294 4.43121 24.9709C4.40199 24.9359 4.39615 24.8833 4.42537 24.8482C4.47796 24.7723 4.54809 24.7021 4.61821 24.6495C5.06819 24.2755 5.48894 23.8665 5.88047 23.4282C6.28369 22.9724 6.68107 22.5224 7.06091 22.049C7.08429 22.0081 7.13688 21.9906 7.17779 22.014C7.17779 22.014 7.17779 22.014 7.18364 22.014C8.31149 22.4581 9.49193 22.7561 10.6899 22.9022L10.7717 22.9198Z" fill="#FEFEFE"/>
<defs>
<linearGradient id="paint0_linear_2335_20987" x1="11.9966" y1="26.3618" x2="11.9966" y2="0.694391" gradientUnits="userSpaceOnUse">
<stop stop-color="#1BA9EF"/>
<stop offset="1" stop-color="#1033A4"/>
</linearGradient>
</defs>
</svg>
