<svg width="32" height="32" viewBox="0 0 32 32" fill="none" xmlns="http://www.w3.org/2000/svg">
<path fill-rule="evenodd" clip-rule="evenodd" d="M16.6622 21.8516C16.9459 21.5679 16.9459 21.1078 16.6622 20.824L12.4529 16.6148L16.6622 12.4056C16.9459 12.1218 16.9459 11.6617 16.6622 11.378C16.3784 11.0942 15.9183 11.0942 15.6346 11.378L11.4254 15.5872C10.8578 16.1547 10.8578 17.0749 11.4254 17.6424L15.6346 21.8516C15.9183 22.1354 16.3784 22.1354 16.6622 21.8516Z" fill="#2F1B61"/>
<path fill-rule="evenodd" clip-rule="evenodd" d="M21.2032 21.8516C21.487 21.5679 21.487 21.1078 21.2032 20.824L16.994 16.6148L21.2032 12.4056C21.487 12.1218 21.487 11.6617 21.2032 11.378C20.9194 11.0942 20.4594 11.0942 20.1756 11.378L15.9664 15.5872C15.3988 16.1547 15.3988 17.0749 15.9664 17.6424L20.1756 21.8516C20.4594 22.1354 20.9194 22.1354 21.2032 21.8516Z" fill="#2F1B61"/>
</svg>
