<svg width="19" height="19" viewBox="0 0 19 19" fill="none" xmlns="http://www.w3.org/2000/svg">
<path d="M9.17267 0.705261C9.27303 0.604874 9.40668 0.548828 9.5457 0.548828C9.68473 0.548828 9.81837 0.604874 9.91873 0.705261C11.1081 1.89461 12.8012 2.53991 14.2472 2.88326C14.9626 3.05246 15.6009 3.14426 16.0593 3.19376C16.2965 3.21915 16.5344 3.23746 16.7726 3.24866H16.7816C16.9224 3.25207 17.0564 3.31283 17.1548 3.41796C17.2532 3.52308 17.3082 3.66421 17.3082 3.81116V8.19866C17.3082 12.4723 15.1261 16.7559 9.70656 18.523C9.60182 18.5572 9.48958 18.5572 9.38485 18.523C6.69471 17.6455 4.78427 16.1416 3.55003 14.2849C2.31968 12.4323 1.7832 10.2628 1.7832 8.08616V3.81116C1.78316 3.66429 1.83818 3.52322 1.93649 3.41811C2.0348 3.313 2.16861 3.25219 2.30933 3.24866H2.31882L2.35332 3.24731C2.38494 3.24611 2.43209 3.24356 2.49477 3.23966C2.61983 3.23201 2.80311 3.21806 3.0321 3.19376C3.64148 3.12766 4.24658 3.02398 4.84422 2.88326C6.28977 2.53991 7.98285 1.89461 9.17267 0.705261ZM13.2601 7.36796C13.3127 7.31735 13.3552 7.25629 13.3851 7.18835C13.4149 7.12041 13.4314 7.04695 13.4338 6.97226C13.4361 6.89757 13.4241 6.82315 13.3985 6.75335C13.373 6.68354 13.3343 6.61975 13.2849 6.56569C13.2354 6.51164 13.1762 6.46841 13.1105 6.43853C13.0449 6.40865 12.9742 6.39272 12.9026 6.39167C12.831 6.39061 12.7599 6.40445 12.6935 6.43239C12.627 6.46032 12.5666 6.50179 12.5157 6.55436L8.15277 10.9L6.58474 9.26336C6.48363 9.15786 6.3465 9.09859 6.20352 9.09859C6.06053 9.09859 5.9234 9.15786 5.82229 9.26336C5.72118 9.36886 5.66438 9.51196 5.66438 9.66116C5.66438 9.81036 5.72118 9.95346 5.82229 10.059L7.76292 12.084C7.96992 12.3 8.30457 12.3045 8.51631 12.093L13.2601 7.36796Z" fill="white"/>
</svg>
