<svg width="31" height="34" viewBox="0 0 31 34" fill="none" xmlns="http://www.w3.org/2000/svg">
<path d="M0.576172 7.76185V23.2865L6.22149 19.9934V4.46875L0.576172 7.76185Z" fill="white"/>
<path d="M8.57422 3.2931V9.64409L14.2195 6.35099V0L8.57422 3.2931Z" fill="white"/>
<path d="M8.57422 12.7013V19.0523L14.2195 15.7592V9.4082L8.57422 12.7013Z" fill="white"/>
<path d="M14.2484 6.53522L27.6931 14.2975L27.6639 7.762L14.2191 -0.00031893L14.2484 6.53522Z" fill="#8CB7B7"/>
<path d="M27.8633 17.4064V23.7574L22.218 20.4643V14.1133L27.8633 17.4064Z" fill="#8CB7B7"/>
<path d="M19.8633 12.7013V19.0523L14.218 15.7592V9.4082L19.8633 12.7013Z" fill="#8CB7B7"/>
<path d="M22.2173 20.4635L8.57446 28.1589L14.249 31.4013L27.6938 23.639L22.2173 20.4635Z" fill="#249B9B"/>
<path d="M6.07778 26.412L0.577662 23.2365L6.25223 19.9941L11.7523 23.1696L6.07778 26.412Z" fill="#249B9B"/>
<path d="M14.0739 22.1777L8.57376 19.0022L14.2483 15.7597L19.7484 18.9352L14.0739 22.1777Z" fill="#249B9B"/>
</svg>
