<svg width="14" height="18" viewBox="0 0 14 18" fill="none" xmlns="http://www.w3.org/2000/svg">
<path fill-rule="evenodd" clip-rule="evenodd" d="M13.75 1C13.75 0.447715 13.3023 0 12.75 0H1.25C0.697715 0 0.25 0.447715 0.25 1V13.4881C0.25 13.8438 0.438912 14.1727 0.746129 14.3519L6.49613 17.7061C6.80749 17.8877 7.19251 17.8877 7.50387 17.7061L13.2539 14.3519C13.5611 14.1727 13.75 13.8438 13.75 13.4881V1ZM6.48552 10.8555C6.75581 10.9842 7.06954 10.9851 7.34052 10.8578L10.9389 9.16792C11.2811 9.00724 11.4995 8.66327 11.4995 8.28525C11.4995 7.57079 10.7566 7.09888 10.1099 7.40257L7.34642 8.70026C7.07554 8.82746 6.76193 8.82666 6.4917 8.69809L3.8937 7.46193C3.24681 7.15413 2.5 7.62583 2.5 8.34221C2.5 8.71823 2.71625 9.06072 3.05574 9.22237L6.48552 10.8555ZM7.34651 12.268C7.07558 12.3953 6.76187 12.3945 6.49156 12.2659L3.89354 11.0297C3.24672 10.722 2.5 11.1936 2.5 11.9099C2.5 12.286 2.71637 12.6286 3.056 12.7901L6.48611 14.4219C6.75633 14.5505 7.06993 14.5513 7.34079 14.4241L10.9395 12.734C11.2816 12.5734 11.5 12.2295 11.5 11.8515C11.5 11.1371 10.757 10.6653 10.1104 10.9692L7.34651 12.268Z" fill="#249B9B"/>
</svg>
