<svg width="16" height="17" viewBox="0 0 16 17" fill="none" xmlns="http://www.w3.org/2000/svg">
    <path
        d="M2.12198 6.50633C1.38643 5.03019 2.12859 3.40109 3.54281 2.55256C4.22369 2.14403 5.10368 2.32132 5.57325 2.96164L6.61502 4.38225C7.05843 4.98689 7.12639 5.78876 6.79107 6.4594L6.51792 7.0057C6.43884 7.16385 6.42634 7.34678 6.50723 7.50401C6.65459 7.79045 6.9684 8.29808 7.57293 8.90261C8.17746 9.50714 8.68509 9.82095 8.97153 9.96831C9.12876 10.0492 9.31169 10.0367 9.46984 9.95762L10.0161 9.68447C10.6868 9.34915 11.4887 9.41711 12.0933 9.86052L13.5139 10.9023C14.1542 11.3719 14.3315 12.2518 13.923 12.9327C13.0745 14.3469 11.4454 15.0891 9.96921 14.3536C8.72513 13.7336 7.13535 12.7077 5.45161 11.0239C3.76787 9.34019 2.7419 7.75041 2.12198 6.50633Z"
        fill="#0F2423" />
</svg>
    