<svg width="8" height="3" viewBox="0 0 8 3" fill="none" xmlns="http://www.w3.org/2000/svg">
<path d="M0.90482 2.084C0.662154 2.084 0.45682 2 0.28882 1.832C0.12082 1.664 0.0368203 1.45867 0.0368203 1.216C0.0368203 0.973333 0.12082 0.768 0.28882 0.6C0.45682 0.432 0.662154 0.348 0.90482 0.348C1.13815 0.348 1.33415 0.432 1.49282 0.6C1.66082 0.768 1.74482 0.973333 1.74482 1.216C1.74482 1.45867 1.66082 1.664 1.49282 1.832C1.33415 2 1.13815 2.084 0.90482 2.084ZM4.01427 2.084C3.77161 2.084 3.56627 2 3.39827 1.832C3.23027 1.664 3.14627 1.45867 3.14627 1.216C3.14627 0.973333 3.23027 0.768 3.39827 0.6C3.56627 0.432 3.77161 0.348 4.01427 0.348C4.24761 0.348 4.44361 0.432 4.60227 0.6C4.77027 0.768 4.85427 0.973333 4.85427 1.216C4.85427 1.45867 4.77027 1.664 4.60227 1.832C4.44361 2 4.24761 2.084 4.01427 2.084ZM7.12373 2.084C6.88106 2.084 6.67573 2 6.50773 1.832C6.33973 1.664 6.25573 1.45867 6.25573 1.216C6.25573 0.973333 6.33973 0.768 6.50773 0.6C6.67573 0.432 6.88106 0.348 7.12373 0.348C7.35706 0.348 7.55306 0.432 7.71173 0.6C7.87973 0.768 7.96373 0.973333 7.96373 1.216C7.96373 1.45867 7.87973 1.664 7.71173 1.832C7.55306 2 7.35706 2.084 7.12373 2.084Z" fill="black" fill-opacity="0.87"/>
</svg>
