<svg width="29" height="29" viewBox="0 0 29 29" fill="none" xmlns="http://www.w3.org/2000/svg">
<path fill-rule="evenodd" clip-rule="evenodd" d="M7.83775 12.3509C7.93478 12.1056 8.13039 11.8909 8.39587 11.7384C8.66135 11.5859 8.9827 11.5037 9.31272 11.5037H11.4604C11.665 11.5037 11.8612 11.4405 12.0059 11.328C12.1505 11.2155 12.2318 11.0628 12.2318 10.9037C12.2318 10.7446 12.1505 10.592 12.0059 10.4794C11.8612 10.3669 11.665 10.3037 11.4604 10.3037H9.31272C8.65268 10.3036 8.00998 10.4681 7.47902 10.7731C6.94807 11.0781 6.55683 11.5074 6.36278 11.9981L3.88289 18.2685C3.79234 18.4971 3.74623 18.7349 3.74609 18.9741V22.3037C3.74609 22.9402 4.07119 23.5507 4.64988 24.0008C5.22856 24.4509 6.01343 24.7037 6.83181 24.7037H22.2604C23.0788 24.7037 23.8636 24.4509 24.4423 24.0008C25.021 23.5507 25.3461 22.9402 25.3461 22.3037V18.9741C25.3461 18.7349 25.2998 18.4973 25.2093 18.2685L22.7294 11.9981C22.5354 11.5074 22.1441 11.0781 21.6132 10.7731C21.0822 10.4681 20.4395 10.3036 19.7795 10.3037H17.6318C17.4272 10.3037 17.231 10.3669 17.0863 10.4794C16.9417 10.592 16.8604 10.7446 16.8604 10.9037C16.8604 11.0628 16.9417 11.2155 17.0863 11.328C17.231 11.4405 17.4272 11.5037 17.6318 11.5037H19.7795C20.1095 11.5037 20.4308 11.5859 20.6963 11.7384C20.9618 11.8909 21.1574 12.1056 21.2544 12.3509L23.5307 18.1037H20.6044C20.0312 18.1036 19.4694 18.2276 18.9818 18.4619C18.4942 18.6962 18.1001 19.0314 17.8437 19.4301L17.5804 19.8405C17.4522 20.0399 17.2551 20.2075 17.0113 20.3246C16.7675 20.4418 16.4866 20.5038 16.2 20.5037H12.8901C12.6034 20.5037 12.3224 20.4416 12.0786 20.3243C11.8348 20.207 11.6378 20.0392 11.5098 19.8397L11.2464 19.4301C10.9901 19.0314 10.596 18.6962 10.1084 18.4619C9.62075 18.2276 9.05889 18.1036 8.48575 18.1037H5.56152L7.83775 12.3509Z" fill="white"/>
<path fill-rule="evenodd" clip-rule="evenodd" d="M14.6807 14.4219C14.8853 14.4219 15.0815 14.3406 15.2262 14.1959C15.3708 14.0513 15.4521 13.855 15.4521 13.6504V7.02645L17.2212 8.79559C17.2919 8.87138 17.377 8.93217 17.4717 8.97434C17.5663 9.0165 17.6684 9.03917 17.772 9.041C17.8756 9.04282 17.9785 9.02377 18.0745 8.98497C18.1706 8.94617 18.2579 8.88842 18.3311 8.81517C18.4044 8.74192 18.4621 8.65466 18.5009 8.5586C18.5397 8.46255 18.5588 8.35966 18.5569 8.25608C18.5551 8.1525 18.5324 8.05035 18.4903 7.95572C18.4481 7.86109 18.3873 7.77593 18.3115 7.7053L15.2258 4.61959C15.0812 4.47513 14.8851 4.39398 14.6807 4.39398C14.4762 4.39398 14.2802 4.47513 14.1355 4.61959L11.0498 7.7053C10.9136 7.85154 10.8394 8.04496 10.8429 8.24481C10.8464 8.44466 10.9274 8.63535 11.0687 8.77669C11.2101 8.91803 11.4007 8.99899 11.6006 9.00251C11.8004 9.00604 11.9939 8.93185 12.1401 8.79559L13.9092 7.02645V13.6504C13.9092 13.855 13.9905 14.0513 14.1352 14.1959C14.2799 14.3406 14.4761 14.4219 14.6807 14.4219Z" fill="white"/>
</svg>
