<svg width="26" height="25" viewBox="0 0 26 25" fill="none" xmlns="http://www.w3.org/2000/svg">
<path d="M10.6562 3.82788C9.75016 3.82788 9.01562 4.56242 9.01562 5.46851V9.21851C9.01562 10.1246 9.75016 10.8591 10.6562 10.8591H12.2966V16.0155H10.1872C10.1051 16.0155 10.0263 16.0295 9.95312 16.0554V15.7812C9.95312 14.8751 9.21859 14.1405 8.3125 14.1405H3.625C2.71891 14.1405 1.98438 14.8751 1.98438 15.7812V19.5312C1.98438 20.4373 2.71891 21.1718 3.625 21.1718H8.3125C9.21859 21.1718 9.95312 20.4372 9.95312 19.5312V17.3818C10.0263 17.4076 10.1051 17.4217 10.1872 17.4217H16.0469V19.5312C16.0469 20.4373 16.7814 21.1718 17.6875 21.1718H22.375C23.2811 21.1718 24.0156 20.4372 24.0156 19.5312V15.7812C24.0156 14.8751 23.2811 14.1405 22.375 14.1405H17.6875C16.7814 14.1405 16.0469 14.8751 16.0469 15.7812V16.0155H13.7029V10.8591H15.3437C16.2498 10.8591 16.9844 10.1246 16.9844 9.2185V5.46851C16.9844 4.56242 16.2498 3.82788 15.3438 3.82788H10.6562Z" fill="#2F7267"/>
</svg>
