<svg width="19" height="21" viewBox="0 0 19 21" fill="none" xmlns="http://www.w3.org/2000/svg">
<path d="M9.32217 0.389229C9.43686 0.274502 9.5896 0.210449 9.74849 0.210449C9.90737 0.210449 10.0601 0.274502 10.1748 0.389229C11.5341 1.74849 13.4691 2.48597 15.1216 2.87837C15.9393 3.07174 16.6687 3.17666 17.1926 3.23323C17.4637 3.26225 17.7355 3.28317 18.0078 3.29597H18.0181C18.179 3.29987 18.3321 3.36931 18.4446 3.48945C18.557 3.60959 18.62 3.77089 18.6199 3.93883V8.95311C18.6199 13.8373 16.1261 18.7328 9.93232 20.7524C9.81262 20.7914 9.68435 20.7914 9.56465 20.7524C6.49021 19.7495 4.30685 18.0308 2.8963 15.9088C1.49017 13.7915 0.87706 11.3121 0.87706 8.82454V3.93883C0.877014 3.77097 0.939887 3.60975 1.05224 3.48963C1.1646 3.3695 1.31753 3.3 1.47835 3.29597H1.48919L1.52862 3.29443C1.56476 3.29306 1.61865 3.29014 1.69027 3.28569C1.8332 3.27694 2.04267 3.261 2.30437 3.23323C3.00081 3.15769 3.69235 3.03919 4.37536 2.87837C6.02742 2.48597 7.96237 1.74849 9.32217 0.389229ZM13.9935 8.00374C14.0537 7.9459 14.1023 7.87612 14.1363 7.79848C14.1704 7.72083 14.1893 7.63688 14.192 7.55152C14.1946 7.46616 14.1809 7.3811 14.1517 7.30133C14.1225 7.22155 14.0784 7.14864 14.0218 7.08687C13.9653 7.02509 13.8976 6.97569 13.8226 6.94154C13.7475 6.90739 13.6668 6.88918 13.5849 6.88798C13.5031 6.88677 13.4218 6.90259 13.3459 6.93452C13.27 6.96644 13.201 7.01383 13.1428 7.07392L8.15656 12.0404L6.36453 10.1699C6.24898 10.0493 6.09226 9.9816 5.92885 9.9816C5.76543 9.9816 5.60871 10.0493 5.49316 10.1699C5.37761 10.2905 5.31269 10.454 5.31269 10.6245C5.31269 10.7951 5.37761 10.9586 5.49316 11.0792L7.71102 13.3935C7.94759 13.6403 8.33005 13.6455 8.57204 13.4037L13.9935 8.00374Z" fill="#81759F"/>
</svg>
