<svg width="28" height="29" viewBox="0 0 28 29" fill="none" xmlns="http://www.w3.org/2000/svg">
  <path
    d="M25.5851 14.9721C25.9379 14.9721 26.2238 14.6862 26.2238 14.3334C26.2238 13.9806 25.9379 13.6946 25.5851 13.6946C25.2323 13.6946 24.9463 13.9806 24.9463 14.3334C24.9463 14.6862 25.2323 14.9721 25.5851 14.9721Z"
    fill="#123B6D" />
  <path
    d="M8.38523 14.9985C8.80832 14.9985 9.15131 14.6555 9.15131 14.2324C9.15131 13.8093 8.80832 13.4663 8.38523 13.4663C7.96213 13.4663 7.61914 13.8093 7.61914 14.2324C7.61914 14.6555 7.96213 14.9985 8.38523 14.9985Z"
    fill="#123B6D" />
  <path
    d="M17.0486 14.2322H8.12793V14.6589L16.429 19.2187L16.54 19.2771C16.6986 19.3537 16.8725 19.3935 17.0486 19.3935C17.2248 19.3935 17.3986 19.3537 17.5572 19.2771L17.6683 19.2187L25.9693 14.6589V14.2322H17.0486Z"
    fill="#123B6D" />
  <path
    d="M17.0486 14.2324H8.12793V13.8056L16.429 9.24591L16.54 9.18746C16.6986 9.11084 16.8725 9.07104 17.0486 9.07104C17.2248 9.07104 17.3986 9.11084 17.5572 9.18746L17.6683 9.24591L25.9342 13.8115V14.2324H17.0486Z"
    fill="#123B6D" />
  <path
    d="M23.6135 3.94946H10.5014C9.90736 3.94946 9.42578 4.43104 9.42578 5.02509V21.937C9.42578 22.5311 9.90736 23.0126 10.5014 23.0126H23.6135C24.2076 23.0126 24.6892 22.5311 24.6892 21.937V5.02509C24.6892 4.43104 24.2076 3.94946 23.6135 3.94946Z"
    fill="#28A8EA" />
  <path d="M9.42578 14.969H15.5171V19.5638H9.42578V14.969Z" fill="#14447D" />
  <path d="M14.7568 14.969H20.1057V19.5638H14.7568V14.969Z" fill="#0364B8" />
  <path d="M9.42578 10.5437H14.7572V14.969H9.42578V10.5437Z" fill="#0664B2" />
  <path
    d="M20.1061 14.969H24.695V19.5638H20.1061V14.969ZM14.7572 10.5437H20.1061V14.969H14.7572V10.5437ZM9.42578 6.12427H14.7572V10.5437H9.42578V6.12427Z"
    fill="#0078D4" />
  <path d="M20.106 6.12427H24.6949V10.5437H20.106V6.12427Z" fill="#50D9FF" />
  <path
    d="M10.5014 3.94961H23.596C23.8789 3.94991 24.1509 4.05871 24.356 4.25359C24.4547 4.34812 24.5336 4.46149 24.5878 4.58699C24.642 4.7125 24.6705 4.8476 24.6716 4.98432V6.15348H9.42578V4.98432C9.43192 4.70471 9.54852 4.4389 9.75008 4.24501C9.95164 4.05111 10.2218 3.94491 10.5014 3.94961Z"
    fill="#0358A7" />
  <path
    d="M25.9693 14.6589L17.6682 19.2128C17.6333 19.2376 17.5961 19.2592 17.5571 19.2771C17.3985 19.3537 17.2247 19.3935 17.0486 19.3935C16.8724 19.3935 16.6986 19.3537 16.54 19.2771C16.501 19.2592 16.4638 19.2376 16.4289 19.2128L8.13956 14.6589C8.06319 14.6169 7.99955 14.5551 7.95532 14.48C7.91109 14.405 7.8879 14.3193 7.88819 14.2322V23.4276C7.8904 23.5776 7.92263 23.7255 7.98298 23.8628C8.04333 24.0001 8.13057 24.1238 8.23956 24.2268C8.34854 24.3298 8.47706 24.4099 8.61752 24.4624C8.75797 24.5149 8.90753 24.5387 9.05735 24.5325H25.0748C25.2247 24.5387 25.3742 24.5149 25.5147 24.4624C25.6551 24.4099 25.7836 24.3298 25.8926 24.2268C26.0016 24.1238 26.0889 24.0001 26.1492 23.8628C26.2096 23.7255 26.2418 23.5776 26.244 23.4276V14.2322C26.2443 14.3193 26.2211 14.405 26.1769 14.48C26.1326 14.5551 26.069 14.6169 25.9926 14.6589H25.9693Z"
    fill="url(#paint0_linear_2474_17388)" />
  <path opacity="0.5"
    d="M17.0483 19.394C16.8721 19.3939 16.6982 19.3539 16.5397 19.2771L8.18018 14.6882L8.55431 14.0451C8.55431 14.0451 16.7384 18.5581 16.8963 18.6224C16.9471 18.6441 17.0018 18.6553 17.057 18.6553C17.1123 18.6553 17.167 18.6441 17.2178 18.6224L25.5773 14.0276L25.9339 14.6589L17.5568 19.2771C17.3983 19.3539 17.2244 19.3939 17.0483 19.394Z"
    fill="#0A2767" />
  <path
    d="M9.02226 24.55H25.0748C25.3168 24.5492 25.553 24.4759 25.7529 24.3395L16.54 19.277C16.501 19.2591 16.4638 19.2376 16.4289 19.2127L8.13954 14.6589L7.88232 14.5186V23.4276C7.88231 23.5764 7.91191 23.7238 7.96941 23.8612C8.02691 23.9985 8.11115 24.123 8.21724 24.2275C8.32333 24.3319 8.44914 24.4142 8.58735 24.4696C8.72555 24.525 8.87339 24.5523 9.02226 24.55Z"
    fill="#28A8EA" />
  <g opacity="0.67">
    <path opacity="0.05"
      d="M14.903 8.33374H8.71229C8.6828 8.38333 8.66668 8.43973 8.66553 8.49742V19.9727C8.66857 20.073 8.71056 20.1682 8.78258 20.238C8.85461 20.3079 8.95102 20.3469 9.05135 20.3469H14.3769C14.4759 20.3484 14.5743 20.3304 14.6664 20.294C14.7585 20.2575 14.8425 20.2032 14.9136 20.1343C14.9847 20.0653 15.0415 19.9831 15.0808 19.8922C15.1201 19.8012 15.1412 19.7035 15.1427 19.6044V8.86571C15.1421 8.76521 15.1205 8.66595 15.0792 8.57432C15.0379 8.48269 14.9779 8.40074 14.903 8.33374Z"
      fill="black" />
    <path opacity="0.1"
      d="M12.9735 10.0642H7.87598V21.8961H12.9735C13.2346 21.904 13.4882 21.8082 13.6788 21.6296C13.8694 21.451 13.9815 21.2043 13.9907 20.9432V11.0054C13.9785 10.7464 13.8651 10.5026 13.6748 10.3265C13.4845 10.1504 13.2326 10.0562 12.9735 10.0642Z"
      fill="black" />
    <path opacity="0.2"
      d="M12.9735 9.39746H7.87598V21.2118H12.9735C13.2336 21.2197 13.4863 21.1247 13.6768 20.9474C13.8672 20.7701 13.98 20.5248 13.9907 20.2648V10.3269C13.9756 10.0701 13.8608 9.82919 13.6709 9.65561C13.4809 9.48202 13.2307 9.3894 12.9735 9.39746Z"
      fill="black" />
    <path opacity="0.1"
      d="M14.0727 8.35723H8.74715C8.64736 8.35564 8.55095 8.39338 8.47876 8.46229C8.40657 8.53121 8.36439 8.62575 8.36133 8.72551V20.2067C8.36439 20.3064 8.40657 20.401 8.47876 20.4699C8.55095 20.5388 8.64736 20.5765 8.74715 20.575H14.0727C14.2697 20.575 14.4589 20.498 14.5998 20.3603C14.7407 20.2227 14.8222 20.0353 14.8268 19.8384V9.0938C14.8222 8.89685 14.7407 8.70951 14.5998 8.57186C14.4589 8.43421 14.2697 8.35717 14.0727 8.35723Z"
      fill="black" />
    <path opacity="0.1"
      d="M14.061 8.66123H8.73543C8.63564 8.65964 8.53924 8.69739 8.46704 8.7663C8.39485 8.83521 8.35267 8.92976 8.34961 9.02952V20.3938C8.35267 20.4935 8.39485 20.5881 8.46704 20.657C8.53924 20.7259 8.63564 20.7636 8.73543 20.762L13.9967 20.8497C14.2097 20.8315 14.4096 20.7389 14.5613 20.5882C14.713 20.4376 14.807 20.2384 14.8268 20.0255V9.3978C14.8222 9.19881 14.7391 9.00971 14.5956 8.87173C14.4522 8.73376 14.26 8.65809 14.061 8.66123Z"
      fill="black" />
    <path opacity="0.01"
      d="M7.87632 8.33398V17.4301H7.81201V18.9383C7.81277 18.9874 7.82321 19.0359 7.84272 19.081C7.86223 19.1261 7.89043 19.1669 7.92571 19.2011C7.961 19.2353 8.00267 19.2622 8.04836 19.2803C8.09405 19.2984 8.14286 19.3073 8.19199 19.3066L12.4243 18.5583C12.8452 18.5583 13.9793 18.2075 13.9793 17.7983V8.53274C13.9748 8.46494 13.961 8.39807 13.9384 8.33398H7.87632Z"
      fill="black" />
    <path opacity="0.2"
      d="M12.9735 9.7075H7.87598V21.5394H12.9735C13.2346 21.5473 13.4882 21.4515 13.6788 21.2729C13.8694 21.0943 13.9815 20.8476 13.9907 20.5865V10.6487C13.9785 10.3897 13.8651 10.1459 13.6748 9.96983C13.4845 9.79376 13.2326 9.69954 12.9735 9.7075Z"
      fill="black" />
    <path opacity="0.3"
      d="M12.9735 8.66704H7.87598V20.2534H12.9735C13.2342 20.2598 13.4869 20.1634 13.6771 19.9852C13.8674 19.8069 13.98 19.5611 13.9907 19.3006V9.61991C13.98 9.3594 13.8674 9.11352 13.6771 8.93527C13.4869 8.75702 13.2342 8.66069 12.9735 8.66704Z"
      fill="black" />
    <path opacity="0.3"
      d="M12.9735 8.66704H7.87598V20.195H12.9735C13.2346 20.2029 13.4882 20.107 13.6788 19.9285C13.8694 19.7499 13.9815 19.5031 13.9907 19.2421V9.61991C13.98 9.3594 13.8674 9.11352 13.6771 8.93527C13.4869 8.75702 13.2342 8.66069 12.9735 8.66704Z"
      fill="black" />
    <path opacity="0.3"
      d="M12.9735 8.90672H7.87598V20.7386H12.9735C13.2342 20.745 13.4869 20.6486 13.6771 20.4704C13.8674 20.2921 13.98 20.0463 13.9907 19.7858V9.84789C13.9785 9.58892 13.8651 9.34512 13.6748 9.16905C13.4845 8.99298 13.2326 8.89876 12.9735 8.90672Z"
      fill="black" />
    <path opacity="0.2"
      d="M12.9735 9.12888H7.87598V20.9608H12.9735C13.2346 20.9687 13.4882 20.8729 13.6788 20.6943C13.8694 20.5157 13.9815 20.269 13.9907 20.0079V10.0701C13.9785 9.8111 13.8651 9.56729 13.6748 9.39122C13.4845 9.21515 13.2326 9.12093 12.9735 9.12888Z"
      fill="black" />
    <path opacity="0.1"
      d="M13.9326 9.00009H8.60703C8.5579 8.99932 8.50909 9.00823 8.4634 9.02632C8.41772 9.04441 8.37604 9.07133 8.34075 9.10553C8.30547 9.13973 8.27726 9.18054 8.25776 9.22564C8.23825 9.27075 8.22781 9.31924 8.22705 9.36838V20.148C8.22781 20.1972 8.23825 20.2457 8.25776 20.2908C8.27726 20.3359 8.30547 20.3767 8.34075 20.4109C8.37604 20.4451 8.41772 20.472 8.4634 20.4901C8.50909 20.5082 8.5579 20.5171 8.60703 20.5163H13.9326C14.0313 20.5186 14.1295 20.5014 14.2216 20.4656C14.3136 20.4297 14.3977 20.376 14.4689 20.3076C14.5401 20.2391 14.597 20.1572 14.6364 20.0666C14.6758 19.976 14.6968 19.8785 14.6984 19.7798V9.73667C14.6937 9.53768 14.6107 9.34858 14.4672 9.2106C14.3238 9.07262 14.1316 8.99695 13.9326 9.00009Z"
      fill="black" />
    <path opacity="0.2"
      d="M13.3476 9.00009H8.01627C7.96806 9.0007 7.92042 9.01063 7.87598 9.02932V20.2474C7.92232 20.2563 7.96993 20.2563 8.01627 20.2474H13.3476C13.4459 20.249 13.5435 20.2311 13.6349 20.195C13.7263 20.1588 13.8096 20.105 13.8802 20.0366C13.9508 19.9682 14.0072 19.8865 14.0462 19.7963C14.0852 19.7061 14.1061 19.6091 14.1076 19.5108V9.73667C14.1061 9.6384 14.0852 9.54139 14.0462 9.45119C14.0072 9.36099 13.9508 9.27936 13.8802 9.21096C13.8096 9.14256 13.7263 9.08873 13.6349 9.05255C13.5435 9.01637 13.4459 8.99855 13.3476 9.00009Z"
      fill="black" />
    <path opacity="0.3"
      d="M12.0091 8.36308H8.12754C8.0784 8.36231 8.0296 8.37122 7.98391 8.38931C7.93822 8.4074 7.89654 8.43431 7.86126 8.46851C7.82597 8.50271 7.79777 8.54353 7.77826 8.58863C7.75875 8.63373 7.74832 8.68223 7.74756 8.73137V19.511C7.74832 19.5602 7.75875 19.6087 7.77826 19.6538C7.79777 19.6989 7.82597 19.7397 7.86126 19.7739C7.89654 19.8081 7.93822 19.835 7.98391 19.8531C8.0296 19.8712 8.0784 19.8801 8.12754 19.8793H13.4589C13.5591 19.884 13.6592 19.8685 13.7533 19.8338C13.8474 19.799 13.9336 19.7457 14.0066 19.677C14.0797 19.6083 14.1382 19.5256 14.1787 19.4338C14.2192 19.342 14.2408 19.243 14.2422 19.1427V9.42702C14.2422 8.98858 13.2075 8.7489 13.0731 8.6203C12.7438 8.45159 12.3792 8.36344 12.0091 8.36308Z"
      fill="black" />
    <path opacity="0.1"
      d="M13.6577 9.53183H8.3497C8.30057 9.53106 8.25177 9.53997 8.20608 9.55806C8.16039 9.57615 8.11871 9.60306 8.08343 9.63726C8.04814 9.67146 8.01994 9.71228 8.00043 9.75738C7.98092 9.80248 7.97049 9.85098 7.96973 9.90012V20.6798C7.97049 20.7289 7.98092 20.7774 8.00043 20.8225C8.01994 20.8676 8.04814 20.9084 8.08343 20.9426C8.11871 20.9768 8.16039 21.0037 8.20608 21.0218C8.25177 21.0399 8.30057 21.0488 8.3497 21.0481H13.6577C13.8567 21.0512 14.0489 20.9755 14.1923 20.8376C14.3358 20.6996 14.4189 20.5105 14.4235 20.3115V10.2684C14.4189 10.0694 14.3358 9.88032 14.1923 9.74234C14.0489 9.60436 13.8567 9.52869 13.6577 9.53183Z"
      fill="black" />
    <path opacity="0.1"
      d="M13.2018 8.00058H9.40207V11.2801H7.87632V17.6345H7.81201V19.1485C7.81277 19.1977 7.82321 19.2462 7.84272 19.2913C7.86223 19.3364 7.89043 19.3772 7.92571 19.4114C7.961 19.4456 8.00267 19.4725 8.04836 19.4906C8.09405 19.5087 8.14286 19.5176 8.19199 19.5168L12.4127 18.751C12.8336 18.751 13.9676 18.3944 13.9676 17.9911V8.73715C13.963 8.53817 13.88 8.34907 13.7365 8.21109C13.593 8.07311 13.4009 7.99744 13.2018 8.00058Z"
      fill="black" />
    <path opacity="0.15"
      d="M13.2018 8.18249H9.40207V11.2808H7.87632V17.8222H7.81201V19.3363C7.81277 19.3854 7.82321 19.4339 7.84272 19.479C7.86223 19.5241 7.89043 19.5649 7.92571 19.5991C7.961 19.6333 8.00267 19.6602 8.04836 19.6783C8.09405 19.6964 8.14286 19.7053 8.19199 19.7046L12.4243 18.9563C12.8452 18.9563 13.9793 18.6056 13.9793 18.1964V8.92491C13.9778 8.82487 13.9564 8.72613 13.9164 8.63444C13.8764 8.54275 13.8185 8.45994 13.7461 8.39084C13.6737 8.32175 13.5884 8.26774 13.4949 8.23197C13.4015 8.1962 13.3018 8.17938 13.2018 8.18249Z"
      fill="black" />
  </g>
  <path
    d="M2.77887 8.33365H12.974C13.1052 8.33133 13.2357 8.35489 13.3579 8.40299C13.48 8.45109 13.5915 8.52279 13.686 8.61399C13.7804 8.70519 13.856 8.81411 13.9084 8.93452C13.9607 9.05493 13.9888 9.18447 13.9911 9.31575V19.1484C13.9911 19.2776 13.9647 19.4055 13.9134 19.5241C13.8621 19.6428 13.7871 19.7496 13.693 19.8382C13.5003 20.0252 13.2425 20.13 12.974 20.1305H2.77887C2.51011 20.1313 2.25182 20.0263 2.05984 19.8382C1.96492 19.7499 1.889 19.6432 1.83674 19.5246C1.78447 19.406 1.75695 19.278 1.75586 19.1484V9.31575C1.762 9.05009 1.87305 8.79766 2.06474 8.61363C2.25644 8.42961 2.51319 8.32895 2.77887 8.33365Z"
    fill="#0078D4" />
  <path
    d="M4.69057 12.391C4.96787 11.8219 5.40984 11.3494 5.95911 11.0347C6.58019 10.703 7.27807 10.5416 7.98175 10.5671C8.6359 10.5529 9.28188 10.7144 9.85241 11.0347C10.3813 11.3344 10.8119 11.7812 11.0917 12.3208C11.3877 12.9118 11.5361 13.5657 11.5243 14.2265C11.5363 14.9175 11.3819 15.6012 11.0742 16.22C10.7925 16.7833 10.3486 17.2496 9.7998 17.5586C9.20475 17.8676 8.5441 18.0289 7.87361 18.0289C7.20311 18.0289 6.54246 17.8676 5.94741 17.5586C5.4154 17.2539 4.9814 16.8037 4.69641 16.2609C4.39786 15.679 4.24728 15.0325 4.25798 14.3785C4.2462 13.6952 4.39434 13.0186 4.69057 12.4026V12.391ZM6.05848 15.5711C6.205 15.9302 6.45279 16.2389 6.77167 16.4596C7.10029 16.6832 7.49091 16.7977 7.88822 16.787C8.30323 16.8012 8.7122 16.6846 9.05738 16.4538C9.37357 16.232 9.61591 15.9204 9.75303 15.5594C9.90493 15.162 9.9803 14.7396 9.97517 14.3142C9.981 13.8841 9.90972 13.4565 9.76472 13.0515C9.63806 12.6849 9.40629 12.3637 9.0983 12.1279C8.75758 11.886 8.34678 11.7627 7.92914 11.7771C7.52441 11.7654 7.12605 11.8798 6.78921 12.1045C6.46569 12.3273 6.21224 12.6375 6.05848 12.9989C5.72803 13.8245 5.72803 14.7455 6.05848 15.5711Z"
    fill="white" />
  <path opacity="0.4"
    d="M4.69057 12.391C4.96787 11.8219 5.40984 11.3494 5.95911 11.0347C6.58019 10.703 7.27807 10.5416 7.98175 10.5671C8.6359 10.5529 9.28188 10.7144 9.85241 11.0347C10.3813 11.3344 10.8119 11.7812 11.0917 12.3208C11.3877 12.9118 11.5361 13.5657 11.5243 14.2265C11.5363 14.9175 11.3819 15.6012 11.0742 16.22C10.7925 16.7833 10.3486 17.2496 9.7998 17.5586C9.20475 17.8676 8.5441 18.0289 7.87361 18.0289C7.20311 18.0289 6.54246 17.8676 5.94741 17.5586C5.4154 17.2539 4.9814 16.8037 4.69641 16.2609C4.39786 15.679 4.24728 15.0325 4.25798 14.3785C4.2462 13.6952 4.39434 13.0186 4.69057 12.4026V12.391ZM6.05848 15.5711C6.205 15.9302 6.45279 16.2389 6.77167 16.4596C7.10029 16.6832 7.49091 16.7977 7.88822 16.787C8.30323 16.8012 8.7122 16.6846 9.05738 16.4538C9.37357 16.232 9.61591 15.9204 9.75303 15.5594C9.90493 15.162 9.9803 14.7396 9.97517 14.3142C9.981 13.8841 9.90972 13.4565 9.76472 13.0515C9.63806 12.6849 9.40629 12.3637 9.0983 12.1279C8.75758 11.886 8.34678 11.7627 7.92914 11.7771C7.52441 11.7654 7.12605 11.8798 6.78921 12.1045C6.46569 12.3273 6.21224 12.6375 6.05848 12.9989C5.72803 13.8245 5.72803 14.7455 6.05848 15.5711Z"
    fill="white" />
  <path
    d="M4.69057 12.391C4.96787 11.8219 5.40984 11.3494 5.95911 11.0347C6.58019 10.703 7.27807 10.5416 7.98175 10.5671C8.6359 10.5529 9.28188 10.7144 9.85241 11.0347C10.3813 11.3344 10.8119 11.7812 11.0917 12.3208C11.3877 12.9118 11.5361 13.5657 11.5243 14.2265C11.5363 14.9175 11.3819 15.6012 11.0742 16.22C10.7925 16.7833 10.3486 17.2496 9.7998 17.5586C9.20475 17.8676 8.5441 18.0289 7.87361 18.0289C7.20311 18.0289 6.54246 17.8676 5.94741 17.5586C5.4154 17.2539 4.9814 16.8037 4.69641 16.2609C4.39786 15.679 4.24728 15.0325 4.25798 14.3785C4.2462 13.6952 4.39434 13.0186 4.69057 12.4026V12.391ZM6.05848 15.5711C6.205 15.9302 6.45279 16.2389 6.77167 16.4596C7.10029 16.6832 7.49091 16.7977 7.88822 16.787C8.30323 16.8012 8.7122 16.6846 9.05738 16.4538C9.37357 16.232 9.61591 15.9204 9.75303 15.5594C9.90493 15.162 9.9803 14.7396 9.97517 14.3142C9.981 13.8841 9.90972 13.4565 9.76472 13.0515C9.63806 12.6849 9.40629 12.3637 9.0983 12.1279C8.75758 11.886 8.34678 11.7627 7.92914 11.7771C7.52441 11.7654 7.12605 11.8798 6.78921 12.1045C6.46569 12.3273 6.21224 12.6375 6.05848 12.9989C5.72803 13.8245 5.72803 14.7455 6.05848 15.5711Z"
    fill="url(#paint1_linear_2474_17388)" />
  <path
    d="M4.69057 12.391C4.96787 11.8219 5.40984 11.3494 5.95911 11.0347C6.58019 10.703 7.27807 10.5416 7.98175 10.5671C8.6359 10.5529 9.28188 10.7144 9.85241 11.0347C10.3813 11.3344 10.8119 11.7812 11.0917 12.3208C11.3877 12.9118 11.5361 13.5657 11.5243 14.2265C11.5363 14.9175 11.3819 15.6012 11.0742 16.22C10.7925 16.7833 10.3486 17.2496 9.7998 17.5586C9.20475 17.8676 8.5441 18.0289 7.87361 18.0289C7.20311 18.0289 6.54246 17.8676 5.94741 17.5586C5.4154 17.2539 4.9814 16.8037 4.69641 16.2609C4.39786 15.679 4.24728 15.0325 4.25798 14.3785C4.2462 13.6952 4.39434 13.0186 4.69057 12.4026V12.391ZM6.05848 15.5711C6.205 15.9302 6.45279 16.2389 6.77167 16.4596C7.10029 16.6832 7.49091 16.7977 7.88822 16.787C8.30323 16.8012 8.7122 16.6846 9.05738 16.4538C9.37357 16.232 9.61591 15.9204 9.75303 15.5594C9.90493 15.162 9.9803 14.7396 9.97517 14.3142C9.981 13.8841 9.90972 13.4565 9.76472 13.0515C9.63806 12.6849 9.40629 12.3637 9.0983 12.1279C8.75758 11.886 8.34678 11.7627 7.92914 11.7771C7.52441 11.7654 7.12605 11.8798 6.78921 12.1045C6.46569 12.3273 6.21224 12.6375 6.05848 12.9989C5.72803 13.8245 5.72803 14.7455 6.05848 15.5711Z"
    fill="url(#paint2_linear_2474_17388)" />
  <defs>
    <linearGradient id="paint0_linear_2474_17388" x1="47.0668" y1="55.8602" x2="39.3389" y2="64.7137"
      gradientUnits="userSpaceOnUse">
      <stop stop-color="#35B8F1" />
      <stop offset="0.75" stop-color="#0D64AD" />
    </linearGradient>
    <linearGradient id="paint1_linear_2474_17388" x1="31.4308" y1="50.6921" x2="31.4308" y2="58.1739"
      gradientUnits="userSpaceOnUse">
      <stop stop-color="#F2F2F2" />
      <stop offset="1" stop-color="white" />
    </linearGradient>
    <linearGradient id="paint2_linear_2474_17388" x1="-62.0977" y1="286.501" x2="-62.0977" y2="285.735"
      gradientUnits="userSpaceOnUse">
      <stop stop-color="#F2F2F2" />
      <stop offset="1" stop-color="white" />
    </linearGradient>
  </defs>
</svg>