<svg width="21" height="21" viewBox="0 0 21 21" fill="none" xmlns="http://www.w3.org/2000/svg">
<path d="M13.1113 5.46045V8.88357L14.3088 9.6367C14.3521 9.64599 14.3968 9.64599 14.4401 9.6367L19.5888 6.16545C19.5851 5.99698 19.5234 5.83494 19.4143 5.70655C19.3051 5.57817 19.1551 5.49127 18.9895 5.46045H13.1113Z" fill="#0072C6" fill-opacity="0.8"/>
<path d="M13.1103 10.1606L14.2022 10.9106C14.2533 10.9418 14.312 10.9584 14.3719 10.9584C14.4318 10.9584 14.4905 10.9418 14.5416 10.9106C14.3541 11.0237 19.5872 7.54932 19.5872 7.54932V13.8406C19.6009 13.968 19.5865 14.097 19.5451 14.2183C19.5037 14.3397 19.4363 14.4505 19.3476 14.5431C19.2589 14.6356 19.151 14.7077 19.0316 14.7542C18.9121 14.8008 18.7839 14.8206 18.656 14.8124H13.1097L13.1103 10.1606ZM7.45783 8.58244C7.27643 8.58164 7.09818 8.62988 6.94195 8.72208C6.78572 8.81428 6.65732 8.947 6.57033 9.10619C6.33287 9.52828 6.21895 10.0087 6.24158 10.4924C6.21691 10.9752 6.33099 11.455 6.57033 11.8749C6.6569 12.0276 6.78213 12.1548 6.93343 12.2438C7.08474 12.3327 7.25679 12.3803 7.4323 12.3817C7.60781 12.3831 7.7806 12.3383 7.9333 12.2517C8.08599 12.1652 8.21323 12.04 8.30221 11.8887C8.53941 11.4708 8.65116 10.9934 8.62408 10.5137C8.65116 10.0189 8.54314 9.52613 8.31158 9.08807C8.22861 8.9342 8.1053 8.80584 7.95488 8.71676C7.80447 8.62768 7.63264 8.58125 7.45783 8.58244Z" fill="#0072C6" fill-opacity="0.8"/>
<path d="M2.2793 3.72188V17.1138L12.4668 19.25V1.75L2.2793 3.72188ZM9.0968 12.6819C8.90626 12.9506 8.65287 13.1686 8.35873 13.3168C8.06458 13.4651 7.73863 13.5391 7.4093 13.5325C7.08826 13.5382 6.7706 13.4663 6.48333 13.3229C6.19605 13.1795 5.94767 12.9688 5.7593 12.7087C5.31258 12.085 5.0891 11.3289 5.12492 10.5625C5.08701 9.75854 5.31453 8.96441 5.77242 8.3025C5.96552 8.02883 6.22292 7.8068 6.52197 7.65597C6.82102 7.50514 7.15257 7.43011 7.48742 7.4375C7.80609 7.43132 8.12142 7.50335 8.4058 7.64729C8.69019 7.79122 8.93495 8.00267 9.11867 8.26312C9.56092 8.90042 9.7806 9.66579 9.74367 10.4406C9.78278 11.2388 9.5552 12.0273 9.0968 12.6819Z" fill="#0072C6" fill-opacity="0.8"/>
</svg>
