<svg width="26" height="22" viewBox="0 0 26 22" fill="none" xmlns="http://www.w3.org/2000/svg">
  <path
    d="M24.5851 11.7221C24.9379 11.7221 25.2238 11.4361 25.2238 11.0834C25.2238 10.7306 24.9379 10.4446 24.5851 10.4446C24.2323 10.4446 23.9463 10.7306 23.9463 11.0834C23.9463 11.4361 24.2323 11.7221 24.5851 11.7221Z"
    fill="#123B6D" />
  <path
    d="M7.38523 11.7487C7.80832 11.7487 8.15131 11.4057 8.15131 10.9826C8.15131 10.5595 7.80832 10.2165 7.38523 10.2165C6.96213 10.2165 6.61914 10.5595 6.61914 10.9826C6.61914 11.4057 6.96213 11.7487 7.38523 11.7487Z"
    fill="#123B6D" />
  <path
    d="M16.0486 10.9824H7.12793V11.4092L15.429 15.9689L15.54 16.0273C15.6986 16.104 15.8725 16.1437 16.0486 16.1437C16.2248 16.1437 16.3986 16.104 16.5572 16.0273L16.6683 15.9689L24.9693 11.4092V10.9824H16.0486Z"
    fill="#123B6D" />
  <path
    d="M16.0486 10.9825H7.12793V10.5558L15.429 5.99603L15.54 5.93757C15.6986 5.86095 15.8725 5.82116 16.0486 5.82116C16.2248 5.82116 16.3986 5.86095 16.5572 5.93757L16.6683 5.99603L24.9342 10.5616V10.9825H16.0486Z"
    fill="#123B6D" />
  <path
    d="M22.6135 0.699684H9.50141C8.90736 0.699684 8.42578 1.18126 8.42578 1.77531V18.6872C8.42578 19.2813 8.90736 19.7628 9.50141 19.7628H22.6135C23.2076 19.7628 23.6892 19.2813 23.6892 18.6872V1.77531C23.6892 1.18126 23.2076 0.699684 22.6135 0.699684Z"
    fill="#28A8EA" />
  <path d="M8.42578 11.7191H14.5171V16.3139H8.42578V11.7191Z" fill="#14447D" />
  <path d="M13.7568 11.7191H19.1057V16.3139H13.7568V11.7191Z" fill="#0364B8" />
  <path d="M8.42578 7.29379H13.7572V11.7191H8.42578V7.29379Z" fill="#0664B2" />
  <path
    d="M19.1061 11.7191H23.695V16.3139H19.1061V11.7191ZM13.7572 7.29383H19.1061V11.7191H13.7572V7.29383ZM8.42578 2.8744H13.7572V7.29383H8.42578V2.8744Z"
    fill="#0078D4" />
  <path d="M19.106 2.8744H23.6949V7.29383H19.106V2.8744Z" fill="#50D9FF" />
  <path
    d="M9.50141 0.699689H22.596C22.8789 0.699988 23.1509 0.808787 23.356 1.00367C23.4547 1.0982 23.5336 1.21156 23.5878 1.33707C23.642 1.46258 23.6705 1.59768 23.6716 1.73439V2.90355H8.42578V1.73439C8.43192 1.45478 8.54852 1.18898 8.75008 0.995083C8.95164 0.801191 9.22177 0.694986 9.50141 0.699689Z"
    fill="#0358A7" />
  <path
    d="M24.9693 11.4092L16.6682 15.963C16.6333 15.9879 16.5961 16.0094 16.5571 16.0273C16.3985 16.104 16.2247 16.1437 16.0486 16.1437C15.8724 16.1437 15.6986 16.104 15.54 16.0273C15.501 16.0094 15.4638 15.9879 15.4289 15.963L7.13956 11.4092C7.06319 11.3672 6.99955 11.3054 6.95532 11.2303C6.91109 11.1552 6.8879 11.0696 6.88819 10.9824V20.1779C6.8904 20.3278 6.92263 20.4758 6.98298 20.613C7.04333 20.7503 7.13057 20.8741 7.23956 20.9771C7.34854 21.0801 7.47706 21.1602 7.61752 21.2127C7.75797 21.2652 7.90753 21.289 8.05735 21.2827H24.0748C24.2247 21.289 24.3742 21.2652 24.5147 21.2127C24.6551 21.1602 24.7836 21.0801 24.8926 20.9771C25.0016 20.8741 25.0889 20.7503 25.1492 20.613C25.2096 20.4758 25.2418 20.3278 25.244 20.1779V10.9824C25.2443 11.0696 25.2211 11.1552 25.1769 11.2303C25.1326 11.3054 25.069 11.3672 24.9926 11.4092H24.9693Z"
    fill="url(#paint0_linear_2520_17254)" />
  <path opacity="0.5"
    d="M16.0483 16.1442C15.8721 16.144 15.6982 16.104 15.5397 16.0273L7.18018 11.4383L7.55431 10.7953C7.55431 10.7953 15.7384 15.3082 15.8963 15.3725C15.9471 15.3942 16.0018 15.4054 16.057 15.4054C16.1123 15.4054 16.167 15.3942 16.2178 15.3725L24.5773 10.7777L24.9339 11.4091L16.5568 16.0273C16.3983 16.104 16.2244 16.144 16.0483 16.1442Z"
    fill="#0A2767" />
  <path
    d="M8.02226 21.3001H24.0748C24.3168 21.2994 24.553 21.2261 24.7529 21.0897L15.54 16.0272C15.501 16.0093 15.4638 15.9878 15.4289 15.9629L7.13954 11.409L6.88232 11.2687V20.1777C6.88231 20.3266 6.91191 20.474 6.96941 20.6114C7.02691 20.7487 7.11115 20.8732 7.21724 20.9777C7.32333 21.0821 7.44914 21.1644 7.58735 21.2198C7.72555 21.2752 7.87339 21.3025 8.02226 21.3001Z"
    fill="#28A8EA" />
  <g opacity="0.67">
    <path opacity="0.05"
      d="M13.903 5.08394H7.71229C7.6828 5.13353 7.66668 5.18993 7.66553 5.24762V16.7229C7.66857 16.8232 7.71056 16.9184 7.78258 16.9882C7.85461 17.0581 7.95102 17.0971 8.05135 17.0971H13.3769C13.4759 17.0986 13.5743 17.0806 13.6664 17.0442C13.7585 17.0077 13.8425 16.9534 13.9136 16.8845C13.9847 16.8155 14.0415 16.7333 14.0808 16.6424C14.1201 16.5514 14.1412 16.4537 14.1427 16.3546V5.6159C14.1421 5.51541 14.1205 5.41615 14.0792 5.32452C14.0379 5.23289 13.9779 5.15094 13.903 5.08394Z"
      fill="black" />
    <path opacity="0.1"
      d="M11.9735 6.81438H6.87598V18.6463H11.9735C12.2346 18.6542 12.4882 18.5584 12.6788 18.3798C12.8694 18.2012 12.9815 17.9545 12.9907 17.6934V7.75556C12.9785 7.4966 12.8651 7.25279 12.6748 7.07672C12.4845 6.90065 12.2326 6.80643 11.9735 6.81438Z"
      fill="black" />
    <path opacity="0.2"
      d="M11.9735 6.14766H6.87598V17.962H11.9735C12.2336 17.9699 12.4863 17.8749 12.6768 17.6976C12.8672 17.5203 12.98 17.275 12.9907 17.015V7.07714C12.9756 6.82026 12.8608 6.5794 12.6709 6.40581C12.4809 6.23222 12.2307 6.13961 11.9735 6.14766Z"
      fill="black" />
    <path opacity="0.1"
      d="M13.0727 5.10744H7.74715C7.64736 5.10586 7.55095 5.1436 7.47876 5.21251C7.40657 5.28142 7.36439 5.37597 7.36133 5.47572V16.9569C7.36439 17.0566 7.40657 17.1512 7.47876 17.2201C7.55095 17.289 7.64736 17.3267 7.74715 17.3252H13.0727C13.2697 17.3252 13.4589 17.2482 13.5998 17.1105C13.7407 16.9729 13.8222 16.7855 13.8268 16.5886V5.84401C13.8222 5.64706 13.7407 5.45973 13.5998 5.32208C13.4589 5.18442 13.2697 5.10739 13.0727 5.10744Z"
      fill="black" />
    <path opacity="0.1"
      d="M13.061 5.41137H7.73543C7.63564 5.40979 7.53924 5.44753 7.46704 5.51644C7.39485 5.58536 7.35267 5.6799 7.34961 5.77966V17.1439C7.35267 17.2437 7.39485 17.3382 7.46704 17.4071C7.53924 17.476 7.63564 17.5138 7.73543 17.5122L12.9967 17.5999C13.2097 17.5816 13.4096 17.489 13.5613 17.3384C13.713 17.1877 13.807 16.9885 13.8268 16.7756V6.14794C13.8222 5.94896 13.7391 5.75986 13.5956 5.62188C13.4522 5.4839 13.26 5.40823 13.061 5.41137Z"
      fill="black" />
    <path opacity="0.01"
      d="M6.87632 5.08418V14.1802H6.81201V15.6885C6.81277 15.7376 6.82321 15.7861 6.84272 15.8312C6.86223 15.8763 6.89043 15.9171 6.92571 15.9513C6.961 15.9855 7.00267 16.0124 7.04836 16.0305C7.09405 16.0486 7.14286 16.0575 7.19199 16.0568L11.4243 15.3085C11.8452 15.3085 12.9793 14.9577 12.9793 14.5485V5.28294C12.9748 5.21513 12.961 5.14827 12.9384 5.08418H6.87632Z"
      fill="black" />
    <path opacity="0.2"
      d="M11.9735 6.45768H6.87598V18.2896H11.9735C12.2346 18.2975 12.4882 18.2017 12.6788 18.0231C12.8694 17.8445 12.9815 17.5977 12.9907 17.3367V7.39885C12.9785 7.13989 12.8651 6.89608 12.6748 6.72001C12.4845 6.54394 12.2326 6.44973 11.9735 6.45768Z"
      fill="black" />
    <path opacity="0.3"
      d="M11.9735 5.41726H6.87598V17.0036H11.9735C12.2342 17.01 12.4869 16.9137 12.6771 16.7354C12.8674 16.5572 12.98 16.3113 12.9907 16.0508V6.37013C12.98 6.10962 12.8674 5.86374 12.6771 5.68549C12.4869 5.50725 12.2342 5.41091 11.9735 5.41726Z"
      fill="black" />
    <path opacity="0.3"
      d="M11.9735 5.41726H6.87598V16.9452H11.9735C12.2346 16.9531 12.4882 16.8573 12.6788 16.6787C12.8694 16.5001 12.9815 16.2533 12.9907 15.9923V6.37013C12.98 6.10962 12.8674 5.86374 12.6771 5.68549C12.4869 5.50725 12.2342 5.41091 11.9735 5.41726Z"
      fill="black" />
    <path opacity="0.3"
      d="M11.9735 5.65698H6.87598V17.4889H11.9735C12.2342 17.4952 12.4869 17.3989 12.6771 17.2207C12.8674 17.0424 12.98 16.7965 12.9907 16.536V6.59815C12.9785 6.33919 12.8651 6.09538 12.6748 5.91932C12.4845 5.74325 12.2326 5.64903 11.9735 5.65698Z"
      fill="black" />
    <path opacity="0.2"
      d="M11.9735 5.87906H6.87598V17.711H11.9735C12.2346 17.7189 12.4882 17.623 12.6788 17.4445C12.8694 17.2659 12.9815 17.0191 12.9907 16.7581V6.82023C12.9785 6.56127 12.8651 6.31746 12.6748 6.14139C12.4845 5.96532 12.2326 5.8711 11.9735 5.87906Z"
      fill="black" />
    <path opacity="0.1"
      d="M12.9326 5.75039H7.60703C7.5579 5.74962 7.50909 5.75853 7.4634 5.77662C7.41772 5.79471 7.37604 5.82163 7.34075 5.85583C7.30547 5.89003 7.27726 5.93084 7.25776 5.97594C7.23825 6.02104 7.22781 6.06954 7.22705 6.11868V16.8983C7.22781 16.9475 7.23825 16.996 7.25776 17.0411C7.27726 17.0862 7.30547 17.127 7.34075 17.1612C7.37604 17.1954 7.41772 17.2223 7.4634 17.2404C7.50909 17.2585 7.5579 17.2674 7.60703 17.2666H12.9326C13.0313 17.2689 13.1295 17.2517 13.2216 17.2159C13.3136 17.18 13.3977 17.1263 13.4689 17.0579C13.5401 16.9894 13.597 16.9075 13.6364 16.8169C13.6758 16.7263 13.6968 16.6288 13.6984 16.5301V6.48696C13.6937 6.28798 13.6107 6.09888 13.4672 5.9609C13.3238 5.82292 13.1316 5.74725 12.9326 5.75039Z"
      fill="black" />
    <path opacity="0.2"
      d="M12.3476 5.75039H7.01627C6.96806 5.751 6.92042 5.76093 6.87598 5.77962V16.9977C6.92232 17.0066 6.96993 17.0066 7.01627 16.9977H12.3476C12.4459 16.9993 12.5435 16.9814 12.6349 16.9453C12.7263 16.9091 12.8096 16.8552 12.8802 16.7868C12.9508 16.7185 13.0072 16.6368 13.0462 16.5466C13.0852 16.4564 13.1061 16.3594 13.1076 16.2611V6.48696C13.1061 6.3887 13.0852 6.29169 13.0462 6.20149C13.0072 6.11129 12.9508 6.02966 12.8802 5.96126C12.8096 5.89286 12.7263 5.83903 12.6349 5.80285C12.5435 5.76667 12.4459 5.74884 12.3476 5.75039Z"
      fill="black" />
    <path opacity="0.3"
      d="M11.0091 5.1134H7.12754C7.0784 5.11262 7.0296 5.12154 6.98391 5.13963C6.93822 5.15772 6.89654 5.18463 6.86126 5.21883C6.82597 5.25303 6.79777 5.29384 6.77826 5.33894C6.75875 5.38404 6.74832 5.43255 6.74756 5.48168V16.2613C6.74832 16.3105 6.75875 16.359 6.77826 16.4041C6.79777 16.4492 6.82597 16.49 6.86126 16.5242C6.89654 16.5584 6.93822 16.5853 6.98391 16.6034C7.0296 16.6215 7.0784 16.6304 7.12754 16.6296H12.4589C12.5591 16.6343 12.6592 16.6189 12.7533 16.5841C12.8474 16.5493 12.9336 16.496 13.0066 16.4273C13.0797 16.3586 13.1382 16.2759 13.1787 16.1841C13.2192 16.0923 13.2408 15.9934 13.2422 15.8931V6.17733C13.2422 5.7389 12.2075 5.49922 12.0731 5.37061C11.7438 5.2019 11.3792 5.11375 11.0091 5.1134Z"
      fill="black" />
    <path opacity="0.1"
      d="M12.6577 6.28194H7.3497C7.30057 6.28117 7.25177 6.29008 7.20608 6.30817C7.16039 6.32626 7.11871 6.35317 7.08343 6.38737C7.04814 6.42157 7.01994 6.46238 7.00043 6.50749C6.98092 6.55259 6.97049 6.60109 6.96973 6.65022V17.4299C6.97049 17.479 6.98092 17.5275 7.00043 17.5726C7.01994 17.6177 7.04814 17.6585 7.08343 17.6927C7.11871 17.7269 7.16039 17.7538 7.20608 17.7719C7.25177 17.79 7.30057 17.7989 7.3497 17.7982H12.6577C12.8567 17.8013 13.0489 17.7256 13.1923 17.5877C13.3358 17.4497 13.4189 17.2606 13.4235 17.0616V7.01851C13.4189 6.81952 13.3358 6.63042 13.1923 6.49245C13.0489 6.35447 12.8567 6.2788 12.6577 6.28194Z"
      fill="black" />
    <path opacity="0.1"
      d="M12.2018 4.75076H8.40207V8.03025H6.87632V14.3846H6.81201V15.8987C6.81277 15.9478 6.82321 15.9963 6.84272 16.0414C6.86223 16.0865 6.89043 16.1274 6.92571 16.1616C6.961 16.1958 7.00267 16.2227 7.04836 16.2408C7.09405 16.2588 7.14286 16.2678 7.19199 16.267L11.4127 15.5012C11.8336 15.5012 12.9676 15.1446 12.9676 14.7412V5.48733C12.963 5.28834 12.88 5.09924 12.7365 4.96126C12.593 4.82329 12.4009 4.74762 12.2018 4.75076Z"
      fill="black" />
    <path opacity="0.15"
      d="M12.2018 4.93259H8.40207V8.03087H6.87632V14.5723H6.81201V16.0864C6.81277 16.1355 6.82321 16.184 6.84272 16.2291C6.86223 16.2742 6.89043 16.315 6.92571 16.3492C6.961 16.3834 7.00267 16.4103 7.04836 16.4284C7.09405 16.4465 7.14286 16.4554 7.19199 16.4547L11.4243 15.7064C11.8452 15.7064 12.9793 15.3557 12.9793 14.9465V5.67501C12.9778 5.57497 12.9564 5.47623 12.9164 5.38454C12.8764 5.29285 12.8185 5.21004 12.7461 5.14094C12.6737 5.07184 12.5884 5.01784 12.4949 4.98207C12.4015 4.9463 12.3018 4.92948 12.2018 4.93259Z"
      fill="black" />
  </g>
  <path
    d="M1.77887 5.08387H11.974C12.1052 5.08154 12.2357 5.10511 12.3579 5.15321C12.48 5.20131 12.5915 5.27301 12.686 5.3642C12.7804 5.4554 12.856 5.56432 12.9084 5.68473C12.9607 5.80514 12.9888 5.93468 12.9911 6.06596V15.8986C12.9911 16.0278 12.9647 16.1557 12.9134 16.2743C12.8621 16.393 12.7871 16.4999 12.693 16.5884C12.5003 16.7754 12.2425 16.8803 11.974 16.8807H1.77887C1.51011 16.8815 1.25182 16.7765 1.05984 16.5884C0.964921 16.5001 0.889005 16.3934 0.836737 16.2748C0.784469 16.1562 0.756949 16.0282 0.755859 15.8986V6.06596C0.761997 5.8003 0.873048 5.54787 1.06474 5.36385C1.25644 5.17982 1.51319 5.07916 1.77887 5.08387Z"
    fill="#0078D4" />
  <path
    d="M3.69057 9.14106C3.96787 8.57202 4.40984 8.0995 4.95911 7.78483C5.58019 7.45306 6.27807 7.2917 6.98175 7.31717C7.6359 7.30302 8.28188 7.46452 8.85241 7.78483C9.38132 8.08449 9.81185 8.53126 10.0917 9.07091C10.3877 9.66189 10.5361 10.3158 10.5243 10.9766C10.5363 11.6676 10.3819 12.3513 10.0742 12.9701C9.79246 13.5334 9.34864 13.9997 8.7998 14.3087C8.20475 14.6177 7.5441 14.779 6.87361 14.779C6.20311 14.779 5.54246 14.6177 4.94741 14.3087C4.4154 14.004 3.9814 13.5538 3.69641 13.011C3.39786 12.4291 3.24728 11.7826 3.25798 11.1286C3.2462 10.4453 3.39434 9.76866 3.69057 9.15275V9.14106ZM5.05848 12.3212C5.205 12.6803 5.45279 12.989 5.77167 13.2097C6.10029 13.4333 6.49091 13.5478 6.88822 13.5371C7.30323 13.5513 7.7122 13.4347 8.05738 13.2039C8.37357 12.9821 8.61591 12.6705 8.75303 12.3095C8.90493 11.9122 8.9803 11.4897 8.97517 11.0643C8.981 10.6342 8.90972 10.2066 8.76472 9.80163C8.63806 9.43502 8.40629 9.11379 8.0983 8.878C7.75758 8.63606 7.34678 8.51282 6.92914 8.52725C6.52441 8.51553 6.12605 8.62993 5.78921 8.85461C5.46569 9.07736 5.21224 9.38758 5.05848 9.74902C4.72803 10.5746 4.72803 11.4956 5.05848 12.3212Z"
    fill="white" />
  <path opacity="0.4"
    d="M3.69057 9.14106C3.96787 8.57202 4.40984 8.0995 4.95911 7.78483C5.58019 7.45306 6.27807 7.2917 6.98175 7.31717C7.6359 7.30302 8.28188 7.46452 8.85241 7.78483C9.38132 8.08449 9.81185 8.53126 10.0917 9.07091C10.3877 9.66189 10.5361 10.3158 10.5243 10.9766C10.5363 11.6676 10.3819 12.3513 10.0742 12.9701C9.79246 13.5334 9.34864 13.9997 8.7998 14.3087C8.20475 14.6177 7.5441 14.779 6.87361 14.779C6.20311 14.779 5.54246 14.6177 4.94741 14.3087C4.4154 14.004 3.9814 13.5538 3.69641 13.011C3.39786 12.4291 3.24728 11.7826 3.25798 11.1286C3.2462 10.4453 3.39434 9.76866 3.69057 9.15275V9.14106ZM5.05848 12.3212C5.205 12.6803 5.45279 12.989 5.77167 13.2097C6.10029 13.4333 6.49091 13.5478 6.88822 13.5371C7.30323 13.5513 7.7122 13.4347 8.05738 13.2039C8.37357 12.9821 8.61591 12.6705 8.75303 12.3095C8.90493 11.9122 8.9803 11.4897 8.97517 11.0643C8.981 10.6342 8.90972 10.2066 8.76472 9.80163C8.63806 9.43502 8.40629 9.11379 8.0983 8.878C7.75758 8.63606 7.34678 8.51282 6.92914 8.52725C6.52441 8.51553 6.12605 8.62993 5.78921 8.85461C5.46569 9.07736 5.21224 9.38758 5.05848 9.74902C4.72803 10.5746 4.72803 11.4956 5.05848 12.3212Z"
    fill="white" />
  <path
    d="M3.69057 9.14106C3.96787 8.57202 4.40984 8.0995 4.95911 7.78483C5.58019 7.45306 6.27807 7.2917 6.98175 7.31717C7.6359 7.30302 8.28188 7.46452 8.85241 7.78483C9.38132 8.08449 9.81185 8.53126 10.0917 9.07091C10.3877 9.66189 10.5361 10.3158 10.5243 10.9766C10.5363 11.6676 10.3819 12.3513 10.0742 12.9701C9.79246 13.5334 9.34864 13.9997 8.7998 14.3087C8.20475 14.6177 7.5441 14.779 6.87361 14.779C6.20311 14.779 5.54246 14.6177 4.94741 14.3087C4.4154 14.004 3.9814 13.5538 3.69641 13.011C3.39786 12.4291 3.24728 11.7826 3.25798 11.1286C3.2462 10.4453 3.39434 9.76866 3.69057 9.15275V9.14106ZM5.05848 12.3212C5.205 12.6803 5.45279 12.989 5.77167 13.2097C6.10029 13.4333 6.49091 13.5478 6.88822 13.5371C7.30323 13.5513 7.7122 13.4347 8.05738 13.2039C8.37357 12.9821 8.61591 12.6705 8.75303 12.3095C8.90493 11.9122 8.9803 11.4897 8.97517 11.0643C8.981 10.6342 8.90972 10.2066 8.76472 9.80163C8.63806 9.43502 8.40629 9.11379 8.0983 8.878C7.75758 8.63606 7.34678 8.51282 6.92914 8.52725C6.52441 8.51553 6.12605 8.62993 5.78921 8.85461C5.46569 9.07736 5.21224 9.38758 5.05848 9.74902C4.72803 10.5746 4.72803 11.4956 5.05848 12.3212Z"
    fill="url(#paint1_linear_2520_17254)" />
  <path
    d="M3.69057 9.14106C3.96787 8.57202 4.40984 8.0995 4.95911 7.78483C5.58019 7.45306 6.27807 7.2917 6.98175 7.31717C7.6359 7.30302 8.28188 7.46452 8.85241 7.78483C9.38132 8.08449 9.81185 8.53126 10.0917 9.07091C10.3877 9.66189 10.5361 10.3158 10.5243 10.9766C10.5363 11.6676 10.3819 12.3513 10.0742 12.9701C9.79246 13.5334 9.34864 13.9997 8.7998 14.3087C8.20475 14.6177 7.5441 14.779 6.87361 14.779C6.20311 14.779 5.54246 14.6177 4.94741 14.3087C4.4154 14.004 3.9814 13.5538 3.69641 13.011C3.39786 12.4291 3.24728 11.7826 3.25798 11.1286C3.2462 10.4453 3.39434 9.76866 3.69057 9.15275V9.14106ZM5.05848 12.3212C5.205 12.6803 5.45279 12.989 5.77167 13.2097C6.10029 13.4333 6.49091 13.5478 6.88822 13.5371C7.30323 13.5513 7.7122 13.4347 8.05738 13.2039C8.37357 12.9821 8.61591 12.6705 8.75303 12.3095C8.90493 11.9122 8.9803 11.4897 8.97517 11.0643C8.981 10.6342 8.90972 10.2066 8.76472 9.80163C8.63806 9.43502 8.40629 9.11379 8.0983 8.878C7.75758 8.63606 7.34678 8.51282 6.92914 8.52725C6.52441 8.51553 6.12605 8.62993 5.78921 8.85461C5.46569 9.07736 5.21224 9.38758 5.05848 9.74902C4.72803 10.5746 4.72803 11.4956 5.05848 12.3212Z"
    fill="url(#paint2_linear_2520_17254)" />
  <defs>
    <linearGradient id="paint0_linear_2520_17254" x1="46.0668" y1="52.6105" x2="38.3389" y2="61.4639"
      gradientUnits="userSpaceOnUse">
      <stop stop-color="#35B8F1" />
      <stop offset="0.75" stop-color="#0D64AD" />
    </linearGradient>
    <linearGradient id="paint1_linear_2520_17254" x1="30.4308" y1="47.4422" x2="30.4308" y2="54.924"
      gradientUnits="userSpaceOnUse">
      <stop stop-color="#F2F2F2" />
      <stop offset="1" stop-color="white" />
    </linearGradient>
    <linearGradient id="paint2_linear_2520_17254" x1="-63.0977" y1="283.251" x2="-63.0977" y2="282.485"
      gradientUnits="userSpaceOnUse">
      <stop stop-color="#F2F2F2" />
      <stop offset="1" stop-color="white" />
    </linearGradient>
  </defs>
</svg>