<svg width="28" height="29" viewBox="0 0 28 29" fill="none" xmlns="http://www.w3.org/2000/svg">
<g clip-path="url(#clip0_1843_78446)">
<path d="M15 7.5C15 6.94772 14.5523 6.5 14 6.5C13.4477 6.5 13 6.94772 13 7.5V13.5H7C6.44772 13.5 6 13.9477 6 14.5C6 15.0523 6.44772 15.5 7 15.5H13V21.5C13 22.0523 13.4477 22.5 14 22.5C14.5523 22.5 15 22.0523 15 21.5V15.5H21C21.5523 15.5 22 15.0523 22 14.5C22 13.9477 21.5523 13.5 21 13.5H15V7.5Z" fill="white"/>
</g>
<defs>
<clipPath id="clip0_1843_78446">
<rect width="16" height="16" fill="white" transform="translate(6 6.5)"/>
</clipPath>
</defs>
</svg>
