<svg width="29" height="29" viewBox="0 0 29 29" fill="none" xmlns="http://www.w3.org/2000/svg">
<path fill-rule="evenodd" clip-rule="evenodd" d="M10.3461 7.34883C10.3461 6.87144 10.5357 6.4136 10.8733 6.07604C11.2109 5.73847 11.6687 5.54883 12.1461 5.54883H16.9461C17.4235 5.54883 17.8813 5.73847 18.2189 6.07604C18.5565 6.4136 18.7461 6.87144 18.7461 7.34883V7.94883H19.3461C20.1417 7.94883 20.9048 8.2649 21.4674 8.82751C22.03 9.39012 22.3461 10.1532 22.3461 10.9488V20.5488C22.3461 21.3445 22.03 22.1075 21.4674 22.6701C20.9048 23.2328 20.1417 23.5488 19.3461 23.5488H9.74609C8.95044 23.5488 8.18738 23.2328 7.62477 22.6701C7.06216 22.1075 6.74609 21.3445 6.74609 20.5488V10.9488C6.74609 10.1532 7.06216 9.39012 7.62477 8.82751C8.18738 8.2649 8.95044 7.94883 9.74609 7.94883H10.3461V7.34883ZM11.5461 13.9488V15.1488H12.7461V13.9488H11.5461ZM16.3461 13.9488V15.1488H17.5461V13.9488H16.3461ZM11.4261 17.1888C11.7894 17.6732 12.2604 18.0663 12.802 18.3371C13.3435 18.6079 13.9406 18.7488 14.5461 18.7488C15.1515 18.7488 15.7487 18.6079 16.2902 18.3371C16.8318 18.0663 17.3028 17.6732 17.6661 17.1888L18.6261 17.9088C16.5861 20.6292 12.5061 20.6292 10.4661 17.9088L11.4261 17.1888Z" fill="white"/>
</svg>
