<svg width="18" height="17" viewBox="0 0 18 17" fill="none" xmlns="http://www.w3.org/2000/svg">
<path fill-rule="evenodd" clip-rule="evenodd" d="M8.99984 15.0835C12.6817 15.0835 15.6665 12.0987 15.6665 8.41683C15.6665 4.73493 12.6817 1.75016 8.99984 1.75016C5.31794 1.75016 2.33317 4.73493 2.33317 8.41683C2.33317 12.0987 5.31794 15.0835 8.99984 15.0835ZM8.99984 16.7502C13.6022 16.7502 17.3332 13.0192 17.3332 8.41683C17.3332 3.81446 13.6022 0.0834961 8.99984 0.0834961C4.39746 0.0834961 0.666504 3.81446 0.666504 8.41683C0.666504 13.0192 4.39746 16.7502 8.99984 16.7502Z" fill="#2F1B61"/>
<ellipse cx="8.99984" cy="13.4168" rx="0.833333" ry="0.833334" fill="#2F1B61"/>
<path fill-rule="evenodd" clip-rule="evenodd" d="M8.9999 5.08366C8.27552 5.08366 7.65705 5.54624 7.42785 6.1947C7.27448 6.62863 6.79838 6.85606 6.36445 6.70269C5.93052 6.54932 5.70308 6.07322 5.85645 5.63929C6.31365 4.34575 7.54724 3.41699 8.9999 3.41699C10.8408 3.41699 12.3332 4.90938 12.3332 6.75033C12.3332 8.30352 11.2709 9.60861 9.83323 9.97864V10.917C9.83323 11.3772 9.46014 11.7503 8.9999 11.7503C8.53966 11.7503 8.16657 11.3772 8.16657 10.917V9.25033C8.16657 8.79009 8.53966 8.41699 8.9999 8.41699C9.92037 8.41699 10.6666 7.6708 10.6666 6.75033C10.6666 5.82985 9.92037 5.08366 8.9999 5.08366Z" fill="#2F1B61"/>
</svg>
