<svg width="16" height="16" viewBox="0 0 16 16" fill="none" xmlns="http://www.w3.org/2000/svg">
  <g clip-path="url(#clip0_2944_17207)">
    <path
      d="M13.1245 8C13.1245 10.6795 10.9523 12.8517 8.27279 12.8517C5.59325 12.8517 3.42106 10.6795 3.42106 8C3.42106 5.32047 5.59325 3.14828 8.27279 3.14828C10.9523 3.14828 13.1245 5.32047 13.1245 8Z"
      fill="white" />
    <path fill-rule="evenodd" clip-rule="evenodd"
      d="M8.27279 15.3333C12.3229 15.3333 15.6061 12.0501 15.6061 8C15.6061 3.94992 12.3229 0.666672 8.27279 0.666672C4.2227 0.666672 0.939453 3.94992 0.939453 8C0.939453 12.0501 4.2227 15.3333 8.27279 15.3333ZM4.60613 7.38888C4.26862 7.38888 3.99502 7.66248 3.99502 7.99999C3.99502 8.3375 4.26862 8.6111 4.60613 8.6111H11.9395C12.277 8.6111 12.5506 8.3375 12.5506 7.99999C12.5506 7.66248 12.277 7.38888 11.9395 7.38888H4.60613Z"
      fill="#FFA9A4" />
  </g>
  <defs>
    <clipPath id="clip0_2944_17207">
      <rect width="16" height="16" fill="white" />
    </clipPath>
  </defs>
</svg>