<svg width="29" height="29" viewBox="0 0 29 29" fill="none" xmlns="http://www.w3.org/2000/svg">
<path fill-rule="evenodd" clip-rule="evenodd" d="M7.64022 10.7012C7.7401 10.4486 7.94147 10.2276 8.21476 10.0706C8.48805 9.91367 8.81885 9.82899 9.15858 9.82904H11.3694C11.58 9.82904 11.782 9.76397 11.9309 9.64814C12.0799 9.53231 12.1635 9.37521 12.1635 9.2114C12.1635 9.04759 12.0799 8.89049 11.9309 8.77465C11.782 8.65882 11.58 8.59375 11.3694 8.59375H9.15858C8.47912 8.59365 7.81752 8.763 7.27094 9.07695C6.72437 9.39089 6.32163 9.83287 6.12187 10.338L3.56905 16.7928C3.47583 17.0281 3.42837 17.2729 3.42822 17.5192V20.9467C3.42822 21.6019 3.76289 22.2303 4.35859 22.6937C4.95429 23.157 5.76224 23.4173 6.60469 23.4173H22.487C23.3295 23.4173 24.1374 23.157 24.7332 22.6937C25.3289 22.2303 25.6635 21.6019 25.6635 20.9467V17.5192C25.6635 17.2729 25.6159 17.0283 25.5227 16.7928L22.9699 10.338C22.7701 9.83287 22.3674 9.39089 21.8208 9.07695C21.2742 8.763 20.6126 8.59365 19.9332 8.59375H17.7223C17.5117 8.59375 17.3097 8.65882 17.1608 8.77465C17.0119 8.89049 16.9282 9.04759 16.9282 9.2114C16.9282 9.37521 17.0119 9.53231 17.1608 9.64814C17.3097 9.76397 17.5117 9.82904 17.7223 9.82904H19.9332C20.2729 9.82899 20.6037 9.91367 20.877 10.0706C21.1503 10.2276 21.3516 10.4486 21.4515 10.7012L23.7947 16.6232H20.7823C20.1923 16.623 19.614 16.7507 19.112 16.9919C18.6101 17.233 18.2044 17.5782 17.9405 17.9886L17.6694 18.411C17.5374 18.6163 17.3346 18.7888 17.0836 18.9094C16.8327 19.03 16.5435 19.0938 16.2485 19.0938H12.8412C12.5461 19.0937 12.2568 19.0298 12.0058 18.909C11.7548 18.7883 11.552 18.6156 11.4202 18.4102L11.1492 17.9886C10.8852 17.5782 10.4796 17.233 9.97762 16.9919C9.47567 16.7507 8.89728 16.623 8.30728 16.6232H5.29705L7.64022 10.7012Z" fill="white"/>
<path fill-rule="evenodd" clip-rule="evenodd" d="M14.4967 5.68164C14.7073 5.68164 14.9093 5.76531 15.0582 5.91423C15.2071 6.06316 15.2908 6.26515 15.2908 6.47576V13.2946L17.112 11.4734C17.1847 11.3954 17.2723 11.3328 17.3698 11.2894C17.4672 11.246 17.5723 11.2227 17.6789 11.2208C17.7856 11.2189 17.8915 11.2385 17.9904 11.2785C18.0893 11.3184 18.1791 11.3778 18.2545 11.4532C18.3299 11.5287 18.3893 11.6185 18.4293 11.7174C18.4692 11.8162 18.4888 11.9222 18.487 12.0288C18.4851 12.1354 18.4617 12.2406 18.4183 12.338C18.3749 12.4354 18.3123 12.5231 18.2343 12.5958L15.0579 15.7722C14.909 15.9209 14.7071 16.0045 14.4967 16.0045C14.2862 16.0045 14.0844 15.9209 13.9355 15.7722L10.759 12.5958C10.6188 12.4452 10.5424 12.2461 10.546 12.0404C10.5497 11.8347 10.633 11.6384 10.7785 11.4929C10.924 11.3474 11.1203 11.264 11.326 11.2604C11.5317 11.2568 11.7308 11.3331 11.8814 11.4734L13.7026 13.2946V6.47576C13.7026 6.26515 13.7862 6.06316 13.9352 5.91423C14.0841 5.76531 14.2861 5.68164 14.4967 5.68164Z" fill="white"/>
</svg>
