<svg width="17" height="16" viewBox="0 0 17 16" fill="none" xmlns="http://www.w3.org/2000/svg">
  <path fill-rule="evenodd"
    d="M13.9998 7.66675C13.9998 10.8884 11.3882 13.5001 8.1665 13.5001C4.94484 13.5001 2.33317 10.8884 2.33317 7.66675C2.33317 4.44509 4.94484 1.83341 8.1665 1.83341C11.3882 1.83341 13.9998 4.44509 13.9998 7.66675ZM14.0264 12.3482C15.0528 11.0651 15.6665 9.43759 15.6665 7.66675C15.6665 3.52461 12.3086 0.166748 8.1665 0.166748C4.02437 0.166748 0.666504 3.52461 0.666504 7.66675C0.666504 11.8089 4.02437 15.1667 8.1665 15.1667C9.93735 15.1667 11.5648 14.553 12.8479 13.5267L15.0772 15.756C15.4027 16.0814 15.9303 16.0814 16.2558 15.756C16.5812 15.4306 16.5812 14.9029 16.2558 14.5775L14.0264 12.3482Z"
    fill="white" />
</svg>