<svg width="13" height="13" viewBox="0 0 13 13" fill="none" xmlns="http://www.w3.org/2000/svg">
<path fill-rule="evenodd" clip-rule="evenodd" d="M10.1862 9.30402C10.956 8.34173 11.4163 7.1211 11.4163 5.79297C11.4163 2.68637 8.89786 0.167969 5.79126 0.167969C2.68466 0.167969 0.16626 2.68637 0.16626 5.79297C0.16626 8.89957 2.68466 11.418 5.79126 11.418C7.11939 11.418 8.34002 10.9577 9.30231 10.1879L10.9743 11.8599C11.2184 12.104 11.6141 12.104 11.8582 11.8599C12.1023 11.6158 12.1023 11.2201 11.8582 10.976L10.1862 9.30402ZM10.1663 5.79297C10.1663 8.20921 8.20751 10.168 5.79126 10.168C3.37501 10.168 1.41626 8.20921 1.41626 5.79297C1.41626 3.37672 3.37501 1.41797 5.79126 1.41797C8.20751 1.41797 10.1663 3.37672 10.1663 5.79297Z" fill="#81759F"/>
</svg>
