<svg width="16" height="15" viewBox="0 0 16 15" fill="none" xmlns="http://www.w3.org/2000/svg">
  <path fill-rule="evenodd"
    d="M1.24483 5.32969C0.770723 5.75638 0.5 6.36426 0.5 7.0021V12.75C0.5 13.9927 1.50736 15 2.75 15H13.25C14.4926 15 15.5 13.9927 15.5 12.75V7.0021C15.5 6.36426 15.2293 5.75638 14.7552 5.32969L9.50517 0.604687C8.64948 -0.16543 7.35051 -0.165429 6.49483 0.604688L1.24483 5.32969ZM7.25 8.25004C6.42157 8.25004 5.75 8.92161 5.75 9.75004V12.75C5.75 13.1642 6.08579 13.5 6.5 13.5H9.5C9.91421 13.5 10.25 13.1642 10.25 12.75V9.75004C10.25 8.92161 9.57843 8.25004 8.75 8.25004H7.25Z"
    fill="#295C54" />
</svg>