<svg width="28" height="29" viewBox="0 0 28 29" fill="none" xmlns="http://www.w3.org/2000/svg">
<g clip-path="url(#clip0_1843_78447)">
<path d="M20.8961 9.12051C21.2371 8.17709 20.3229 7.26288 19.3795 7.60472L7.84923 11.7747C6.90266 12.1174 6.78818 13.4089 7.65897 13.9134L11.3395 16.0442L14.6261 12.7576C14.775 12.6138 14.9744 12.5342 15.1814 12.536C15.3884 12.5378 15.5864 12.6209 15.7328 12.7672C15.8792 12.9136 15.9622 13.1116 15.964 13.3186C15.9658 13.5256 15.8862 13.725 15.7424 13.8739L12.4558 17.1605L14.5874 20.841C15.0911 21.7118 16.3827 21.5966 16.7253 20.6508L20.8961 9.12051Z" fill="white"/>
</g>
<defs>
<clipPath id="clip0_1843_78447">
<rect width="15" height="14.2105" fill="white" transform="translate(6.5 7.39478)"/>
</clipPath>
</defs>
</svg>
