<svg width="196" height="196" viewBox="0 0 196 196" fill="none" xmlns="http://www.w3.org/2000/svg">
  <g clip-path="url(#clip0_2675_32705)">
    <rect width="195.556" height="195.556" rx="97.7778" fill="white" />
    <path fill-rule="evenodd" clip-rule="evenodd"
      d="M97.7778 195.556C151.779 195.556 195.556 151.779 195.556 97.7778C195.556 43.7766 151.779 0 97.7778 0C43.7766 0 0 43.7766 0 97.7778C0 151.779 43.7766 195.556 97.7778 195.556ZM68.9205 93.5189C74.3 52.9325 95.6998 29.9501 106.55 31.224C117.4 32.5046 131.453 34.6689 126.896 51.0572C121.856 69.1666 115.106 68.2289 105.447 66.887C104.876 66.8078 104.296 66.7271 103.705 66.6489C96.3113 65.677 92.4251 81.3291 90.4347 96.3666C88.4442 111.404 88.1236 127.535 95.5164 128.513C96.1073 128.592 96.6888 128.665 97.2602 128.737C106.936 129.954 113.697 130.805 113.852 149.602C113.987 166.618 99.8561 165.045 89.047 163.459C78.238 161.872 63.5545 134.114 68.9205 93.5189Z"
      fill="#295C54" />
  </g>
  <defs>
    <clipPath id="clip0_2675_32705">
      <rect width="195.556" height="195.556" rx="97.7778" fill="white" />
    </clipPath>
  </defs>
</svg>