<svg width="14" height="19" viewBox="0 0 14 19" fill="none" xmlns="http://www.w3.org/2000/svg">
<path d="M13.3766 5.62305C13.4616 5.7168 13.5467 5.83733 13.6317 5.98465H9.3314V1.24358C9.46502 1.33733 9.57435 1.43108 9.65939 1.52483L13.3766 5.62305ZM9.03986 7.27037H13.9961V17.8775C13.9961 18.1454 13.9111 18.373 13.741 18.5605C13.571 18.748 13.3644 18.8418 13.1215 18.8418H0.876589C0.633634 18.8418 0.427123 18.748 0.257055 18.5605C0.0869872 18.373 0.00195312 18.1454 0.00195312 17.8775V1.80608C0.00195312 1.53823 0.0869872 1.31055 0.257055 1.12305C0.427123 0.935547 0.633634 0.841797 0.876589 0.841797H8.16522V6.30608C8.16522 6.57394 8.25025 6.80162 8.42032 6.98912C8.59039 7.17662 8.7969 7.27037 9.03986 7.27037ZM10.4976 14.6632V14.0204C10.4976 13.9266 10.4702 13.8496 10.4156 13.7893C10.3609 13.7291 10.2911 13.6989 10.206 13.6989H3.79204C3.70701 13.6989 3.63716 13.7291 3.58249 13.7893C3.52783 13.8496 3.5005 13.9266 3.5005 14.0204V14.6632C3.5005 14.757 3.52783 14.834 3.58249 14.8943C3.63716 14.9545 3.70701 14.9847 3.79204 14.9847H10.206C10.2911 14.9847 10.3609 14.9545 10.4156 14.8943C10.4702 14.834 10.4976 14.757 10.4976 14.6632ZM10.4976 12.0918V11.4489C10.4976 11.3552 10.4702 11.2782 10.4156 11.2179C10.3609 11.1576 10.2911 11.1275 10.206 11.1275H3.79204C3.70701 11.1275 3.63716 11.1576 3.58249 11.2179C3.52783 11.2782 3.5005 11.3552 3.5005 11.4489V12.0918C3.5005 12.1855 3.52783 12.2626 3.58249 12.3228C3.63716 12.3831 3.70701 12.4132 3.79204 12.4132H10.206C10.2911 12.4132 10.3609 12.3831 10.4156 12.3228C10.4702 12.2626 10.4976 12.1855 10.4976 12.0918ZM10.4976 9.52037V8.87751C10.4976 8.78376 10.4702 8.70675 10.4156 8.64648C10.3609 8.58622 10.2911 8.55608 10.206 8.55608H3.79204C3.70701 8.55608 3.63716 8.58622 3.58249 8.64648C3.52783 8.70675 3.5005 8.78376 3.5005 8.87751V9.52037C3.5005 9.61412 3.52783 9.69113 3.58249 9.7514C3.63716 9.81166 3.70701 9.8418 3.79204 9.8418H10.206C10.2911 9.8418 10.3609 9.81166 10.4156 9.7514C10.4702 9.69113 10.4976 9.61412 10.4976 9.52037Z" fill="#249B9B"/>
</svg>
