<svg width="18" height="18" viewBox="0 0 18 18" fill="none" xmlns="http://www.w3.org/2000/svg">
<path fill-rule="evenodd" clip-rule="evenodd" d="M15.5108 9.93252C15.9752 9.46807 16.2135 8.82385 16.1631 8.16896L15.8601 4.22936C15.775 3.12286 14.8958 2.24367 13.7893 2.15856L9.8497 1.85551C9.1948 1.80514 8.55059 2.04344 8.08614 2.50789L2.45393 8.1401C1.57525 9.01878 1.57525 10.4434 2.45393 11.3221L6.69657 15.5647C7.57525 16.4434 8.99987 16.4434 9.87855 15.5647L15.5108 9.93252ZM10.9393 5.48847C10.5 5.92781 10.5 6.64012 10.9393 7.07946C11.3787 7.5188 12.091 7.5188 12.5303 7.07946C12.9696 6.64012 12.9696 5.92781 12.5303 5.48847C12.091 5.04913 11.3787 5.04913 10.9393 5.48847ZM7.75739 12.3828L5.63607 10.2614C5.34318 9.96855 5.34318 9.49367 5.63607 9.20078C5.92897 8.90789 6.40384 8.90789 6.69673 9.20078L8.81805 11.3221C9.11095 11.615 9.11095 12.0899 8.81805 12.3828C8.52516 12.6757 8.05029 12.6757 7.75739 12.3828Z" fill="#3D3D3D"/>
</svg>
