<svg width="16" height="16" viewBox="0 0 16 16" fill="none" xmlns="http://www.w3.org/2000/svg">
<path fill-rule="evenodd" clip-rule="evenodd" d="M8.00004 11.3334C10.7414 11.3334 12.3911 9.28871 13.122 8.06986C13.1387 8.04202 13.1433 8.01856 13.1433 8.00004C13.1433 7.98152 13.1387 7.95806 13.122 7.93022C12.3911 6.71137 10.7414 4.66671 8.00004 4.66671C5.25868 4.66671 3.60899 6.71137 2.87804 7.93022C2.86134 7.95806 2.85677 7.98152 2.85677 8.00004C2.85677 8.01856 2.86134 8.04202 2.87804 8.06986C3.60899 9.28871 5.25868 11.3334 8.00004 11.3334ZM14.2655 8.75561C13.4733 10.0766 11.4767 12.6667 8.00004 12.6667C4.52336 12.6667 2.52676 10.0766 1.73457 8.75561C1.45306 8.2862 1.45306 7.71388 1.73457 7.24447C2.52676 5.92351 4.52336 3.33337 8.00004 3.33337C11.4767 3.33337 13.4733 5.92351 14.2655 7.24447C14.547 7.71388 14.547 8.2862 14.2655 8.75561Z" fill="#0F2423"/>
<path fill-rule="evenodd" clip-rule="evenodd" d="M8.00004 8.66671C8.36823 8.66671 8.66671 8.36823 8.66671 8.00004C8.66671 7.63185 8.36823 7.33337 8.00004 7.33337C7.63185 7.33337 7.33338 7.63185 7.33338 8.00004C7.33338 8.36823 7.63185 8.66671 8.00004 8.66671ZM8.00004 10C9.10461 10 10 9.10461 10 8.00004C10 6.89547 9.10461 6.00004 8.00004 6.00004C6.89547 6.00004 6.00004 6.89547 6.00004 8.00004C6.00004 9.10461 6.89547 10 8.00004 10Z" fill="#0F2423"/>
</svg>
