<svg width="29" height="29" viewBox="0 0 29 29" fill="none" xmlns="http://www.w3.org/2000/svg">
<path d="M14.5456 15.2413C16.8399 15.2413 18.6994 13.3818 18.6994 11.0874C18.6994 8.79309 16.8399 6.93359 14.5456 6.93359C12.2512 6.93359 10.3918 8.79309 10.3918 11.0874C10.3918 13.3818 12.2512 15.2413 14.5456 15.2413ZM17.4533 16.2797H16.9113C16.1909 16.6108 15.3893 16.799 14.5456 16.799C13.7018 16.799 12.9035 16.6108 12.1799 16.2797H11.6379C9.22997 16.2797 7.27637 18.2334 7.27637 20.6413V21.9913C7.27637 22.8513 7.97408 23.549 8.83406 23.549H20.2571C21.1171 23.549 21.8148 22.8513 21.8148 21.9913V20.6413C21.8148 18.2334 19.8612 16.2797 17.4533 16.2797Z" fill="white"/>
<path fill-rule="evenodd" clip-rule="evenodd" d="M19.9512 12.2989C19.7203 13.3338 19.1999 14.2594 18.4793 14.9864C20.0267 15.2655 21.3591 16.1645 22.2099 17.417H25.5484C26.1627 17.417 26.6611 16.9186 26.6611 16.3043V15.34C26.6611 13.6201 25.2656 12.2247 23.5457 12.2247H23.1586C22.644 12.4611 22.0714 12.5955 21.4688 12.5955C20.9323 12.5955 20.4216 12.489 19.9512 12.2989ZM18.5031 12.3534C18.1506 13.4562 17.35 14.3586 16.3154 14.8465C16.505 13.6564 17.369 12.6906 18.5031 12.3534ZM20.39 17.417H17.3891C16.8486 17.417 16.3979 17.0311 16.2974 16.52C16.5077 16.4514 16.7126 16.3709 16.9114 16.2796H17.4534C18.5842 16.2796 19.6149 16.7105 20.39 17.417ZM20.0839 11.1406C20.4973 11.3592 20.9685 11.4829 21.4688 11.4829C23.1076 11.4829 24.4358 10.1547 24.4358 8.51586C24.4358 6.87704 23.1076 5.54883 21.4688 5.54883C20.2128 5.54883 19.1392 6.32898 18.7062 7.43121C19.564 8.40659 20.0841 9.68614 20.0841 11.0873C20.0841 11.1051 20.0841 11.1229 20.0839 11.1406Z" fill="white"/>
<path fill-rule="evenodd" clip-rule="evenodd" d="M9.00772 11.1407C8.59435 11.3592 8.12313 11.4829 7.62297 11.4829C5.98415 11.4829 4.65594 10.1547 4.65594 8.51586C4.65594 6.87704 5.98415 5.54883 7.62297 5.54883C8.87893 5.54883 9.95246 6.32894 10.3855 7.43111C9.52767 8.40651 9.00747 9.68609 9.00747 11.0873C9.00747 11.1051 9.00755 11.1229 9.00772 11.1407ZM9.14042 12.2991C8.67151 12.4891 8.15917 12.5955 7.62297 12.5955C7.02029 12.5955 6.45007 12.4611 5.93315 12.2247H5.54605C3.8261 12.2247 2.43066 13.6201 2.43066 15.34V16.3043C2.43066 16.9186 2.92903 17.417 3.5433 17.417H6.88168C7.73247 16.1645 9.06489 15.2655 10.6123 14.9864C9.89179 14.2595 9.37135 13.3339 9.14042 12.2991ZM12.7944 16.5196C12.6941 17.0309 12.2433 17.417 11.7026 17.417H8.70158C9.47672 16.7105 10.5074 16.2796 11.6382 16.2796H12.1802C12.3795 16.3708 12.5844 16.4511 12.7944 16.5196ZM12.7764 14.8465C12.5868 13.6564 11.7226 12.6905 10.5885 12.3533C10.941 13.4562 11.7416 14.3587 12.7764 14.8465Z" fill="white"/>
</svg>
