<svg width="16" height="16" viewBox="0 0 16 16" fill="none" xmlns="http://www.w3.org/2000/svg">
  <path d="M1.48183 15.4836L5.83304 14.6134C5.99188 14.5816 6.13776 14.5035 6.2523 14.389L11.7083 8.93298C12.0287 8.61256 12.0287 8.09307 11.7083 7.77266L8.2273 4.29169C7.90689 3.97127 7.38739 3.97127 7.06698 4.29169L1.61101 9.7477C1.49647 9.86224 1.4184 10.0081 1.38663 10.167L0.516389 14.5182C0.401569 15.0923 0.907733 15.5984 1.48183 15.4836Z" fill="#FFFFFF"/>
  <path d="M14.7791 2.38125L13.6187 1.22093C12.6575 0.25969 11.099 0.259689 10.1378 1.22093L9.32938 2.02933C9.00896 2.34974 9.00896 2.86924 9.32938 3.18965L12.8103 6.67062C13.1308 6.99104 13.6503 6.99103 13.9707 6.67062L14.7791 5.86222C15.7403 4.90098 15.7403 3.3425 14.7791 2.38125Z" fill="#FFFFFF"/>
</svg>
