<svg width="35" height="27" viewBox="0 0 35 27" fill="none" xmlns="http://www.w3.org/2000/svg">
<path d="M26.6589 9.60468L22.49 7.24539L19.0983 5.33667C19.0239 5.29452 18.9618 5.23354 18.9183 5.15984C18.8747 5.08614 18.8514 5.0023 18.8505 4.91672C18.8427 3.86394 18.8422 2.77665 18.849 1.65484C18.8534 1.00013 19.2252 0.752246 19.8201 1.0847C22.0773 2.34455 24.3326 3.60779 26.586 4.87444C26.6059 4.88544 26.6225 4.90166 26.634 4.92141C26.6456 4.94117 26.6516 4.96372 26.6516 4.98672L26.6589 9.60468Z" fill="#2FB67C"/>
<path d="M9.22266 4.89355L13.3988 7.24992L16.7365 9.12656C16.8233 9.17562 16.8954 9.24682 16.9456 9.3329C16.9958 9.41898 17.0223 9.51685 17.0223 9.6165C17.0252 10.6333 17.0252 11.674 17.0223 12.7384C17.0194 13.3931 16.7409 13.7897 16.0701 13.4135C13.8119 12.1449 11.5533 10.8793 9.29411 9.6165C9.25036 9.5922 9.22849 9.55526 9.22849 9.50568L9.22266 4.89355Z" fill="#2FB67C"/>
<path d="M4.0192 19.5564C4.0124 20.7676 4.01434 21.9793 4.02504 23.1915C4.04399 25.335 2.85414 26.3382 0.793775 26.4038C0.739337 26.4058 0.709202 26.3795 0.703369 26.3251L0.575052 25.023C0.569219 24.9676 0.594007 24.9365 0.649417 24.9297C1.26184 24.8524 1.80865 24.6861 1.8174 23.9571C1.8417 21.9468 1.85434 19.9365 1.85531 17.9262C1.85531 17.8756 1.88058 17.8503 1.93113 17.8503C3.26485 17.8494 4.59274 17.8494 5.9148 17.8503C6.59624 17.8503 7.09931 17.9198 7.42399 18.0589C7.98781 18.2999 8.38151 18.7048 8.60509 19.2735C8.73146 19.5943 8.79562 20.1246 8.79757 20.8643C8.79951 22.617 8.80048 24.3746 8.80048 26.137C8.80048 26.1662 8.7859 26.1808 8.75674 26.1808H6.72116C6.67158 26.1808 6.64679 26.156 6.64679 26.1064C6.64777 24.2322 6.65311 22.3619 6.66283 20.4954C6.66575 19.7975 6.32017 19.4509 5.62609 19.4558C5.11476 19.4587 4.60441 19.4665 4.09503 19.4791C4.04448 19.4801 4.0192 19.5058 4.0192 19.5564Z" fill="#CAD5E6"/>
<path d="M11.9454 17.8909C12.0081 18.636 12.1044 19.3666 12.1073 20.1C12.1121 22.0996 12.1121 24.1026 12.1073 26.1091C12.1063 26.1567 12.0825 26.1805 12.0358 26.1805H10.0367C9.98614 26.1805 9.96087 26.1552 9.96087 26.1047C9.96281 24.0584 9.96233 22.0131 9.95941 19.9688C9.95941 19.2878 9.86172 18.6025 9.79027 17.9142C9.78541 17.8705 9.80533 17.8486 9.85005 17.8486H11.8973C11.9265 17.8486 11.9425 17.8627 11.9454 17.8909Z" fill="#CAD5E6"/>
<path d="M18.5935 19.5386C18.4555 20.0295 18.3845 20.6638 18.3807 21.4415C18.3729 23.0008 18.3714 24.5571 18.3763 26.1105C18.3763 26.1287 18.3691 26.1461 18.3562 26.159C18.3434 26.1718 18.3259 26.179 18.3078 26.179L16.3043 26.1805C16.2459 26.1805 16.2168 26.1518 16.2168 26.0945C16.2236 24.4798 16.226 22.8686 16.2241 21.2607C16.2241 20.5831 16.3281 20.012 16.5361 19.5474C16.5585 19.4968 16.5419 19.4716 16.4865 19.4716H12.9855C12.9359 19.4716 12.9111 19.4468 12.9111 19.3972V17.9172C12.9121 17.8734 12.9345 17.8515 12.9782 17.8515L19.7032 17.8486C19.746 17.8486 19.7674 17.87 19.7674 17.9128L19.7703 19.3986C19.7703 19.4473 19.746 19.4716 19.6974 19.4716H18.6825C18.6358 19.4716 18.6062 19.4939 18.5935 19.5386Z" fill="#CAD5E6"/>
<path d="M22.6588 17.8477C22.6763 17.8477 22.686 17.8564 22.6879 17.8739C22.7987 18.7663 22.8687 19.6004 22.8702 20.5423C22.8702 22.3961 22.8692 24.2499 22.8673 26.1037C22.8673 26.1552 22.842 26.181 22.7915 26.181H20.7923C20.7428 26.181 20.718 26.1567 20.718 26.1081C20.715 24.126 20.715 22.1448 20.718 20.1647C20.7194 19.4123 20.6203 18.6686 20.5474 17.9118C20.5435 17.869 20.5629 17.8477 20.6057 17.8477H22.6588Z" fill="#CAD5E6"/>
<path d="M28.1719 17.8409C29.807 17.8331 30.8325 18.6142 31.2486 20.1841C31.3167 20.4398 31.3278 21.041 31.2821 21.9879C31.1995 23.7114 30.3805 24.8959 28.8252 25.5414C27.5721 26.0605 26.235 26.3108 24.8138 26.2923C24.7652 26.2913 24.738 26.2666 24.7321 26.2179L23.7508 17.9109C23.7459 17.871 23.7634 17.8511 23.8033 17.8511C25.2682 17.8521 26.7245 17.8487 28.1719 17.8409ZM28.5364 23.6604C29.2232 22.8875 29.2786 21.5927 29.1474 20.5676C29.0531 19.8376 28.6371 19.4716 27.8992 19.4696C27.3325 19.4687 26.7594 19.4711 26.1801 19.4769C26.1315 19.4779 26.1096 19.5022 26.1145 19.5498L26.6044 24.3209C26.6093 24.3646 26.6336 24.387 26.6773 24.388C27.4715 24.4055 28.0912 24.1629 28.5364 23.6604Z" fill="#CAD5E6"/>
<path d="M32.2139 17.9089C32.21 17.87 32.228 17.8506 32.2678 17.8506L34.2918 17.8477C34.3501 17.8477 34.3817 17.8768 34.3865 17.9351C34.5197 19.5206 34.5513 21.1095 34.4813 22.7018C34.4794 22.7592 34.4497 22.7927 34.3924 22.8025L32.4676 23.132C32.4132 23.1407 32.386 23.1179 32.386 23.0635C32.3821 22.0068 32.3806 20.953 32.3816 19.9022C32.3816 19.2519 32.2708 18.5855 32.2139 17.9089Z" fill="#CAD5E6"/>
<path d="M13.3993 7.24974L9.22314 4.89337C11.4386 3.6452 13.6584 2.39896 15.8825 1.15468C16.4118 0.858672 17.0549 0.759518 17.0578 1.58046C17.0617 2.68671 17.0627 3.78421 17.0607 4.87296C17.0603 4.9717 17.0337 5.06852 16.9838 5.15357C16.9338 5.23861 16.8623 5.30883 16.7764 5.35707L13.3993 7.24974Z" fill="#CAD5E6"/>
<path d="M22.4914 7.24512L26.6602 9.6044C24.3661 10.8934 22.085 12.181 19.8171 13.467C19.5858 13.5983 19.3875 13.6406 19.2222 13.5939C18.9568 13.52 18.8236 13.3169 18.8227 12.9844C18.8198 11.8665 18.8202 10.7529 18.8241 9.64377C18.8246 9.53663 18.8535 9.43157 18.9078 9.33934C18.9621 9.24711 19.0399 9.17102 19.1333 9.11884L22.4914 7.24512Z" fill="#CAD5E6"/>
</svg>
