<svg width="41" height="32" viewBox="0 0 41 32" fill="none" xmlns="http://www.w3.org/2000/svg">
<path d="M31.3692 10.9936L26.3559 8.15638L22.2773 5.86105C22.1877 5.81036 22.113 5.73703 22.0607 5.6484C22.0084 5.55977 21.9803 5.45895 21.9792 5.35603C21.9698 4.09 21.9692 2.78247 21.9774 1.43344C21.9827 0.646119 22.4298 0.348023 23.1452 0.747822C25.8597 2.26285 28.5718 3.78197 31.2815 5.30518C31.3055 5.31841 31.3255 5.33792 31.3393 5.36167C31.3532 5.38543 31.3605 5.41255 31.3604 5.4402L31.3692 10.9936Z" fill="#2FB67C"/>
<path d="M10.4009 5.32788L15.4229 8.16155L19.4367 10.4183C19.541 10.4773 19.6278 10.5629 19.6882 10.6664C19.7486 10.77 19.7804 10.8876 19.7804 11.0075C19.7839 12.2303 19.7839 13.4817 19.7804 14.7617C19.7769 15.5491 19.442 16.026 18.6353 15.5736C15.9198 14.0481 13.2036 12.526 10.4868 11.0075C10.4342 10.9783 10.4079 10.9338 10.4079 10.8742L10.4009 5.32788Z" fill="#2FB67C"/>
<path d="M4.14278 22.9612C4.1346 24.4178 4.13694 25.8749 4.1498 27.3327C4.17259 29.9103 2.74173 31.1167 0.264028 31.1956C0.198564 31.198 0.162324 31.1664 0.15531 31.1009L0.00100203 29.5351C-0.006012 29.4684 0.0237967 29.431 0.0904299 29.4228C0.826903 29.3299 1.48447 29.13 1.49499 28.2533C1.52421 25.8358 1.53941 23.4183 1.54058 21.0008C1.54058 20.94 1.57097 20.9096 1.63176 20.9096C3.23564 20.9084 4.8325 20.9084 6.42234 20.9096C7.24181 20.9096 7.84677 20.9932 8.23722 21.1603C8.91524 21.4502 9.38869 21.9371 9.65756 22.621C9.80953 23.0068 9.88669 23.6445 9.88902 24.5341C9.89136 26.6418 9.89253 28.7553 9.89253 30.8747C9.89253 30.9098 9.875 30.9273 9.83993 30.9273H7.39203C7.33241 30.9273 7.3026 30.8975 7.3026 30.8379C7.30377 28.5841 7.3102 26.3349 7.32189 24.0904C7.3254 23.2511 6.90982 22.8343 6.07515 22.8402C5.46025 22.8437 4.84653 22.853 4.23397 22.8682C4.17318 22.8694 4.14278 22.9004 4.14278 22.9612Z" fill="#555555"/>
<path d="M13.6746 20.9588C13.75 21.8549 13.8657 22.7334 13.8692 23.6154C13.8751 26.02 13.8751 28.4287 13.8692 30.8416C13.868 30.8988 13.8394 30.9275 13.7833 30.9275H11.3792C11.3184 30.9275 11.2881 30.8971 11.2881 30.8363C11.2904 28.3756 11.2898 25.916 11.2863 23.4576C11.2863 22.6387 11.1688 21.8145 11.0829 20.9869C11.077 20.9343 11.101 20.908 11.1548 20.908H13.6167C13.6518 20.908 13.6711 20.9249 13.6746 20.9588Z" fill="#555555"/>
<path d="M21.6689 22.9403C21.5029 23.5306 21.4175 24.2934 21.4129 25.2286C21.4035 27.1037 21.4017 28.9753 21.4076 30.8433C21.4076 30.8652 21.3989 30.8861 21.3835 30.9016C21.368 30.9171 21.347 30.9257 21.3252 30.9257L18.9159 30.9275C18.8457 30.9275 18.8106 30.893 18.8106 30.824C18.8188 28.8823 18.8218 26.9447 18.8194 25.0112C18.8194 24.1964 18.9445 23.5096 19.1947 22.9508C19.2216 22.89 19.2017 22.8596 19.135 22.8596H14.9249C14.8653 22.8596 14.8354 22.8298 14.8354 22.7702V20.9904C14.8366 20.9378 14.8635 20.9115 14.9161 20.9115L23.0033 20.908C23.0547 20.908 23.0804 20.9337 23.0804 20.9851L23.0839 22.7719C23.0839 22.8304 23.0547 22.8596 22.9963 22.8596H21.7758C21.7197 22.8596 21.6841 22.8865 21.6689 22.9403Z" fill="#555555"/>
<path d="M26.5577 20.906C26.5788 20.906 26.5905 20.9165 26.5928 20.9376C26.7261 22.0107 26.8102 23.0137 26.812 24.1465C26.812 26.3758 26.8108 28.6051 26.8085 30.8344C26.8085 30.8963 26.7781 30.9273 26.7173 30.9273H24.3132C24.2536 30.9273 24.2238 30.8981 24.2238 30.8396C24.2203 28.456 24.2203 26.0736 24.2238 23.6923C24.2256 22.7875 24.1063 21.8932 24.0187 20.9832C24.014 20.9317 24.0374 20.906 24.0888 20.906H26.5577Z" fill="#555555"/>
<path d="M33.1877 20.8973C35.154 20.8879 36.3873 21.8272 36.8876 23.7152C36.9694 24.0226 36.9829 24.7456 36.9279 25.8843C36.8286 27.9569 35.8437 29.3813 33.9733 30.1575C32.4664 30.7818 30.8585 31.0828 29.1494 31.0606C29.0909 31.0594 29.0582 31.0296 29.0512 30.9712L27.8711 20.9815C27.8652 20.9335 27.8863 20.9096 27.9342 20.9096C29.6959 20.9107 31.4471 20.9066 33.1877 20.8973ZM33.6261 27.8955C34.452 26.9662 34.5186 25.4091 34.3608 24.1763C34.2474 23.2984 33.7471 22.8583 32.8598 22.856C32.1783 22.8548 31.4891 22.8577 30.7924 22.8647C30.734 22.8659 30.7077 22.8951 30.7135 22.9524L31.3027 28.6899C31.3085 28.7425 31.3378 28.7694 31.3904 28.7705C32.3454 28.7916 33.0907 28.4999 33.6261 27.8955Z" fill="#555555"/>
<path d="M38.0485 20.9797C38.0438 20.9329 38.0654 20.9095 38.1134 20.9095L40.5472 20.906C40.6174 20.906 40.6554 20.9411 40.6612 21.0112C40.8214 22.9179 40.8593 24.8286 40.7752 26.7434C40.7728 26.8124 40.7372 26.8527 40.6682 26.8644L38.3536 27.2607C38.2881 27.2712 38.2554 27.2438 38.2554 27.1783C38.2507 25.9076 38.249 24.6404 38.2501 23.3767C38.2501 22.5946 38.1169 21.7933 38.0485 20.9797Z" fill="#555555"/>
<path d="M15.4229 8.16171L10.4009 5.32805C13.065 3.82705 15.7345 2.32838 18.4091 0.83206C19.0457 0.476098 19.819 0.35686 19.8225 1.34408C19.8271 2.67441 19.8283 3.99422 19.826 5.3035C19.8255 5.42224 19.7936 5.53868 19.7335 5.64095C19.6734 5.74322 19.5873 5.82766 19.484 5.88566L15.4229 8.16171Z" fill="#555555"/>
<path d="M26.3565 8.15649L31.3697 10.9937C28.6109 12.5438 25.8678 14.0921 23.1405 15.6387C22.8623 15.7965 22.6238 15.8474 22.4251 15.7913C22.106 15.7024 21.9458 15.4581 21.9446 15.0583C21.9411 13.7139 21.9417 12.3748 21.9464 11.041C21.947 10.9122 21.9817 10.7858 22.047 10.6749C22.1124 10.564 22.2059 10.4725 22.3181 10.4097L26.3565 8.15649Z" fill="#555555"/>
</svg>
